<?xml version="1.0" encoding="utf-8" standalone="no"?>
<!DOCTYPE svg PUBLIC "-//W3C//DTD SVG 1.1//EN"
  "http://www.w3.org/Graphics/SVG/1.1/DTD/svg11.dtd">
<svg xmlns:xlink="http://www.w3.org/1999/xlink" width="1132.030781pt" height="412.762969pt" viewBox="0 0 1132.030781 412.762969" xmlns="http://www.w3.org/2000/svg" version="1.1">
 <metadata>
  <rdf:RDF xmlns:dc="http://purl.org/dc/elements/1.1/" xmlns:cc="http://creativecommons.org/ns#" xmlns:rdf="http://www.w3.org/1999/02/22-rdf-syntax-ns#">
   <cc:Work>
    <dc:type rdf:resource="http://purl.org/dc/dcmitype/StillImage"/>
    <dc:date>2024-04-20T15:08:49.643180</dc:date>
    <dc:format>image/svg+xml</dc:format>
    <dc:creator>
     <cc:Agent>
      <dc:title>Matplotlib v3.8.2, https://matplotlib.org/</dc:title>
     </cc:Agent>
    </dc:creator>
   </cc:Work>
  </rdf:RDF>
 </metadata>
 <defs>
  <style type="text/css">*{stroke-linejoin: round; stroke-linecap: butt}</style>
 </defs>
 <g id="figure_1">
  <g id="patch_1">
   <path d="M 0 412.762969 
L 1132.030781 412.762969 
L 1132.030781 0 
L 0 0 
z
" style="fill: #ffffff"/>
  </g>
  <g id="axes_1">
   <g id="patch_2">
    <path d="M 59.032813 177.03875 
L 1073.956563 177.03875 
L 1073.956563 25.69875 
L 59.032813 25.69875 
z
" style="fill: #ffffff"/>
   </g>
   <g id="matplotlib.axis_1">
    <g id="xtick_1">
     <g id="line2d_1">
      <path d="M 160.747515 177.03875 
L 160.747515 25.69875 
" clip-path="url(#pdc2bebfc50)" style="fill: none; stroke: #b0b0b0; stroke-opacity: 0.5; stroke-width: 0.8; stroke-linecap: square"/>
     </g>
     <g id="line2d_2">
      <defs>
       <path id="m672d4d7162" d="M 0 0 
L 0 3.5 
" style="stroke: #000000; stroke-width: 0.8"/>
      </defs>
      <g>
       <use xlink:href="#m672d4d7162" x="160.747515" y="177.03875" style="stroke: #000000; stroke-width: 0.8"/>
      </g>
     </g>
     <g id="text_1">
      <!-- Jan 01 -->
      <g transform="translate(141.374077 194.454375) scale(0.15 -0.15)">
       <defs>
        <path id="TimesNewRomanPSMT-4a" d="M 638 4122 
L 638 4238 
L 2453 4238 
L 2453 4122 
L 2300 4122 
Q 2041 4122 1922 3969 
Q 1847 3869 1847 3488 
L 1847 1416 
Q 1847 938 1742 641 
Q 1638 344 1381 123 
Q 1125 -97 763 -97 
Q 469 -97 300 48 
Q 131 194 131 381 
Q 131 534 209 613 
Q 313 709 450 709 
Q 550 709 629 643 
Q 709 578 831 294 
Q 903 125 1016 125 
Q 1100 125 1173 228 
Q 1247 331 1247 594 
L 1247 3488 
Q 1247 3809 1206 3913 
Q 1175 3991 1075 4047 
Q 941 4122 791 4122 
L 638 4122 
z
" transform="scale(0.015625)"/>
        <path id="TimesNewRomanPSMT-61" d="M 1822 413 
Q 1381 72 1269 19 
Q 1100 -59 909 -59 
Q 613 -59 420 144 
Q 228 347 228 678 
Q 228 888 322 1041 
Q 450 1253 767 1440 
Q 1084 1628 1822 1897 
L 1822 2009 
Q 1822 2438 1686 2597 
Q 1550 2756 1291 2756 
Q 1094 2756 978 2650 
Q 859 2544 859 2406 
L 866 2225 
Q 866 2081 792 2003 
Q 719 1925 600 1925 
Q 484 1925 411 2006 
Q 338 2088 338 2228 
Q 338 2497 613 2722 
Q 888 2947 1384 2947 
Q 1766 2947 2009 2819 
Q 2194 2722 2281 2516 
Q 2338 2381 2338 1966 
L 2338 994 
Q 2338 584 2353 492 
Q 2369 400 2405 369 
Q 2441 338 2488 338 
Q 2538 338 2575 359 
Q 2641 400 2828 588 
L 2828 413 
Q 2478 -56 2159 -56 
Q 2006 -56 1915 50 
Q 1825 156 1822 413 
z
M 1822 616 
L 1822 1706 
Q 1350 1519 1213 1441 
Q 966 1303 859 1153 
Q 753 1003 753 825 
Q 753 600 887 451 
Q 1022 303 1197 303 
Q 1434 303 1822 616 
z
" transform="scale(0.015625)"/>
        <path id="TimesNewRomanPSMT-6e" d="M 1034 2341 
Q 1538 2947 1994 2947 
Q 2228 2947 2397 2830 
Q 2566 2713 2666 2444 
Q 2734 2256 2734 1869 
L 2734 647 
Q 2734 375 2778 278 
Q 2813 200 2889 156 
Q 2966 113 3172 113 
L 3172 0 
L 1756 0 
L 1756 113 
L 1816 113 
Q 2016 113 2095 173 
Q 2175 234 2206 353 
Q 2219 400 2219 647 
L 2219 1819 
Q 2219 2209 2117 2386 
Q 2016 2563 1775 2563 
Q 1403 2563 1034 2156 
L 1034 647 
Q 1034 356 1069 288 
Q 1113 197 1189 155 
Q 1266 113 1500 113 
L 1500 0 
L 84 0 
L 84 113 
L 147 113 
Q 366 113 442 223 
Q 519 334 519 647 
L 519 1709 
Q 519 2225 495 2337 
Q 472 2450 423 2490 
Q 375 2531 294 2531 
Q 206 2531 84 2484 
L 38 2597 
L 900 2947 
L 1034 2947 
L 1034 2341 
z
" transform="scale(0.015625)"/>
        <path id="TimesNewRomanPSMT-20" transform="scale(0.015625)"/>
        <path id="TimesNewRomanPSMT-30" d="M 231 2094 
Q 231 2819 450 3342 
Q 669 3866 1031 4122 
Q 1313 4325 1613 4325 
Q 2100 4325 2488 3828 
Q 2972 3213 2972 2159 
Q 2972 1422 2759 906 
Q 2547 391 2217 158 
Q 1888 -75 1581 -75 
Q 975 -75 572 641 
Q 231 1244 231 2094 
z
M 844 2016 
Q 844 1141 1059 588 
Q 1238 122 1591 122 
Q 1759 122 1940 273 
Q 2122 425 2216 781 
Q 2359 1319 2359 2297 
Q 2359 3022 2209 3506 
Q 2097 3866 1919 4016 
Q 1791 4119 1609 4119 
Q 1397 4119 1231 3928 
Q 1006 3669 925 3112 
Q 844 2556 844 2016 
z
" transform="scale(0.015625)"/>
        <path id="TimesNewRomanPSMT-31" d="M 750 3822 
L 1781 4325 
L 1884 4325 
L 1884 747 
Q 1884 391 1914 303 
Q 1944 216 2037 169 
Q 2131 122 2419 116 
L 2419 0 
L 825 0 
L 825 116 
Q 1125 122 1212 167 
Q 1300 213 1334 289 
Q 1369 366 1369 747 
L 1369 3034 
Q 1369 3497 1338 3628 
Q 1316 3728 1258 3775 
Q 1200 3822 1119 3822 
Q 1003 3822 797 3725 
L 750 3822 
z
" transform="scale(0.015625)"/>
       </defs>
       <use xlink:href="#TimesNewRomanPSMT-4a"/>
       <use xlink:href="#TimesNewRomanPSMT-61" x="38.916016"/>
       <use xlink:href="#TimesNewRomanPSMT-6e" x="83.300781"/>
       <use xlink:href="#TimesNewRomanPSMT-20" x="133.300781"/>
       <use xlink:href="#TimesNewRomanPSMT-30" x="158.300781"/>
       <use xlink:href="#TimesNewRomanPSMT-31" x="208.300781"/>
      </g>
     </g>
    </g>
    <g id="xtick_2">
     <g id="line2d_3">
      <path d="M 294.143845 177.03875 
L 294.143845 25.69875 
" clip-path="url(#pdc2bebfc50)" style="fill: none; stroke: #b0b0b0; stroke-opacity: 0.5; stroke-width: 0.8; stroke-linecap: square"/>
     </g>
     <g id="line2d_4">
      <g>
       <use xlink:href="#m672d4d7162" x="294.143845" y="177.03875" style="stroke: #000000; stroke-width: 0.8"/>
      </g>
     </g>
     <g id="text_2">
      <!-- Jan 02 -->
      <g transform="translate(274.770408 194.454375) scale(0.15 -0.15)">
       <defs>
        <path id="TimesNewRomanPSMT-32" d="M 2934 816 
L 2638 0 
L 138 0 
L 138 116 
Q 1241 1122 1691 1759 
Q 2141 2397 2141 2925 
Q 2141 3328 1894 3587 
Q 1647 3847 1303 3847 
Q 991 3847 742 3664 
Q 494 3481 375 3128 
L 259 3128 
Q 338 3706 661 4015 
Q 984 4325 1469 4325 
Q 1984 4325 2329 3994 
Q 2675 3663 2675 3213 
Q 2675 2891 2525 2569 
Q 2294 2063 1775 1497 
Q 997 647 803 472 
L 1909 472 
Q 2247 472 2383 497 
Q 2519 522 2628 598 
Q 2738 675 2819 816 
L 2934 816 
z
" transform="scale(0.015625)"/>
       </defs>
       <use xlink:href="#TimesNewRomanPSMT-4a"/>
       <use xlink:href="#TimesNewRomanPSMT-61" x="38.916016"/>
       <use xlink:href="#TimesNewRomanPSMT-6e" x="83.300781"/>
       <use xlink:href="#TimesNewRomanPSMT-20" x="133.300781"/>
       <use xlink:href="#TimesNewRomanPSMT-30" x="158.300781"/>
       <use xlink:href="#TimesNewRomanPSMT-32" x="208.300781"/>
      </g>
     </g>
    </g>
    <g id="xtick_3">
     <g id="line2d_5">
      <path d="M 427.540176 177.03875 
L 427.540176 25.69875 
" clip-path="url(#pdc2bebfc50)" style="fill: none; stroke: #b0b0b0; stroke-opacity: 0.5; stroke-width: 0.8; stroke-linecap: square"/>
     </g>
     <g id="line2d_6">
      <g>
       <use xlink:href="#m672d4d7162" x="427.540176" y="177.03875" style="stroke: #000000; stroke-width: 0.8"/>
      </g>
     </g>
     <g id="text_3">
      <!-- Jan 03 -->
      <g transform="translate(408.166739 194.454375) scale(0.15 -0.15)">
       <defs>
        <path id="TimesNewRomanPSMT-33" d="M 325 3431 
Q 506 3859 782 4092 
Q 1059 4325 1472 4325 
Q 1981 4325 2253 3994 
Q 2459 3747 2459 3466 
Q 2459 3003 1878 2509 
Q 2269 2356 2469 2072 
Q 2669 1788 2669 1403 
Q 2669 853 2319 450 
Q 1863 -75 997 -75 
Q 569 -75 414 31 
Q 259 138 259 259 
Q 259 350 332 419 
Q 406 488 509 488 
Q 588 488 669 463 
Q 722 447 909 348 
Q 1097 250 1169 231 
Q 1284 197 1416 197 
Q 1734 197 1970 444 
Q 2206 691 2206 1028 
Q 2206 1275 2097 1509 
Q 2016 1684 1919 1775 
Q 1784 1900 1550 2001 
Q 1316 2103 1072 2103 
L 972 2103 
L 972 2197 
Q 1219 2228 1467 2375 
Q 1716 2522 1828 2728 
Q 1941 2934 1941 3181 
Q 1941 3503 1739 3701 
Q 1538 3900 1238 3900 
Q 753 3900 428 3381 
L 325 3431 
z
" transform="scale(0.015625)"/>
       </defs>
       <use xlink:href="#TimesNewRomanPSMT-4a"/>
       <use xlink:href="#TimesNewRomanPSMT-61" x="38.916016"/>
       <use xlink:href="#TimesNewRomanPSMT-6e" x="83.300781"/>
       <use xlink:href="#TimesNewRomanPSMT-20" x="133.300781"/>
       <use xlink:href="#TimesNewRomanPSMT-30" x="158.300781"/>
       <use xlink:href="#TimesNewRomanPSMT-33" x="208.300781"/>
      </g>
     </g>
    </g>
    <g id="xtick_4">
     <g id="line2d_7">
      <path d="M 560.936507 177.03875 
L 560.936507 25.69875 
" clip-path="url(#pdc2bebfc50)" style="fill: none; stroke: #b0b0b0; stroke-opacity: 0.5; stroke-width: 0.8; stroke-linecap: square"/>
     </g>
     <g id="line2d_8">
      <g>
       <use xlink:href="#m672d4d7162" x="560.936507" y="177.03875" style="stroke: #000000; stroke-width: 0.8"/>
      </g>
     </g>
     <g id="text_4">
      <!-- Jan 04 -->
      <g transform="translate(541.56307 194.454375) scale(0.15 -0.15)">
       <defs>
        <path id="TimesNewRomanPSMT-34" d="M 2978 1563 
L 2978 1119 
L 2409 1119 
L 2409 0 
L 1894 0 
L 1894 1119 
L 100 1119 
L 100 1519 
L 2066 4325 
L 2409 4325 
L 2409 1563 
L 2978 1563 
z
M 1894 1563 
L 1894 3666 
L 406 1563 
L 1894 1563 
z
" transform="scale(0.015625)"/>
       </defs>
       <use xlink:href="#TimesNewRomanPSMT-4a"/>
       <use xlink:href="#TimesNewRomanPSMT-61" x="38.916016"/>
       <use xlink:href="#TimesNewRomanPSMT-6e" x="83.300781"/>
       <use xlink:href="#TimesNewRomanPSMT-20" x="133.300781"/>
       <use xlink:href="#TimesNewRomanPSMT-30" x="158.300781"/>
       <use xlink:href="#TimesNewRomanPSMT-34" x="208.300781"/>
      </g>
     </g>
    </g>
    <g id="xtick_5">
     <g id="line2d_9">
      <path d="M 694.332838 177.03875 
L 694.332838 25.69875 
" clip-path="url(#pdc2bebfc50)" style="fill: none; stroke: #b0b0b0; stroke-opacity: 0.5; stroke-width: 0.8; stroke-linecap: square"/>
     </g>
     <g id="line2d_10">
      <g>
       <use xlink:href="#m672d4d7162" x="694.332838" y="177.03875" style="stroke: #000000; stroke-width: 0.8"/>
      </g>
     </g>
     <g id="text_5">
      <!-- Jan 05 -->
      <g transform="translate(674.9594 194.454375) scale(0.15 -0.15)">
       <defs>
        <path id="TimesNewRomanPSMT-35" d="M 2778 4238 
L 2534 3706 
L 1259 3706 
L 981 3138 
Q 1809 3016 2294 2522 
Q 2709 2097 2709 1522 
Q 2709 1188 2573 903 
Q 2438 619 2231 419 
Q 2025 219 1772 97 
Q 1413 -75 1034 -75 
Q 653 -75 479 54 
Q 306 184 306 341 
Q 306 428 378 495 
Q 450 563 559 563 
Q 641 563 702 538 
Q 763 513 909 409 
Q 1144 247 1384 247 
Q 1750 247 2026 523 
Q 2303 800 2303 1197 
Q 2303 1581 2056 1914 
Q 1809 2247 1375 2428 
Q 1034 2569 447 2591 
L 1259 4238 
L 2778 4238 
z
" transform="scale(0.015625)"/>
       </defs>
       <use xlink:href="#TimesNewRomanPSMT-4a"/>
       <use xlink:href="#TimesNewRomanPSMT-61" x="38.916016"/>
       <use xlink:href="#TimesNewRomanPSMT-6e" x="83.300781"/>
       <use xlink:href="#TimesNewRomanPSMT-20" x="133.300781"/>
       <use xlink:href="#TimesNewRomanPSMT-30" x="158.300781"/>
       <use xlink:href="#TimesNewRomanPSMT-35" x="208.300781"/>
      </g>
     </g>
    </g>
    <g id="xtick_6">
     <g id="line2d_11">
      <path d="M 827.729169 177.03875 
L 827.729169 25.69875 
" clip-path="url(#pdc2bebfc50)" style="fill: none; stroke: #b0b0b0; stroke-opacity: 0.5; stroke-width: 0.8; stroke-linecap: square"/>
     </g>
     <g id="line2d_12">
      <g>
       <use xlink:href="#m672d4d7162" x="827.729169" y="177.03875" style="stroke: #000000; stroke-width: 0.8"/>
      </g>
     </g>
     <g id="text_6">
      <!-- Jan 06 -->
      <g transform="translate(808.355731 194.454375) scale(0.15 -0.15)">
       <defs>
        <path id="TimesNewRomanPSMT-36" d="M 2869 4325 
L 2869 4209 
Q 2456 4169 2195 4045 
Q 1934 3922 1679 3669 
Q 1425 3416 1258 3105 
Q 1091 2794 978 2366 
Q 1428 2675 1881 2675 
Q 2316 2675 2634 2325 
Q 2953 1975 2953 1425 
Q 2953 894 2631 456 
Q 2244 -75 1606 -75 
Q 1172 -75 869 213 
Q 275 772 275 1663 
Q 275 2231 503 2743 
Q 731 3256 1154 3653 
Q 1578 4050 1965 4187 
Q 2353 4325 2688 4325 
L 2869 4325 
z
M 925 2138 
Q 869 1716 869 1456 
Q 869 1156 980 804 
Q 1091 453 1309 247 
Q 1469 100 1697 100 
Q 1969 100 2183 356 
Q 2397 613 2397 1088 
Q 2397 1622 2184 2012 
Q 1972 2403 1581 2403 
Q 1463 2403 1327 2353 
Q 1191 2303 925 2138 
z
" transform="scale(0.015625)"/>
       </defs>
       <use xlink:href="#TimesNewRomanPSMT-4a"/>
       <use xlink:href="#TimesNewRomanPSMT-61" x="38.916016"/>
       <use xlink:href="#TimesNewRomanPSMT-6e" x="83.300781"/>
       <use xlink:href="#TimesNewRomanPSMT-20" x="133.300781"/>
       <use xlink:href="#TimesNewRomanPSMT-30" x="158.300781"/>
       <use xlink:href="#TimesNewRomanPSMT-36" x="208.300781"/>
      </g>
     </g>
    </g>
    <g id="xtick_7">
     <g id="line2d_13">
      <path d="M 961.125499 177.03875 
L 961.125499 25.69875 
" clip-path="url(#pdc2bebfc50)" style="fill: none; stroke: #b0b0b0; stroke-opacity: 0.5; stroke-width: 0.8; stroke-linecap: square"/>
     </g>
     <g id="line2d_14">
      <g>
       <use xlink:href="#m672d4d7162" x="961.125499" y="177.03875" style="stroke: #000000; stroke-width: 0.8"/>
      </g>
     </g>
     <g id="text_7">
      <!-- Jan 07 -->
      <g transform="translate(941.752062 194.454375) scale(0.15 -0.15)">
       <defs>
        <path id="TimesNewRomanPSMT-37" d="M 644 4238 
L 2916 4238 
L 2916 4119 
L 1503 -88 
L 1153 -88 
L 2419 3728 
L 1253 3728 
Q 900 3728 750 3644 
Q 488 3500 328 3200 
L 238 3234 
L 644 4238 
z
" transform="scale(0.015625)"/>
       </defs>
       <use xlink:href="#TimesNewRomanPSMT-4a"/>
       <use xlink:href="#TimesNewRomanPSMT-61" x="38.916016"/>
       <use xlink:href="#TimesNewRomanPSMT-6e" x="83.300781"/>
       <use xlink:href="#TimesNewRomanPSMT-20" x="133.300781"/>
       <use xlink:href="#TimesNewRomanPSMT-30" x="158.300781"/>
       <use xlink:href="#TimesNewRomanPSMT-37" x="208.300781"/>
      </g>
     </g>
    </g>
   </g>
   <g id="matplotlib.axis_2">
    <g id="ytick_1">
     <g id="line2d_15">
      <path d="M 59.032813 154.753316 
L 1073.956563 154.753316 
" clip-path="url(#pdc2bebfc50)" style="fill: none; stroke: #b0b0b0; stroke-opacity: 0.5; stroke-width: 0.8; stroke-linecap: square"/>
     </g>
     <g id="line2d_16">
      <defs>
       <path id="m7f78d2a4b0" d="M 0 0 
L -3.5 0 
" style="stroke: #000000; stroke-width: 0.8"/>
      </defs>
      <g>
       <use xlink:href="#m7f78d2a4b0" x="59.032813" y="154.753316" style="stroke: #000000; stroke-width: 0.8"/>
      </g>
     </g>
     <g id="text_8">
      <!-- −5.0 -->
      <g transform="translate(24.824219 159.961129) scale(0.15 -0.15)">
       <defs>
        <path id="TimesNewRomanPSMT-2212" d="M 3484 2000 
L 116 2000 
L 116 2256 
L 3484 2256 
L 3484 2000 
z
" transform="scale(0.015625)"/>
        <path id="TimesNewRomanPSMT-2e" d="M 800 606 
Q 947 606 1047 504 
Q 1147 403 1147 259 
Q 1147 116 1045 14 
Q 944 -88 800 -88 
Q 656 -88 554 14 
Q 453 116 453 259 
Q 453 406 554 506 
Q 656 606 800 606 
z
" transform="scale(0.015625)"/>
       </defs>
       <use xlink:href="#TimesNewRomanPSMT-2212"/>
       <use xlink:href="#TimesNewRomanPSMT-35" x="56.396484"/>
       <use xlink:href="#TimesNewRomanPSMT-2e" x="106.396484"/>
       <use xlink:href="#TimesNewRomanPSMT-30" x="131.396484"/>
      </g>
     </g>
    </g>
    <g id="ytick_2">
     <g id="line2d_17">
      <path d="M 59.032813 118.328257 
L 1073.956563 118.328257 
" clip-path="url(#pdc2bebfc50)" style="fill: none; stroke: #b0b0b0; stroke-opacity: 0.5; stroke-width: 0.8; stroke-linecap: square"/>
     </g>
     <g id="line2d_18">
      <g>
       <use xlink:href="#m7f78d2a4b0" x="59.032813" y="118.328257" style="stroke: #000000; stroke-width: 0.8"/>
      </g>
     </g>
     <g id="text_9">
      <!-- −2.5 -->
      <g transform="translate(24.824219 123.53607) scale(0.15 -0.15)">
       <use xlink:href="#TimesNewRomanPSMT-2212"/>
       <use xlink:href="#TimesNewRomanPSMT-32" x="56.396484"/>
       <use xlink:href="#TimesNewRomanPSMT-2e" x="106.396484"/>
       <use xlink:href="#TimesNewRomanPSMT-35" x="131.396484"/>
      </g>
     </g>
    </g>
    <g id="ytick_3">
     <g id="line2d_19">
      <path d="M 59.032813 81.903199 
L 1073.956563 81.903199 
" clip-path="url(#pdc2bebfc50)" style="fill: none; stroke: #b0b0b0; stroke-opacity: 0.5; stroke-width: 0.8; stroke-linecap: square"/>
     </g>
     <g id="line2d_20">
      <g>
       <use xlink:href="#m7f78d2a4b0" x="59.032813" y="81.903199" style="stroke: #000000; stroke-width: 0.8"/>
      </g>
     </g>
     <g id="text_10">
      <!-- 0.0 -->
      <g transform="translate(33.282813 87.111011) scale(0.15 -0.15)">
       <use xlink:href="#TimesNewRomanPSMT-30"/>
       <use xlink:href="#TimesNewRomanPSMT-2e" x="50"/>
       <use xlink:href="#TimesNewRomanPSMT-30" x="75"/>
      </g>
     </g>
    </g>
    <g id="ytick_4">
     <g id="line2d_21">
      <path d="M 59.032813 45.47814 
L 1073.956563 45.47814 
" clip-path="url(#pdc2bebfc50)" style="fill: none; stroke: #b0b0b0; stroke-opacity: 0.5; stroke-width: 0.8; stroke-linecap: square"/>
     </g>
     <g id="line2d_22">
      <g>
       <use xlink:href="#m7f78d2a4b0" x="59.032813" y="45.47814" style="stroke: #000000; stroke-width: 0.8"/>
      </g>
     </g>
     <g id="text_11">
      <!-- 2.5 -->
      <g transform="translate(33.282813 50.685952) scale(0.15 -0.15)">
       <use xlink:href="#TimesNewRomanPSMT-32"/>
       <use xlink:href="#TimesNewRomanPSMT-2e" x="50"/>
       <use xlink:href="#TimesNewRomanPSMT-35" x="75"/>
      </g>
     </g>
    </g>
    <g id="text_12">
     <!-- Temperature (°C) -->
     <g transform="translate(17.615625 154.024609) rotate(-90) scale(0.15 -0.15)">
      <defs>
       <path id="TimesNewRomanPSMT-54" d="M 3703 4238 
L 3750 3244 
L 3631 3244 
Q 3597 3506 3538 3619 
Q 3441 3800 3280 3886 
Q 3119 3972 2856 3972 
L 2259 3972 
L 2259 734 
Q 2259 344 2344 247 
Q 2463 116 2709 116 
L 2856 116 
L 2856 0 
L 1059 0 
L 1059 116 
L 1209 116 
Q 1478 116 1591 278 
Q 1659 378 1659 734 
L 1659 3972 
L 1150 3972 
Q 853 3972 728 3928 
Q 566 3869 450 3700 
Q 334 3531 313 3244 
L 194 3244 
L 244 4238 
L 3703 4238 
z
" transform="scale(0.015625)"/>
       <path id="TimesNewRomanPSMT-65" d="M 681 1784 
Q 678 1147 991 784 
Q 1303 422 1725 422 
Q 2006 422 2214 576 
Q 2422 731 2563 1106 
L 2659 1044 
Q 2594 616 2278 264 
Q 1963 -88 1488 -88 
Q 972 -88 605 314 
Q 238 716 238 1394 
Q 238 2128 614 2539 
Q 991 2950 1559 2950 
Q 2041 2950 2350 2633 
Q 2659 2316 2659 1784 
L 681 1784 
z
M 681 1966 
L 2006 1966 
Q 1991 2241 1941 2353 
Q 1863 2528 1708 2628 
Q 1553 2728 1384 2728 
Q 1125 2728 920 2526 
Q 716 2325 681 1966 
z
" transform="scale(0.015625)"/>
       <path id="TimesNewRomanPSMT-6d" d="M 1050 2338 
Q 1363 2650 1419 2697 
Q 1559 2816 1721 2881 
Q 1884 2947 2044 2947 
Q 2313 2947 2506 2790 
Q 2700 2634 2766 2338 
Q 3088 2713 3309 2830 
Q 3531 2947 3766 2947 
Q 3994 2947 4170 2830 
Q 4347 2713 4450 2447 
Q 4519 2266 4519 1878 
L 4519 647 
Q 4519 378 4559 278 
Q 4591 209 4675 161 
Q 4759 113 4950 113 
L 4950 0 
L 3538 0 
L 3538 113 
L 3597 113 
Q 3781 113 3884 184 
Q 3956 234 3988 344 
Q 4000 397 4000 647 
L 4000 1878 
Q 4000 2228 3916 2372 
Q 3794 2572 3525 2572 
Q 3359 2572 3192 2489 
Q 3025 2406 2788 2181 
L 2781 2147 
L 2788 2013 
L 2788 647 
Q 2788 353 2820 281 
Q 2853 209 2943 161 
Q 3034 113 3253 113 
L 3253 0 
L 1806 0 
L 1806 113 
Q 2044 113 2133 169 
Q 2222 225 2256 338 
Q 2272 391 2272 647 
L 2272 1878 
Q 2272 2228 2169 2381 
Q 2031 2581 1784 2581 
Q 1616 2581 1450 2491 
Q 1191 2353 1050 2181 
L 1050 647 
Q 1050 366 1089 281 
Q 1128 197 1204 155 
Q 1281 113 1516 113 
L 1516 0 
L 100 0 
L 100 113 
Q 297 113 375 155 
Q 453 197 493 289 
Q 534 381 534 647 
L 534 1741 
Q 534 2213 506 2350 
Q 484 2453 437 2492 
Q 391 2531 309 2531 
Q 222 2531 100 2484 
L 53 2597 
L 916 2947 
L 1050 2947 
L 1050 2338 
z
" transform="scale(0.015625)"/>
       <path id="TimesNewRomanPSMT-70" d="M -6 2578 
L 875 2934 
L 994 2934 
L 994 2266 
Q 1216 2644 1439 2795 
Q 1663 2947 1909 2947 
Q 2341 2947 2628 2609 
Q 2981 2197 2981 1534 
Q 2981 794 2556 309 
Q 2206 -88 1675 -88 
Q 1444 -88 1275 -22 
Q 1150 25 994 166 
L 994 -706 
Q 994 -1000 1030 -1079 
Q 1066 -1159 1155 -1206 
Q 1244 -1253 1478 -1253 
L 1478 -1369 
L -22 -1369 
L -22 -1253 
L 56 -1253 
Q 228 -1256 350 -1188 
Q 409 -1153 442 -1076 
Q 475 -1000 475 -688 
L 475 2019 
Q 475 2297 450 2372 
Q 425 2447 370 2484 
Q 316 2522 222 2522 
Q 147 2522 31 2478 
L -6 2578 
z
M 994 2081 
L 994 1013 
Q 994 666 1022 556 
Q 1066 375 1236 237 
Q 1406 100 1666 100 
Q 1978 100 2172 344 
Q 2425 663 2425 1241 
Q 2425 1897 2138 2250 
Q 1938 2494 1663 2494 
Q 1513 2494 1366 2419 
Q 1253 2363 994 2081 
z
" transform="scale(0.015625)"/>
       <path id="TimesNewRomanPSMT-72" d="M 1038 2947 
L 1038 2303 
Q 1397 2947 1775 2947 
Q 1947 2947 2059 2842 
Q 2172 2738 2172 2600 
Q 2172 2478 2090 2393 
Q 2009 2309 1897 2309 
Q 1788 2309 1652 2417 
Q 1516 2525 1450 2525 
Q 1394 2525 1328 2463 
Q 1188 2334 1038 2041 
L 1038 669 
Q 1038 431 1097 309 
Q 1138 225 1241 169 
Q 1344 113 1538 113 
L 1538 0 
L 72 0 
L 72 113 
Q 291 113 397 181 
Q 475 231 506 341 
Q 522 394 522 644 
L 522 1753 
Q 522 2253 501 2348 
Q 481 2444 426 2487 
Q 372 2531 291 2531 
Q 194 2531 72 2484 
L 41 2597 
L 906 2947 
L 1038 2947 
z
" transform="scale(0.015625)"/>
       <path id="TimesNewRomanPSMT-74" d="M 1031 3803 
L 1031 2863 
L 1700 2863 
L 1700 2644 
L 1031 2644 
L 1031 788 
Q 1031 509 1111 412 
Q 1191 316 1316 316 
Q 1419 316 1516 380 
Q 1613 444 1666 569 
L 1788 569 
Q 1678 263 1478 108 
Q 1278 -47 1066 -47 
Q 922 -47 784 33 
Q 647 113 581 261 
Q 516 409 516 719 
L 516 2644 
L 63 2644 
L 63 2747 
Q 234 2816 414 2980 
Q 594 3144 734 3369 
Q 806 3488 934 3803 
L 1031 3803 
z
" transform="scale(0.015625)"/>
       <path id="TimesNewRomanPSMT-75" d="M 2709 2863 
L 2709 1128 
Q 2709 631 2732 520 
Q 2756 409 2807 365 
Q 2859 322 2928 322 
Q 3025 322 3147 375 
L 3191 266 
L 2334 -88 
L 2194 -88 
L 2194 519 
Q 1825 119 1631 15 
Q 1438 -88 1222 -88 
Q 981 -88 804 51 
Q 628 191 559 409 
Q 491 628 491 1028 
L 491 2306 
Q 491 2509 447 2587 
Q 403 2666 317 2708 
Q 231 2750 6 2747 
L 6 2863 
L 1009 2863 
L 1009 947 
Q 1009 547 1148 422 
Q 1288 297 1484 297 
Q 1619 297 1789 381 
Q 1959 466 2194 703 
L 2194 2325 
Q 2194 2569 2105 2655 
Q 2016 2741 1734 2747 
L 1734 2863 
L 2709 2863 
z
" transform="scale(0.015625)"/>
       <path id="TimesNewRomanPSMT-28" d="M 1988 -1253 
L 1988 -1369 
Q 1516 -1131 1200 -813 
Q 750 -359 506 256 
Q 263 872 263 1534 
Q 263 2503 741 3301 
Q 1219 4100 1988 4444 
L 1988 4313 
Q 1603 4100 1356 3731 
Q 1109 3363 987 2797 
Q 866 2231 866 1616 
Q 866 947 969 400 
Q 1050 -31 1165 -292 
Q 1281 -553 1476 -793 
Q 1672 -1034 1988 -1253 
z
" transform="scale(0.015625)"/>
       <path id="TimesNewRomanPSMT-b0" d="M 1266 4331 
Q 1669 4331 1948 4050 
Q 2228 3769 2228 3369 
Q 2228 2972 1947 2690 
Q 1666 2409 1266 2409 
Q 869 2409 587 2690 
Q 306 2972 306 3369 
Q 306 3769 586 4050 
Q 866 4331 1266 4331 
z
M 1266 4069 
Q 975 4069 772 3866 
Q 569 3663 569 3372 
Q 569 3084 772 2879 
Q 975 2675 1266 2675 
Q 1553 2675 1758 2879 
Q 1963 3084 1963 3372 
Q 1963 3663 1759 3866 
Q 1556 4069 1266 4069 
z
" transform="scale(0.015625)"/>
       <path id="TimesNewRomanPSMT-43" d="M 3853 4334 
L 3950 2894 
L 3853 2894 
Q 3659 3541 3300 3825 
Q 2941 4109 2438 4109 
Q 2016 4109 1675 3895 
Q 1334 3681 1139 3212 
Q 944 2744 944 2047 
Q 944 1472 1128 1050 
Q 1313 628 1683 403 
Q 2053 178 2528 178 
Q 2941 178 3256 354 
Q 3572 531 3950 1056 
L 4047 994 
Q 3728 428 3303 165 
Q 2878 -97 2294 -97 
Q 1241 -97 663 684 
Q 231 1266 231 2053 
Q 231 2688 515 3219 
Q 800 3750 1298 4042 
Q 1797 4334 2388 4334 
Q 2847 4334 3294 4109 
Q 3425 4041 3481 4041 
Q 3566 4041 3628 4100 
Q 3709 4184 3744 4334 
L 3853 4334 
z
" transform="scale(0.015625)"/>
       <path id="TimesNewRomanPSMT-29" d="M 144 4313 
L 144 4444 
Q 619 4209 934 3891 
Q 1381 3434 1625 2820 
Q 1869 2206 1869 1541 
Q 1869 572 1392 -226 
Q 916 -1025 144 -1369 
L 144 -1253 
Q 528 -1038 776 -670 
Q 1025 -303 1145 264 
Q 1266 831 1266 1447 
Q 1266 2113 1163 2663 
Q 1084 3094 967 3353 
Q 850 3613 656 3853 
Q 463 4094 144 4313 
z
" transform="scale(0.015625)"/>
      </defs>
      <use xlink:href="#TimesNewRomanPSMT-54"/>
      <use xlink:href="#TimesNewRomanPSMT-65" x="54.083984"/>
      <use xlink:href="#TimesNewRomanPSMT-6d" x="98.46875"/>
      <use xlink:href="#TimesNewRomanPSMT-70" x="176.251953"/>
      <use xlink:href="#TimesNewRomanPSMT-65" x="226.251953"/>
      <use xlink:href="#TimesNewRomanPSMT-72" x="270.636719"/>
      <use xlink:href="#TimesNewRomanPSMT-61" x="303.9375"/>
      <use xlink:href="#TimesNewRomanPSMT-74" x="348.322266"/>
      <use xlink:href="#TimesNewRomanPSMT-75" x="376.105469"/>
      <use xlink:href="#TimesNewRomanPSMT-72" x="426.105469"/>
      <use xlink:href="#TimesNewRomanPSMT-65" x="459.40625"/>
      <use xlink:href="#TimesNewRomanPSMT-20" x="503.791016"/>
      <use xlink:href="#TimesNewRomanPSMT-28" x="528.791016"/>
      <use xlink:href="#TimesNewRomanPSMT-b0" x="562.091797"/>
      <use xlink:href="#TimesNewRomanPSMT-43" x="602.082031"/>
      <use xlink:href="#TimesNewRomanPSMT-29" x="668.78125"/>
     </g>
    </g>
   </g>
   <g id="line2d_23">
    <path d="M 105.16571 60.410957 
L 110.723891 63.708153 
L 116.282071 61.532849 
L 121.840252 60.795605 
L 127.398432 62.771301 
L 132.956612 64.53136 
L 138.514793 65.149129 
L 144.072973 65.376421 
L 149.631154 64.095716 
L 155.189334 60.515861 
L 160.747515 54.616458 
L 166.305695 53.112832 
L 171.863876 53.885043 
L 177.422056 57.90637 
L 182.980237 62.962168 
L 188.538417 72.703686 
L 194.096597 79.043103 
L 199.654778 83.561267 
L 205.212958 85.490338 
L 210.771139 88.147911 
L 216.329319 98.033672 
L 221.8875 97.442129 
L 227.44568 106.00056 
L 233.003861 117.797909 
L 238.562041 117.612869 
L 244.120221 114.365211 
L 249.678402 109.184111 
L 255.236582 105.506637 
L 260.794763 105.634853 
L 266.352943 105.330339 
L 271.911124 100.510576 
L 277.469304 101.90347 
L 283.027485 96.095858 
L 288.585665 86.947341 
L 294.143845 73.028597 
L 299.702026 70.388509 
L 305.260206 66.259364 
L 310.818387 67.373971 
L 316.376567 72.324865 
L 321.934748 83.178076 
L 327.492928 94.478586 
L 333.051109 101.731544 
L 338.609289 104.714027 
L 344.16747 108.679988 
L 349.72565 107.821813 
L 360.842011 108.446867 
L 366.400191 107.422595 
L 371.958372 110.42402 
L 377.516552 112.369118 
L 383.074733 114.194742 
L 388.632913 130.313559 
L 394.191094 135.462605 
L 399.749274 145.79858 
L 405.307454 159.160748 
L 410.865635 170.159659 
L 416.423815 148.00011 
L 421.981996 95.328018 
L 427.540176 57.121046 
L 433.098357 41.143558 
L 438.656537 33.019313 
L 444.214718 32.577841 
L 449.772898 39.437408 
L 455.331079 50.558707 
L 460.889259 64.696001 
L 466.447439 74.332614 
L 472.00562 79.592393 
L 477.5638 82.413149 
L 483.121981 83.338346 
L 488.680161 83.908034 
L 494.238342 87.505373 
L 499.796522 90.531566 
L 505.354703 94.520839 
L 510.912883 100.076389 
L 516.471063 104.951519 
L 522.029244 108.729526 
L 527.587424 112.297725 
L 533.145605 118.777014 
L 538.703785 118.801783 
L 544.261966 119.839169 
L 549.820146 106.0399 
L 555.378327 89.237748 
L 560.936507 74.876076 
L 566.494687 64.701829 
L 572.052868 62.453674 
L 577.611048 65.086477 
L 583.169229 68.491492 
L 588.727409 80.771108 
L 599.84377 97.200266 
L 605.401951 104.113742 
L 610.960131 108.633364 
L 616.518312 113.667307 
L 622.076492 117.727972 
L 627.634672 123.912947 
L 633.192853 129.2922 
L 638.751033 132.165409 
L 644.309214 135.216372 
L 649.867394 142.966167 
L 655.425575 142.170644 
L 660.983755 144.576155 
L 666.541936 150.730533 
L 672.100116 148.132698 
L 677.658296 148.233231 
L 683.216477 143.454263 
L 688.774657 133.518964 
L 699.891018 107.73585 
L 705.449199 110.505612 
L 711.007379 116.12527 
L 716.56556 120.503562 
L 722.12374 123.159677 
L 727.681921 122.748803 
L 733.240101 120.574955 
L 738.798281 117.439486 
L 744.356462 116.103415 
L 749.914642 122.877019 
L 755.472823 123.859038 
L 761.031003 124.368989 
L 766.589184 123.513729 
L 772.147364 123.448164 
L 777.705545 124.795891 
L 783.263725 124.433097 
L 794.380086 120.98583 
L 799.938266 115.297692 
L 805.496447 112.310838 
L 811.054627 107.93546 
L 816.612808 102.066654 
L 822.170988 100.771379 
L 833.287349 91.267353 
L 838.84553 88.491763 
L 844.40371 87.082842 
L 849.96189 83.736108 
L 855.520071 80.717199 
L 861.078251 78.090223 
L 866.636432 73.178668 
L 872.194612 70.008231 
L 877.752793 64.754281 
L 883.310973 60.999586 
L 888.869154 56.989915 
L 894.427334 56.481422 
L 899.985514 59.450792 
L 905.543695 63.279794 
L 911.101875 74.28599 
L 916.660056 80.262614 
L 922.218236 84.445668 
L 927.776417 84.356791 
L 933.334597 79.595307 
L 938.892778 88.191621 
L 944.450958 87.626304 
L 950.009138 82.829852 
L 955.567319 73.350595 
L 961.125499 64.1132 
L 966.68368 57.639738 
L 972.24186 56.175451 
L 977.800041 52.755866 
L 983.358221 45.673378 
L 988.916402 47.018191 
L 994.474582 53.150714 
L 1000.032763 50.434862 
L 1005.590943 41.424759 
L 1011.149123 41.335882 
L 1016.707304 47.912791 
L 1022.265484 49.569402 
L 1027.823665 34.837652 
L 1027.823665 34.837652 
" clip-path="url(#pdc2bebfc50)" style="fill: none; stroke: #000000; stroke-width: 1.5; stroke-linecap: square"/>
   </g>
   <g id="patch_3">
    <path d="M 59.032813 177.03875 
L 59.032813 25.69875 
" style="fill: none; stroke: #000000; stroke-width: 0.8; stroke-linejoin: miter; stroke-linecap: square"/>
   </g>
   <g id="patch_4">
    <path d="M 1073.956563 177.03875 
L 1073.956563 25.69875 
" style="fill: none; stroke: #000000; stroke-width: 0.8; stroke-linejoin: miter; stroke-linecap: square"/>
   </g>
   <g id="patch_5">
    <path d="M 59.032812 177.03875 
L 1073.956563 177.03875 
" style="fill: none; stroke: #000000; stroke-width: 0.8; stroke-linejoin: miter; stroke-linecap: square"/>
   </g>
   <g id="patch_6">
    <path d="M 59.032812 25.69875 
L 1073.956563 25.69875 
" style="fill: none; stroke: #000000; stroke-width: 0.8; stroke-linejoin: miter; stroke-linecap: square"/>
   </g>
   <g id="text_13">
    <!-- Model 1: Winter Week -->
    <g transform="translate(484.667813 19.69875) scale(0.18 -0.18)">
     <defs>
      <path id="TimesNewRomanPSMT-4d" d="M 2619 0 
L 981 3566 
L 981 734 
Q 981 344 1066 247 
Q 1181 116 1431 116 
L 1581 116 
L 1581 0 
L 106 0 
L 106 116 
L 256 116 
Q 525 116 638 278 
Q 706 378 706 734 
L 706 3503 
Q 706 3784 644 3909 
Q 600 4000 483 4061 
Q 366 4122 106 4122 
L 106 4238 
L 1306 4238 
L 2844 922 
L 4356 4238 
L 5556 4238 
L 5556 4122 
L 5409 4122 
Q 5138 4122 5025 3959 
Q 4956 3859 4956 3503 
L 4956 734 
Q 4956 344 5044 247 
Q 5159 116 5409 116 
L 5556 116 
L 5556 0 
L 3756 0 
L 3756 116 
L 3906 116 
Q 4178 116 4288 278 
Q 4356 378 4356 734 
L 4356 3566 
L 2722 0 
L 2619 0 
z
" transform="scale(0.015625)"/>
      <path id="TimesNewRomanPSMT-6f" d="M 1600 2947 
Q 2250 2947 2644 2453 
Q 2978 2031 2978 1484 
Q 2978 1100 2793 706 
Q 2609 313 2286 112 
Q 1963 -88 1566 -88 
Q 919 -88 538 428 
Q 216 863 216 1403 
Q 216 1797 411 2186 
Q 606 2575 925 2761 
Q 1244 2947 1600 2947 
z
M 1503 2744 
Q 1338 2744 1170 2645 
Q 1003 2547 900 2300 
Q 797 2053 797 1666 
Q 797 1041 1045 587 
Q 1294 134 1700 134 
Q 2003 134 2200 384 
Q 2397 634 2397 1244 
Q 2397 2006 2069 2444 
Q 1847 2744 1503 2744 
z
" transform="scale(0.015625)"/>
      <path id="TimesNewRomanPSMT-64" d="M 2222 322 
Q 2013 103 1813 7 
Q 1613 -88 1381 -88 
Q 913 -88 563 304 
Q 213 697 213 1313 
Q 213 1928 600 2439 
Q 988 2950 1597 2950 
Q 1975 2950 2222 2709 
L 2222 3238 
Q 2222 3728 2198 3840 
Q 2175 3953 2125 3993 
Q 2075 4034 2000 4034 
Q 1919 4034 1784 3984 
L 1744 4094 
L 2597 4444 
L 2738 4444 
L 2738 1134 
Q 2738 631 2761 520 
Q 2784 409 2836 365 
Q 2888 322 2956 322 
Q 3041 322 3181 375 
L 3216 266 
L 2366 -88 
L 2222 -88 
L 2222 322 
z
M 2222 541 
L 2222 2016 
Q 2203 2228 2109 2403 
Q 2016 2578 1861 2667 
Q 1706 2756 1559 2756 
Q 1284 2756 1069 2509 
Q 784 2184 784 1559 
Q 784 928 1059 592 
Q 1334 256 1672 256 
Q 1956 256 2222 541 
z
" transform="scale(0.015625)"/>
      <path id="TimesNewRomanPSMT-6c" d="M 1184 4444 
L 1184 647 
Q 1184 378 1223 290 
Q 1263 203 1344 158 
Q 1425 113 1647 113 
L 1647 0 
L 244 0 
L 244 113 
Q 441 113 512 153 
Q 584 194 625 287 
Q 666 381 666 647 
L 666 3247 
Q 666 3731 644 3842 
Q 622 3953 573 3993 
Q 525 4034 450 4034 
Q 369 4034 244 3984 
L 191 4094 
L 1044 4444 
L 1184 4444 
z
" transform="scale(0.015625)"/>
      <path id="TimesNewRomanPSMT-3a" d="M 903 2950 
Q 1047 2950 1148 2848 
Q 1250 2747 1250 2603 
Q 1250 2459 1148 2357 
Q 1047 2256 903 2256 
Q 759 2256 657 2357 
Q 556 2459 556 2603 
Q 556 2747 657 2848 
Q 759 2950 903 2950 
z
M 897 609 
Q 1044 609 1145 506 
Q 1247 403 1247 259 
Q 1247 116 1144 14 
Q 1041 -88 897 -88 
Q 753 -88 651 14 
Q 550 116 550 259 
Q 550 403 651 506 
Q 753 609 897 609 
z
" transform="scale(0.015625)"/>
      <path id="TimesNewRomanPSMT-57" d="M 5991 4238 
L 5991 4122 
Q 5825 4122 5722 4062 
Q 5619 4003 5525 3841 
Q 5463 3731 5328 3319 
L 4147 -97 
L 4022 -97 
L 3056 2613 
L 2097 -97 
L 1984 -97 
L 725 3422 
Q 584 3816 547 3888 
Q 484 4006 376 4064 
Q 269 4122 84 4122 
L 84 4238 
L 1653 4238 
L 1653 4122 
L 1578 4122 
Q 1413 4122 1325 4047 
Q 1238 3972 1238 3866 
Q 1238 3756 1375 3363 
L 2209 984 
L 2913 3006 
L 2788 3363 
L 2688 3647 
Q 2622 3803 2541 3922 
Q 2500 3981 2441 4022 
Q 2363 4078 2284 4103 
Q 2225 4122 2097 4122 
L 2097 4238 
L 3747 4238 
L 3747 4122 
L 3634 4122 
Q 3459 4122 3378 4047 
Q 3297 3972 3297 3844 
Q 3297 3684 3438 3288 
L 4250 984 
L 5056 3319 
Q 5194 3706 5194 3856 
Q 5194 3928 5148 3990 
Q 5103 4053 5034 4078 
Q 4916 4122 4725 4122 
L 4725 4238 
L 5991 4238 
z
" transform="scale(0.015625)"/>
      <path id="TimesNewRomanPSMT-69" d="M 928 4444 
Q 1059 4444 1151 4351 
Q 1244 4259 1244 4128 
Q 1244 3997 1151 3903 
Q 1059 3809 928 3809 
Q 797 3809 703 3903 
Q 609 3997 609 4128 
Q 609 4259 701 4351 
Q 794 4444 928 4444 
z
M 1188 2947 
L 1188 647 
Q 1188 378 1227 289 
Q 1266 200 1342 156 
Q 1419 113 1622 113 
L 1622 0 
L 231 0 
L 231 113 
Q 441 113 512 153 
Q 584 194 626 287 
Q 669 381 669 647 
L 669 1750 
Q 669 2216 641 2353 
Q 619 2453 572 2492 
Q 525 2531 444 2531 
Q 356 2531 231 2484 
L 188 2597 
L 1050 2947 
L 1188 2947 
z
" transform="scale(0.015625)"/>
      <path id="TimesNewRomanPSMT-6b" d="M 1047 4444 
L 1047 1597 
L 1775 2259 
Q 2006 2472 2044 2528 
Q 2069 2566 2069 2603 
Q 2069 2666 2017 2711 
Q 1966 2756 1847 2763 
L 1847 2863 
L 3091 2863 
L 3091 2763 
Q 2834 2756 2664 2684 
Q 2494 2613 2291 2428 
L 1556 1750 
L 2291 822 
Q 2597 438 2703 334 
Q 2853 188 2966 144 
Q 3044 113 3238 113 
L 3238 0 
L 1847 0 
L 1847 113 
Q 1966 116 2008 148 
Q 2050 181 2050 241 
Q 2050 313 1925 472 
L 1047 1594 
L 1047 644 
Q 1047 366 1086 278 
Q 1125 191 1197 153 
Q 1269 116 1509 113 
L 1509 0 
L 53 0 
L 53 113 
Q 272 113 381 166 
Q 447 200 481 272 
Q 528 375 528 628 
L 528 3234 
Q 528 3731 506 3842 
Q 484 3953 434 3995 
Q 384 4038 303 4038 
Q 238 4038 106 3984 
L 53 4094 
L 903 4444 
L 1047 4444 
z
" transform="scale(0.015625)"/>
     </defs>
     <use xlink:href="#TimesNewRomanPSMT-4d"/>
     <use xlink:href="#TimesNewRomanPSMT-6f" x="88.916016"/>
     <use xlink:href="#TimesNewRomanPSMT-64" x="138.916016"/>
     <use xlink:href="#TimesNewRomanPSMT-65" x="188.916016"/>
     <use xlink:href="#TimesNewRomanPSMT-6c" x="233.300781"/>
     <use xlink:href="#TimesNewRomanPSMT-20" x="261.083984"/>
     <use xlink:href="#TimesNewRomanPSMT-31" x="286.083984"/>
     <use xlink:href="#TimesNewRomanPSMT-3a" x="336.083984"/>
     <use xlink:href="#TimesNewRomanPSMT-20" x="363.867188"/>
     <use xlink:href="#TimesNewRomanPSMT-57" x="387.117188"/>
     <use xlink:href="#TimesNewRomanPSMT-69" x="477.501953"/>
     <use xlink:href="#TimesNewRomanPSMT-6e" x="505.285156"/>
     <use xlink:href="#TimesNewRomanPSMT-74" x="555.285156"/>
     <use xlink:href="#TimesNewRomanPSMT-65" x="583.068359"/>
     <use xlink:href="#TimesNewRomanPSMT-72" x="627.453125"/>
     <use xlink:href="#TimesNewRomanPSMT-20" x="660.753906"/>
     <use xlink:href="#TimesNewRomanPSMT-57" x="684.003906"/>
     <use xlink:href="#TimesNewRomanPSMT-65" x="770.388672"/>
     <use xlink:href="#TimesNewRomanPSMT-65" x="814.773438"/>
     <use xlink:href="#TimesNewRomanPSMT-6b" x="859.158203"/>
    </g>
   </g>
   <g id="legend_1">
    <g id="patch_7">
     <path d="M 69.532813 58.907344 
L 193.102344 58.907344 
Q 196.102344 58.907344 196.102344 55.907344 
L 196.102344 36.19875 
Q 196.102344 33.19875 193.102344 33.19875 
L 69.532813 33.19875 
Q 66.532813 33.19875 66.532813 36.19875 
L 66.532813 55.907344 
Q 66.532813 58.907344 69.532813 58.907344 
z
" style="fill: #ffffff; opacity: 0.8; stroke: #cccccc; stroke-linejoin: miter"/>
    </g>
    <g id="line2d_24">
     <path d="M 72.532813 44.44875 
L 87.532813 44.44875 
L 102.532813 44.44875 
" style="fill: none; stroke: #000000; stroke-width: 1.5; stroke-linecap: square"/>
    </g>
    <g id="text_14">
     <!-- Temperature -->
     <g transform="translate(114.532813 49.69875) scale(0.15 -0.15)">
      <use xlink:href="#TimesNewRomanPSMT-54"/>
      <use xlink:href="#TimesNewRomanPSMT-65" x="54.083984"/>
      <use xlink:href="#TimesNewRomanPSMT-6d" x="98.46875"/>
      <use xlink:href="#TimesNewRomanPSMT-70" x="176.251953"/>
      <use xlink:href="#TimesNewRomanPSMT-65" x="226.251953"/>
      <use xlink:href="#TimesNewRomanPSMT-72" x="270.636719"/>
      <use xlink:href="#TimesNewRomanPSMT-61" x="303.9375"/>
      <use xlink:href="#TimesNewRomanPSMT-74" x="348.322266"/>
      <use xlink:href="#TimesNewRomanPSMT-75" x="376.105469"/>
      <use xlink:href="#TimesNewRomanPSMT-72" x="426.105469"/>
      <use xlink:href="#TimesNewRomanPSMT-65" x="459.40625"/>
     </g>
    </g>
   </g>
  </g>
  <g id="axes_2">
   <g id="matplotlib.axis_3">
    <g id="ytick_5">
     <g id="line2d_25">
      <defs>
       <path id="m560d3c5e61" d="M 0 0 
L 3.5 0 
" style="stroke: #000000; stroke-width: 0.8"/>
      </defs>
      <g>
       <use xlink:href="#m560d3c5e61" x="1073.956563" y="144.874616" style="stroke: #000000; stroke-width: 0.8"/>
      </g>
     </g>
     <g id="text_15">
      <!-- 25.0 -->
      <g transform="translate(1080.956563 150.082429) scale(0.15 -0.15)">
       <use xlink:href="#TimesNewRomanPSMT-32"/>
       <use xlink:href="#TimesNewRomanPSMT-35" x="50"/>
       <use xlink:href="#TimesNewRomanPSMT-2e" x="100"/>
       <use xlink:href="#TimesNewRomanPSMT-30" x="125"/>
      </g>
     </g>
    </g>
    <g id="ytick_6">
     <g id="line2d_26">
      <g>
       <use xlink:href="#m560d3c5e61" x="1073.956563" y="111.827706" style="stroke: #000000; stroke-width: 0.8"/>
      </g>
     </g>
     <g id="text_16">
      <!-- 27.5 -->
      <g transform="translate(1080.956563 117.035518) scale(0.15 -0.15)">
       <use xlink:href="#TimesNewRomanPSMT-32"/>
       <use xlink:href="#TimesNewRomanPSMT-37" x="50"/>
       <use xlink:href="#TimesNewRomanPSMT-2e" x="100"/>
       <use xlink:href="#TimesNewRomanPSMT-35" x="125"/>
      </g>
     </g>
    </g>
    <g id="ytick_7">
     <g id="line2d_27">
      <g>
       <use xlink:href="#m560d3c5e61" x="1073.956563" y="78.780796" style="stroke: #000000; stroke-width: 0.8"/>
      </g>
     </g>
     <g id="text_17">
      <!-- 30.0 -->
      <g transform="translate(1080.956563 83.988608) scale(0.15 -0.15)">
       <use xlink:href="#TimesNewRomanPSMT-33"/>
       <use xlink:href="#TimesNewRomanPSMT-30" x="50"/>
       <use xlink:href="#TimesNewRomanPSMT-2e" x="100"/>
       <use xlink:href="#TimesNewRomanPSMT-30" x="125"/>
      </g>
     </g>
    </g>
    <g id="ytick_8">
     <g id="line2d_28">
      <g>
       <use xlink:href="#m560d3c5e61" x="1073.956563" y="45.733886" style="stroke: #000000; stroke-width: 0.8"/>
      </g>
     </g>
     <g id="text_18">
      <!-- 32.5 -->
      <g transform="translate(1080.956563 50.941698) scale(0.15 -0.15)">
       <use xlink:href="#TimesNewRomanPSMT-33"/>
       <use xlink:href="#TimesNewRomanPSMT-32" x="50"/>
       <use xlink:href="#TimesNewRomanPSMT-2e" x="100"/>
       <use xlink:href="#TimesNewRomanPSMT-35" x="125"/>
      </g>
     </g>
    </g>
    <g id="text_19">
     <!-- Demand (MW) -->
     <g transform="translate(1121.622188 147.395312) rotate(-90) scale(0.15 -0.15)">
      <defs>
       <path id="TimesNewRomanPSMT-44" d="M 109 0 
L 109 116 
L 269 116 
Q 538 116 650 288 
Q 719 391 719 750 
L 719 3488 
Q 719 3884 631 3984 
Q 509 4122 269 4122 
L 109 4122 
L 109 4238 
L 1834 4238 
Q 2784 4238 3279 4022 
Q 3775 3806 4076 3303 
Q 4378 2800 4378 2141 
Q 4378 1256 3841 663 
Q 3238 0 2003 0 
L 109 0 
z
M 1319 306 
Q 1716 219 1984 219 
Q 2709 219 3187 728 
Q 3666 1238 3666 2109 
Q 3666 2988 3187 3494 
Q 2709 4000 1959 4000 
Q 1678 4000 1319 3909 
L 1319 306 
z
" transform="scale(0.015625)"/>
      </defs>
      <use xlink:href="#TimesNewRomanPSMT-44"/>
      <use xlink:href="#TimesNewRomanPSMT-65" x="72.216797"/>
      <use xlink:href="#TimesNewRomanPSMT-6d" x="116.601562"/>
      <use xlink:href="#TimesNewRomanPSMT-61" x="194.384766"/>
      <use xlink:href="#TimesNewRomanPSMT-6e" x="238.769531"/>
      <use xlink:href="#TimesNewRomanPSMT-64" x="288.769531"/>
      <use xlink:href="#TimesNewRomanPSMT-20" x="338.769531"/>
      <use xlink:href="#TimesNewRomanPSMT-28" x="363.769531"/>
      <use xlink:href="#TimesNewRomanPSMT-4d" x="397.070312"/>
      <use xlink:href="#TimesNewRomanPSMT-57" x="485.986328"/>
      <use xlink:href="#TimesNewRomanPSMT-29" x="580.371094"/>
     </g>
    </g>
   </g>
   <g id="line2d_29">
    <path d="M 105.16571 142.326543 
L 110.723891 139.029347 
L 116.282071 141.204651 
L 121.840252 141.941895 
L 127.398432 139.966199 
L 132.956612 138.20614 
L 138.514793 137.588371 
L 144.072973 137.361079 
L 149.631154 138.641784 
L 155.189334 142.221639 
L 160.747515 148.121042 
L 166.305695 149.624668 
L 171.863876 148.852457 
L 177.422056 144.83113 
L 182.980237 139.775332 
L 188.538417 130.033814 
L 194.096597 123.694397 
L 199.654778 119.176233 
L 205.212958 117.247162 
L 210.771139 114.589589 
L 216.329319 104.703828 
L 221.8875 105.295371 
L 227.44568 96.73694 
L 233.003861 84.939591 
L 238.562041 85.124631 
L 244.120221 88.372289 
L 249.678402 93.553389 
L 255.236582 97.230863 
L 260.794763 97.102647 
L 266.352943 97.407161 
L 271.911124 102.226924 
L 277.469304 100.83403 
L 283.027485 106.641642 
L 288.585665 115.790159 
L 294.143845 129.708903 
L 299.702026 132.348991 
L 305.260206 136.478136 
L 310.818387 135.363529 
L 316.376567 130.412635 
L 321.934748 119.559424 
L 327.492928 108.258914 
L 333.051109 101.005956 
L 338.609289 98.023473 
L 344.16747 94.057512 
L 349.72565 94.915687 
L 360.842011 94.290633 
L 366.400191 95.314905 
L 371.958372 92.31348 
L 377.516552 90.368382 
L 383.074733 88.542758 
L 388.632913 72.423941 
L 394.191094 67.274895 
L 399.749274 56.93892 
L 405.307454 43.576752 
L 410.865635 32.577841 
L 416.423815 54.73739 
L 421.981996 107.409482 
L 427.540176 145.616454 
L 433.098357 161.593942 
L 438.656537 169.718187 
L 444.214718 170.159659 
L 449.772898 163.300092 
L 455.331079 152.178793 
L 460.889259 138.041499 
L 466.447439 128.404886 
L 472.00562 123.145107 
L 477.5638 120.324351 
L 483.121981 119.399154 
L 488.680161 118.829466 
L 494.238342 115.232127 
L 499.796522 112.205934 
L 505.354703 108.216661 
L 510.912883 102.661111 
L 516.471063 97.785981 
L 522.029244 94.007974 
L 527.587424 90.439775 
L 533.145605 83.960486 
L 538.703785 83.935717 
L 544.261966 82.898331 
L 549.820146 96.6976 
L 555.378327 113.499752 
L 560.936507 127.861424 
L 566.494687 138.035671 
L 572.052868 140.283826 
L 577.611048 137.651023 
L 583.169229 134.246008 
L 588.727409 121.966392 
L 599.84377 105.537234 
L 605.401951 98.623758 
L 610.960131 94.104136 
L 616.518312 89.070193 
L 622.076492 85.009528 
L 627.634672 78.824553 
L 633.192853 73.4453 
L 638.751033 70.572091 
L 644.309214 67.521128 
L 649.867394 59.771333 
L 655.425575 60.566856 
L 660.983755 58.161345 
L 666.541936 52.006967 
L 672.100116 54.604802 
L 677.658296 54.504269 
L 683.216477 59.283237 
L 688.774657 69.218536 
L 699.891018 95.00165 
L 705.449199 92.231888 
L 711.007379 86.61223 
L 716.56556 82.233938 
L 722.12374 79.577823 
L 727.681921 79.988697 
L 733.240101 82.162545 
L 738.798281 85.298014 
L 744.356462 86.634085 
L 749.914642 79.860481 
L 755.472823 78.878462 
L 761.031003 78.368511 
L 766.589184 79.223771 
L 772.147364 79.289336 
L 777.705545 77.941609 
L 783.263725 78.304403 
L 794.380086 81.75167 
L 799.938266 87.439808 
L 805.496447 90.426662 
L 811.054627 94.80204 
L 816.612808 100.670846 
L 822.170988 101.966121 
L 833.287349 111.470147 
L 838.84553 114.245737 
L 844.40371 115.654658 
L 849.96189 119.001392 
L 855.520071 122.020301 
L 861.078251 124.647277 
L 866.636432 129.558832 
L 872.194612 132.729269 
L 877.752793 137.983219 
L 883.310973 141.737914 
L 888.869154 145.747585 
L 894.427334 146.256078 
L 899.985514 143.286708 
L 905.543695 139.457706 
L 911.101875 128.45151 
L 916.660056 122.474886 
L 922.218236 118.291832 
L 927.776417 118.380709 
L 933.334597 123.142193 
L 938.892778 114.545879 
L 944.450958 115.111196 
L 950.009138 119.907648 
L 955.567319 129.386905 
L 961.125499 138.6243 
L 966.68368 145.097762 
L 972.24186 146.562049 
L 977.800041 149.981634 
L 983.358221 157.064122 
L 988.916402 155.719309 
L 994.474582 149.586786 
L 1000.032763 152.302638 
L 1005.590943 161.312741 
L 1011.149123 161.401618 
L 1016.707304 154.824709 
L 1022.265484 153.168098 
L 1027.823665 167.899848 
L 1027.823665 167.899848 
" clip-path="url(#pdc2bebfc50)" style="fill: none; stroke: #ff0000; stroke-width: 1.5; stroke-linecap: square"/>
   </g>
   <g id="patch_8">
    <path d="M 59.032813 177.03875 
L 59.032813 25.69875 
" style="fill: none; stroke: #000000; stroke-width: 0.8; stroke-linejoin: miter; stroke-linecap: square"/>
   </g>
   <g id="patch_9">
    <path d="M 1073.956563 177.03875 
L 1073.956563 25.69875 
" style="fill: none; stroke: #000000; stroke-width: 0.8; stroke-linejoin: miter; stroke-linecap: square"/>
   </g>
   <g id="patch_10">
    <path d="M 59.032812 177.03875 
L 1073.956563 177.03875 
" style="fill: none; stroke: #000000; stroke-width: 0.8; stroke-linejoin: miter; stroke-linecap: square"/>
   </g>
   <g id="patch_11">
    <path d="M 59.032812 25.69875 
L 1073.956563 25.69875 
" style="fill: none; stroke: #000000; stroke-width: 0.8; stroke-linejoin: miter; stroke-linecap: square"/>
   </g>
   <g id="legend_2">
    <g id="patch_12">
     <path d="M 964.639375 58.907344 
L 1063.456563 58.907344 
Q 1066.456563 58.907344 1066.456563 55.907344 
L 1066.456563 36.19875 
Q 1066.456563 33.19875 1063.456563 33.19875 
L 964.639375 33.19875 
Q 961.639375 33.19875 961.639375 36.19875 
L 961.639375 55.907344 
Q 961.639375 58.907344 964.639375 58.907344 
z
" style="fill: #ffffff; opacity: 0.8; stroke: #cccccc; stroke-linejoin: miter"/>
    </g>
    <g id="line2d_30">
     <path d="M 967.639375 44.44875 
L 982.639375 44.44875 
L 997.639375 44.44875 
" style="fill: none; stroke: #ff0000; stroke-width: 1.5; stroke-linecap: square"/>
    </g>
    <g id="text_20">
     <!-- Demand -->
     <g transform="translate(1009.639375 49.69875) scale(0.15 -0.15)">
      <use xlink:href="#TimesNewRomanPSMT-44"/>
      <use xlink:href="#TimesNewRomanPSMT-65" x="72.216797"/>
      <use xlink:href="#TimesNewRomanPSMT-6d" x="116.601562"/>
      <use xlink:href="#TimesNewRomanPSMT-61" x="194.384766"/>
      <use xlink:href="#TimesNewRomanPSMT-6e" x="238.769531"/>
      <use xlink:href="#TimesNewRomanPSMT-64" x="288.769531"/>
     </g>
    </g>
   </g>
  </g>
  <g id="axes_3">
   <g id="patch_13">
    <path d="M 59.032813 384.93875 
L 1073.956563 384.93875 
L 1073.956563 233.59875 
L 59.032813 233.59875 
z
" style="fill: #ffffff"/>
   </g>
   <g id="matplotlib.axis_4">
    <g id="xtick_8">
     <g id="line2d_31">
      <path d="M 160.747515 384.93875 
L 160.747515 233.59875 
" clip-path="url(#p64df069fb1)" style="fill: none; stroke: #b0b0b0; stroke-opacity: 0.5; stroke-width: 0.8; stroke-linecap: square"/>
     </g>
     <g id="line2d_32">
      <g>
       <use xlink:href="#m672d4d7162" x="160.747515" y="384.93875" style="stroke: #000000; stroke-width: 0.8"/>
      </g>
     </g>
     <g id="text_21">
      <!-- Aug 01 -->
      <g transform="translate(138.456108 402.32625) scale(0.15 -0.15)">
       <defs>
        <path id="TimesNewRomanPSMT-41" d="M 2928 1419 
L 1288 1419 
L 1000 750 
Q 894 503 894 381 
Q 894 284 986 211 
Q 1078 138 1384 116 
L 1384 0 
L 50 0 
L 50 116 
Q 316 163 394 238 
Q 553 388 747 847 
L 2238 4334 
L 2347 4334 
L 3822 809 
Q 4000 384 4145 257 
Q 4291 131 4550 116 
L 4550 0 
L 2878 0 
L 2878 116 
Q 3131 128 3220 200 
Q 3309 272 3309 375 
Q 3309 513 3184 809 
L 2928 1419 
z
M 2841 1650 
L 2122 3363 
L 1384 1650 
L 2841 1650 
z
" transform="scale(0.015625)"/>
        <path id="TimesNewRomanPSMT-67" d="M 966 1044 
Q 703 1172 562 1401 
Q 422 1631 422 1909 
Q 422 2334 742 2640 
Q 1063 2947 1563 2947 
Q 1972 2947 2272 2747 
L 2878 2747 
Q 3013 2747 3034 2739 
Q 3056 2731 3066 2713 
Q 3084 2684 3084 2613 
Q 3084 2531 3069 2500 
Q 3059 2484 3036 2475 
Q 3013 2466 2878 2466 
L 2506 2466 
Q 2681 2241 2681 1891 
Q 2681 1491 2375 1206 
Q 2069 922 1553 922 
Q 1341 922 1119 984 
Q 981 866 932 777 
Q 884 688 884 625 
Q 884 572 936 522 
Q 988 472 1138 450 
Q 1225 438 1575 428 
Q 2219 413 2409 384 
Q 2700 344 2873 169 
Q 3047 -6 3047 -263 
Q 3047 -616 2716 -925 
Q 2228 -1381 1444 -1381 
Q 841 -1381 425 -1109 
Q 191 -953 191 -784 
Q 191 -709 225 -634 
Q 278 -519 444 -313 
Q 466 -284 763 25 
Q 600 122 533 198 
Q 466 275 466 372 
Q 466 481 555 628 
Q 644 775 966 1044 
z
M 1509 2797 
Q 1278 2797 1122 2612 
Q 966 2428 966 2047 
Q 966 1553 1178 1281 
Q 1341 1075 1591 1075 
Q 1828 1075 1981 1253 
Q 2134 1431 2134 1813 
Q 2134 2309 1919 2591 
Q 1759 2797 1509 2797 
z
M 934 0 
Q 788 -159 713 -296 
Q 638 -434 638 -550 
Q 638 -700 819 -813 
Q 1131 -1006 1722 -1006 
Q 2284 -1006 2551 -807 
Q 2819 -609 2819 -384 
Q 2819 -222 2659 -153 
Q 2497 -84 2016 -72 
Q 1313 -53 934 0 
z
" transform="scale(0.015625)"/>
       </defs>
       <use xlink:href="#TimesNewRomanPSMT-41"/>
       <use xlink:href="#TimesNewRomanPSMT-75" x="72.216797"/>
       <use xlink:href="#TimesNewRomanPSMT-67" x="122.216797"/>
       <use xlink:href="#TimesNewRomanPSMT-20" x="172.216797"/>
       <use xlink:href="#TimesNewRomanPSMT-30" x="197.216797"/>
       <use xlink:href="#TimesNewRomanPSMT-31" x="247.216797"/>
      </g>
     </g>
    </g>
    <g id="xtick_9">
     <g id="line2d_33">
      <path d="M 294.143845 384.93875 
L 294.143845 233.59875 
" clip-path="url(#p64df069fb1)" style="fill: none; stroke: #b0b0b0; stroke-opacity: 0.5; stroke-width: 0.8; stroke-linecap: square"/>
     </g>
     <g id="line2d_34">
      <g>
       <use xlink:href="#m672d4d7162" x="294.143845" y="384.93875" style="stroke: #000000; stroke-width: 0.8"/>
      </g>
     </g>
     <g id="text_22">
      <!-- Aug 02 -->
      <g transform="translate(271.852439 402.32625) scale(0.15 -0.15)">
       <use xlink:href="#TimesNewRomanPSMT-41"/>
       <use xlink:href="#TimesNewRomanPSMT-75" x="72.216797"/>
       <use xlink:href="#TimesNewRomanPSMT-67" x="122.216797"/>
       <use xlink:href="#TimesNewRomanPSMT-20" x="172.216797"/>
       <use xlink:href="#TimesNewRomanPSMT-30" x="197.216797"/>
       <use xlink:href="#TimesNewRomanPSMT-32" x="247.216797"/>
      </g>
     </g>
    </g>
    <g id="xtick_10">
     <g id="line2d_35">
      <path d="M 427.540176 384.93875 
L 427.540176 233.59875 
" clip-path="url(#p64df069fb1)" style="fill: none; stroke: #b0b0b0; stroke-opacity: 0.5; stroke-width: 0.8; stroke-linecap: square"/>
     </g>
     <g id="line2d_36">
      <g>
       <use xlink:href="#m672d4d7162" x="427.540176" y="384.93875" style="stroke: #000000; stroke-width: 0.8"/>
      </g>
     </g>
     <g id="text_23">
      <!-- Aug 03 -->
      <g transform="translate(405.24877 402.32625) scale(0.15 -0.15)">
       <use xlink:href="#TimesNewRomanPSMT-41"/>
       <use xlink:href="#TimesNewRomanPSMT-75" x="72.216797"/>
       <use xlink:href="#TimesNewRomanPSMT-67" x="122.216797"/>
       <use xlink:href="#TimesNewRomanPSMT-20" x="172.216797"/>
       <use xlink:href="#TimesNewRomanPSMT-30" x="197.216797"/>
       <use xlink:href="#TimesNewRomanPSMT-33" x="247.216797"/>
      </g>
     </g>
    </g>
    <g id="xtick_11">
     <g id="line2d_37">
      <path d="M 560.936507 384.93875 
L 560.936507 233.59875 
" clip-path="url(#p64df069fb1)" style="fill: none; stroke: #b0b0b0; stroke-opacity: 0.5; stroke-width: 0.8; stroke-linecap: square"/>
     </g>
     <g id="line2d_38">
      <g>
       <use xlink:href="#m672d4d7162" x="560.936507" y="384.93875" style="stroke: #000000; stroke-width: 0.8"/>
      </g>
     </g>
     <g id="text_24">
      <!-- Aug 04 -->
      <g transform="translate(538.645101 402.32625) scale(0.15 -0.15)">
       <use xlink:href="#TimesNewRomanPSMT-41"/>
       <use xlink:href="#TimesNewRomanPSMT-75" x="72.216797"/>
       <use xlink:href="#TimesNewRomanPSMT-67" x="122.216797"/>
       <use xlink:href="#TimesNewRomanPSMT-20" x="172.216797"/>
       <use xlink:href="#TimesNewRomanPSMT-30" x="197.216797"/>
       <use xlink:href="#TimesNewRomanPSMT-34" x="247.216797"/>
      </g>
     </g>
    </g>
    <g id="xtick_12">
     <g id="line2d_39">
      <path d="M 694.332838 384.93875 
L 694.332838 233.59875 
" clip-path="url(#p64df069fb1)" style="fill: none; stroke: #b0b0b0; stroke-opacity: 0.5; stroke-width: 0.8; stroke-linecap: square"/>
     </g>
     <g id="line2d_40">
      <g>
       <use xlink:href="#m672d4d7162" x="694.332838" y="384.93875" style="stroke: #000000; stroke-width: 0.8"/>
      </g>
     </g>
     <g id="text_25">
      <!-- Aug 05 -->
      <g transform="translate(672.041432 402.32625) scale(0.15 -0.15)">
       <use xlink:href="#TimesNewRomanPSMT-41"/>
       <use xlink:href="#TimesNewRomanPSMT-75" x="72.216797"/>
       <use xlink:href="#TimesNewRomanPSMT-67" x="122.216797"/>
       <use xlink:href="#TimesNewRomanPSMT-20" x="172.216797"/>
       <use xlink:href="#TimesNewRomanPSMT-30" x="197.216797"/>
       <use xlink:href="#TimesNewRomanPSMT-35" x="247.216797"/>
      </g>
     </g>
    </g>
    <g id="xtick_13">
     <g id="line2d_41">
      <path d="M 827.729169 384.93875 
L 827.729169 233.59875 
" clip-path="url(#p64df069fb1)" style="fill: none; stroke: #b0b0b0; stroke-opacity: 0.5; stroke-width: 0.8; stroke-linecap: square"/>
     </g>
     <g id="line2d_42">
      <g>
       <use xlink:href="#m672d4d7162" x="827.729169" y="384.93875" style="stroke: #000000; stroke-width: 0.8"/>
      </g>
     </g>
     <g id="text_26">
      <!-- Aug 06 -->
      <g transform="translate(805.437762 402.32625) scale(0.15 -0.15)">
       <use xlink:href="#TimesNewRomanPSMT-41"/>
       <use xlink:href="#TimesNewRomanPSMT-75" x="72.216797"/>
       <use xlink:href="#TimesNewRomanPSMT-67" x="122.216797"/>
       <use xlink:href="#TimesNewRomanPSMT-20" x="172.216797"/>
       <use xlink:href="#TimesNewRomanPSMT-30" x="197.216797"/>
       <use xlink:href="#TimesNewRomanPSMT-36" x="247.216797"/>
      </g>
     </g>
    </g>
    <g id="xtick_14">
     <g id="line2d_43">
      <path d="M 961.125499 384.93875 
L 961.125499 233.59875 
" clip-path="url(#p64df069fb1)" style="fill: none; stroke: #b0b0b0; stroke-opacity: 0.5; stroke-width: 0.8; stroke-linecap: square"/>
     </g>
     <g id="line2d_44">
      <g>
       <use xlink:href="#m672d4d7162" x="961.125499" y="384.93875" style="stroke: #000000; stroke-width: 0.8"/>
      </g>
     </g>
     <g id="text_27">
      <!-- Aug 07 -->
      <g transform="translate(938.834093 402.32625) scale(0.15 -0.15)">
       <use xlink:href="#TimesNewRomanPSMT-41"/>
       <use xlink:href="#TimesNewRomanPSMT-75" x="72.216797"/>
       <use xlink:href="#TimesNewRomanPSMT-67" x="122.216797"/>
       <use xlink:href="#TimesNewRomanPSMT-20" x="172.216797"/>
       <use xlink:href="#TimesNewRomanPSMT-30" x="197.216797"/>
       <use xlink:href="#TimesNewRomanPSMT-37" x="247.216797"/>
      </g>
     </g>
    </g>
   </g>
   <g id="matplotlib.axis_5">
    <g id="ytick_9">
     <g id="line2d_45">
      <path d="M 59.032813 380.188713 
L 1073.956563 380.188713 
" clip-path="url(#p64df069fb1)" style="fill: none; stroke: #b0b0b0; stroke-opacity: 0.5; stroke-width: 0.8; stroke-linecap: square"/>
     </g>
     <g id="line2d_46">
      <g>
       <use xlink:href="#m7f78d2a4b0" x="59.032813" y="380.188713" style="stroke: #000000; stroke-width: 0.8"/>
      </g>
     </g>
     <g id="text_28">
      <!-- 15 -->
      <g transform="translate(37.032813 385.396525) scale(0.15 -0.15)">
       <use xlink:href="#TimesNewRomanPSMT-31"/>
       <use xlink:href="#TimesNewRomanPSMT-35" x="50"/>
      </g>
     </g>
    </g>
    <g id="ytick_10">
     <g id="line2d_47">
      <path d="M 59.032813 338.863916 
L 1073.956563 338.863916 
" clip-path="url(#p64df069fb1)" style="fill: none; stroke: #b0b0b0; stroke-opacity: 0.5; stroke-width: 0.8; stroke-linecap: square"/>
     </g>
     <g id="line2d_48">
      <g>
       <use xlink:href="#m7f78d2a4b0" x="59.032813" y="338.863916" style="stroke: #000000; stroke-width: 0.8"/>
      </g>
     </g>
     <g id="text_29">
      <!-- 20 -->
      <g transform="translate(37.032813 344.071729) scale(0.15 -0.15)">
       <use xlink:href="#TimesNewRomanPSMT-32"/>
       <use xlink:href="#TimesNewRomanPSMT-30" x="50"/>
      </g>
     </g>
    </g>
    <g id="ytick_11">
     <g id="line2d_49">
      <path d="M 59.032813 297.53912 
L 1073.956563 297.53912 
" clip-path="url(#p64df069fb1)" style="fill: none; stroke: #b0b0b0; stroke-opacity: 0.5; stroke-width: 0.8; stroke-linecap: square"/>
     </g>
     <g id="line2d_50">
      <g>
       <use xlink:href="#m7f78d2a4b0" x="59.032813" y="297.53912" style="stroke: #000000; stroke-width: 0.8"/>
      </g>
     </g>
     <g id="text_30">
      <!-- 25 -->
      <g transform="translate(37.032813 302.746932) scale(0.15 -0.15)">
       <use xlink:href="#TimesNewRomanPSMT-32"/>
       <use xlink:href="#TimesNewRomanPSMT-35" x="50"/>
      </g>
     </g>
    </g>
    <g id="ytick_12">
     <g id="line2d_51">
      <path d="M 59.032813 256.214323 
L 1073.956563 256.214323 
" clip-path="url(#p64df069fb1)" style="fill: none; stroke: #b0b0b0; stroke-opacity: 0.5; stroke-width: 0.8; stroke-linecap: square"/>
     </g>
     <g id="line2d_52">
      <g>
       <use xlink:href="#m7f78d2a4b0" x="59.032813" y="256.214323" style="stroke: #000000; stroke-width: 0.8"/>
      </g>
     </g>
     <g id="text_31">
      <!-- 30 -->
      <g transform="translate(37.032813 261.422136) scale(0.15 -0.15)">
       <use xlink:href="#TimesNewRomanPSMT-33"/>
       <use xlink:href="#TimesNewRomanPSMT-30" x="50"/>
      </g>
     </g>
    </g>
    <g id="text_32">
     <!-- Temperature (°C) -->
     <g transform="translate(29.824219 361.924609) rotate(-90) scale(0.15 -0.15)">
      <use xlink:href="#TimesNewRomanPSMT-54"/>
      <use xlink:href="#TimesNewRomanPSMT-65" x="54.083984"/>
      <use xlink:href="#TimesNewRomanPSMT-6d" x="98.46875"/>
      <use xlink:href="#TimesNewRomanPSMT-70" x="176.251953"/>
      <use xlink:href="#TimesNewRomanPSMT-65" x="226.251953"/>
      <use xlink:href="#TimesNewRomanPSMT-72" x="270.636719"/>
      <use xlink:href="#TimesNewRomanPSMT-61" x="303.9375"/>
      <use xlink:href="#TimesNewRomanPSMT-74" x="348.322266"/>
      <use xlink:href="#TimesNewRomanPSMT-75" x="376.105469"/>
      <use xlink:href="#TimesNewRomanPSMT-72" x="426.105469"/>
      <use xlink:href="#TimesNewRomanPSMT-65" x="459.40625"/>
      <use xlink:href="#TimesNewRomanPSMT-20" x="503.791016"/>
      <use xlink:href="#TimesNewRomanPSMT-28" x="528.791016"/>
      <use xlink:href="#TimesNewRomanPSMT-b0" x="562.091797"/>
      <use xlink:href="#TimesNewRomanPSMT-43" x="602.082031"/>
      <use xlink:href="#TimesNewRomanPSMT-29" x="668.78125"/>
     </g>
    </g>
   </g>
   <g id="line2d_53">
    <path d="M 105.16571 345.722179 
L 110.723891 349.588527 
L 116.282071 353.105268 
L 121.840252 356.131069 
L 127.398432 359.421349 
L 132.956612 360.386697 
L 138.514793 351.645676 
L 144.072973 330.724584 
L 149.631154 319.320593 
L 155.189334 308.248854 
L 160.747515 299.857441 
L 171.863876 273.522801 
L 177.422056 255.804381 
L 182.980237 247.846052 
L 188.538417 240.516686 
L 194.096597 240.477841 
L 199.654778 250.702422 
L 205.212958 276.908955 
L 210.771139 295.824967 
L 216.329319 308.071157 
L 221.8875 312.526797 
L 227.44568 320.802501 
L 233.003861 320.478514 
L 238.562041 329.982391 
L 244.120221 336.192681 
L 249.678402 339.768103 
L 255.236582 340.234246 
L 260.794763 340.502858 
L 266.352943 342.098821 
L 271.911124 344.173326 
L 277.469304 341.47399 
L 283.027485 336.700976 
L 288.585665 335.717446 
L 294.143845 336.202599 
L 299.702026 328.132693 
L 305.260206 309.86548 
L 310.818387 307.49509 
L 316.376567 303.294011 
L 321.934748 296.807671 
L 327.492928 295.464615 
L 333.051109 289.380778 
L 338.609289 295.798519 
L 344.16747 306.874391 
L 349.72565 327.225201 
L 355.28383 336.705109 
L 360.842011 341.740949 
L 366.400191 345.446956 
L 371.958372 348.744675 
L 377.516552 350.175339 
L 383.074733 350.540651 
L 388.632913 348.481849 
L 394.191094 348.143812 
L 399.749274 346.369326 
L 405.307454 342.512069 
L 410.865635 335.332299 
L 416.423815 319.385887 
L 421.981996 311.166385 
L 427.540176 301.335216 
L 433.098357 296.29607 
L 444.214718 277.451963 
L 449.772898 271.767324 
L 455.331079 270.162269 
L 460.889259 265.38099 
L 466.447439 264.254476 
L 472.00562 273.935223 
L 477.5638 299.654949 
L 483.121981 318.747832 
L 488.680161 329.50137 
L 494.238342 334.983518 
L 499.796522 338.391987 
L 505.354703 342.563312 
L 510.912883 347.054491 
L 516.471063 351.229122 
L 522.029244 354.682222 
L 527.587424 356.993104 
L 533.145605 353.596206 
L 538.703785 347.971075 
L 544.261966 342.91044 
L 549.820146 329.112917 
L 555.378327 309.402642 
L 566.494687 274.288136 
L 572.052868 275.047686 
L 577.611048 275.065869 
L 583.169229 275.195629 
L 588.727409 280.764558 
L 594.28559 275.943608 
L 599.84377 272.802923 
L 605.401951 279.138841 
L 610.960131 292.591715 
L 616.518312 304.40978 
L 622.076492 319.566063 
L 627.634672 331.838701 
L 633.192853 346.099062 
L 638.751033 354.99629 
L 644.309214 357.843569 
L 649.867394 359.191584 
L 655.425575 361.800831 
L 660.983755 362.878582 
L 672.100116 370.126125 
L 677.658296 366.481278 
L 683.216477 359.704838 
L 688.774657 348.643843 
L 694.332838 339.764797 
L 699.891018 325.814372 
L 705.449199 320.723157 
L 711.007379 312.492084 
L 716.56556 309.460497 
L 722.12374 305.325538 
L 727.681921 305.680105 
L 733.240101 305.11974 
L 738.798281 309.602654 
L 744.356462 321.681892 
L 749.914642 328.851745 
L 755.472823 343.288149 
L 761.031003 353.33338 
L 772.147364 360.619769 
L 777.705545 366.685422 
L 783.263725 372.065911 
L 788.821905 374.852028 
L 794.380086 378.059659 
L 799.938266 377.556323 
L 805.496447 368.782242 
L 811.054627 350.756366 
L 816.612808 338.89367 
L 822.170988 325.052343 
L 827.729169 315.739387 
L 833.287349 304.466809 
L 838.84553 293.528962 
L 844.40371 285.521042 
L 849.96189 282.756414 
L 855.520071 279.209093 
L 861.078251 275.008841 
L 866.636432 277.310632 
L 872.194612 296.64981 
L 877.752793 319.977658 
L 883.310973 334.349595 
L 888.869154 342.92697 
L 894.427334 348.96039 
L 899.985514 352.910214 
L 905.543695 353.150725 
L 911.101875 355.836837 
L 916.660056 358.993225 
L 922.218236 362.824033 
L 927.776417 366.509378 
L 933.334597 367.159831 
L 938.892778 353.727619 
L 944.450958 338.464719 
L 950.009138 328.11699 
L 955.567319 317.151868 
L 961.125499 300.070677 
L 966.68368 287.041795 
L 972.24186 277.484196 
L 977.800041 268.673749 
L 983.358221 260.993949 
L 988.916402 257.261494 
L 994.474582 254.548108 
L 1000.032763 260.831956 
L 1005.590943 271.0086 
L 1011.149123 284.384611 
L 1016.707304 302.195598 
L 1022.265484 311.924281 
L 1027.823665 316.540261 
L 1027.823665 316.540261 
" clip-path="url(#p64df069fb1)" style="fill: none; stroke: #000000; stroke-width: 1.5; stroke-linecap: square"/>
   </g>
   <g id="patch_14">
    <path d="M 59.032813 384.93875 
L 59.032813 233.59875 
" style="fill: none; stroke: #000000; stroke-width: 0.8; stroke-linejoin: miter; stroke-linecap: square"/>
   </g>
   <g id="patch_15">
    <path d="M 1073.956563 384.93875 
L 1073.956563 233.59875 
" style="fill: none; stroke: #000000; stroke-width: 0.8; stroke-linejoin: miter; stroke-linecap: square"/>
   </g>
   <g id="patch_16">
    <path d="M 59.032812 384.93875 
L 1073.956563 384.93875 
" style="fill: none; stroke: #000000; stroke-width: 0.8; stroke-linejoin: miter; stroke-linecap: square"/>
   </g>
   <g id="patch_17">
    <path d="M 59.032812 233.59875 
L 1073.956563 233.59875 
" style="fill: none; stroke: #000000; stroke-width: 0.8; stroke-linejoin: miter; stroke-linecap: square"/>
   </g>
   <g id="text_33">
    <!-- Model 1: Summer Week -->
    <g transform="translate(478.640625 227.59875) scale(0.18 -0.18)">
     <defs>
      <path id="TimesNewRomanPSMT-53" d="M 2934 4334 
L 2934 2869 
L 2819 2869 
Q 2763 3291 2617 3541 
Q 2472 3791 2203 3937 
Q 1934 4084 1647 4084 
Q 1322 4084 1109 3886 
Q 897 3688 897 3434 
Q 897 3241 1031 3081 
Q 1225 2847 1953 2456 
Q 2547 2138 2764 1967 
Q 2981 1797 3098 1565 
Q 3216 1334 3216 1081 
Q 3216 600 2842 251 
Q 2469 -97 1881 -97 
Q 1697 -97 1534 -69 
Q 1438 -53 1133 45 
Q 828 144 747 144 
Q 669 144 623 97 
Q 578 50 556 -97 
L 441 -97 
L 441 1356 
L 556 1356 
Q 638 900 775 673 
Q 913 447 1195 297 
Q 1478 147 1816 147 
Q 2206 147 2432 353 
Q 2659 559 2659 841 
Q 2659 997 2573 1156 
Q 2488 1316 2306 1453 
Q 2184 1547 1640 1851 
Q 1097 2156 867 2337 
Q 638 2519 519 2737 
Q 400 2956 400 3219 
Q 400 3675 750 4004 
Q 1100 4334 1641 4334 
Q 1978 4334 2356 4169 
Q 2531 4091 2603 4091 
Q 2684 4091 2736 4139 
Q 2788 4188 2819 4334 
L 2934 4334 
z
" transform="scale(0.015625)"/>
     </defs>
     <use xlink:href="#TimesNewRomanPSMT-4d"/>
     <use xlink:href="#TimesNewRomanPSMT-6f" x="88.916016"/>
     <use xlink:href="#TimesNewRomanPSMT-64" x="138.916016"/>
     <use xlink:href="#TimesNewRomanPSMT-65" x="188.916016"/>
     <use xlink:href="#TimesNewRomanPSMT-6c" x="233.300781"/>
     <use xlink:href="#TimesNewRomanPSMT-20" x="261.083984"/>
     <use xlink:href="#TimesNewRomanPSMT-31" x="286.083984"/>
     <use xlink:href="#TimesNewRomanPSMT-3a" x="336.083984"/>
     <use xlink:href="#TimesNewRomanPSMT-20" x="363.867188"/>
     <use xlink:href="#TimesNewRomanPSMT-53" x="388.867188"/>
     <use xlink:href="#TimesNewRomanPSMT-75" x="444.482422"/>
     <use xlink:href="#TimesNewRomanPSMT-6d" x="494.482422"/>
     <use xlink:href="#TimesNewRomanPSMT-6d" x="572.265625"/>
     <use xlink:href="#TimesNewRomanPSMT-65" x="650.048828"/>
     <use xlink:href="#TimesNewRomanPSMT-72" x="694.433594"/>
     <use xlink:href="#TimesNewRomanPSMT-20" x="727.734375"/>
     <use xlink:href="#TimesNewRomanPSMT-57" x="750.984375"/>
     <use xlink:href="#TimesNewRomanPSMT-65" x="837.369141"/>
     <use xlink:href="#TimesNewRomanPSMT-65" x="881.753906"/>
     <use xlink:href="#TimesNewRomanPSMT-6b" x="926.138672"/>
    </g>
   </g>
   <g id="legend_3">
    <g id="patch_18">
     <path d="M 69.532813 266.807344 
L 193.102344 266.807344 
Q 196.102344 266.807344 196.102344 263.807344 
L 196.102344 244.09875 
Q 196.102344 241.09875 193.102344 241.09875 
L 69.532813 241.09875 
Q 66.532813 241.09875 66.532813 244.09875 
L 66.532813 263.807344 
Q 66.532813 266.807344 69.532813 266.807344 
z
" style="fill: #ffffff; opacity: 0.8; stroke: #cccccc; stroke-linejoin: miter"/>
    </g>
    <g id="line2d_54">
     <path d="M 72.532813 252.34875 
L 87.532813 252.34875 
L 102.532813 252.34875 
" style="fill: none; stroke: #000000; stroke-width: 1.5; stroke-linecap: square"/>
    </g>
    <g id="text_34">
     <!-- Temperature -->
     <g transform="translate(114.532813 257.59875) scale(0.15 -0.15)">
      <use xlink:href="#TimesNewRomanPSMT-54"/>
      <use xlink:href="#TimesNewRomanPSMT-65" x="54.083984"/>
      <use xlink:href="#TimesNewRomanPSMT-6d" x="98.46875"/>
      <use xlink:href="#TimesNewRomanPSMT-70" x="176.251953"/>
      <use xlink:href="#TimesNewRomanPSMT-65" x="226.251953"/>
      <use xlink:href="#TimesNewRomanPSMT-72" x="270.636719"/>
      <use xlink:href="#TimesNewRomanPSMT-61" x="303.9375"/>
      <use xlink:href="#TimesNewRomanPSMT-74" x="348.322266"/>
      <use xlink:href="#TimesNewRomanPSMT-75" x="376.105469"/>
      <use xlink:href="#TimesNewRomanPSMT-72" x="426.105469"/>
      <use xlink:href="#TimesNewRomanPSMT-65" x="459.40625"/>
     </g>
    </g>
   </g>
  </g>
  <g id="axes_4">
   <g id="matplotlib.axis_6">
    <g id="ytick_13">
     <g id="line2d_55">
      <g>
       <use xlink:href="#m560d3c5e61" x="1073.956563" y="352.964859" style="stroke: #000000; stroke-width: 0.8"/>
      </g>
     </g>
     <g id="text_35">
      <!-- −5 -->
      <g transform="translate(1080.956563 358.172671) scale(0.15 -0.15)">
       <use xlink:href="#TimesNewRomanPSMT-2212"/>
       <use xlink:href="#TimesNewRomanPSMT-35" x="56.396484"/>
      </g>
     </g>
    </g>
    <g id="ytick_14">
     <g id="line2d_56">
      <g>
       <use xlink:href="#m560d3c5e61" x="1073.956563" y="315.472625" style="stroke: #000000; stroke-width: 0.8"/>
      </g>
     </g>
     <g id="text_36">
      <!-- 0 -->
      <g transform="translate(1080.956563 320.680437) scale(0.15 -0.15)">
       <use xlink:href="#TimesNewRomanPSMT-30"/>
      </g>
     </g>
    </g>
    <g id="ytick_15">
     <g id="line2d_57">
      <g>
       <use xlink:href="#m560d3c5e61" x="1073.956563" y="277.98039" style="stroke: #000000; stroke-width: 0.8"/>
      </g>
     </g>
     <g id="text_37">
      <!-- 5 -->
      <g transform="translate(1080.956563 283.188203) scale(0.15 -0.15)">
       <use xlink:href="#TimesNewRomanPSMT-35"/>
      </g>
     </g>
    </g>
    <g id="ytick_16">
     <g id="line2d_58">
      <g>
       <use xlink:href="#m560d3c5e61" x="1073.956563" y="240.488156" style="stroke: #000000; stroke-width: 0.8"/>
      </g>
     </g>
     <g id="text_38">
      <!-- 10 -->
      <g transform="translate(1080.956563 245.695969) scale(0.15 -0.15)">
       <use xlink:href="#TimesNewRomanPSMT-31"/>
       <use xlink:href="#TimesNewRomanPSMT-30" x="50"/>
      </g>
     </g>
    </g>
    <g id="text_39">
     <!-- Demand (MW) -->
     <g transform="translate(1111.330781 355.295313) rotate(-90) scale(0.15 -0.15)">
      <use xlink:href="#TimesNewRomanPSMT-44"/>
      <use xlink:href="#TimesNewRomanPSMT-65" x="72.216797"/>
      <use xlink:href="#TimesNewRomanPSMT-6d" x="116.601562"/>
      <use xlink:href="#TimesNewRomanPSMT-61" x="194.384766"/>
      <use xlink:href="#TimesNewRomanPSMT-6e" x="238.769531"/>
      <use xlink:href="#TimesNewRomanPSMT-64" x="288.769531"/>
      <use xlink:href="#TimesNewRomanPSMT-20" x="338.769531"/>
      <use xlink:href="#TimesNewRomanPSMT-28" x="363.769531"/>
      <use xlink:href="#TimesNewRomanPSMT-4d" x="397.070312"/>
      <use xlink:href="#TimesNewRomanPSMT-57" x="485.986328"/>
      <use xlink:href="#TimesNewRomanPSMT-29" x="580.371094"/>
     </g>
    </g>
   </g>
   <g id="line2d_59">
    <path d="M 105.16571 272.815321 
L 110.723891 268.948973 
L 116.282071 265.432232 
L 121.840252 262.406431 
L 127.398432 259.116151 
L 132.956612 258.150803 
L 138.514793 266.891824 
L 144.072973 287.812916 
L 149.631154 299.216907 
L 155.189334 310.288646 
L 160.747515 318.680059 
L 171.863876 345.014699 
L 177.422056 362.733119 
L 182.980237 370.691448 
L 188.538417 378.020814 
L 194.096597 378.059659 
L 199.654778 367.835078 
L 205.212958 341.628545 
L 210.771139 322.712533 
L 216.329319 310.466343 
L 221.8875 306.010703 
L 227.44568 297.734999 
L 233.003861 298.058986 
L 238.562041 288.555109 
L 244.120221 282.344819 
L 249.678402 278.769397 
L 255.236582 278.303254 
L 260.794763 278.034642 
L 266.352943 276.438679 
L 271.911124 274.364174 
L 277.469304 277.06351 
L 283.027485 281.836524 
L 288.585665 282.820054 
L 294.143845 282.334901 
L 299.702026 290.404807 
L 305.260206 308.67202 
L 310.818387 311.04241 
L 316.376567 315.243489 
L 321.934748 321.729829 
L 327.492928 323.072885 
L 333.051109 329.156722 
L 338.609289 322.738981 
L 344.16747 311.663109 
L 349.72565 291.312299 
L 355.28383 281.832391 
L 360.842011 276.796551 
L 366.400191 273.090544 
L 371.958372 269.792825 
L 377.516552 268.362161 
L 383.074733 267.996849 
L 388.632913 270.055651 
L 394.191094 270.393688 
L 399.749274 272.168174 
L 405.307454 276.025431 
L 410.865635 283.205201 
L 416.423815 299.151613 
L 421.981996 307.371115 
L 427.540176 317.202284 
L 433.098357 322.24143 
L 444.214718 341.085537 
L 449.772898 346.770176 
L 455.331079 348.375231 
L 460.889259 353.15651 
L 466.447439 354.283024 
L 472.00562 344.602277 
L 477.5638 318.882551 
L 483.121981 299.789668 
L 488.680161 289.03613 
L 494.238342 283.553982 
L 499.796522 280.145513 
L 505.354703 275.974188 
L 510.912883 271.483009 
L 516.471063 267.308378 
L 522.029244 263.855278 
L 527.587424 261.544396 
L 533.145605 264.941294 
L 538.703785 270.566425 
L 544.261966 275.62706 
L 549.820146 289.424583 
L 555.378327 309.134858 
L 566.494687 344.249364 
L 572.052868 343.489814 
L 577.611048 343.471631 
L 583.169229 343.341871 
L 588.727409 337.772942 
L 594.28559 342.593892 
L 599.84377 345.734577 
L 605.401951 339.398659 
L 610.960131 325.945785 
L 616.518312 314.12772 
L 622.076492 298.971437 
L 627.634672 286.698799 
L 633.192853 272.438438 
L 638.751033 263.54121 
L 644.309214 260.693931 
L 649.867394 259.345916 
L 655.425575 256.736669 
L 660.983755 255.658918 
L 672.100116 248.411375 
L 677.658296 252.056222 
L 683.216477 258.832662 
L 688.774657 269.893657 
L 694.332838 278.772703 
L 699.891018 292.723128 
L 705.449199 297.814343 
L 711.007379 306.045416 
L 716.56556 309.077003 
L 722.12374 313.211962 
L 727.681921 312.857395 
L 733.240101 313.41776 
L 738.798281 308.934846 
L 744.356462 296.855608 
L 749.914642 289.685755 
L 755.472823 275.249351 
L 761.031003 265.20412 
L 772.147364 257.917731 
L 777.705545 251.852078 
L 783.263725 246.471589 
L 788.821905 243.685472 
L 794.380086 240.477841 
L 799.938266 240.981177 
L 805.496447 249.755258 
L 811.054627 267.781134 
L 816.612808 279.64383 
L 822.170988 293.485157 
L 827.729169 302.798113 
L 833.287349 314.070691 
L 838.84553 325.008538 
L 844.40371 333.016458 
L 849.96189 335.781086 
L 855.520071 339.328407 
L 861.078251 343.528659 
L 866.636432 341.226868 
L 872.194612 321.88769 
L 877.752793 298.559842 
L 883.310973 284.187905 
L 888.869154 275.61053 
L 894.427334 269.57711 
L 899.985514 265.627286 
L 905.543695 265.386775 
L 911.101875 262.700663 
L 916.660056 259.544275 
L 922.218236 255.713467 
L 927.776417 252.028122 
L 933.334597 251.377669 
L 938.892778 264.809881 
L 944.450958 280.072781 
L 950.009138 290.42051 
L 955.567319 301.385632 
L 961.125499 318.466823 
L 966.68368 331.495705 
L 972.24186 341.053304 
L 977.800041 349.863751 
L 983.358221 357.543551 
L 988.916402 361.276006 
L 994.474582 363.989392 
L 1000.032763 357.705544 
L 1005.590943 347.5289 
L 1011.149123 334.152889 
L 1016.707304 316.341902 
L 1022.265484 306.613219 
L 1027.823665 301.997239 
L 1027.823665 301.997239 
" clip-path="url(#p64df069fb1)" style="fill: none; stroke: #ff0000; stroke-width: 1.5; stroke-linecap: square"/>
   </g>
   <g id="patch_19">
    <path d="M 59.032813 384.93875 
L 59.032813 233.59875 
" style="fill: none; stroke: #000000; stroke-width: 0.8; stroke-linejoin: miter; stroke-linecap: square"/>
   </g>
   <g id="patch_20">
    <path d="M 1073.956563 384.93875 
L 1073.956563 233.59875 
" style="fill: none; stroke: #000000; stroke-width: 0.8; stroke-linejoin: miter; stroke-linecap: square"/>
   </g>
   <g id="patch_21">
    <path d="M 59.032812 384.93875 
L 1073.956563 384.93875 
" style="fill: none; stroke: #000000; stroke-width: 0.8; stroke-linejoin: miter; stroke-linecap: square"/>
   </g>
   <g id="patch_22">
    <path d="M 59.032812 233.59875 
L 1073.956563 233.59875 
" style="fill: none; stroke: #000000; stroke-width: 0.8; stroke-linejoin: miter; stroke-linecap: square"/>
   </g>
   <g id="legend_4">
    <g id="patch_23">
     <path d="M 964.639375 266.807344 
L 1063.456563 266.807344 
Q 1066.456563 266.807344 1066.456563 263.807344 
L 1066.456563 244.09875 
Q 1066.456563 241.09875 1063.456563 241.09875 
L 964.639375 241.09875 
Q 961.639375 241.09875 961.639375 244.09875 
L 961.639375 263.807344 
Q 961.639375 266.807344 964.639375 266.807344 
z
" style="fill: #ffffff; opacity: 0.8; stroke: #cccccc; stroke-linejoin: miter"/>
    </g>
    <g id="line2d_60">
     <path d="M 967.639375 252.34875 
L 982.639375 252.34875 
L 997.639375 252.34875 
" style="fill: none; stroke: #ff0000; stroke-width: 1.5; stroke-linecap: square"/>
    </g>
    <g id="text_40">
     <!-- Demand -->
     <g transform="translate(1009.639375 257.59875) scale(0.15 -0.15)">
      <use xlink:href="#TimesNewRomanPSMT-44"/>
      <use xlink:href="#TimesNewRomanPSMT-65" x="72.216797"/>
      <use xlink:href="#TimesNewRomanPSMT-6d" x="116.601562"/>
      <use xlink:href="#TimesNewRomanPSMT-61" x="194.384766"/>
      <use xlink:href="#TimesNewRomanPSMT-6e" x="238.769531"/>
      <use xlink:href="#TimesNewRomanPSMT-64" x="288.769531"/>
     </g>
    </g>
   </g>
  </g>
 </g>
 <defs>
  <clipPath id="pdc2bebfc50">
   <rect x="59.032813" y="25.69875" width="1014.92375" height="151.34"/>
  </clipPath>
  <clipPath id="p64df069fb1">
   <rect x="59.032813" y="233.59875" width="1014.92375" height="151.34"/>
  </clipPath>
 </defs>
</svg>
