<?xml version="1.0" encoding="utf-8" standalone="no"?>
<!DOCTYPE svg PUBLIC "-//W3C//DTD SVG 1.1//EN"
  "http://www.w3.org/Graphics/SVG/1.1/DTD/svg11.dtd">
<svg xmlns:xlink="http://www.w3.org/1999/xlink" width="1133.162812pt" height="412.762969pt" viewBox="0 0 1133.162812 412.762969" xmlns="http://www.w3.org/2000/svg" version="1.1">
 <metadata>
  <rdf:RDF xmlns:dc="http://purl.org/dc/elements/1.1/" xmlns:cc="http://creativecommons.org/ns#" xmlns:rdf="http://www.w3.org/1999/02/22-rdf-syntax-ns#">
   <cc:Work>
    <dc:type rdf:resource="http://purl.org/dc/dcmitype/StillImage"/>
    <dc:date>2024-04-20T15:08:48.885236</dc:date>
    <dc:format>image/svg+xml</dc:format>
    <dc:creator>
     <cc:Agent>
      <dc:title>Matplotlib v3.8.2, https://matplotlib.org/</dc:title>
     </cc:Agent>
    </dc:creator>
   </cc:Work>
  </rdf:RDF>
 </metadata>
 <defs>
  <style type="text/css">*{stroke-linejoin: round; stroke-linecap: butt}</style>
 </defs>
 <g id="figure_1">
  <g id="patch_1">
   <path d="M 0 412.762969 
L 1133.162812 412.762969 
L 1133.162812 0 
L 0 0 
z
" style="fill: #ffffff"/>
  </g>
  <g id="axes_1">
   <g id="patch_2">
    <path d="M 47.782813 180.53875 
L 1125.962812 180.53875 
L 1125.962812 25.69875 
L 47.782813 25.69875 
z
" style="fill: #ffffff"/>
   </g>
   <g id="matplotlib.axis_1">
    <g id="xtick_1">
     <g id="line2d_1">
      <path d="M 155.836997 180.53875 
L 155.836997 25.69875 
" clip-path="url(#pe4802ab12e)" style="fill: none; stroke: #b0b0b0; stroke-opacity: 0.5; stroke-width: 0.8; stroke-linecap: square"/>
     </g>
     <g id="line2d_2"/>
     <g id="text_1">
      <!-- Jan 01 -->
      <g transform="translate(136.463559 194.454375) scale(0.15 -0.15)">
       <defs>
        <path id="TimesNewRomanPSMT-4a" d="M 638 4122 
L 638 4238 
L 2453 4238 
L 2453 4122 
L 2300 4122 
Q 2041 4122 1922 3969 
Q 1847 3869 1847 3488 
L 1847 1416 
Q 1847 938 1742 641 
Q 1638 344 1381 123 
Q 1125 -97 763 -97 
Q 469 -97 300 48 
Q 131 194 131 381 
Q 131 534 209 613 
Q 313 709 450 709 
Q 550 709 629 643 
Q 709 578 831 294 
Q 903 125 1016 125 
Q 1100 125 1173 228 
Q 1247 331 1247 594 
L 1247 3488 
Q 1247 3809 1206 3913 
Q 1175 3991 1075 4047 
Q 941 4122 791 4122 
L 638 4122 
z
" transform="scale(0.015625)"/>
        <path id="TimesNewRomanPSMT-61" d="M 1822 413 
Q 1381 72 1269 19 
Q 1100 -59 909 -59 
Q 613 -59 420 144 
Q 228 347 228 678 
Q 228 888 322 1041 
Q 450 1253 767 1440 
Q 1084 1628 1822 1897 
L 1822 2009 
Q 1822 2438 1686 2597 
Q 1550 2756 1291 2756 
Q 1094 2756 978 2650 
Q 859 2544 859 2406 
L 866 2225 
Q 866 2081 792 2003 
Q 719 1925 600 1925 
Q 484 1925 411 2006 
Q 338 2088 338 2228 
Q 338 2497 613 2722 
Q 888 2947 1384 2947 
Q 1766 2947 2009 2819 
Q 2194 2722 2281 2516 
Q 2338 2381 2338 1966 
L 2338 994 
Q 2338 584 2353 492 
Q 2369 400 2405 369 
Q 2441 338 2488 338 
Q 2538 338 2575 359 
Q 2641 400 2828 588 
L 2828 413 
Q 2478 -56 2159 -56 
Q 2006 -56 1915 50 
Q 1825 156 1822 413 
z
M 1822 616 
L 1822 1706 
Q 1350 1519 1213 1441 
Q 966 1303 859 1153 
Q 753 1003 753 825 
Q 753 600 887 451 
Q 1022 303 1197 303 
Q 1434 303 1822 616 
z
" transform="scale(0.015625)"/>
        <path id="TimesNewRomanPSMT-6e" d="M 1034 2341 
Q 1538 2947 1994 2947 
Q 2228 2947 2397 2830 
Q 2566 2713 2666 2444 
Q 2734 2256 2734 1869 
L 2734 647 
Q 2734 375 2778 278 
Q 2813 200 2889 156 
Q 2966 113 3172 113 
L 3172 0 
L 1756 0 
L 1756 113 
L 1816 113 
Q 2016 113 2095 173 
Q 2175 234 2206 353 
Q 2219 400 2219 647 
L 2219 1819 
Q 2219 2209 2117 2386 
Q 2016 2563 1775 2563 
Q 1403 2563 1034 2156 
L 1034 647 
Q 1034 356 1069 288 
Q 1113 197 1189 155 
Q 1266 113 1500 113 
L 1500 0 
L 84 0 
L 84 113 
L 147 113 
Q 366 113 442 223 
Q 519 334 519 647 
L 519 1709 
Q 519 2225 495 2337 
Q 472 2450 423 2490 
Q 375 2531 294 2531 
Q 206 2531 84 2484 
L 38 2597 
L 900 2947 
L 1034 2947 
L 1034 2341 
z
" transform="scale(0.015625)"/>
        <path id="TimesNewRomanPSMT-20" transform="scale(0.015625)"/>
        <path id="TimesNewRomanPSMT-30" d="M 231 2094 
Q 231 2819 450 3342 
Q 669 3866 1031 4122 
Q 1313 4325 1613 4325 
Q 2100 4325 2488 3828 
Q 2972 3213 2972 2159 
Q 2972 1422 2759 906 
Q 2547 391 2217 158 
Q 1888 -75 1581 -75 
Q 975 -75 572 641 
Q 231 1244 231 2094 
z
M 844 2016 
Q 844 1141 1059 588 
Q 1238 122 1591 122 
Q 1759 122 1940 273 
Q 2122 425 2216 781 
Q 2359 1319 2359 2297 
Q 2359 3022 2209 3506 
Q 2097 3866 1919 4016 
Q 1791 4119 1609 4119 
Q 1397 4119 1231 3928 
Q 1006 3669 925 3112 
Q 844 2556 844 2016 
z
" transform="scale(0.015625)"/>
        <path id="TimesNewRomanPSMT-31" d="M 750 3822 
L 1781 4325 
L 1884 4325 
L 1884 747 
Q 1884 391 1914 303 
Q 1944 216 2037 169 
Q 2131 122 2419 116 
L 2419 0 
L 825 0 
L 825 116 
Q 1125 122 1212 167 
Q 1300 213 1334 289 
Q 1369 366 1369 747 
L 1369 3034 
Q 1369 3497 1338 3628 
Q 1316 3728 1258 3775 
Q 1200 3822 1119 3822 
Q 1003 3822 797 3725 
L 750 3822 
z
" transform="scale(0.015625)"/>
       </defs>
       <use xlink:href="#TimesNewRomanPSMT-4a"/>
       <use xlink:href="#TimesNewRomanPSMT-61" x="38.916016"/>
       <use xlink:href="#TimesNewRomanPSMT-6e" x="83.300781"/>
       <use xlink:href="#TimesNewRomanPSMT-20" x="133.300781"/>
       <use xlink:href="#TimesNewRomanPSMT-30" x="158.300781"/>
       <use xlink:href="#TimesNewRomanPSMT-31" x="208.300781"/>
      </g>
     </g>
    </g>
    <g id="xtick_2">
     <g id="line2d_3">
      <path d="M 297.547402 180.53875 
L 297.547402 25.69875 
" clip-path="url(#pe4802ab12e)" style="fill: none; stroke: #b0b0b0; stroke-opacity: 0.5; stroke-width: 0.8; stroke-linecap: square"/>
     </g>
     <g id="line2d_4"/>
     <g id="text_2">
      <!-- Jan 02 -->
      <g transform="translate(278.173964 194.454375) scale(0.15 -0.15)">
       <defs>
        <path id="TimesNewRomanPSMT-32" d="M 2934 816 
L 2638 0 
L 138 0 
L 138 116 
Q 1241 1122 1691 1759 
Q 2141 2397 2141 2925 
Q 2141 3328 1894 3587 
Q 1647 3847 1303 3847 
Q 991 3847 742 3664 
Q 494 3481 375 3128 
L 259 3128 
Q 338 3706 661 4015 
Q 984 4325 1469 4325 
Q 1984 4325 2329 3994 
Q 2675 3663 2675 3213 
Q 2675 2891 2525 2569 
Q 2294 2063 1775 1497 
Q 997 647 803 472 
L 1909 472 
Q 2247 472 2383 497 
Q 2519 522 2628 598 
Q 2738 675 2819 816 
L 2934 816 
z
" transform="scale(0.015625)"/>
       </defs>
       <use xlink:href="#TimesNewRomanPSMT-4a"/>
       <use xlink:href="#TimesNewRomanPSMT-61" x="38.916016"/>
       <use xlink:href="#TimesNewRomanPSMT-6e" x="83.300781"/>
       <use xlink:href="#TimesNewRomanPSMT-20" x="133.300781"/>
       <use xlink:href="#TimesNewRomanPSMT-30" x="158.300781"/>
       <use xlink:href="#TimesNewRomanPSMT-32" x="208.300781"/>
      </g>
     </g>
    </g>
    <g id="xtick_3">
     <g id="line2d_5">
      <path d="M 439.257807 180.53875 
L 439.257807 25.69875 
" clip-path="url(#pe4802ab12e)" style="fill: none; stroke: #b0b0b0; stroke-opacity: 0.5; stroke-width: 0.8; stroke-linecap: square"/>
     </g>
     <g id="line2d_6"/>
     <g id="text_3">
      <!-- Jan 03 -->
      <g transform="translate(419.88437 194.454375) scale(0.15 -0.15)">
       <defs>
        <path id="TimesNewRomanPSMT-33" d="M 325 3431 
Q 506 3859 782 4092 
Q 1059 4325 1472 4325 
Q 1981 4325 2253 3994 
Q 2459 3747 2459 3466 
Q 2459 3003 1878 2509 
Q 2269 2356 2469 2072 
Q 2669 1788 2669 1403 
Q 2669 853 2319 450 
Q 1863 -75 997 -75 
Q 569 -75 414 31 
Q 259 138 259 259 
Q 259 350 332 419 
Q 406 488 509 488 
Q 588 488 669 463 
Q 722 447 909 348 
Q 1097 250 1169 231 
Q 1284 197 1416 197 
Q 1734 197 1970 444 
Q 2206 691 2206 1028 
Q 2206 1275 2097 1509 
Q 2016 1684 1919 1775 
Q 1784 1900 1550 2001 
Q 1316 2103 1072 2103 
L 972 2103 
L 972 2197 
Q 1219 2228 1467 2375 
Q 1716 2522 1828 2728 
Q 1941 2934 1941 3181 
Q 1941 3503 1739 3701 
Q 1538 3900 1238 3900 
Q 753 3900 428 3381 
L 325 3431 
z
" transform="scale(0.015625)"/>
       </defs>
       <use xlink:href="#TimesNewRomanPSMT-4a"/>
       <use xlink:href="#TimesNewRomanPSMT-61" x="38.916016"/>
       <use xlink:href="#TimesNewRomanPSMT-6e" x="83.300781"/>
       <use xlink:href="#TimesNewRomanPSMT-20" x="133.300781"/>
       <use xlink:href="#TimesNewRomanPSMT-30" x="158.300781"/>
       <use xlink:href="#TimesNewRomanPSMT-33" x="208.300781"/>
      </g>
     </g>
    </g>
    <g id="xtick_4">
     <g id="line2d_7">
      <path d="M 580.968212 180.53875 
L 580.968212 25.69875 
" clip-path="url(#pe4802ab12e)" style="fill: none; stroke: #b0b0b0; stroke-opacity: 0.5; stroke-width: 0.8; stroke-linecap: square"/>
     </g>
     <g id="line2d_8"/>
     <g id="text_4">
      <!-- Jan 04 -->
      <g transform="translate(561.594775 194.454375) scale(0.15 -0.15)">
       <defs>
        <path id="TimesNewRomanPSMT-34" d="M 2978 1563 
L 2978 1119 
L 2409 1119 
L 2409 0 
L 1894 0 
L 1894 1119 
L 100 1119 
L 100 1519 
L 2066 4325 
L 2409 4325 
L 2409 1563 
L 2978 1563 
z
M 1894 1563 
L 1894 3666 
L 406 1563 
L 1894 1563 
z
" transform="scale(0.015625)"/>
       </defs>
       <use xlink:href="#TimesNewRomanPSMT-4a"/>
       <use xlink:href="#TimesNewRomanPSMT-61" x="38.916016"/>
       <use xlink:href="#TimesNewRomanPSMT-6e" x="83.300781"/>
       <use xlink:href="#TimesNewRomanPSMT-20" x="133.300781"/>
       <use xlink:href="#TimesNewRomanPSMT-30" x="158.300781"/>
       <use xlink:href="#TimesNewRomanPSMT-34" x="208.300781"/>
      </g>
     </g>
    </g>
    <g id="xtick_5">
     <g id="line2d_9">
      <path d="M 722.678618 180.53875 
L 722.678618 25.69875 
" clip-path="url(#pe4802ab12e)" style="fill: none; stroke: #b0b0b0; stroke-opacity: 0.5; stroke-width: 0.8; stroke-linecap: square"/>
     </g>
     <g id="line2d_10"/>
     <g id="text_5">
      <!-- Jan 05 -->
      <g transform="translate(703.30518 194.454375) scale(0.15 -0.15)">
       <defs>
        <path id="TimesNewRomanPSMT-35" d="M 2778 4238 
L 2534 3706 
L 1259 3706 
L 981 3138 
Q 1809 3016 2294 2522 
Q 2709 2097 2709 1522 
Q 2709 1188 2573 903 
Q 2438 619 2231 419 
Q 2025 219 1772 97 
Q 1413 -75 1034 -75 
Q 653 -75 479 54 
Q 306 184 306 341 
Q 306 428 378 495 
Q 450 563 559 563 
Q 641 563 702 538 
Q 763 513 909 409 
Q 1144 247 1384 247 
Q 1750 247 2026 523 
Q 2303 800 2303 1197 
Q 2303 1581 2056 1914 
Q 1809 2247 1375 2428 
Q 1034 2569 447 2591 
L 1259 4238 
L 2778 4238 
z
" transform="scale(0.015625)"/>
       </defs>
       <use xlink:href="#TimesNewRomanPSMT-4a"/>
       <use xlink:href="#TimesNewRomanPSMT-61" x="38.916016"/>
       <use xlink:href="#TimesNewRomanPSMT-6e" x="83.300781"/>
       <use xlink:href="#TimesNewRomanPSMT-20" x="133.300781"/>
       <use xlink:href="#TimesNewRomanPSMT-30" x="158.300781"/>
       <use xlink:href="#TimesNewRomanPSMT-35" x="208.300781"/>
      </g>
     </g>
    </g>
    <g id="xtick_6">
     <g id="line2d_11">
      <path d="M 864.389023 180.53875 
L 864.389023 25.69875 
" clip-path="url(#pe4802ab12e)" style="fill: none; stroke: #b0b0b0; stroke-opacity: 0.5; stroke-width: 0.8; stroke-linecap: square"/>
     </g>
     <g id="line2d_12"/>
     <g id="text_6">
      <!-- Jan 06 -->
      <g transform="translate(845.015585 194.454375) scale(0.15 -0.15)">
       <defs>
        <path id="TimesNewRomanPSMT-36" d="M 2869 4325 
L 2869 4209 
Q 2456 4169 2195 4045 
Q 1934 3922 1679 3669 
Q 1425 3416 1258 3105 
Q 1091 2794 978 2366 
Q 1428 2675 1881 2675 
Q 2316 2675 2634 2325 
Q 2953 1975 2953 1425 
Q 2953 894 2631 456 
Q 2244 -75 1606 -75 
Q 1172 -75 869 213 
Q 275 772 275 1663 
Q 275 2231 503 2743 
Q 731 3256 1154 3653 
Q 1578 4050 1965 4187 
Q 2353 4325 2688 4325 
L 2869 4325 
z
M 925 2138 
Q 869 1716 869 1456 
Q 869 1156 980 804 
Q 1091 453 1309 247 
Q 1469 100 1697 100 
Q 1969 100 2183 356 
Q 2397 613 2397 1088 
Q 2397 1622 2184 2012 
Q 1972 2403 1581 2403 
Q 1463 2403 1327 2353 
Q 1191 2303 925 2138 
z
" transform="scale(0.015625)"/>
       </defs>
       <use xlink:href="#TimesNewRomanPSMT-4a"/>
       <use xlink:href="#TimesNewRomanPSMT-61" x="38.916016"/>
       <use xlink:href="#TimesNewRomanPSMT-6e" x="83.300781"/>
       <use xlink:href="#TimesNewRomanPSMT-20" x="133.300781"/>
       <use xlink:href="#TimesNewRomanPSMT-30" x="158.300781"/>
       <use xlink:href="#TimesNewRomanPSMT-36" x="208.300781"/>
      </g>
     </g>
    </g>
    <g id="xtick_7">
     <g id="line2d_13">
      <path d="M 1006.099428 180.53875 
L 1006.099428 25.69875 
" clip-path="url(#pe4802ab12e)" style="fill: none; stroke: #b0b0b0; stroke-opacity: 0.5; stroke-width: 0.8; stroke-linecap: square"/>
     </g>
     <g id="line2d_14"/>
     <g id="text_7">
      <!-- Jan 07 -->
      <g transform="translate(986.725991 194.454375) scale(0.15 -0.15)">
       <defs>
        <path id="TimesNewRomanPSMT-37" d="M 644 4238 
L 2916 4238 
L 2916 4119 
L 1503 -88 
L 1153 -88 
L 2419 3728 
L 1253 3728 
Q 900 3728 750 3644 
Q 488 3500 328 3200 
L 238 3234 
L 644 4238 
z
" transform="scale(0.015625)"/>
       </defs>
       <use xlink:href="#TimesNewRomanPSMT-4a"/>
       <use xlink:href="#TimesNewRomanPSMT-61" x="38.916016"/>
       <use xlink:href="#TimesNewRomanPSMT-6e" x="83.300781"/>
       <use xlink:href="#TimesNewRomanPSMT-20" x="133.300781"/>
       <use xlink:href="#TimesNewRomanPSMT-30" x="158.300781"/>
       <use xlink:href="#TimesNewRomanPSMT-37" x="208.300781"/>
      </g>
     </g>
    </g>
   </g>
   <g id="matplotlib.axis_2">
    <g id="ytick_1">
     <g id="line2d_15">
      <path d="M 47.782813 159.79681 
L 1125.962812 159.79681 
" clip-path="url(#pe4802ab12e)" style="fill: none; stroke: #b0b0b0; stroke-opacity: 0.5; stroke-width: 0.8; stroke-linecap: square"/>
     </g>
     <g id="line2d_16">
      <defs>
       <path id="md9f29722b2" d="M 0 0 
L -3.5 0 
" style="stroke: #000000; stroke-width: 0.8"/>
      </defs>
      <g>
       <use xlink:href="#md9f29722b2" x="47.782813" y="159.79681" style="stroke: #000000; stroke-width: 0.8"/>
      </g>
     </g>
     <g id="text_8">
      <!-- 25 -->
      <g transform="translate(25.782813 165.004622) scale(0.15 -0.15)">
       <use xlink:href="#TimesNewRomanPSMT-32"/>
       <use xlink:href="#TimesNewRomanPSMT-35" x="50"/>
      </g>
     </g>
    </g>
    <g id="ytick_2">
     <g id="line2d_17">
      <path d="M 47.782813 123.97588 
L 1125.962812 123.97588 
" clip-path="url(#pe4802ab12e)" style="fill: none; stroke: #b0b0b0; stroke-opacity: 0.5; stroke-width: 0.8; stroke-linecap: square"/>
     </g>
     <g id="line2d_18">
      <g>
       <use xlink:href="#md9f29722b2" x="47.782813" y="123.97588" style="stroke: #000000; stroke-width: 0.8"/>
      </g>
     </g>
     <g id="text_9">
      <!-- 30 -->
      <g transform="translate(25.782813 129.183693) scale(0.15 -0.15)">
       <use xlink:href="#TimesNewRomanPSMT-33"/>
       <use xlink:href="#TimesNewRomanPSMT-30" x="50"/>
      </g>
     </g>
    </g>
    <g id="ytick_3">
     <g id="line2d_19">
      <path d="M 47.782813 88.154951 
L 1125.962812 88.154951 
" clip-path="url(#pe4802ab12e)" style="fill: none; stroke: #b0b0b0; stroke-opacity: 0.5; stroke-width: 0.8; stroke-linecap: square"/>
     </g>
     <g id="line2d_20">
      <g>
       <use xlink:href="#md9f29722b2" x="47.782813" y="88.154951" style="stroke: #000000; stroke-width: 0.8"/>
      </g>
     </g>
     <g id="text_10">
      <!-- 35 -->
      <g transform="translate(25.782813 93.362763) scale(0.15 -0.15)">
       <use xlink:href="#TimesNewRomanPSMT-33"/>
       <use xlink:href="#TimesNewRomanPSMT-35" x="50"/>
      </g>
     </g>
    </g>
    <g id="ytick_4">
     <g id="line2d_21">
      <path d="M 47.782813 52.334021 
L 1125.962812 52.334021 
" clip-path="url(#pe4802ab12e)" style="fill: none; stroke: #b0b0b0; stroke-opacity: 0.5; stroke-width: 0.8; stroke-linecap: square"/>
     </g>
     <g id="line2d_22">
      <g>
       <use xlink:href="#md9f29722b2" x="47.782813" y="52.334021" style="stroke: #000000; stroke-width: 0.8"/>
      </g>
     </g>
     <g id="text_11">
      <!-- 40 -->
      <g transform="translate(25.782813 57.541834) scale(0.15 -0.15)">
       <use xlink:href="#TimesNewRomanPSMT-34"/>
       <use xlink:href="#TimesNewRomanPSMT-30" x="50"/>
      </g>
     </g>
    </g>
    <g id="text_12">
     <!-- Demand (MW) -->
     <g transform="translate(18.574219 149.145312) rotate(-90) scale(0.15 -0.15)">
      <defs>
       <path id="TimesNewRomanPSMT-44" d="M 109 0 
L 109 116 
L 269 116 
Q 538 116 650 288 
Q 719 391 719 750 
L 719 3488 
Q 719 3884 631 3984 
Q 509 4122 269 4122 
L 109 4122 
L 109 4238 
L 1834 4238 
Q 2784 4238 3279 4022 
Q 3775 3806 4076 3303 
Q 4378 2800 4378 2141 
Q 4378 1256 3841 663 
Q 3238 0 2003 0 
L 109 0 
z
M 1319 306 
Q 1716 219 1984 219 
Q 2709 219 3187 728 
Q 3666 1238 3666 2109 
Q 3666 2988 3187 3494 
Q 2709 4000 1959 4000 
Q 1678 4000 1319 3909 
L 1319 306 
z
" transform="scale(0.015625)"/>
       <path id="TimesNewRomanPSMT-65" d="M 681 1784 
Q 678 1147 991 784 
Q 1303 422 1725 422 
Q 2006 422 2214 576 
Q 2422 731 2563 1106 
L 2659 1044 
Q 2594 616 2278 264 
Q 1963 -88 1488 -88 
Q 972 -88 605 314 
Q 238 716 238 1394 
Q 238 2128 614 2539 
Q 991 2950 1559 2950 
Q 2041 2950 2350 2633 
Q 2659 2316 2659 1784 
L 681 1784 
z
M 681 1966 
L 2006 1966 
Q 1991 2241 1941 2353 
Q 1863 2528 1708 2628 
Q 1553 2728 1384 2728 
Q 1125 2728 920 2526 
Q 716 2325 681 1966 
z
" transform="scale(0.015625)"/>
       <path id="TimesNewRomanPSMT-6d" d="M 1050 2338 
Q 1363 2650 1419 2697 
Q 1559 2816 1721 2881 
Q 1884 2947 2044 2947 
Q 2313 2947 2506 2790 
Q 2700 2634 2766 2338 
Q 3088 2713 3309 2830 
Q 3531 2947 3766 2947 
Q 3994 2947 4170 2830 
Q 4347 2713 4450 2447 
Q 4519 2266 4519 1878 
L 4519 647 
Q 4519 378 4559 278 
Q 4591 209 4675 161 
Q 4759 113 4950 113 
L 4950 0 
L 3538 0 
L 3538 113 
L 3597 113 
Q 3781 113 3884 184 
Q 3956 234 3988 344 
Q 4000 397 4000 647 
L 4000 1878 
Q 4000 2228 3916 2372 
Q 3794 2572 3525 2572 
Q 3359 2572 3192 2489 
Q 3025 2406 2788 2181 
L 2781 2147 
L 2788 2013 
L 2788 647 
Q 2788 353 2820 281 
Q 2853 209 2943 161 
Q 3034 113 3253 113 
L 3253 0 
L 1806 0 
L 1806 113 
Q 2044 113 2133 169 
Q 2222 225 2256 338 
Q 2272 391 2272 647 
L 2272 1878 
Q 2272 2228 2169 2381 
Q 2031 2581 1784 2581 
Q 1616 2581 1450 2491 
Q 1191 2353 1050 2181 
L 1050 647 
Q 1050 366 1089 281 
Q 1128 197 1204 155 
Q 1281 113 1516 113 
L 1516 0 
L 100 0 
L 100 113 
Q 297 113 375 155 
Q 453 197 493 289 
Q 534 381 534 647 
L 534 1741 
Q 534 2213 506 2350 
Q 484 2453 437 2492 
Q 391 2531 309 2531 
Q 222 2531 100 2484 
L 53 2597 
L 916 2947 
L 1050 2947 
L 1050 2338 
z
" transform="scale(0.015625)"/>
       <path id="TimesNewRomanPSMT-64" d="M 2222 322 
Q 2013 103 1813 7 
Q 1613 -88 1381 -88 
Q 913 -88 563 304 
Q 213 697 213 1313 
Q 213 1928 600 2439 
Q 988 2950 1597 2950 
Q 1975 2950 2222 2709 
L 2222 3238 
Q 2222 3728 2198 3840 
Q 2175 3953 2125 3993 
Q 2075 4034 2000 4034 
Q 1919 4034 1784 3984 
L 1744 4094 
L 2597 4444 
L 2738 4444 
L 2738 1134 
Q 2738 631 2761 520 
Q 2784 409 2836 365 
Q 2888 322 2956 322 
Q 3041 322 3181 375 
L 3216 266 
L 2366 -88 
L 2222 -88 
L 2222 322 
z
M 2222 541 
L 2222 2016 
Q 2203 2228 2109 2403 
Q 2016 2578 1861 2667 
Q 1706 2756 1559 2756 
Q 1284 2756 1069 2509 
Q 784 2184 784 1559 
Q 784 928 1059 592 
Q 1334 256 1672 256 
Q 1956 256 2222 541 
z
" transform="scale(0.015625)"/>
       <path id="TimesNewRomanPSMT-28" d="M 1988 -1253 
L 1988 -1369 
Q 1516 -1131 1200 -813 
Q 750 -359 506 256 
Q 263 872 263 1534 
Q 263 2503 741 3301 
Q 1219 4100 1988 4444 
L 1988 4313 
Q 1603 4100 1356 3731 
Q 1109 3363 987 2797 
Q 866 2231 866 1616 
Q 866 947 969 400 
Q 1050 -31 1165 -292 
Q 1281 -553 1476 -793 
Q 1672 -1034 1988 -1253 
z
" transform="scale(0.015625)"/>
       <path id="TimesNewRomanPSMT-4d" d="M 2619 0 
L 981 3566 
L 981 734 
Q 981 344 1066 247 
Q 1181 116 1431 116 
L 1581 116 
L 1581 0 
L 106 0 
L 106 116 
L 256 116 
Q 525 116 638 278 
Q 706 378 706 734 
L 706 3503 
Q 706 3784 644 3909 
Q 600 4000 483 4061 
Q 366 4122 106 4122 
L 106 4238 
L 1306 4238 
L 2844 922 
L 4356 4238 
L 5556 4238 
L 5556 4122 
L 5409 4122 
Q 5138 4122 5025 3959 
Q 4956 3859 4956 3503 
L 4956 734 
Q 4956 344 5044 247 
Q 5159 116 5409 116 
L 5556 116 
L 5556 0 
L 3756 0 
L 3756 116 
L 3906 116 
Q 4178 116 4288 278 
Q 4356 378 4356 734 
L 4356 3566 
L 2722 0 
L 2619 0 
z
" transform="scale(0.015625)"/>
       <path id="TimesNewRomanPSMT-57" d="M 5991 4238 
L 5991 4122 
Q 5825 4122 5722 4062 
Q 5619 4003 5525 3841 
Q 5463 3731 5328 3319 
L 4147 -97 
L 4022 -97 
L 3056 2613 
L 2097 -97 
L 1984 -97 
L 725 3422 
Q 584 3816 547 3888 
Q 484 4006 376 4064 
Q 269 4122 84 4122 
L 84 4238 
L 1653 4238 
L 1653 4122 
L 1578 4122 
Q 1413 4122 1325 4047 
Q 1238 3972 1238 3866 
Q 1238 3756 1375 3363 
L 2209 984 
L 2913 3006 
L 2788 3363 
L 2688 3647 
Q 2622 3803 2541 3922 
Q 2500 3981 2441 4022 
Q 2363 4078 2284 4103 
Q 2225 4122 2097 4122 
L 2097 4238 
L 3747 4238 
L 3747 4122 
L 3634 4122 
Q 3459 4122 3378 4047 
Q 3297 3972 3297 3844 
Q 3297 3684 3438 3288 
L 4250 984 
L 5056 3319 
Q 5194 3706 5194 3856 
Q 5194 3928 5148 3990 
Q 5103 4053 5034 4078 
Q 4916 4122 4725 4122 
L 4725 4238 
L 5991 4238 
z
" transform="scale(0.015625)"/>
       <path id="TimesNewRomanPSMT-29" d="M 144 4313 
L 144 4444 
Q 619 4209 934 3891 
Q 1381 3434 1625 2820 
Q 1869 2206 1869 1541 
Q 1869 572 1392 -226 
Q 916 -1025 144 -1369 
L 144 -1253 
Q 528 -1038 776 -670 
Q 1025 -303 1145 264 
Q 1266 831 1266 1447 
Q 1266 2113 1163 2663 
Q 1084 3094 967 3353 
Q 850 3613 656 3853 
Q 463 4094 144 4313 
z
" transform="scale(0.015625)"/>
      </defs>
      <use xlink:href="#TimesNewRomanPSMT-44"/>
      <use xlink:href="#TimesNewRomanPSMT-65" x="72.216797"/>
      <use xlink:href="#TimesNewRomanPSMT-6d" x="116.601562"/>
      <use xlink:href="#TimesNewRomanPSMT-61" x="194.384766"/>
      <use xlink:href="#TimesNewRomanPSMT-6e" x="238.769531"/>
      <use xlink:href="#TimesNewRomanPSMT-64" x="288.769531"/>
      <use xlink:href="#TimesNewRomanPSMT-20" x="338.769531"/>
      <use xlink:href="#TimesNewRomanPSMT-28" x="363.769531"/>
      <use xlink:href="#TimesNewRomanPSMT-4d" x="397.070312"/>
      <use xlink:href="#TimesNewRomanPSMT-57" x="485.986328"/>
      <use xlink:href="#TimesNewRomanPSMT-29" x="580.371094"/>
     </g>
    </g>
   </g>
   <g id="line2d_23">
    <path d="M 96.790994 172.633881 
L 102.695595 165.211373 
L 108.600195 160.138979 
L 114.504795 140.752057 
L 120.409395 112.787349 
L 126.313995 107.101482 
L 132.218596 112.088669 
L 138.123196 106.879228 
L 144.027796 116.194962 
L 149.932396 122.149411 
L 155.836997 119.843786 
L 161.741597 123.496865 
L 167.646197 122.12233 
L 173.550797 115.642517 
L 179.455397 104.78812 
L 185.359998 91.626164 
L 191.264598 102.695949 
L 197.169198 104.348737 
L 203.073798 101.02991 
L 208.978398 106.553003 
L 214.882999 121.58652 
L 220.787599 151.130029 
L 226.692199 138.708244 
L 232.596799 129.711965 
L 238.5014 142.157832 
L 244.406 157.089991 
L 250.3106 155.766619 
L 256.2152 132.516453 
L 262.1198 83.321311 
L 268.024401 63.889126 
L 273.929001 65.13116 
L 279.833601 66.611599 
L 285.738201 81.63767 
L 291.642802 97.119661 
L 297.547402 110.8035 
L 303.452002 109.215995 
L 315.261202 106.639274 
L 321.165803 98.809976 
L 327.070403 84.454441 
L 332.975003 85.819595 
L 338.879603 92.047364 
L 344.784204 96.564702 
L 350.688804 94.714032 
L 356.593404 104.05143 
L 362.498004 139.643203 
L 374.307205 145.279067 
L 380.211805 145.542813 
L 386.116405 144.577486 
L 392.021005 133.852205 
L 397.925605 113.69513 
L 403.830206 74.015441 
L 409.734806 56.081783 
L 415.639406 52.820792 
L 421.544006 32.736932 
L 427.448607 43.512892 
L 433.353207 110.295835 
L 439.257807 138.339174 
L 445.162407 136.900032 
L 451.067007 136.327954 
L 456.971608 139.567377 
L 462.876208 115.120538 
L 468.780808 84.589941 
L 474.685408 79.779262 
L 480.590009 89.831879 
L 486.494609 101.372963 
L 492.399209 110.10424 
L 498.303809 123.405661 
L 504.208409 157.445617 
L 510.11301 160.943853 
L 516.01761 156.741328 
L 521.92221 149.069677 
L 527.82681 145.166006 
L 533.731411 134.70244 
L 539.636011 112.215078 
L 545.540611 71.443653 
L 551.445211 57.864655 
L 557.349811 57.789893 
L 563.254412 64.470199 
L 575.063612 104.524374 
L 580.968212 119.965649 
L 586.872812 118.591017 
L 592.777413 110.635987 
L 598.682013 101.419678 
L 604.586613 99.478674 
L 610.491213 85.736612 
L 616.395814 82.338381 
L 622.300414 89.669105 
L 628.205014 93.85664 
L 634.109614 98.300764 
L 640.014214 107.841364 
L 645.918815 139.310595 
L 651.823415 140.43918 
L 657.728015 139.394545 
L 663.632615 132.968796 
L 669.537216 132.210732 
L 675.441816 127.312525 
L 681.346416 114.990261 
L 687.251016 92.743433 
L 693.155616 74.936279 
L 699.060217 69.839996 
L 704.964817 69.633216 
L 710.869417 72.156937 
L 716.774017 84.861037 
L 722.678618 102.572055 
L 728.583218 109.357588 
L 734.487818 106.739472 
L 746.297018 90.287897 
L 752.201619 83.124879 
L 758.106219 80.586845 
L 764.010819 91.565619 
L 769.915419 100.945476 
L 775.82002 96.821775 
L 781.72462 113.452952 
L 787.62922 155.615064 
L 793.53382 152.897523 
L 799.43842 150.761346 
L 805.343021 148.399625 
L 811.247621 143.116099 
L 817.152221 143.945153 
L 823.056821 135.513118 
L 828.961421 108.630957 
L 834.866022 101.526162 
L 840.770622 104.851566 
L 846.675222 101.888076 
L 852.579822 105.277796 
L 858.484423 97.300908 
L 864.389023 102.762586 
L 870.293623 109.709927 
L 876.198223 111.039005 
L 882.102823 113.416297 
L 888.007424 112.242352 
L 893.912024 109.14752 
L 899.816624 107.541639 
L 905.721224 101.855482 
L 911.625825 99.644736 
L 917.530425 111.990695 
L 923.435025 131.095591 
L 929.339625 161.188546 
L 935.244225 164.11277 
L 941.148826 167.65095 
L 947.053426 155.991678 
L 952.958026 149.91498 
L 958.862626 134.738999 
L 964.767227 123.351694 
L 970.671827 80.623017 
L 976.576427 59.468988 
L 982.481027 57.633599 
L 988.385627 66.613147 
L 994.290228 91.519872 
L 1000.194828 96.51499 
L 1006.099428 99.27112 
L 1012.004028 94.951181 
L 1017.908628 103.614852 
L 1023.813229 105.109025 
L 1029.717829 101.383506 
L 1035.622429 103.740777 
L 1041.527029 104.422628 
L 1047.43163 116.369439 
L 1053.33623 125.198205 
L 1059.24083 124.908442 
L 1065.14543 127.616601 
L 1071.05003 167.254122 
L 1076.954631 169.48866 
L 1076.954631 169.48866 
" clip-path="url(#pe4802ab12e)" style="fill: none; stroke: #808080; stroke-width: 1.5; stroke-linecap: square"/>
   </g>
   <g id="line2d_24">
    <path d="M 96.790994 158.415828 
L 102.695595 156.628844 
L 108.600195 157.807796 
L 114.504795 158.20736 
L 120.409395 157.136591 
L 126.313995 156.18269 
L 132.218596 155.847877 
L 138.123196 155.724691 
L 144.027796 156.418796 
L 149.932396 158.358973 
L 155.836997 161.556278 
L 161.741597 162.3712 
L 167.646197 161.952684 
L 173.550797 159.773242 
L 179.455397 157.033146 
L 185.359998 151.753527 
L 191.264598 148.317747 
L 197.169198 145.869033 
L 203.073798 144.823533 
L 208.978398 143.383206 
L 214.882999 138.025411 
L 220.787599 138.34601 
L 226.692199 133.707588 
L 232.596799 127.313769 
L 238.5014 127.414055 
L 244.406 129.174191 
L 250.3106 131.982197 
L 256.2152 133.975281 
L 262.1198 133.905791 
L 268.024401 134.070829 
L 273.929001 136.683001 
L 279.833601 135.928092 
L 285.738201 139.075649 
L 291.642802 144.03388 
L 297.547402 151.577434 
L 303.452002 153.008285 
L 309.356602 155.246162 
L 315.261202 154.642077 
L 321.165803 151.958836 
L 327.070403 146.076712 
L 332.975003 139.952164 
L 338.879603 136.021271 
L 344.784204 134.404852 
L 350.688804 132.255417 
L 356.593404 132.720522 
L 368.402604 132.381761 
L 374.307205 132.936887 
L 380.211805 131.310202 
L 392.021005 129.26658 
L 397.925605 120.53065 
L 403.830206 117.740017 
L 409.734806 112.138219 
L 415.639406 104.896312 
L 421.544006 98.935222 
L 427.448607 110.945053 
L 433.353207 139.491796 
L 439.257807 160.198865 
L 445.162407 168.858199 
L 451.067007 173.261303 
L 456.971608 173.500568 
L 462.876208 169.782882 
L 468.780808 163.755461 
L 474.685408 156.093459 
L 480.590009 150.870695 
L 486.494609 148.020048 
L 492.399209 146.49128 
L 498.303809 145.98985 
L 504.208409 145.681096 
L 510.11301 143.731443 
L 516.01761 142.091333 
L 521.92221 139.929264 
L 527.82681 136.918317 
L 533.731411 134.276138 
L 545.540611 130.294708 
L 551.445211 126.783122 
L 557.349811 126.769698 
L 563.254412 126.207465 
L 569.159012 133.686268 
L 575.063612 142.792545 
L 580.968212 150.576154 
L 586.872812 156.0903 
L 592.777413 157.308735 
L 598.682013 155.881832 
L 604.586613 154.036413 
L 610.491213 147.381218 
L 622.300414 138.477092 
L 628.205014 134.730189 
L 634.109614 132.280685 
L 640.014214 129.552435 
L 645.918815 127.351672 
L 651.823415 123.999595 
L 657.728015 121.084197 
L 669.537216 117.873468 
L 675.441816 113.673304 
L 681.346416 114.104454 
L 687.251016 112.800737 
L 693.155616 109.465244 
L 699.060217 110.873195 
L 704.964817 110.818709 
L 710.869417 113.40877 
L 716.774017 118.793414 
L 728.583218 132.767112 
L 734.487818 131.265981 
L 740.392418 128.22029 
L 746.297018 125.847383 
L 752.201619 124.407846 
L 758.106219 124.630528 
L 764.010819 125.80869 
L 769.915419 127.508023 
L 775.82002 128.232135 
L 781.72462 124.561038 
L 787.62922 124.028812 
L 793.53382 123.752434 
L 799.43842 124.21596 
L 805.343021 124.251495 
L 811.247621 123.521066 
L 817.152221 123.717689 
L 828.961421 125.586008 
L 834.866022 128.668813 
L 840.770622 130.287602 
L 846.675222 132.658929 
L 852.579822 135.839651 
L 858.484423 136.541653 
L 870.293623 141.692559 
L 876.198223 143.196848 
L 882.102823 143.960442 
L 888.007424 145.774275 
L 893.912024 147.410436 
L 899.816624 148.83418 
L 905.721224 151.4961 
L 911.625825 153.214385 
L 917.530425 156.061873 
L 923.435025 158.096809 
L 929.339625 160.269933 
L 935.244225 160.545522 
L 941.148826 158.93621 
L 947.053426 156.861002 
L 952.958026 150.895964 
L 958.862626 147.656807 
L 964.767227 145.389714 
L 970.671827 145.437883 
L 976.576427 148.018468 
L 982.481027 143.359516 
L 988.385627 143.665901 
L 994.290228 146.265439 
L 1006.099428 156.40932 
L 1012.004028 159.917748 
L 1017.908628 160.711349 
L 1023.813229 162.564665 
L 1029.717829 166.403168 
L 1035.622429 165.674318 
L 1041.527029 162.350669 
L 1047.43163 163.822582 
L 1053.33623 168.705796 
L 1059.24083 168.753964 
L 1065.14543 165.189471 
L 1071.05003 164.291636 
L 1076.954631 172.275816 
L 1076.954631 172.275816 
" clip-path="url(#pe4802ab12e)" style="fill: none; stroke: #0000ff; stroke-width: 1.5; stroke-linecap: square"/>
   </g>
   <g id="patch_3">
    <path d="M 47.782813 180.53875 
L 47.782813 25.69875 
" style="fill: none; stroke: #000000; stroke-width: 0.8; stroke-linejoin: miter; stroke-linecap: square"/>
   </g>
   <g id="patch_4">
    <path d="M 1125.962812 180.53875 
L 1125.962812 25.69875 
" style="fill: none; stroke: #000000; stroke-width: 0.8; stroke-linejoin: miter; stroke-linecap: square"/>
   </g>
   <g id="patch_5">
    <path d="M 47.782813 180.53875 
L 1125.962812 180.53875 
" style="fill: none; stroke: #000000; stroke-width: 0.8; stroke-linejoin: miter; stroke-linecap: square"/>
   </g>
   <g id="patch_6">
    <path d="M 47.782813 25.69875 
L 1125.962812 25.69875 
" style="fill: none; stroke: #000000; stroke-width: 0.8; stroke-linejoin: miter; stroke-linecap: square"/>
   </g>
   <g id="text_13">
    <!-- Model 1: Winter Week -->
    <g transform="translate(505.045937 19.69875) scale(0.18 -0.18)">
     <defs>
      <path id="TimesNewRomanPSMT-6f" d="M 1600 2947 
Q 2250 2947 2644 2453 
Q 2978 2031 2978 1484 
Q 2978 1100 2793 706 
Q 2609 313 2286 112 
Q 1963 -88 1566 -88 
Q 919 -88 538 428 
Q 216 863 216 1403 
Q 216 1797 411 2186 
Q 606 2575 925 2761 
Q 1244 2947 1600 2947 
z
M 1503 2744 
Q 1338 2744 1170 2645 
Q 1003 2547 900 2300 
Q 797 2053 797 1666 
Q 797 1041 1045 587 
Q 1294 134 1700 134 
Q 2003 134 2200 384 
Q 2397 634 2397 1244 
Q 2397 2006 2069 2444 
Q 1847 2744 1503 2744 
z
" transform="scale(0.015625)"/>
      <path id="TimesNewRomanPSMT-6c" d="M 1184 4444 
L 1184 647 
Q 1184 378 1223 290 
Q 1263 203 1344 158 
Q 1425 113 1647 113 
L 1647 0 
L 244 0 
L 244 113 
Q 441 113 512 153 
Q 584 194 625 287 
Q 666 381 666 647 
L 666 3247 
Q 666 3731 644 3842 
Q 622 3953 573 3993 
Q 525 4034 450 4034 
Q 369 4034 244 3984 
L 191 4094 
L 1044 4444 
L 1184 4444 
z
" transform="scale(0.015625)"/>
      <path id="TimesNewRomanPSMT-3a" d="M 903 2950 
Q 1047 2950 1148 2848 
Q 1250 2747 1250 2603 
Q 1250 2459 1148 2357 
Q 1047 2256 903 2256 
Q 759 2256 657 2357 
Q 556 2459 556 2603 
Q 556 2747 657 2848 
Q 759 2950 903 2950 
z
M 897 609 
Q 1044 609 1145 506 
Q 1247 403 1247 259 
Q 1247 116 1144 14 
Q 1041 -88 897 -88 
Q 753 -88 651 14 
Q 550 116 550 259 
Q 550 403 651 506 
Q 753 609 897 609 
z
" transform="scale(0.015625)"/>
      <path id="TimesNewRomanPSMT-69" d="M 928 4444 
Q 1059 4444 1151 4351 
Q 1244 4259 1244 4128 
Q 1244 3997 1151 3903 
Q 1059 3809 928 3809 
Q 797 3809 703 3903 
Q 609 3997 609 4128 
Q 609 4259 701 4351 
Q 794 4444 928 4444 
z
M 1188 2947 
L 1188 647 
Q 1188 378 1227 289 
Q 1266 200 1342 156 
Q 1419 113 1622 113 
L 1622 0 
L 231 0 
L 231 113 
Q 441 113 512 153 
Q 584 194 626 287 
Q 669 381 669 647 
L 669 1750 
Q 669 2216 641 2353 
Q 619 2453 572 2492 
Q 525 2531 444 2531 
Q 356 2531 231 2484 
L 188 2597 
L 1050 2947 
L 1188 2947 
z
" transform="scale(0.015625)"/>
      <path id="TimesNewRomanPSMT-74" d="M 1031 3803 
L 1031 2863 
L 1700 2863 
L 1700 2644 
L 1031 2644 
L 1031 788 
Q 1031 509 1111 412 
Q 1191 316 1316 316 
Q 1419 316 1516 380 
Q 1613 444 1666 569 
L 1788 569 
Q 1678 263 1478 108 
Q 1278 -47 1066 -47 
Q 922 -47 784 33 
Q 647 113 581 261 
Q 516 409 516 719 
L 516 2644 
L 63 2644 
L 63 2747 
Q 234 2816 414 2980 
Q 594 3144 734 3369 
Q 806 3488 934 3803 
L 1031 3803 
z
" transform="scale(0.015625)"/>
      <path id="TimesNewRomanPSMT-72" d="M 1038 2947 
L 1038 2303 
Q 1397 2947 1775 2947 
Q 1947 2947 2059 2842 
Q 2172 2738 2172 2600 
Q 2172 2478 2090 2393 
Q 2009 2309 1897 2309 
Q 1788 2309 1652 2417 
Q 1516 2525 1450 2525 
Q 1394 2525 1328 2463 
Q 1188 2334 1038 2041 
L 1038 669 
Q 1038 431 1097 309 
Q 1138 225 1241 169 
Q 1344 113 1538 113 
L 1538 0 
L 72 0 
L 72 113 
Q 291 113 397 181 
Q 475 231 506 341 
Q 522 394 522 644 
L 522 1753 
Q 522 2253 501 2348 
Q 481 2444 426 2487 
Q 372 2531 291 2531 
Q 194 2531 72 2484 
L 41 2597 
L 906 2947 
L 1038 2947 
z
" transform="scale(0.015625)"/>
      <path id="TimesNewRomanPSMT-6b" d="M 1047 4444 
L 1047 1597 
L 1775 2259 
Q 2006 2472 2044 2528 
Q 2069 2566 2069 2603 
Q 2069 2666 2017 2711 
Q 1966 2756 1847 2763 
L 1847 2863 
L 3091 2863 
L 3091 2763 
Q 2834 2756 2664 2684 
Q 2494 2613 2291 2428 
L 1556 1750 
L 2291 822 
Q 2597 438 2703 334 
Q 2853 188 2966 144 
Q 3044 113 3238 113 
L 3238 0 
L 1847 0 
L 1847 113 
Q 1966 116 2008 148 
Q 2050 181 2050 241 
Q 2050 313 1925 472 
L 1047 1594 
L 1047 644 
Q 1047 366 1086 278 
Q 1125 191 1197 153 
Q 1269 116 1509 113 
L 1509 0 
L 53 0 
L 53 113 
Q 272 113 381 166 
Q 447 200 481 272 
Q 528 375 528 628 
L 528 3234 
Q 528 3731 506 3842 
Q 484 3953 434 3995 
Q 384 4038 303 4038 
Q 238 4038 106 3984 
L 53 4094 
L 903 4444 
L 1047 4444 
z
" transform="scale(0.015625)"/>
     </defs>
     <use xlink:href="#TimesNewRomanPSMT-4d"/>
     <use xlink:href="#TimesNewRomanPSMT-6f" x="88.916016"/>
     <use xlink:href="#TimesNewRomanPSMT-64" x="138.916016"/>
     <use xlink:href="#TimesNewRomanPSMT-65" x="188.916016"/>
     <use xlink:href="#TimesNewRomanPSMT-6c" x="233.300781"/>
     <use xlink:href="#TimesNewRomanPSMT-20" x="261.083984"/>
     <use xlink:href="#TimesNewRomanPSMT-31" x="286.083984"/>
     <use xlink:href="#TimesNewRomanPSMT-3a" x="336.083984"/>
     <use xlink:href="#TimesNewRomanPSMT-20" x="363.867188"/>
     <use xlink:href="#TimesNewRomanPSMT-57" x="387.117188"/>
     <use xlink:href="#TimesNewRomanPSMT-69" x="477.501953"/>
     <use xlink:href="#TimesNewRomanPSMT-6e" x="505.285156"/>
     <use xlink:href="#TimesNewRomanPSMT-74" x="555.285156"/>
     <use xlink:href="#TimesNewRomanPSMT-65" x="583.068359"/>
     <use xlink:href="#TimesNewRomanPSMT-72" x="627.453125"/>
     <use xlink:href="#TimesNewRomanPSMT-20" x="660.753906"/>
     <use xlink:href="#TimesNewRomanPSMT-57" x="684.003906"/>
     <use xlink:href="#TimesNewRomanPSMT-65" x="770.388672"/>
     <use xlink:href="#TimesNewRomanPSMT-65" x="814.773438"/>
     <use xlink:href="#TimesNewRomanPSMT-6b" x="859.158203"/>
    </g>
   </g>
   <g id="legend_1">
    <g id="patch_7">
     <path d="M 1010.816719 80.115937 
L 1115.462812 80.115937 
Q 1118.462812 80.115937 1118.462812 77.115937 
L 1118.462812 36.19875 
Q 1118.462812 33.19875 1115.462812 33.19875 
L 1010.816719 33.19875 
Q 1007.816719 33.19875 1007.816719 36.19875 
L 1007.816719 77.115937 
Q 1007.816719 80.115937 1010.816719 80.115937 
z
" style="fill: #ffffff; opacity: 0.8; stroke: #cccccc; stroke-linejoin: miter"/>
    </g>
    <g id="line2d_25">
     <path d="M 1013.816719 44.44875 
L 1028.816719 44.44875 
L 1043.816719 44.44875 
" style="fill: none; stroke: #808080; stroke-width: 1.5; stroke-linecap: square"/>
    </g>
    <g id="text_14">
     <!-- Actual -->
     <g transform="translate(1055.816719 49.69875) scale(0.15 -0.15)">
      <defs>
       <path id="TimesNewRomanPSMT-41" d="M 2928 1419 
L 1288 1419 
L 1000 750 
Q 894 503 894 381 
Q 894 284 986 211 
Q 1078 138 1384 116 
L 1384 0 
L 50 0 
L 50 116 
Q 316 163 394 238 
Q 553 388 747 847 
L 2238 4334 
L 2347 4334 
L 3822 809 
Q 4000 384 4145 257 
Q 4291 131 4550 116 
L 4550 0 
L 2878 0 
L 2878 116 
Q 3131 128 3220 200 
Q 3309 272 3309 375 
Q 3309 513 3184 809 
L 2928 1419 
z
M 2841 1650 
L 2122 3363 
L 1384 1650 
L 2841 1650 
z
" transform="scale(0.015625)"/>
       <path id="TimesNewRomanPSMT-63" d="M 2631 1088 
Q 2516 522 2178 217 
Q 1841 -88 1431 -88 
Q 944 -88 581 321 
Q 219 731 219 1428 
Q 219 2103 620 2525 
Q 1022 2947 1584 2947 
Q 2006 2947 2278 2723 
Q 2550 2500 2550 2259 
Q 2550 2141 2473 2067 
Q 2397 1994 2259 1994 
Q 2075 1994 1981 2113 
Q 1928 2178 1911 2362 
Q 1894 2547 1784 2644 
Q 1675 2738 1481 2738 
Q 1169 2738 978 2506 
Q 725 2200 725 1697 
Q 725 1184 976 792 
Q 1228 400 1656 400 
Q 1963 400 2206 609 
Q 2378 753 2541 1131 
L 2631 1088 
z
" transform="scale(0.015625)"/>
       <path id="TimesNewRomanPSMT-75" d="M 2709 2863 
L 2709 1128 
Q 2709 631 2732 520 
Q 2756 409 2807 365 
Q 2859 322 2928 322 
Q 3025 322 3147 375 
L 3191 266 
L 2334 -88 
L 2194 -88 
L 2194 519 
Q 1825 119 1631 15 
Q 1438 -88 1222 -88 
Q 981 -88 804 51 
Q 628 191 559 409 
Q 491 628 491 1028 
L 491 2306 
Q 491 2509 447 2587 
Q 403 2666 317 2708 
Q 231 2750 6 2747 
L 6 2863 
L 1009 2863 
L 1009 947 
Q 1009 547 1148 422 
Q 1288 297 1484 297 
Q 1619 297 1789 381 
Q 1959 466 2194 703 
L 2194 2325 
Q 2194 2569 2105 2655 
Q 2016 2741 1734 2747 
L 1734 2863 
L 2709 2863 
z
" transform="scale(0.015625)"/>
      </defs>
      <use xlink:href="#TimesNewRomanPSMT-41"/>
      <use xlink:href="#TimesNewRomanPSMT-63" x="72.216797"/>
      <use xlink:href="#TimesNewRomanPSMT-74" x="116.601562"/>
      <use xlink:href="#TimesNewRomanPSMT-75" x="144.384766"/>
      <use xlink:href="#TimesNewRomanPSMT-61" x="194.384766"/>
      <use xlink:href="#TimesNewRomanPSMT-6c" x="238.769531"/>
     </g>
    </g>
    <g id="line2d_26">
     <path d="M 1013.816719 65.657344 
L 1028.816719 65.657344 
L 1043.816719 65.657344 
" style="fill: none; stroke: #0000ff; stroke-width: 1.5; stroke-linecap: square"/>
    </g>
    <g id="text_15">
     <!-- Predicted -->
     <g transform="translate(1055.816719 70.907344) scale(0.15 -0.15)">
      <defs>
       <path id="TimesNewRomanPSMT-50" d="M 1313 1984 
L 1313 750 
Q 1313 350 1400 253 
Q 1519 116 1759 116 
L 1922 116 
L 1922 0 
L 106 0 
L 106 116 
L 266 116 
Q 534 116 650 291 
Q 713 388 713 750 
L 713 3488 
Q 713 3888 628 3984 
Q 506 4122 266 4122 
L 106 4122 
L 106 4238 
L 1659 4238 
Q 2228 4238 2556 4120 
Q 2884 4003 3109 3725 
Q 3334 3447 3334 3066 
Q 3334 2547 2992 2222 
Q 2650 1897 2025 1897 
Q 1872 1897 1694 1919 
Q 1516 1941 1313 1984 
z
M 1313 2163 
Q 1478 2131 1606 2115 
Q 1734 2100 1825 2100 
Q 2150 2100 2386 2351 
Q 2622 2603 2622 3003 
Q 2622 3278 2509 3514 
Q 2397 3750 2190 3867 
Q 1984 3984 1722 3984 
Q 1563 3984 1313 3925 
L 1313 2163 
z
" transform="scale(0.015625)"/>
      </defs>
      <use xlink:href="#TimesNewRomanPSMT-50"/>
      <use xlink:href="#TimesNewRomanPSMT-72" x="55.615234"/>
      <use xlink:href="#TimesNewRomanPSMT-65" x="88.916016"/>
      <use xlink:href="#TimesNewRomanPSMT-64" x="133.300781"/>
      <use xlink:href="#TimesNewRomanPSMT-69" x="183.300781"/>
      <use xlink:href="#TimesNewRomanPSMT-63" x="211.083984"/>
      <use xlink:href="#TimesNewRomanPSMT-74" x="255.46875"/>
      <use xlink:href="#TimesNewRomanPSMT-65" x="283.251953"/>
      <use xlink:href="#TimesNewRomanPSMT-64" x="327.636719"/>
     </g>
    </g>
   </g>
  </g>
  <g id="axes_2">
   <g id="patch_8">
    <path d="M 47.782813 388.43875 
L 1125.962812 388.43875 
L 1125.962812 233.59875 
L 47.782813 233.59875 
z
" style="fill: #ffffff"/>
   </g>
   <g id="matplotlib.axis_3">
    <g id="xtick_8">
     <g id="line2d_27">
      <path d="M 155.836997 388.43875 
L 155.836997 233.59875 
" clip-path="url(#pdde4d59769)" style="fill: none; stroke: #b0b0b0; stroke-opacity: 0.5; stroke-width: 0.8; stroke-linecap: square"/>
     </g>
     <g id="line2d_28"/>
     <g id="text_16">
      <!-- Aug 01 -->
      <g transform="translate(133.54559 402.32625) scale(0.15 -0.15)">
       <defs>
        <path id="TimesNewRomanPSMT-67" d="M 966 1044 
Q 703 1172 562 1401 
Q 422 1631 422 1909 
Q 422 2334 742 2640 
Q 1063 2947 1563 2947 
Q 1972 2947 2272 2747 
L 2878 2747 
Q 3013 2747 3034 2739 
Q 3056 2731 3066 2713 
Q 3084 2684 3084 2613 
Q 3084 2531 3069 2500 
Q 3059 2484 3036 2475 
Q 3013 2466 2878 2466 
L 2506 2466 
Q 2681 2241 2681 1891 
Q 2681 1491 2375 1206 
Q 2069 922 1553 922 
Q 1341 922 1119 984 
Q 981 866 932 777 
Q 884 688 884 625 
Q 884 572 936 522 
Q 988 472 1138 450 
Q 1225 438 1575 428 
Q 2219 413 2409 384 
Q 2700 344 2873 169 
Q 3047 -6 3047 -263 
Q 3047 -616 2716 -925 
Q 2228 -1381 1444 -1381 
Q 841 -1381 425 -1109 
Q 191 -953 191 -784 
Q 191 -709 225 -634 
Q 278 -519 444 -313 
Q 466 -284 763 25 
Q 600 122 533 198 
Q 466 275 466 372 
Q 466 481 555 628 
Q 644 775 966 1044 
z
M 1509 2797 
Q 1278 2797 1122 2612 
Q 966 2428 966 2047 
Q 966 1553 1178 1281 
Q 1341 1075 1591 1075 
Q 1828 1075 1981 1253 
Q 2134 1431 2134 1813 
Q 2134 2309 1919 2591 
Q 1759 2797 1509 2797 
z
M 934 0 
Q 788 -159 713 -296 
Q 638 -434 638 -550 
Q 638 -700 819 -813 
Q 1131 -1006 1722 -1006 
Q 2284 -1006 2551 -807 
Q 2819 -609 2819 -384 
Q 2819 -222 2659 -153 
Q 2497 -84 2016 -72 
Q 1313 -53 934 0 
z
" transform="scale(0.015625)"/>
       </defs>
       <use xlink:href="#TimesNewRomanPSMT-41"/>
       <use xlink:href="#TimesNewRomanPSMT-75" x="72.216797"/>
       <use xlink:href="#TimesNewRomanPSMT-67" x="122.216797"/>
       <use xlink:href="#TimesNewRomanPSMT-20" x="172.216797"/>
       <use xlink:href="#TimesNewRomanPSMT-30" x="197.216797"/>
       <use xlink:href="#TimesNewRomanPSMT-31" x="247.216797"/>
      </g>
     </g>
    </g>
    <g id="xtick_9">
     <g id="line2d_29">
      <path d="M 297.547402 388.43875 
L 297.547402 233.59875 
" clip-path="url(#pdde4d59769)" style="fill: none; stroke: #b0b0b0; stroke-opacity: 0.5; stroke-width: 0.8; stroke-linecap: square"/>
     </g>
     <g id="line2d_30"/>
     <g id="text_17">
      <!-- Aug 02 -->
      <g transform="translate(275.255996 402.32625) scale(0.15 -0.15)">
       <use xlink:href="#TimesNewRomanPSMT-41"/>
       <use xlink:href="#TimesNewRomanPSMT-75" x="72.216797"/>
       <use xlink:href="#TimesNewRomanPSMT-67" x="122.216797"/>
       <use xlink:href="#TimesNewRomanPSMT-20" x="172.216797"/>
       <use xlink:href="#TimesNewRomanPSMT-30" x="197.216797"/>
       <use xlink:href="#TimesNewRomanPSMT-32" x="247.216797"/>
      </g>
     </g>
    </g>
    <g id="xtick_10">
     <g id="line2d_31">
      <path d="M 439.257807 388.43875 
L 439.257807 233.59875 
" clip-path="url(#pdde4d59769)" style="fill: none; stroke: #b0b0b0; stroke-opacity: 0.5; stroke-width: 0.8; stroke-linecap: square"/>
     </g>
     <g id="line2d_32"/>
     <g id="text_18">
      <!-- Aug 03 -->
      <g transform="translate(416.966401 402.32625) scale(0.15 -0.15)">
       <use xlink:href="#TimesNewRomanPSMT-41"/>
       <use xlink:href="#TimesNewRomanPSMT-75" x="72.216797"/>
       <use xlink:href="#TimesNewRomanPSMT-67" x="122.216797"/>
       <use xlink:href="#TimesNewRomanPSMT-20" x="172.216797"/>
       <use xlink:href="#TimesNewRomanPSMT-30" x="197.216797"/>
       <use xlink:href="#TimesNewRomanPSMT-33" x="247.216797"/>
      </g>
     </g>
    </g>
    <g id="xtick_11">
     <g id="line2d_33">
      <path d="M 580.968212 388.43875 
L 580.968212 233.59875 
" clip-path="url(#pdde4d59769)" style="fill: none; stroke: #b0b0b0; stroke-opacity: 0.5; stroke-width: 0.8; stroke-linecap: square"/>
     </g>
     <g id="line2d_34"/>
     <g id="text_19">
      <!-- Aug 04 -->
      <g transform="translate(558.676806 402.32625) scale(0.15 -0.15)">
       <use xlink:href="#TimesNewRomanPSMT-41"/>
       <use xlink:href="#TimesNewRomanPSMT-75" x="72.216797"/>
       <use xlink:href="#TimesNewRomanPSMT-67" x="122.216797"/>
       <use xlink:href="#TimesNewRomanPSMT-20" x="172.216797"/>
       <use xlink:href="#TimesNewRomanPSMT-30" x="197.216797"/>
       <use xlink:href="#TimesNewRomanPSMT-34" x="247.216797"/>
      </g>
     </g>
    </g>
    <g id="xtick_12">
     <g id="line2d_35">
      <path d="M 722.678618 388.43875 
L 722.678618 233.59875 
" clip-path="url(#pdde4d59769)" style="fill: none; stroke: #b0b0b0; stroke-opacity: 0.5; stroke-width: 0.8; stroke-linecap: square"/>
     </g>
     <g id="line2d_36"/>
     <g id="text_20">
      <!-- Aug 05 -->
      <g transform="translate(700.387211 402.32625) scale(0.15 -0.15)">
       <use xlink:href="#TimesNewRomanPSMT-41"/>
       <use xlink:href="#TimesNewRomanPSMT-75" x="72.216797"/>
       <use xlink:href="#TimesNewRomanPSMT-67" x="122.216797"/>
       <use xlink:href="#TimesNewRomanPSMT-20" x="172.216797"/>
       <use xlink:href="#TimesNewRomanPSMT-30" x="197.216797"/>
       <use xlink:href="#TimesNewRomanPSMT-35" x="247.216797"/>
      </g>
     </g>
    </g>
    <g id="xtick_13">
     <g id="line2d_37">
      <path d="M 864.389023 388.43875 
L 864.389023 233.59875 
" clip-path="url(#pdde4d59769)" style="fill: none; stroke: #b0b0b0; stroke-opacity: 0.5; stroke-width: 0.8; stroke-linecap: square"/>
     </g>
     <g id="line2d_38"/>
     <g id="text_21">
      <!-- Aug 06 -->
      <g transform="translate(842.097617 402.32625) scale(0.15 -0.15)">
       <use xlink:href="#TimesNewRomanPSMT-41"/>
       <use xlink:href="#TimesNewRomanPSMT-75" x="72.216797"/>
       <use xlink:href="#TimesNewRomanPSMT-67" x="122.216797"/>
       <use xlink:href="#TimesNewRomanPSMT-20" x="172.216797"/>
       <use xlink:href="#TimesNewRomanPSMT-30" x="197.216797"/>
       <use xlink:href="#TimesNewRomanPSMT-36" x="247.216797"/>
      </g>
     </g>
    </g>
    <g id="xtick_14">
     <g id="line2d_39">
      <path d="M 1006.099428 388.43875 
L 1006.099428 233.59875 
" clip-path="url(#pdde4d59769)" style="fill: none; stroke: #b0b0b0; stroke-opacity: 0.5; stroke-width: 0.8; stroke-linecap: square"/>
     </g>
     <g id="line2d_40"/>
     <g id="text_22">
      <!-- Aug 07 -->
      <g transform="translate(983.808022 402.32625) scale(0.15 -0.15)">
       <use xlink:href="#TimesNewRomanPSMT-41"/>
       <use xlink:href="#TimesNewRomanPSMT-75" x="72.216797"/>
       <use xlink:href="#TimesNewRomanPSMT-67" x="122.216797"/>
       <use xlink:href="#TimesNewRomanPSMT-20" x="172.216797"/>
       <use xlink:href="#TimesNewRomanPSMT-30" x="197.216797"/>
       <use xlink:href="#TimesNewRomanPSMT-37" x="247.216797"/>
      </g>
     </g>
    </g>
   </g>
   <g id="matplotlib.axis_4">
    <g id="ytick_5">
     <g id="line2d_41">
      <path d="M 47.782813 355.725407 
L 1125.962812 355.725407 
" clip-path="url(#pdde4d59769)" style="fill: none; stroke: #b0b0b0; stroke-opacity: 0.5; stroke-width: 0.8; stroke-linecap: square"/>
     </g>
     <g id="line2d_42">
      <g>
       <use xlink:href="#md9f29722b2" x="47.782813" y="355.725407" style="stroke: #000000; stroke-width: 0.8"/>
      </g>
     </g>
     <g id="text_23">
      <!-- −5 -->
      <g transform="translate(24.824219 360.933219) scale(0.15 -0.15)">
       <defs>
        <path id="TimesNewRomanPSMT-2212" d="M 3484 2000 
L 116 2000 
L 116 2256 
L 3484 2256 
L 3484 2000 
z
" transform="scale(0.015625)"/>
       </defs>
       <use xlink:href="#TimesNewRomanPSMT-2212"/>
       <use xlink:href="#TimesNewRomanPSMT-35" x="56.396484"/>
      </g>
     </g>
    </g>
    <g id="ytick_6">
     <g id="line2d_43">
      <path d="M 47.782813 317.3661 
L 1125.962812 317.3661 
" clip-path="url(#pdde4d59769)" style="fill: none; stroke: #b0b0b0; stroke-opacity: 0.5; stroke-width: 0.8; stroke-linecap: square"/>
     </g>
     <g id="line2d_44">
      <g>
       <use xlink:href="#md9f29722b2" x="47.782813" y="317.3661" style="stroke: #000000; stroke-width: 0.8"/>
      </g>
     </g>
     <g id="text_24">
      <!-- 0 -->
      <g transform="translate(33.282813 322.573912) scale(0.15 -0.15)">
       <use xlink:href="#TimesNewRomanPSMT-30"/>
      </g>
     </g>
    </g>
    <g id="ytick_7">
     <g id="line2d_45">
      <path d="M 47.782813 279.006793 
L 1125.962812 279.006793 
" clip-path="url(#pdde4d59769)" style="fill: none; stroke: #b0b0b0; stroke-opacity: 0.5; stroke-width: 0.8; stroke-linecap: square"/>
     </g>
     <g id="line2d_46">
      <g>
       <use xlink:href="#md9f29722b2" x="47.782813" y="279.006793" style="stroke: #000000; stroke-width: 0.8"/>
      </g>
     </g>
     <g id="text_25">
      <!-- 5 -->
      <g transform="translate(33.282813 284.214605) scale(0.15 -0.15)">
       <use xlink:href="#TimesNewRomanPSMT-35"/>
      </g>
     </g>
    </g>
    <g id="ytick_8">
     <g id="line2d_47">
      <path d="M 47.782813 240.647486 
L 1125.962812 240.647486 
" clip-path="url(#pdde4d59769)" style="fill: none; stroke: #b0b0b0; stroke-opacity: 0.5; stroke-width: 0.8; stroke-linecap: square"/>
     </g>
     <g id="line2d_48">
      <g>
       <use xlink:href="#md9f29722b2" x="47.782813" y="240.647486" style="stroke: #000000; stroke-width: 0.8"/>
      </g>
     </g>
     <g id="text_26">
      <!-- 10 -->
      <g transform="translate(25.782813 245.855298) scale(0.15 -0.15)">
       <use xlink:href="#TimesNewRomanPSMT-31"/>
       <use xlink:href="#TimesNewRomanPSMT-30" x="50"/>
      </g>
     </g>
    </g>
    <g id="text_27">
     <!-- Demand (MW) -->
     <g transform="translate(17.615625 357.045313) rotate(-90) scale(0.15 -0.15)">
      <use xlink:href="#TimesNewRomanPSMT-44"/>
      <use xlink:href="#TimesNewRomanPSMT-65" x="72.216797"/>
      <use xlink:href="#TimesNewRomanPSMT-6d" x="116.601562"/>
      <use xlink:href="#TimesNewRomanPSMT-61" x="194.384766"/>
      <use xlink:href="#TimesNewRomanPSMT-6e" x="238.769531"/>
      <use xlink:href="#TimesNewRomanPSMT-64" x="288.769531"/>
      <use xlink:href="#TimesNewRomanPSMT-20" x="338.769531"/>
      <use xlink:href="#TimesNewRomanPSMT-28" x="363.769531"/>
      <use xlink:href="#TimesNewRomanPSMT-4d" x="397.070312"/>
      <use xlink:href="#TimesNewRomanPSMT-57" x="485.986328"/>
      <use xlink:href="#TimesNewRomanPSMT-29" x="580.371094"/>
     </g>
    </g>
   </g>
   <g id="line2d_49">
    <path d="M 96.790994 293.811663 
L 102.695595 293.194903 
L 108.600195 292.464216 
L 114.504795 291.369376 
L 120.409395 288.723574 
L 126.313995 286.999856 
L 132.218596 286.724774 
L 138.123196 287.671405 
L 144.027796 286.991156 
L 155.836997 290.507983 
L 161.741597 289.767043 
L 167.646197 289.424433 
L 173.550797 289.799978 
L 179.455397 290.678563 
L 185.359998 289.910901 
L 191.264598 293.239645 
L 197.169198 291.098644 
L 203.073798 291.802196 
L 208.978398 291.97899 
L 214.882999 291.976918 
L 220.787599 293.377187 
L 226.692199 292.084838 
L 232.596799 292.877979 
L 244.406 293.522703 
L 250.3106 293.769303 
L 256.2152 292.204669 
L 262.1198 290.43072 
L 268.024401 290.736563 
L 273.929001 289.572227 
L 279.833601 287.984083 
L 285.738201 287.384101 
L 291.642802 287.297309 
L 297.547402 286.8677 
L 303.452002 287.647791 
L 309.356602 289.161882 
L 315.261202 289.906759 
L 327.070403 290.422434 
L 332.975003 290.299911 
L 338.879603 289.638408 
L 344.784204 289.732036 
L 350.688804 289.639444 
L 356.593404 290.155948 
L 368.402604 292.035643 
L 374.307205 292.731634 
L 380.211805 293.263674 
L 386.116405 293.628966 
L 392.021005 292.574725 
L 397.925605 292.572447 
L 403.830206 291.547102 
L 409.734806 290.731591 
L 415.639406 290.352835 
L 421.544006 289.091351 
L 427.448607 288.048607 
L 433.353207 289.068151 
L 439.257807 288.823519 
L 445.162407 289.439347 
L 451.067007 290.353664 
L 456.971608 291.500392 
L 462.876208 292.293014 
L 468.780808 291.260938 
L 474.685408 291.579416 
L 480.590009 291.53747 
L 486.494609 289.994586 
L 492.399209 288.88825 
L 498.303809 288.690328 
L 504.208409 289.379587 
L 510.11301 292.841418 
L 516.01761 293.326851 
L 521.92221 293.651026 
L 527.82681 293.507581 
L 533.731411 294.009068 
L 539.636011 291.399826 
L 545.540611 289.574402 
L 551.445211 285.12389 
L 557.349811 284.147949 
L 563.254412 286.586818 
L 569.159012 286.271344 
L 575.063612 288.109403 
L 580.968212 288.986849 
L 586.872812 289.130397 
L 592.777413 288.389871 
L 598.682013 289.20155 
L 604.586613 289.235314 
L 610.491213 288.371746 
L 616.395814 288.170509 
L 622.300414 288.093142 
L 628.205014 288.427156 
L 634.109614 288.3443 
L 640.014214 288.432024 
L 645.918815 289.703761 
L 651.823415 291.83772 
L 657.728015 291.194446 
L 663.632615 291.238567 
L 669.537216 291.045202 
L 675.441816 291.726486 
L 681.346416 289.773567 
L 687.251016 286.851854 
L 693.155616 285.552878 
L 699.060217 282.149563 
L 704.964817 282.355564 
L 710.869417 283.145079 
L 716.774017 283.495561 
L 728.583218 284.76968 
L 734.487818 287.560377 
L 740.392418 288.806947 
L 746.297018 288.854383 
L 758.106219 287.727332 
L 764.010819 288.015672 
L 769.915419 290.333778 
L 775.82002 289.769632 
L 781.72462 288.764898 
L 787.62922 293.375529 
L 793.53382 293.933255 
L 799.43842 294.09441 
L 805.343021 294.003061 
L 811.247621 292.714027 
L 817.152221 291.590188 
L 823.056821 290.298254 
L 828.961421 286.569418 
L 834.866022 277.670466 
L 840.770622 278.344707 
L 846.675222 279.933991 
L 852.579822 287.409165 
L 858.484423 288.990784 
L 864.389023 287.108501 
L 870.293623 290.739255 
L 876.198223 288.990163 
L 882.102823 285.628691 
L 888.007424 287.241381 
L 893.912024 288.331043 
L 899.816624 287.399533 
L 905.721224 288.137781 
L 917.530425 287.79341 
L 923.435025 290.150977 
L 929.339625 291.494903 
L 935.244225 292.96912 
L 941.148826 293.878052 
L 947.053426 293.217481 
L 952.958026 293.079319 
L 958.862626 292.820186 
L 964.767227 290.970217 
L 970.671827 288.766244 
L 976.576427 283.405972 
L 982.481027 288.374542 
L 988.385627 284.897072 
L 994.290228 283.779239 
L 1000.194828 285.403115 
L 1006.099428 287.170125 
L 1012.004028 286.764027 
L 1017.908628 287.207514 
L 1023.813229 289.103262 
L 1029.717829 289.303463 
L 1035.622429 288.765416 
L 1041.527029 289.161468 
L 1047.43163 288.752159 
L 1053.33623 288.229648 
L 1059.24083 288.026754 
L 1065.14543 288.0629 
L 1071.05003 290.275675 
L 1076.954631 293.130068 
L 1076.954631 293.130068 
" clip-path="url(#pdde4d59769)" style="fill: none; stroke: #808080; stroke-width: 1.5; stroke-linecap: square"/>
   </g>
   <g id="line2d_50">
    <path d="M 96.790994 273.722272 
L 102.695595 269.766508 
L 108.600195 266.168437 
L 114.504795 263.072658 
L 120.409395 259.706285 
L 126.313995 258.718612 
L 132.218596 267.661784 
L 138.123196 289.066712 
L 144.027796 300.73444 
L 149.932396 312.062233 
L 155.836997 320.647712 
L 167.646197 347.591386 
L 173.550797 365.719575 
L 179.455397 373.861954 
L 185.359998 381.360825 
L 191.264598 381.400568 
L 197.169198 370.939526 
L 203.073798 344.126921 
L 208.978398 324.773444 
L 214.882999 312.244039 
L 220.787599 307.685355 
L 226.692199 299.218261 
L 232.596799 299.54974 
L 238.5014 289.82607 
L 244.406 283.472156 
L 250.3106 279.814047 
L 256.2152 279.337123 
L 262.1198 279.062299 
L 268.024401 277.429426 
L 273.929001 275.306945 
L 279.833601 278.068708 
L 285.738201 282.952106 
L 291.642802 283.958382 
L 297.547402 283.462009 
L 303.452002 291.718546 
L 309.356602 310.40822 
L 315.261202 312.833429 
L 321.165803 317.131665 
L 327.070403 323.768013 
L 332.975003 325.14213 
L 338.879603 331.366665 
L 344.784204 324.800503 
L 350.688804 313.468482 
L 356.593404 292.647025 
L 362.498004 282.947878 
L 368.402604 277.795576 
L 374.307205 274.00386 
L 380.211805 270.629876 
L 386.116405 269.166125 
L 392.021005 268.792365 
L 397.925605 270.89878 
L 403.830206 271.244634 
L 409.734806 273.060159 
L 415.639406 277.006621 
L 421.544006 284.352436 
L 427.448607 300.667637 
L 433.353207 309.077229 
L 439.257807 319.135761 
L 445.162407 324.291446 
L 456.971608 343.571356 
L 462.876208 349.387462 
L 468.780808 351.029637 
L 474.685408 355.921491 
L 480.590009 357.074057 
L 486.494609 347.169427 
L 492.399209 320.854886 
L 498.303809 301.320448 
L 504.208409 290.318215 
L 510.11301 284.709284 
L 516.01761 281.221988 
L 521.92221 276.954194 
L 527.82681 272.359148 
L 533.731411 268.087972 
L 539.636011 264.555013 
L 545.540611 262.190687 
L 551.445211 265.666145 
L 557.349811 271.421367 
L 563.254412 276.599037 
L 569.159012 290.715652 
L 575.063612 310.881761 
L 586.872812 346.808351 
L 592.777413 346.031235 
L 598.682013 346.012632 
L 604.586613 345.879871 
L 610.491213 340.18215 
L 616.395814 345.114594 
L 622.300414 348.327912 
L 628.205014 341.845465 
L 634.109614 328.08147 
L 640.014214 315.990092 
L 645.918815 300.483294 
L 651.823415 287.92683 
L 657.728015 273.336674 
L 663.632615 264.233681 
L 669.537216 261.320554 
L 675.441816 259.941364 
L 681.346416 257.271773 
L 687.251016 256.169098 
L 699.060217 248.753943 
L 704.964817 252.483083 
L 710.869417 259.41624 
L 716.774017 270.73304 
L 722.678618 279.817429 
L 728.583218 294.090482 
L 734.487818 299.29944 
L 740.392418 307.720871 
L 746.297018 310.822568 
L 752.201619 315.053156 
L 758.106219 314.690389 
L 764.010819 315.263713 
L 769.915419 310.677124 
L 775.82002 298.318532 
L 781.72462 290.982865 
L 787.62922 276.212593 
L 793.53382 265.935049 
L 805.343021 258.48015 
L 811.247621 252.274218 
L 817.152221 246.769296 
L 823.056821 243.918745 
L 828.961421 240.636932 
L 834.866022 241.151908 
L 840.770622 250.128905 
L 846.675222 268.571661 
L 852.579822 280.708702 
L 858.484423 294.870134 
L 864.389023 304.398469 
L 870.293623 315.931745 
L 876.198223 327.122548 
L 882.102823 335.315664 
L 888.007424 338.14423 
L 893.912024 341.773589 
L 899.816624 346.070979 
L 905.721224 343.715955 
L 911.625825 323.929525 
L 917.530425 300.06218 
L 923.435025 285.357867 
L 929.339625 276.582125 
L 935.244225 270.409172 
L 941.148826 266.368001 
L 947.053426 266.121928 
L 952.958026 263.373696 
L 958.862626 260.144311 
L 964.767227 256.224908 
L 970.671827 252.454333 
L 976.576427 251.788838 
L 982.481027 265.531693 
L 988.385627 281.147574 
L 994.290228 291.734612 
L 1000.194828 302.953321 
L 1006.099428 320.429545 
L 1012.004028 333.759742 
L 1017.908628 343.538377 
L 1023.813229 352.55258 
L 1029.717829 360.409989 
L 1035.622429 364.228764 
L 1041.527029 367.004902 
L 1047.43163 360.575729 
L 1053.33623 350.163732 
L 1059.24083 336.478378 
L 1065.14543 318.255481 
L 1071.05003 308.301805 
L 1076.954631 303.579073 
L 1076.954631 303.579073 
" clip-path="url(#pdde4d59769)" style="fill: none; stroke: #0000ff; stroke-width: 1.5; stroke-linecap: square"/>
   </g>
   <g id="patch_9">
    <path d="M 47.782813 388.43875 
L 47.782813 233.59875 
" style="fill: none; stroke: #000000; stroke-width: 0.8; stroke-linejoin: miter; stroke-linecap: square"/>
   </g>
   <g id="patch_10">
    <path d="M 1125.962812 388.43875 
L 1125.962812 233.59875 
" style="fill: none; stroke: #000000; stroke-width: 0.8; stroke-linejoin: miter; stroke-linecap: square"/>
   </g>
   <g id="patch_11">
    <path d="M 47.782813 388.43875 
L 1125.962812 388.43875 
" style="fill: none; stroke: #000000; stroke-width: 0.8; stroke-linejoin: miter; stroke-linecap: square"/>
   </g>
   <g id="patch_12">
    <path d="M 47.782813 233.59875 
L 1125.962812 233.59875 
" style="fill: none; stroke: #000000; stroke-width: 0.8; stroke-linejoin: miter; stroke-linecap: square"/>
   </g>
   <g id="text_28">
    <!-- Model 1: Summer Week -->
    <g transform="translate(499.01875 227.59875) scale(0.18 -0.18)">
     <defs>
      <path id="TimesNewRomanPSMT-53" d="M 2934 4334 
L 2934 2869 
L 2819 2869 
Q 2763 3291 2617 3541 
Q 2472 3791 2203 3937 
Q 1934 4084 1647 4084 
Q 1322 4084 1109 3886 
Q 897 3688 897 3434 
Q 897 3241 1031 3081 
Q 1225 2847 1953 2456 
Q 2547 2138 2764 1967 
Q 2981 1797 3098 1565 
Q 3216 1334 3216 1081 
Q 3216 600 2842 251 
Q 2469 -97 1881 -97 
Q 1697 -97 1534 -69 
Q 1438 -53 1133 45 
Q 828 144 747 144 
Q 669 144 623 97 
Q 578 50 556 -97 
L 441 -97 
L 441 1356 
L 556 1356 
Q 638 900 775 673 
Q 913 447 1195 297 
Q 1478 147 1816 147 
Q 2206 147 2432 353 
Q 2659 559 2659 841 
Q 2659 997 2573 1156 
Q 2488 1316 2306 1453 
Q 2184 1547 1640 1851 
Q 1097 2156 867 2337 
Q 638 2519 519 2737 
Q 400 2956 400 3219 
Q 400 3675 750 4004 
Q 1100 4334 1641 4334 
Q 1978 4334 2356 4169 
Q 2531 4091 2603 4091 
Q 2684 4091 2736 4139 
Q 2788 4188 2819 4334 
L 2934 4334 
z
" transform="scale(0.015625)"/>
     </defs>
     <use xlink:href="#TimesNewRomanPSMT-4d"/>
     <use xlink:href="#TimesNewRomanPSMT-6f" x="88.916016"/>
     <use xlink:href="#TimesNewRomanPSMT-64" x="138.916016"/>
     <use xlink:href="#TimesNewRomanPSMT-65" x="188.916016"/>
     <use xlink:href="#TimesNewRomanPSMT-6c" x="233.300781"/>
     <use xlink:href="#TimesNewRomanPSMT-20" x="261.083984"/>
     <use xlink:href="#TimesNewRomanPSMT-31" x="286.083984"/>
     <use xlink:href="#TimesNewRomanPSMT-3a" x="336.083984"/>
     <use xlink:href="#TimesNewRomanPSMT-20" x="363.867188"/>
     <use xlink:href="#TimesNewRomanPSMT-53" x="388.867188"/>
     <use xlink:href="#TimesNewRomanPSMT-75" x="444.482422"/>
     <use xlink:href="#TimesNewRomanPSMT-6d" x="494.482422"/>
     <use xlink:href="#TimesNewRomanPSMT-6d" x="572.265625"/>
     <use xlink:href="#TimesNewRomanPSMT-65" x="650.048828"/>
     <use xlink:href="#TimesNewRomanPSMT-72" x="694.433594"/>
     <use xlink:href="#TimesNewRomanPSMT-20" x="727.734375"/>
     <use xlink:href="#TimesNewRomanPSMT-57" x="750.984375"/>
     <use xlink:href="#TimesNewRomanPSMT-65" x="837.369141"/>
     <use xlink:href="#TimesNewRomanPSMT-65" x="881.753906"/>
     <use xlink:href="#TimesNewRomanPSMT-6b" x="926.138672"/>
    </g>
   </g>
   <g id="legend_2">
    <g id="patch_13">
     <path d="M 58.282813 380.93875 
L 162.928906 380.93875 
Q 165.928906 380.93875 165.928906 377.93875 
L 165.928906 337.021563 
Q 165.928906 334.021563 162.928906 334.021563 
L 58.282813 334.021563 
Q 55.282813 334.021563 55.282813 337.021563 
L 55.282813 377.93875 
Q 55.282813 380.93875 58.282813 380.93875 
z
" style="fill: #ffffff; opacity: 0.8; stroke: #cccccc; stroke-linejoin: miter"/>
    </g>
    <g id="line2d_51">
     <path d="M 61.282813 345.271563 
L 76.282813 345.271563 
L 91.282813 345.271563 
" style="fill: none; stroke: #808080; stroke-width: 1.5; stroke-linecap: square"/>
    </g>
    <g id="text_29">
     <!-- Actual -->
     <g transform="translate(103.282813 350.521563) scale(0.15 -0.15)">
      <use xlink:href="#TimesNewRomanPSMT-41"/>
      <use xlink:href="#TimesNewRomanPSMT-63" x="72.216797"/>
      <use xlink:href="#TimesNewRomanPSMT-74" x="116.601562"/>
      <use xlink:href="#TimesNewRomanPSMT-75" x="144.384766"/>
      <use xlink:href="#TimesNewRomanPSMT-61" x="194.384766"/>
      <use xlink:href="#TimesNewRomanPSMT-6c" x="238.769531"/>
     </g>
    </g>
    <g id="line2d_52">
     <path d="M 61.282813 366.480156 
L 76.282813 366.480156 
L 91.282813 366.480156 
" style="fill: none; stroke: #0000ff; stroke-width: 1.5; stroke-linecap: square"/>
    </g>
    <g id="text_30">
     <!-- Predicted -->
     <g transform="translate(103.282813 371.730156) scale(0.15 -0.15)">
      <use xlink:href="#TimesNewRomanPSMT-50"/>
      <use xlink:href="#TimesNewRomanPSMT-72" x="55.615234"/>
      <use xlink:href="#TimesNewRomanPSMT-65" x="88.916016"/>
      <use xlink:href="#TimesNewRomanPSMT-64" x="133.300781"/>
      <use xlink:href="#TimesNewRomanPSMT-69" x="183.300781"/>
      <use xlink:href="#TimesNewRomanPSMT-63" x="211.083984"/>
      <use xlink:href="#TimesNewRomanPSMT-74" x="255.46875"/>
      <use xlink:href="#TimesNewRomanPSMT-65" x="283.251953"/>
      <use xlink:href="#TimesNewRomanPSMT-64" x="327.636719"/>
     </g>
    </g>
   </g>
  </g>
 </g>
 <defs>
  <clipPath id="pe4802ab12e">
   <rect x="47.782813" y="25.69875" width="1078.18" height="154.84"/>
  </clipPath>
  <clipPath id="pdde4d59769">
   <rect x="47.782813" y="233.59875" width="1078.18" height="154.84"/>
  </clipPath>
 </defs>
</svg>
