<?xml version="1.0" encoding="utf-8" standalone="no"?>
<!DOCTYPE svg PUBLIC "-//W3C//DTD SVG 1.1//EN"
  "http://www.w3.org/Graphics/SVG/1.1/DTD/svg11.dtd">
<svg xmlns:xlink="http://www.w3.org/1999/xlink" width="1133.162812pt" height="412.762969pt" viewBox="0 0 1133.162812 412.762969" xmlns="http://www.w3.org/2000/svg" version="1.1">
 <metadata>
  <rdf:RDF xmlns:dc="http://purl.org/dc/elements/1.1/" xmlns:cc="http://creativecommons.org/ns#" xmlns:rdf="http://www.w3.org/1999/02/22-rdf-syntax-ns#">
   <cc:Work>
    <dc:type rdf:resource="http://purl.org/dc/dcmitype/StillImage"/>
    <dc:date>2024-04-19T17:41:46.729366</dc:date>
    <dc:format>image/svg+xml</dc:format>
    <dc:creator>
     <cc:Agent>
      <dc:title>Matplotlib v3.8.2, https://matplotlib.org/</dc:title>
     </cc:Agent>
    </dc:creator>
   </cc:Work>
  </rdf:RDF>
 </metadata>
 <defs>
  <style type="text/css">*{stroke-linejoin: round; stroke-linecap: butt}</style>
 </defs>
 <g id="figure_1">
  <g id="patch_1">
   <path d="M 0 412.762969 
L 1133.162812 412.762969 
L 1133.162812 0 
L 0 0 
z
" style="fill: #ffffff"/>
  </g>
  <g id="axes_1">
   <g id="patch_2">
    <path d="M 47.782813 180.53875 
L 1125.962812 180.53875 
L 1125.962812 25.69875 
L 47.782813 25.69875 
z
" style="fill: #ffffff"/>
   </g>
   <g id="matplotlib.axis_1">
    <g id="xtick_1">
     <g id="line2d_1">
      <path d="M 155.836997 180.53875 
L 155.836997 25.69875 
" clip-path="url(#p568be1989a)" style="fill: none; stroke: #b0b0b0; stroke-opacity: 0.5; stroke-width: 0.8; stroke-linecap: square"/>
     </g>
     <g id="line2d_2"/>
     <g id="text_1">
      <!-- Jan 01 -->
      <g transform="translate(136.463559 194.454375) scale(0.15 -0.15)">
       <defs>
        <path id="TimesNewRomanPSMT-4a" d="M 638 4122 
L 638 4238 
L 2453 4238 
L 2453 4122 
L 2300 4122 
Q 2041 4122 1922 3969 
Q 1847 3869 1847 3488 
L 1847 1416 
Q 1847 938 1742 641 
Q 1638 344 1381 123 
Q 1125 -97 763 -97 
Q 469 -97 300 48 
Q 131 194 131 381 
Q 131 534 209 613 
Q 313 709 450 709 
Q 550 709 629 643 
Q 709 578 831 294 
Q 903 125 1016 125 
Q 1100 125 1173 228 
Q 1247 331 1247 594 
L 1247 3488 
Q 1247 3809 1206 3913 
Q 1175 3991 1075 4047 
Q 941 4122 791 4122 
L 638 4122 
z
" transform="scale(0.015625)"/>
        <path id="TimesNewRomanPSMT-61" d="M 1822 413 
Q 1381 72 1269 19 
Q 1100 -59 909 -59 
Q 613 -59 420 144 
Q 228 347 228 678 
Q 228 888 322 1041 
Q 450 1253 767 1440 
Q 1084 1628 1822 1897 
L 1822 2009 
Q 1822 2438 1686 2597 
Q 1550 2756 1291 2756 
Q 1094 2756 978 2650 
Q 859 2544 859 2406 
L 866 2225 
Q 866 2081 792 2003 
Q 719 1925 600 1925 
Q 484 1925 411 2006 
Q 338 2088 338 2228 
Q 338 2497 613 2722 
Q 888 2947 1384 2947 
Q 1766 2947 2009 2819 
Q 2194 2722 2281 2516 
Q 2338 2381 2338 1966 
L 2338 994 
Q 2338 584 2353 492 
Q 2369 400 2405 369 
Q 2441 338 2488 338 
Q 2538 338 2575 359 
Q 2641 400 2828 588 
L 2828 413 
Q 2478 -56 2159 -56 
Q 2006 -56 1915 50 
Q 1825 156 1822 413 
z
M 1822 616 
L 1822 1706 
Q 1350 1519 1213 1441 
Q 966 1303 859 1153 
Q 753 1003 753 825 
Q 753 600 887 451 
Q 1022 303 1197 303 
Q 1434 303 1822 616 
z
" transform="scale(0.015625)"/>
        <path id="TimesNewRomanPSMT-6e" d="M 1034 2341 
Q 1538 2947 1994 2947 
Q 2228 2947 2397 2830 
Q 2566 2713 2666 2444 
Q 2734 2256 2734 1869 
L 2734 647 
Q 2734 375 2778 278 
Q 2813 200 2889 156 
Q 2966 113 3172 113 
L 3172 0 
L 1756 0 
L 1756 113 
L 1816 113 
Q 2016 113 2095 173 
Q 2175 234 2206 353 
Q 2219 400 2219 647 
L 2219 1819 
Q 2219 2209 2117 2386 
Q 2016 2563 1775 2563 
Q 1403 2563 1034 2156 
L 1034 647 
Q 1034 356 1069 288 
Q 1113 197 1189 155 
Q 1266 113 1500 113 
L 1500 0 
L 84 0 
L 84 113 
L 147 113 
Q 366 113 442 223 
Q 519 334 519 647 
L 519 1709 
Q 519 2225 495 2337 
Q 472 2450 423 2490 
Q 375 2531 294 2531 
Q 206 2531 84 2484 
L 38 2597 
L 900 2947 
L 1034 2947 
L 1034 2341 
z
" transform="scale(0.015625)"/>
        <path id="TimesNewRomanPSMT-20" transform="scale(0.015625)"/>
        <path id="TimesNewRomanPSMT-30" d="M 231 2094 
Q 231 2819 450 3342 
Q 669 3866 1031 4122 
Q 1313 4325 1613 4325 
Q 2100 4325 2488 3828 
Q 2972 3213 2972 2159 
Q 2972 1422 2759 906 
Q 2547 391 2217 158 
Q 1888 -75 1581 -75 
Q 975 -75 572 641 
Q 231 1244 231 2094 
z
M 844 2016 
Q 844 1141 1059 588 
Q 1238 122 1591 122 
Q 1759 122 1940 273 
Q 2122 425 2216 781 
Q 2359 1319 2359 2297 
Q 2359 3022 2209 3506 
Q 2097 3866 1919 4016 
Q 1791 4119 1609 4119 
Q 1397 4119 1231 3928 
Q 1006 3669 925 3112 
Q 844 2556 844 2016 
z
" transform="scale(0.015625)"/>
        <path id="TimesNewRomanPSMT-31" d="M 750 3822 
L 1781 4325 
L 1884 4325 
L 1884 747 
Q 1884 391 1914 303 
Q 1944 216 2037 169 
Q 2131 122 2419 116 
L 2419 0 
L 825 0 
L 825 116 
Q 1125 122 1212 167 
Q 1300 213 1334 289 
Q 1369 366 1369 747 
L 1369 3034 
Q 1369 3497 1338 3628 
Q 1316 3728 1258 3775 
Q 1200 3822 1119 3822 
Q 1003 3822 797 3725 
L 750 3822 
z
" transform="scale(0.015625)"/>
       </defs>
       <use xlink:href="#TimesNewRomanPSMT-4a"/>
       <use xlink:href="#TimesNewRomanPSMT-61" x="38.916016"/>
       <use xlink:href="#TimesNewRomanPSMT-6e" x="83.300781"/>
       <use xlink:href="#TimesNewRomanPSMT-20" x="133.300781"/>
       <use xlink:href="#TimesNewRomanPSMT-30" x="158.300781"/>
       <use xlink:href="#TimesNewRomanPSMT-31" x="208.300781"/>
      </g>
     </g>
    </g>
    <g id="xtick_2">
     <g id="line2d_3">
      <path d="M 297.547402 180.53875 
L 297.547402 25.69875 
" clip-path="url(#p568be1989a)" style="fill: none; stroke: #b0b0b0; stroke-opacity: 0.5; stroke-width: 0.8; stroke-linecap: square"/>
     </g>
     <g id="line2d_4"/>
     <g id="text_2">
      <!-- Jan 02 -->
      <g transform="translate(278.173964 194.454375) scale(0.15 -0.15)">
       <defs>
        <path id="TimesNewRomanPSMT-32" d="M 2934 816 
L 2638 0 
L 138 0 
L 138 116 
Q 1241 1122 1691 1759 
Q 2141 2397 2141 2925 
Q 2141 3328 1894 3587 
Q 1647 3847 1303 3847 
Q 991 3847 742 3664 
Q 494 3481 375 3128 
L 259 3128 
Q 338 3706 661 4015 
Q 984 4325 1469 4325 
Q 1984 4325 2329 3994 
Q 2675 3663 2675 3213 
Q 2675 2891 2525 2569 
Q 2294 2063 1775 1497 
Q 997 647 803 472 
L 1909 472 
Q 2247 472 2383 497 
Q 2519 522 2628 598 
Q 2738 675 2819 816 
L 2934 816 
z
" transform="scale(0.015625)"/>
       </defs>
       <use xlink:href="#TimesNewRomanPSMT-4a"/>
       <use xlink:href="#TimesNewRomanPSMT-61" x="38.916016"/>
       <use xlink:href="#TimesNewRomanPSMT-6e" x="83.300781"/>
       <use xlink:href="#TimesNewRomanPSMT-20" x="133.300781"/>
       <use xlink:href="#TimesNewRomanPSMT-30" x="158.300781"/>
       <use xlink:href="#TimesNewRomanPSMT-32" x="208.300781"/>
      </g>
     </g>
    </g>
    <g id="xtick_3">
     <g id="line2d_5">
      <path d="M 439.257807 180.53875 
L 439.257807 25.69875 
" clip-path="url(#p568be1989a)" style="fill: none; stroke: #b0b0b0; stroke-opacity: 0.5; stroke-width: 0.8; stroke-linecap: square"/>
     </g>
     <g id="line2d_6"/>
     <g id="text_3">
      <!-- Jan 03 -->
      <g transform="translate(419.88437 194.454375) scale(0.15 -0.15)">
       <defs>
        <path id="TimesNewRomanPSMT-33" d="M 325 3431 
Q 506 3859 782 4092 
Q 1059 4325 1472 4325 
Q 1981 4325 2253 3994 
Q 2459 3747 2459 3466 
Q 2459 3003 1878 2509 
Q 2269 2356 2469 2072 
Q 2669 1788 2669 1403 
Q 2669 853 2319 450 
Q 1863 -75 997 -75 
Q 569 -75 414 31 
Q 259 138 259 259 
Q 259 350 332 419 
Q 406 488 509 488 
Q 588 488 669 463 
Q 722 447 909 348 
Q 1097 250 1169 231 
Q 1284 197 1416 197 
Q 1734 197 1970 444 
Q 2206 691 2206 1028 
Q 2206 1275 2097 1509 
Q 2016 1684 1919 1775 
Q 1784 1900 1550 2001 
Q 1316 2103 1072 2103 
L 972 2103 
L 972 2197 
Q 1219 2228 1467 2375 
Q 1716 2522 1828 2728 
Q 1941 2934 1941 3181 
Q 1941 3503 1739 3701 
Q 1538 3900 1238 3900 
Q 753 3900 428 3381 
L 325 3431 
z
" transform="scale(0.015625)"/>
       </defs>
       <use xlink:href="#TimesNewRomanPSMT-4a"/>
       <use xlink:href="#TimesNewRomanPSMT-61" x="38.916016"/>
       <use xlink:href="#TimesNewRomanPSMT-6e" x="83.300781"/>
       <use xlink:href="#TimesNewRomanPSMT-20" x="133.300781"/>
       <use xlink:href="#TimesNewRomanPSMT-30" x="158.300781"/>
       <use xlink:href="#TimesNewRomanPSMT-33" x="208.300781"/>
      </g>
     </g>
    </g>
    <g id="xtick_4">
     <g id="line2d_7">
      <path d="M 580.968212 180.53875 
L 580.968212 25.69875 
" clip-path="url(#p568be1989a)" style="fill: none; stroke: #b0b0b0; stroke-opacity: 0.5; stroke-width: 0.8; stroke-linecap: square"/>
     </g>
     <g id="line2d_8"/>
     <g id="text_4">
      <!-- Jan 04 -->
      <g transform="translate(561.594775 194.454375) scale(0.15 -0.15)">
       <defs>
        <path id="TimesNewRomanPSMT-34" d="M 2978 1563 
L 2978 1119 
L 2409 1119 
L 2409 0 
L 1894 0 
L 1894 1119 
L 100 1119 
L 100 1519 
L 2066 4325 
L 2409 4325 
L 2409 1563 
L 2978 1563 
z
M 1894 1563 
L 1894 3666 
L 406 1563 
L 1894 1563 
z
" transform="scale(0.015625)"/>
       </defs>
       <use xlink:href="#TimesNewRomanPSMT-4a"/>
       <use xlink:href="#TimesNewRomanPSMT-61" x="38.916016"/>
       <use xlink:href="#TimesNewRomanPSMT-6e" x="83.300781"/>
       <use xlink:href="#TimesNewRomanPSMT-20" x="133.300781"/>
       <use xlink:href="#TimesNewRomanPSMT-30" x="158.300781"/>
       <use xlink:href="#TimesNewRomanPSMT-34" x="208.300781"/>
      </g>
     </g>
    </g>
    <g id="xtick_5">
     <g id="line2d_9">
      <path d="M 722.678618 180.53875 
L 722.678618 25.69875 
" clip-path="url(#p568be1989a)" style="fill: none; stroke: #b0b0b0; stroke-opacity: 0.5; stroke-width: 0.8; stroke-linecap: square"/>
     </g>
     <g id="line2d_10"/>
     <g id="text_5">
      <!-- Jan 05 -->
      <g transform="translate(703.30518 194.454375) scale(0.15 -0.15)">
       <defs>
        <path id="TimesNewRomanPSMT-35" d="M 2778 4238 
L 2534 3706 
L 1259 3706 
L 981 3138 
Q 1809 3016 2294 2522 
Q 2709 2097 2709 1522 
Q 2709 1188 2573 903 
Q 2438 619 2231 419 
Q 2025 219 1772 97 
Q 1413 -75 1034 -75 
Q 653 -75 479 54 
Q 306 184 306 341 
Q 306 428 378 495 
Q 450 563 559 563 
Q 641 563 702 538 
Q 763 513 909 409 
Q 1144 247 1384 247 
Q 1750 247 2026 523 
Q 2303 800 2303 1197 
Q 2303 1581 2056 1914 
Q 1809 2247 1375 2428 
Q 1034 2569 447 2591 
L 1259 4238 
L 2778 4238 
z
" transform="scale(0.015625)"/>
       </defs>
       <use xlink:href="#TimesNewRomanPSMT-4a"/>
       <use xlink:href="#TimesNewRomanPSMT-61" x="38.916016"/>
       <use xlink:href="#TimesNewRomanPSMT-6e" x="83.300781"/>
       <use xlink:href="#TimesNewRomanPSMT-20" x="133.300781"/>
       <use xlink:href="#TimesNewRomanPSMT-30" x="158.300781"/>
       <use xlink:href="#TimesNewRomanPSMT-35" x="208.300781"/>
      </g>
     </g>
    </g>
    <g id="xtick_6">
     <g id="line2d_11">
      <path d="M 864.389023 180.53875 
L 864.389023 25.69875 
" clip-path="url(#p568be1989a)" style="fill: none; stroke: #b0b0b0; stroke-opacity: 0.5; stroke-width: 0.8; stroke-linecap: square"/>
     </g>
     <g id="line2d_12"/>
     <g id="text_6">
      <!-- Jan 06 -->
      <g transform="translate(845.015585 194.454375) scale(0.15 -0.15)">
       <defs>
        <path id="TimesNewRomanPSMT-36" d="M 2869 4325 
L 2869 4209 
Q 2456 4169 2195 4045 
Q 1934 3922 1679 3669 
Q 1425 3416 1258 3105 
Q 1091 2794 978 2366 
Q 1428 2675 1881 2675 
Q 2316 2675 2634 2325 
Q 2953 1975 2953 1425 
Q 2953 894 2631 456 
Q 2244 -75 1606 -75 
Q 1172 -75 869 213 
Q 275 772 275 1663 
Q 275 2231 503 2743 
Q 731 3256 1154 3653 
Q 1578 4050 1965 4187 
Q 2353 4325 2688 4325 
L 2869 4325 
z
M 925 2138 
Q 869 1716 869 1456 
Q 869 1156 980 804 
Q 1091 453 1309 247 
Q 1469 100 1697 100 
Q 1969 100 2183 356 
Q 2397 613 2397 1088 
Q 2397 1622 2184 2012 
Q 1972 2403 1581 2403 
Q 1463 2403 1327 2353 
Q 1191 2303 925 2138 
z
" transform="scale(0.015625)"/>
       </defs>
       <use xlink:href="#TimesNewRomanPSMT-4a"/>
       <use xlink:href="#TimesNewRomanPSMT-61" x="38.916016"/>
       <use xlink:href="#TimesNewRomanPSMT-6e" x="83.300781"/>
       <use xlink:href="#TimesNewRomanPSMT-20" x="133.300781"/>
       <use xlink:href="#TimesNewRomanPSMT-30" x="158.300781"/>
       <use xlink:href="#TimesNewRomanPSMT-36" x="208.300781"/>
      </g>
     </g>
    </g>
    <g id="xtick_7">
     <g id="line2d_13">
      <path d="M 1006.099428 180.53875 
L 1006.099428 25.69875 
" clip-path="url(#p568be1989a)" style="fill: none; stroke: #b0b0b0; stroke-opacity: 0.5; stroke-width: 0.8; stroke-linecap: square"/>
     </g>
     <g id="line2d_14"/>
     <g id="text_7">
      <!-- Jan 07 -->
      <g transform="translate(986.725991 194.454375) scale(0.15 -0.15)">
       <defs>
        <path id="TimesNewRomanPSMT-37" d="M 644 4238 
L 2916 4238 
L 2916 4119 
L 1503 -88 
L 1153 -88 
L 2419 3728 
L 1253 3728 
Q 900 3728 750 3644 
Q 488 3500 328 3200 
L 238 3234 
L 644 4238 
z
" transform="scale(0.015625)"/>
       </defs>
       <use xlink:href="#TimesNewRomanPSMT-4a"/>
       <use xlink:href="#TimesNewRomanPSMT-61" x="38.916016"/>
       <use xlink:href="#TimesNewRomanPSMT-6e" x="83.300781"/>
       <use xlink:href="#TimesNewRomanPSMT-20" x="133.300781"/>
       <use xlink:href="#TimesNewRomanPSMT-30" x="158.300781"/>
       <use xlink:href="#TimesNewRomanPSMT-37" x="208.300781"/>
      </g>
     </g>
    </g>
   </g>
   <g id="matplotlib.axis_2">
    <g id="ytick_1">
     <g id="line2d_15">
      <path d="M 47.782813 165.229735 
L 1125.962812 165.229735 
" clip-path="url(#p568be1989a)" style="fill: none; stroke: #b0b0b0; stroke-opacity: 0.5; stroke-width: 0.8; stroke-linecap: square"/>
     </g>
     <g id="line2d_16">
      <defs>
       <path id="me6d6322410" d="M 0 0 
L -3.5 0 
" style="stroke: #000000; stroke-width: 0.8"/>
      </defs>
      <g>
       <use xlink:href="#me6d6322410" x="47.782813" y="165.229735" style="stroke: #000000; stroke-width: 0.8"/>
      </g>
     </g>
     <g id="text_8">
      <!-- 20 -->
      <g transform="translate(25.782813 170.437547) scale(0.15 -0.15)">
       <use xlink:href="#TimesNewRomanPSMT-32"/>
       <use xlink:href="#TimesNewRomanPSMT-30" x="50"/>
      </g>
     </g>
    </g>
    <g id="ytick_2">
     <g id="line2d_17">
      <path d="M 47.782813 106.953804 
L 1125.962812 106.953804 
" clip-path="url(#p568be1989a)" style="fill: none; stroke: #b0b0b0; stroke-opacity: 0.5; stroke-width: 0.8; stroke-linecap: square"/>
     </g>
     <g id="line2d_18">
      <g>
       <use xlink:href="#me6d6322410" x="47.782813" y="106.953804" style="stroke: #000000; stroke-width: 0.8"/>
      </g>
     </g>
     <g id="text_9">
      <!-- 30 -->
      <g transform="translate(25.782813 112.161616) scale(0.15 -0.15)">
       <use xlink:href="#TimesNewRomanPSMT-33"/>
       <use xlink:href="#TimesNewRomanPSMT-30" x="50"/>
      </g>
     </g>
    </g>
    <g id="ytick_3">
     <g id="line2d_19">
      <path d="M 47.782813 48.677873 
L 1125.962812 48.677873 
" clip-path="url(#p568be1989a)" style="fill: none; stroke: #b0b0b0; stroke-opacity: 0.5; stroke-width: 0.8; stroke-linecap: square"/>
     </g>
     <g id="line2d_20">
      <g>
       <use xlink:href="#me6d6322410" x="47.782813" y="48.677873" style="stroke: #000000; stroke-width: 0.8"/>
      </g>
     </g>
     <g id="text_10">
      <!-- 40 -->
      <g transform="translate(25.782813 53.885685) scale(0.15 -0.15)">
       <use xlink:href="#TimesNewRomanPSMT-34"/>
       <use xlink:href="#TimesNewRomanPSMT-30" x="50"/>
      </g>
     </g>
    </g>
    <g id="text_11">
     <!-- Demand (MW) -->
     <g transform="translate(18.574219 149.145312) rotate(-90) scale(0.15 -0.15)">
      <defs>
       <path id="TimesNewRomanPSMT-44" d="M 109 0 
L 109 116 
L 269 116 
Q 538 116 650 288 
Q 719 391 719 750 
L 719 3488 
Q 719 3884 631 3984 
Q 509 4122 269 4122 
L 109 4122 
L 109 4238 
L 1834 4238 
Q 2784 4238 3279 4022 
Q 3775 3806 4076 3303 
Q 4378 2800 4378 2141 
Q 4378 1256 3841 663 
Q 3238 0 2003 0 
L 109 0 
z
M 1319 306 
Q 1716 219 1984 219 
Q 2709 219 3187 728 
Q 3666 1238 3666 2109 
Q 3666 2988 3187 3494 
Q 2709 4000 1959 4000 
Q 1678 4000 1319 3909 
L 1319 306 
z
" transform="scale(0.015625)"/>
       <path id="TimesNewRomanPSMT-65" d="M 681 1784 
Q 678 1147 991 784 
Q 1303 422 1725 422 
Q 2006 422 2214 576 
Q 2422 731 2563 1106 
L 2659 1044 
Q 2594 616 2278 264 
Q 1963 -88 1488 -88 
Q 972 -88 605 314 
Q 238 716 238 1394 
Q 238 2128 614 2539 
Q 991 2950 1559 2950 
Q 2041 2950 2350 2633 
Q 2659 2316 2659 1784 
L 681 1784 
z
M 681 1966 
L 2006 1966 
Q 1991 2241 1941 2353 
Q 1863 2528 1708 2628 
Q 1553 2728 1384 2728 
Q 1125 2728 920 2526 
Q 716 2325 681 1966 
z
" transform="scale(0.015625)"/>
       <path id="TimesNewRomanPSMT-6d" d="M 1050 2338 
Q 1363 2650 1419 2697 
Q 1559 2816 1721 2881 
Q 1884 2947 2044 2947 
Q 2313 2947 2506 2790 
Q 2700 2634 2766 2338 
Q 3088 2713 3309 2830 
Q 3531 2947 3766 2947 
Q 3994 2947 4170 2830 
Q 4347 2713 4450 2447 
Q 4519 2266 4519 1878 
L 4519 647 
Q 4519 378 4559 278 
Q 4591 209 4675 161 
Q 4759 113 4950 113 
L 4950 0 
L 3538 0 
L 3538 113 
L 3597 113 
Q 3781 113 3884 184 
Q 3956 234 3988 344 
Q 4000 397 4000 647 
L 4000 1878 
Q 4000 2228 3916 2372 
Q 3794 2572 3525 2572 
Q 3359 2572 3192 2489 
Q 3025 2406 2788 2181 
L 2781 2147 
L 2788 2013 
L 2788 647 
Q 2788 353 2820 281 
Q 2853 209 2943 161 
Q 3034 113 3253 113 
L 3253 0 
L 1806 0 
L 1806 113 
Q 2044 113 2133 169 
Q 2222 225 2256 338 
Q 2272 391 2272 647 
L 2272 1878 
Q 2272 2228 2169 2381 
Q 2031 2581 1784 2581 
Q 1616 2581 1450 2491 
Q 1191 2353 1050 2181 
L 1050 647 
Q 1050 366 1089 281 
Q 1128 197 1204 155 
Q 1281 113 1516 113 
L 1516 0 
L 100 0 
L 100 113 
Q 297 113 375 155 
Q 453 197 493 289 
Q 534 381 534 647 
L 534 1741 
Q 534 2213 506 2350 
Q 484 2453 437 2492 
Q 391 2531 309 2531 
Q 222 2531 100 2484 
L 53 2597 
L 916 2947 
L 1050 2947 
L 1050 2338 
z
" transform="scale(0.015625)"/>
       <path id="TimesNewRomanPSMT-64" d="M 2222 322 
Q 2013 103 1813 7 
Q 1613 -88 1381 -88 
Q 913 -88 563 304 
Q 213 697 213 1313 
Q 213 1928 600 2439 
Q 988 2950 1597 2950 
Q 1975 2950 2222 2709 
L 2222 3238 
Q 2222 3728 2198 3840 
Q 2175 3953 2125 3993 
Q 2075 4034 2000 4034 
Q 1919 4034 1784 3984 
L 1744 4094 
L 2597 4444 
L 2738 4444 
L 2738 1134 
Q 2738 631 2761 520 
Q 2784 409 2836 365 
Q 2888 322 2956 322 
Q 3041 322 3181 375 
L 3216 266 
L 2366 -88 
L 2222 -88 
L 2222 322 
z
M 2222 541 
L 2222 2016 
Q 2203 2228 2109 2403 
Q 2016 2578 1861 2667 
Q 1706 2756 1559 2756 
Q 1284 2756 1069 2509 
Q 784 2184 784 1559 
Q 784 928 1059 592 
Q 1334 256 1672 256 
Q 1956 256 2222 541 
z
" transform="scale(0.015625)"/>
       <path id="TimesNewRomanPSMT-28" d="M 1988 -1253 
L 1988 -1369 
Q 1516 -1131 1200 -813 
Q 750 -359 506 256 
Q 263 872 263 1534 
Q 263 2503 741 3301 
Q 1219 4100 1988 4444 
L 1988 4313 
Q 1603 4100 1356 3731 
Q 1109 3363 987 2797 
Q 866 2231 866 1616 
Q 866 947 969 400 
Q 1050 -31 1165 -292 
Q 1281 -553 1476 -793 
Q 1672 -1034 1988 -1253 
z
" transform="scale(0.015625)"/>
       <path id="TimesNewRomanPSMT-4d" d="M 2619 0 
L 981 3566 
L 981 734 
Q 981 344 1066 247 
Q 1181 116 1431 116 
L 1581 116 
L 1581 0 
L 106 0 
L 106 116 
L 256 116 
Q 525 116 638 278 
Q 706 378 706 734 
L 706 3503 
Q 706 3784 644 3909 
Q 600 4000 483 4061 
Q 366 4122 106 4122 
L 106 4238 
L 1306 4238 
L 2844 922 
L 4356 4238 
L 5556 4238 
L 5556 4122 
L 5409 4122 
Q 5138 4122 5025 3959 
Q 4956 3859 4956 3503 
L 4956 734 
Q 4956 344 5044 247 
Q 5159 116 5409 116 
L 5556 116 
L 5556 0 
L 3756 0 
L 3756 116 
L 3906 116 
Q 4178 116 4288 278 
Q 4356 378 4356 734 
L 4356 3566 
L 2722 0 
L 2619 0 
z
" transform="scale(0.015625)"/>
       <path id="TimesNewRomanPSMT-57" d="M 5991 4238 
L 5991 4122 
Q 5825 4122 5722 4062 
Q 5619 4003 5525 3841 
Q 5463 3731 5328 3319 
L 4147 -97 
L 4022 -97 
L 3056 2613 
L 2097 -97 
L 1984 -97 
L 725 3422 
Q 584 3816 547 3888 
Q 484 4006 376 4064 
Q 269 4122 84 4122 
L 84 4238 
L 1653 4238 
L 1653 4122 
L 1578 4122 
Q 1413 4122 1325 4047 
Q 1238 3972 1238 3866 
Q 1238 3756 1375 3363 
L 2209 984 
L 2913 3006 
L 2788 3363 
L 2688 3647 
Q 2622 3803 2541 3922 
Q 2500 3981 2441 4022 
Q 2363 4078 2284 4103 
Q 2225 4122 2097 4122 
L 2097 4238 
L 3747 4238 
L 3747 4122 
L 3634 4122 
Q 3459 4122 3378 4047 
Q 3297 3972 3297 3844 
Q 3297 3684 3438 3288 
L 4250 984 
L 5056 3319 
Q 5194 3706 5194 3856 
Q 5194 3928 5148 3990 
Q 5103 4053 5034 4078 
Q 4916 4122 4725 4122 
L 4725 4238 
L 5991 4238 
z
" transform="scale(0.015625)"/>
       <path id="TimesNewRomanPSMT-29" d="M 144 4313 
L 144 4444 
Q 619 4209 934 3891 
Q 1381 3434 1625 2820 
Q 1869 2206 1869 1541 
Q 1869 572 1392 -226 
Q 916 -1025 144 -1369 
L 144 -1253 
Q 528 -1038 776 -670 
Q 1025 -303 1145 264 
Q 1266 831 1266 1447 
Q 1266 2113 1163 2663 
Q 1084 3094 967 3353 
Q 850 3613 656 3853 
Q 463 4094 144 4313 
z
" transform="scale(0.015625)"/>
      </defs>
      <use xlink:href="#TimesNewRomanPSMT-44"/>
      <use xlink:href="#TimesNewRomanPSMT-65" x="72.216797"/>
      <use xlink:href="#TimesNewRomanPSMT-6d" x="116.601562"/>
      <use xlink:href="#TimesNewRomanPSMT-61" x="194.384766"/>
      <use xlink:href="#TimesNewRomanPSMT-6e" x="238.769531"/>
      <use xlink:href="#TimesNewRomanPSMT-64" x="288.769531"/>
      <use xlink:href="#TimesNewRomanPSMT-20" x="338.769531"/>
      <use xlink:href="#TimesNewRomanPSMT-28" x="363.769531"/>
      <use xlink:href="#TimesNewRomanPSMT-4d" x="397.070312"/>
      <use xlink:href="#TimesNewRomanPSMT-57" x="485.986328"/>
      <use xlink:href="#TimesNewRomanPSMT-29" x="580.371094"/>
     </g>
    </g>
   </g>
   <g id="line2d_21">
    <path d="M 96.790994 146.533881 
L 102.695595 140.496159 
L 108.600195 136.370101 
L 114.504795 120.600118 
L 120.409395 97.852671 
L 126.313995 93.227593 
L 132.218596 97.284341 
L 138.123196 93.046803 
L 144.027796 100.624539 
L 149.932396 105.468091 
L 155.836997 103.592617 
L 161.741597 106.564156 
L 167.646197 105.446063 
L 173.550797 100.175162 
L 179.455397 91.345825 
L 185.359998 80.639441 
L 191.264598 89.643982 
L 197.169198 90.988416 
L 203.073798 88.288769 
L 208.978398 92.781441 
L 214.882999 105.010217 
L 220.787599 129.041914 
L 226.692199 118.937611 
L 232.596799 111.61973 
L 238.5014 121.743623 
L 244.406 133.88995 
L 250.3106 132.813474 
L 256.2152 113.900997 
L 262.1198 73.88399 
L 268.024401 58.077189 
L 273.929001 59.087501 
L 279.833601 60.291741 
L 285.738201 72.514459 
L 291.642802 85.108039 
L 297.547402 96.23894 
L 303.452002 94.94761 
L 315.261202 92.851617 
L 321.165803 86.482999 
L 327.070403 74.805717 
L 332.975003 75.91618 
L 338.879603 80.98206 
L 344.784204 84.656617 
L 350.688804 83.151218 
L 356.593404 90.746577 
L 362.498004 119.698138 
L 374.307205 124.282542 
L 380.211805 124.497082 
L 386.116405 123.711852 
L 392.021005 114.987543 
L 397.925605 98.591091 
L 403.830206 66.314279 
L 409.734806 51.726429 
L 415.639406 49.073829 
L 421.544006 32.736932 
L 427.448607 41.502465 
L 433.353207 95.825988 
L 439.257807 118.637396 
L 445.162407 117.46675 
L 451.067007 117.001402 
L 456.971608 119.636459 
L 462.876208 99.750566 
L 468.780808 74.915938 
L 474.685408 71.002767 
L 480.590009 79.179909 
L 486.494609 88.56782 
L 492.399209 95.670138 
L 498.303809 106.489968 
L 504.208409 134.179229 
L 510.11301 137.024813 
L 516.01761 133.606336 
L 521.92221 127.365954 
L 527.82681 124.190574 
L 533.731411 115.679153 
L 539.636011 97.387166 
L 545.540611 64.222298 
L 551.445211 53.176678 
L 557.349811 53.115865 
L 563.254412 58.549853 
L 575.063612 91.131285 
L 580.968212 103.691744 
L 586.872812 102.573572 
L 592.777413 96.10268 
L 598.682013 88.605819 
L 604.586613 87.026941 
L 610.491213 75.848679 
L 616.395814 73.084442 
L 622.300414 79.047503 
L 628.205014 82.453786 
L 634.109614 86.068788 
L 640.014214 93.829438 
L 645.918815 119.427583 
L 651.823415 120.345613 
L 657.728015 119.495871 
L 663.632615 114.268948 
L 669.537216 113.652313 
L 675.441816 109.667944 
L 681.346416 99.644595 
L 687.251016 81.548266 
L 693.155616 67.06332 
L 699.060217 62.91783 
L 704.964817 62.749628 
L 710.869417 64.802508 
L 716.774017 75.136457 
L 722.678618 89.543202 
L 728.583218 95.062786 
L 734.487818 92.933122 
L 746.297018 79.55085 
L 752.201619 73.724206 
L 758.106219 71.659682 
L 764.010819 80.590192 
L 769.915419 88.220088 
L 775.82002 84.865728 
L 781.72462 98.394095 
L 787.62922 132.690194 
L 793.53382 130.479654 
L 799.43842 128.742015 
L 805.343021 126.820911 
L 811.247621 122.52311 
L 817.152221 123.197491 
L 823.056821 116.338586 
L 828.961421 94.47172 
L 834.866022 88.692438 
L 840.770622 91.397434 
L 846.675222 88.98683 
L 852.579822 91.744144 
L 858.484423 85.255472 
L 864.389023 89.698187 
L 870.293623 95.34939 
L 876.198223 96.430508 
L 882.102823 98.364278 
L 888.007424 97.409351 
L 893.912024 94.89191 
L 899.816624 93.585631 
L 905.721224 88.960317 
L 911.625825 87.162021 
L 917.530425 97.204645 
L 923.435025 112.745219 
L 929.339625 137.223855 
L 935.244225 139.602518 
L 941.148826 142.480594 
L 947.053426 132.996545 
L 952.958026 128.053551 
L 958.862626 115.708891 
L 964.767227 106.446069 
L 970.671827 71.689106 
L 976.576427 54.481698 
L 982.481027 52.98873 
L 988.385627 60.293 
L 994.290228 80.55298 
L 1000.194828 84.616179 
L 1006.099428 86.858109 
L 1012.004028 83.344123 
L 1017.908628 90.391449 
L 1023.813229 91.606861 
L 1029.717829 88.576396 
L 1035.622429 90.493881 
L 1041.527029 91.048522 
L 1047.43163 100.766465 
L 1053.33623 107.948084 
L 1059.24083 107.712381 
L 1065.14543 109.91529 
L 1071.05003 142.157801 
L 1076.954631 143.975451 
L 1076.954631 143.975451 
" clip-path="url(#p568be1989a)" style="fill: none; stroke: #808080; stroke-width: 1.5; stroke-linecap: square"/>
   </g>
   <g id="line2d_22">
    <path d="M 96.790994 157.367076 
L 102.695595 152.72131 
L 108.600195 150.117905 
L 114.504795 146.432531 
L 126.313995 135.883342 
L 132.218596 131.074845 
L 138.123196 126.531806 
L 144.027796 122.901321 
L 149.932396 120.67716 
L 155.836997 119.991012 
L 161.741597 117.810263 
L 167.646197 115.252921 
L 173.550797 111.983866 
L 179.455397 109.165597 
L 185.359998 105.204938 
L 191.264598 104.023485 
L 197.169198 105.000693 
L 203.073798 108.619382 
L 208.978398 113.443122 
L 214.882999 116.5406 
L 220.787599 126.351592 
L 226.692199 140.069722 
L 232.596799 132.854088 
L 238.5014 130.494814 
L 244.406 128.923684 
L 250.3106 127.732339 
L 256.2152 125.428224 
L 268.024401 116.716835 
L 273.929001 114.462776 
L 279.833601 109.372163 
L 285.738201 107.868323 
L 291.642802 108.260204 
L 297.547402 111.341374 
L 303.452002 109.694511 
L 309.356602 109.439724 
L 315.261202 107.536185 
L 321.165803 104.767197 
L 327.070403 100.284289 
L 332.975003 96.772218 
L 338.879603 96.464677 
L 344.784204 99.588495 
L 350.688804 103.797581 
L 356.593404 111.942336 
L 362.498004 121.346069 
L 368.402604 138.920498 
L 374.307205 137.728194 
L 380.211805 133.871985 
L 386.116405 129.861406 
L 392.021005 125.37845 
L 397.925605 113.774451 
L 403.830206 107.039526 
L 409.734806 97.705702 
L 415.639406 86.910152 
L 421.544006 77.306833 
L 427.448607 83.484792 
L 433.353207 104.323137 
L 439.257807 118.814409 
L 445.162407 123.433177 
L 451.067007 125.055205 
L 456.971608 123.882679 
L 462.876208 120.217037 
L 468.780808 115.608186 
L 474.685408 110.763453 
L 480.590009 109.336121 
L 486.494609 111.390113 
L 492.399209 116.137192 
L 498.303809 123.444156 
L 504.208409 132.709627 
L 510.11301 148.758375 
L 516.01761 145.663245 
L 521.92221 141.342967 
L 527.82681 135.636273 
L 545.540611 117.921902 
L 551.445211 110.399869 
L 557.349811 105.86995 
L 563.254412 100.946347 
L 569.159012 103.196821 
L 575.063612 107.184218 
L 580.968212 110.473467 
L 586.872812 112.365994 
L 592.777413 111.227557 
L 598.682013 108.610802 
L 604.586613 106.568036 
L 610.491213 101.415032 
L 616.395814 99.334186 
L 622.300414 98.593376 
L 628.205014 99.870496 
L 634.109614 103.819484 
L 640.014214 109.196245 
L 645.918815 116.821727 
L 651.823415 131.654858 
L 657.728015 127.454311 
L 663.632615 123.658335 
L 669.537216 119.128245 
L 675.441816 111.862236 
L 681.346416 108.20424 
L 687.251016 102.758171 
L 693.155616 95.388774 
L 699.060217 92.0909 
L 704.964817 87.607411 
L 710.869417 85.620336 
L 716.774017 86.38183 
L 722.678618 89.042051 
L 728.583218 92.149511 
L 734.487818 88.653762 
L 740.392418 84.633845 
L 746.297018 82.133854 
L 752.201619 81.501769 
L 758.106219 83.491462 
L 764.010819 87.612436 
L 769.915419 93.610341 
L 775.82002 100.310211 
L 781.72462 104.869715 
L 787.62922 113.941481 
L 793.53382 131.440619 
L 799.43842 130.168915 
L 805.343021 127.753515 
L 811.247621 124.023568 
L 817.152221 120.568685 
L 823.056821 117.363807 
L 828.961421 113.840412 
L 834.866022 112.034381 
L 840.770622 108.91926 
L 846.675222 106.53846 
L 852.579822 105.063368 
L 858.484423 101.76596 
L 864.389023 100.54661 
L 870.293623 99.886067 
L 876.198223 98.995408 
L 882.102823 98.27737 
L 888.007424 99.406434 
L 893.912024 101.440358 
L 899.816624 104.471128 
L 905.721224 109.87822 
L 911.625825 115.892552 
L 917.530425 124.432959 
L 923.435025 133.938439 
L 929.339625 145.355196 
L 935.244225 163.332778 
L 941.148826 160.264343 
L 947.053426 156.019356 
L 952.958026 147.752063 
L 958.862626 141.319054 
L 964.767227 135.322226 
L 970.671827 131.047969 
L 976.576427 128.806615 
L 982.481027 120.249964 
L 988.385627 116.079277 
L 994.290228 114.100416 
L 1000.194828 114.647671 
L 1006.099428 115.529641 
L 1012.004028 115.683617 
L 1017.908628 114.176935 
L 1023.813229 114.403465 
L 1029.717829 117.287509 
L 1035.622429 117.271446 
L 1041.527029 116.187188 
L 1047.43163 120.562785 
L 1053.33623 129.320469 
L 1059.24083 135.434433 
L 1065.14543 140.086341 
L 1071.05003 148.841197 
L 1076.954631 173.500568 
L 1076.954631 173.500568 
" clip-path="url(#p568be1989a)" style="fill: none; stroke: #0000ff; stroke-width: 1.5; stroke-linecap: square"/>
   </g>
   <g id="patch_3">
    <path d="M 47.782813 180.53875 
L 47.782813 25.69875 
" style="fill: none; stroke: #000000; stroke-width: 0.8; stroke-linejoin: miter; stroke-linecap: square"/>
   </g>
   <g id="patch_4">
    <path d="M 1125.962812 180.53875 
L 1125.962812 25.69875 
" style="fill: none; stroke: #000000; stroke-width: 0.8; stroke-linejoin: miter; stroke-linecap: square"/>
   </g>
   <g id="patch_5">
    <path d="M 47.782813 180.53875 
L 1125.962812 180.53875 
" style="fill: none; stroke: #000000; stroke-width: 0.8; stroke-linejoin: miter; stroke-linecap: square"/>
   </g>
   <g id="patch_6">
    <path d="M 47.782813 25.69875 
L 1125.962812 25.69875 
" style="fill: none; stroke: #000000; stroke-width: 0.8; stroke-linejoin: miter; stroke-linecap: square"/>
   </g>
   <g id="text_12">
    <!-- Model 2: Winter Week -->
    <g transform="translate(505.045937 19.69875) scale(0.18 -0.18)">
     <defs>
      <path id="TimesNewRomanPSMT-6f" d="M 1600 2947 
Q 2250 2947 2644 2453 
Q 2978 2031 2978 1484 
Q 2978 1100 2793 706 
Q 2609 313 2286 112 
Q 1963 -88 1566 -88 
Q 919 -88 538 428 
Q 216 863 216 1403 
Q 216 1797 411 2186 
Q 606 2575 925 2761 
Q 1244 2947 1600 2947 
z
M 1503 2744 
Q 1338 2744 1170 2645 
Q 1003 2547 900 2300 
Q 797 2053 797 1666 
Q 797 1041 1045 587 
Q 1294 134 1700 134 
Q 2003 134 2200 384 
Q 2397 634 2397 1244 
Q 2397 2006 2069 2444 
Q 1847 2744 1503 2744 
z
" transform="scale(0.015625)"/>
      <path id="TimesNewRomanPSMT-6c" d="M 1184 4444 
L 1184 647 
Q 1184 378 1223 290 
Q 1263 203 1344 158 
Q 1425 113 1647 113 
L 1647 0 
L 244 0 
L 244 113 
Q 441 113 512 153 
Q 584 194 625 287 
Q 666 381 666 647 
L 666 3247 
Q 666 3731 644 3842 
Q 622 3953 573 3993 
Q 525 4034 450 4034 
Q 369 4034 244 3984 
L 191 4094 
L 1044 4444 
L 1184 4444 
z
" transform="scale(0.015625)"/>
      <path id="TimesNewRomanPSMT-3a" d="M 903 2950 
Q 1047 2950 1148 2848 
Q 1250 2747 1250 2603 
Q 1250 2459 1148 2357 
Q 1047 2256 903 2256 
Q 759 2256 657 2357 
Q 556 2459 556 2603 
Q 556 2747 657 2848 
Q 759 2950 903 2950 
z
M 897 609 
Q 1044 609 1145 506 
Q 1247 403 1247 259 
Q 1247 116 1144 14 
Q 1041 -88 897 -88 
Q 753 -88 651 14 
Q 550 116 550 259 
Q 550 403 651 506 
Q 753 609 897 609 
z
" transform="scale(0.015625)"/>
      <path id="TimesNewRomanPSMT-69" d="M 928 4444 
Q 1059 4444 1151 4351 
Q 1244 4259 1244 4128 
Q 1244 3997 1151 3903 
Q 1059 3809 928 3809 
Q 797 3809 703 3903 
Q 609 3997 609 4128 
Q 609 4259 701 4351 
Q 794 4444 928 4444 
z
M 1188 2947 
L 1188 647 
Q 1188 378 1227 289 
Q 1266 200 1342 156 
Q 1419 113 1622 113 
L 1622 0 
L 231 0 
L 231 113 
Q 441 113 512 153 
Q 584 194 626 287 
Q 669 381 669 647 
L 669 1750 
Q 669 2216 641 2353 
Q 619 2453 572 2492 
Q 525 2531 444 2531 
Q 356 2531 231 2484 
L 188 2597 
L 1050 2947 
L 1188 2947 
z
" transform="scale(0.015625)"/>
      <path id="TimesNewRomanPSMT-74" d="M 1031 3803 
L 1031 2863 
L 1700 2863 
L 1700 2644 
L 1031 2644 
L 1031 788 
Q 1031 509 1111 412 
Q 1191 316 1316 316 
Q 1419 316 1516 380 
Q 1613 444 1666 569 
L 1788 569 
Q 1678 263 1478 108 
Q 1278 -47 1066 -47 
Q 922 -47 784 33 
Q 647 113 581 261 
Q 516 409 516 719 
L 516 2644 
L 63 2644 
L 63 2747 
Q 234 2816 414 2980 
Q 594 3144 734 3369 
Q 806 3488 934 3803 
L 1031 3803 
z
" transform="scale(0.015625)"/>
      <path id="TimesNewRomanPSMT-72" d="M 1038 2947 
L 1038 2303 
Q 1397 2947 1775 2947 
Q 1947 2947 2059 2842 
Q 2172 2738 2172 2600 
Q 2172 2478 2090 2393 
Q 2009 2309 1897 2309 
Q 1788 2309 1652 2417 
Q 1516 2525 1450 2525 
Q 1394 2525 1328 2463 
Q 1188 2334 1038 2041 
L 1038 669 
Q 1038 431 1097 309 
Q 1138 225 1241 169 
Q 1344 113 1538 113 
L 1538 0 
L 72 0 
L 72 113 
Q 291 113 397 181 
Q 475 231 506 341 
Q 522 394 522 644 
L 522 1753 
Q 522 2253 501 2348 
Q 481 2444 426 2487 
Q 372 2531 291 2531 
Q 194 2531 72 2484 
L 41 2597 
L 906 2947 
L 1038 2947 
z
" transform="scale(0.015625)"/>
      <path id="TimesNewRomanPSMT-6b" d="M 1047 4444 
L 1047 1597 
L 1775 2259 
Q 2006 2472 2044 2528 
Q 2069 2566 2069 2603 
Q 2069 2666 2017 2711 
Q 1966 2756 1847 2763 
L 1847 2863 
L 3091 2863 
L 3091 2763 
Q 2834 2756 2664 2684 
Q 2494 2613 2291 2428 
L 1556 1750 
L 2291 822 
Q 2597 438 2703 334 
Q 2853 188 2966 144 
Q 3044 113 3238 113 
L 3238 0 
L 1847 0 
L 1847 113 
Q 1966 116 2008 148 
Q 2050 181 2050 241 
Q 2050 313 1925 472 
L 1047 1594 
L 1047 644 
Q 1047 366 1086 278 
Q 1125 191 1197 153 
Q 1269 116 1509 113 
L 1509 0 
L 53 0 
L 53 113 
Q 272 113 381 166 
Q 447 200 481 272 
Q 528 375 528 628 
L 528 3234 
Q 528 3731 506 3842 
Q 484 3953 434 3995 
Q 384 4038 303 4038 
Q 238 4038 106 3984 
L 53 4094 
L 903 4444 
L 1047 4444 
z
" transform="scale(0.015625)"/>
     </defs>
     <use xlink:href="#TimesNewRomanPSMT-4d"/>
     <use xlink:href="#TimesNewRomanPSMT-6f" x="88.916016"/>
     <use xlink:href="#TimesNewRomanPSMT-64" x="138.916016"/>
     <use xlink:href="#TimesNewRomanPSMT-65" x="188.916016"/>
     <use xlink:href="#TimesNewRomanPSMT-6c" x="233.300781"/>
     <use xlink:href="#TimesNewRomanPSMT-20" x="261.083984"/>
     <use xlink:href="#TimesNewRomanPSMT-32" x="286.083984"/>
     <use xlink:href="#TimesNewRomanPSMT-3a" x="336.083984"/>
     <use xlink:href="#TimesNewRomanPSMT-20" x="363.867188"/>
     <use xlink:href="#TimesNewRomanPSMT-57" x="387.117188"/>
     <use xlink:href="#TimesNewRomanPSMT-69" x="477.501953"/>
     <use xlink:href="#TimesNewRomanPSMT-6e" x="505.285156"/>
     <use xlink:href="#TimesNewRomanPSMT-74" x="555.285156"/>
     <use xlink:href="#TimesNewRomanPSMT-65" x="583.068359"/>
     <use xlink:href="#TimesNewRomanPSMT-72" x="627.453125"/>
     <use xlink:href="#TimesNewRomanPSMT-20" x="660.753906"/>
     <use xlink:href="#TimesNewRomanPSMT-57" x="684.003906"/>
     <use xlink:href="#TimesNewRomanPSMT-65" x="770.388672"/>
     <use xlink:href="#TimesNewRomanPSMT-65" x="814.773438"/>
     <use xlink:href="#TimesNewRomanPSMT-6b" x="859.158203"/>
    </g>
   </g>
   <g id="legend_1">
    <g id="patch_7">
     <path d="M 1010.816719 80.115937 
L 1115.462812 80.115937 
Q 1118.462812 80.115937 1118.462812 77.115937 
L 1118.462812 36.19875 
Q 1118.462812 33.19875 1115.462812 33.19875 
L 1010.816719 33.19875 
Q 1007.816719 33.19875 1007.816719 36.19875 
L 1007.816719 77.115937 
Q 1007.816719 80.115937 1010.816719 80.115937 
z
" style="fill: #ffffff; opacity: 0.8; stroke: #cccccc; stroke-linejoin: miter"/>
    </g>
    <g id="line2d_23">
     <path d="M 1013.816719 44.44875 
L 1028.816719 44.44875 
L 1043.816719 44.44875 
" style="fill: none; stroke: #808080; stroke-width: 1.5; stroke-linecap: square"/>
    </g>
    <g id="text_13">
     <!-- Actual -->
     <g transform="translate(1055.816719 49.69875) scale(0.15 -0.15)">
      <defs>
       <path id="TimesNewRomanPSMT-41" d="M 2928 1419 
L 1288 1419 
L 1000 750 
Q 894 503 894 381 
Q 894 284 986 211 
Q 1078 138 1384 116 
L 1384 0 
L 50 0 
L 50 116 
Q 316 163 394 238 
Q 553 388 747 847 
L 2238 4334 
L 2347 4334 
L 3822 809 
Q 4000 384 4145 257 
Q 4291 131 4550 116 
L 4550 0 
L 2878 0 
L 2878 116 
Q 3131 128 3220 200 
Q 3309 272 3309 375 
Q 3309 513 3184 809 
L 2928 1419 
z
M 2841 1650 
L 2122 3363 
L 1384 1650 
L 2841 1650 
z
" transform="scale(0.015625)"/>
       <path id="TimesNewRomanPSMT-63" d="M 2631 1088 
Q 2516 522 2178 217 
Q 1841 -88 1431 -88 
Q 944 -88 581 321 
Q 219 731 219 1428 
Q 219 2103 620 2525 
Q 1022 2947 1584 2947 
Q 2006 2947 2278 2723 
Q 2550 2500 2550 2259 
Q 2550 2141 2473 2067 
Q 2397 1994 2259 1994 
Q 2075 1994 1981 2113 
Q 1928 2178 1911 2362 
Q 1894 2547 1784 2644 
Q 1675 2738 1481 2738 
Q 1169 2738 978 2506 
Q 725 2200 725 1697 
Q 725 1184 976 792 
Q 1228 400 1656 400 
Q 1963 400 2206 609 
Q 2378 753 2541 1131 
L 2631 1088 
z
" transform="scale(0.015625)"/>
       <path id="TimesNewRomanPSMT-75" d="M 2709 2863 
L 2709 1128 
Q 2709 631 2732 520 
Q 2756 409 2807 365 
Q 2859 322 2928 322 
Q 3025 322 3147 375 
L 3191 266 
L 2334 -88 
L 2194 -88 
L 2194 519 
Q 1825 119 1631 15 
Q 1438 -88 1222 -88 
Q 981 -88 804 51 
Q 628 191 559 409 
Q 491 628 491 1028 
L 491 2306 
Q 491 2509 447 2587 
Q 403 2666 317 2708 
Q 231 2750 6 2747 
L 6 2863 
L 1009 2863 
L 1009 947 
Q 1009 547 1148 422 
Q 1288 297 1484 297 
Q 1619 297 1789 381 
Q 1959 466 2194 703 
L 2194 2325 
Q 2194 2569 2105 2655 
Q 2016 2741 1734 2747 
L 1734 2863 
L 2709 2863 
z
" transform="scale(0.015625)"/>
      </defs>
      <use xlink:href="#TimesNewRomanPSMT-41"/>
      <use xlink:href="#TimesNewRomanPSMT-63" x="72.216797"/>
      <use xlink:href="#TimesNewRomanPSMT-74" x="116.601562"/>
      <use xlink:href="#TimesNewRomanPSMT-75" x="144.384766"/>
      <use xlink:href="#TimesNewRomanPSMT-61" x="194.384766"/>
      <use xlink:href="#TimesNewRomanPSMT-6c" x="238.769531"/>
     </g>
    </g>
    <g id="line2d_24">
     <path d="M 1013.816719 65.657344 
L 1028.816719 65.657344 
L 1043.816719 65.657344 
" style="fill: none; stroke: #0000ff; stroke-width: 1.5; stroke-linecap: square"/>
    </g>
    <g id="text_14">
     <!-- Predicted -->
     <g transform="translate(1055.816719 70.907344) scale(0.15 -0.15)">
      <defs>
       <path id="TimesNewRomanPSMT-50" d="M 1313 1984 
L 1313 750 
Q 1313 350 1400 253 
Q 1519 116 1759 116 
L 1922 116 
L 1922 0 
L 106 0 
L 106 116 
L 266 116 
Q 534 116 650 291 
Q 713 388 713 750 
L 713 3488 
Q 713 3888 628 3984 
Q 506 4122 266 4122 
L 106 4122 
L 106 4238 
L 1659 4238 
Q 2228 4238 2556 4120 
Q 2884 4003 3109 3725 
Q 3334 3447 3334 3066 
Q 3334 2547 2992 2222 
Q 2650 1897 2025 1897 
Q 1872 1897 1694 1919 
Q 1516 1941 1313 1984 
z
M 1313 2163 
Q 1478 2131 1606 2115 
Q 1734 2100 1825 2100 
Q 2150 2100 2386 2351 
Q 2622 2603 2622 3003 
Q 2622 3278 2509 3514 
Q 2397 3750 2190 3867 
Q 1984 3984 1722 3984 
Q 1563 3984 1313 3925 
L 1313 2163 
z
" transform="scale(0.015625)"/>
      </defs>
      <use xlink:href="#TimesNewRomanPSMT-50"/>
      <use xlink:href="#TimesNewRomanPSMT-72" x="55.615234"/>
      <use xlink:href="#TimesNewRomanPSMT-65" x="88.916016"/>
      <use xlink:href="#TimesNewRomanPSMT-64" x="133.300781"/>
      <use xlink:href="#TimesNewRomanPSMT-69" x="183.300781"/>
      <use xlink:href="#TimesNewRomanPSMT-63" x="211.083984"/>
      <use xlink:href="#TimesNewRomanPSMT-74" x="255.46875"/>
      <use xlink:href="#TimesNewRomanPSMT-65" x="283.251953"/>
      <use xlink:href="#TimesNewRomanPSMT-64" x="327.636719"/>
     </g>
    </g>
   </g>
  </g>
  <g id="axes_2">
   <g id="patch_8">
    <path d="M 47.782813 388.43875 
L 1125.962812 388.43875 
L 1125.962812 233.59875 
L 47.782813 233.59875 
z
" style="fill: #ffffff"/>
   </g>
   <g id="matplotlib.axis_3">
    <g id="xtick_8">
     <g id="line2d_25">
      <path d="M 155.836997 388.43875 
L 155.836997 233.59875 
" clip-path="url(#p74a6782ff7)" style="fill: none; stroke: #b0b0b0; stroke-opacity: 0.5; stroke-width: 0.8; stroke-linecap: square"/>
     </g>
     <g id="line2d_26"/>
     <g id="text_15">
      <!-- Aug 01 -->
      <g transform="translate(133.54559 402.32625) scale(0.15 -0.15)">
       <defs>
        <path id="TimesNewRomanPSMT-67" d="M 966 1044 
Q 703 1172 562 1401 
Q 422 1631 422 1909 
Q 422 2334 742 2640 
Q 1063 2947 1563 2947 
Q 1972 2947 2272 2747 
L 2878 2747 
Q 3013 2747 3034 2739 
Q 3056 2731 3066 2713 
Q 3084 2684 3084 2613 
Q 3084 2531 3069 2500 
Q 3059 2484 3036 2475 
Q 3013 2466 2878 2466 
L 2506 2466 
Q 2681 2241 2681 1891 
Q 2681 1491 2375 1206 
Q 2069 922 1553 922 
Q 1341 922 1119 984 
Q 981 866 932 777 
Q 884 688 884 625 
Q 884 572 936 522 
Q 988 472 1138 450 
Q 1225 438 1575 428 
Q 2219 413 2409 384 
Q 2700 344 2873 169 
Q 3047 -6 3047 -263 
Q 3047 -616 2716 -925 
Q 2228 -1381 1444 -1381 
Q 841 -1381 425 -1109 
Q 191 -953 191 -784 
Q 191 -709 225 -634 
Q 278 -519 444 -313 
Q 466 -284 763 25 
Q 600 122 533 198 
Q 466 275 466 372 
Q 466 481 555 628 
Q 644 775 966 1044 
z
M 1509 2797 
Q 1278 2797 1122 2612 
Q 966 2428 966 2047 
Q 966 1553 1178 1281 
Q 1341 1075 1591 1075 
Q 1828 1075 1981 1253 
Q 2134 1431 2134 1813 
Q 2134 2309 1919 2591 
Q 1759 2797 1509 2797 
z
M 934 0 
Q 788 -159 713 -296 
Q 638 -434 638 -550 
Q 638 -700 819 -813 
Q 1131 -1006 1722 -1006 
Q 2284 -1006 2551 -807 
Q 2819 -609 2819 -384 
Q 2819 -222 2659 -153 
Q 2497 -84 2016 -72 
Q 1313 -53 934 0 
z
" transform="scale(0.015625)"/>
       </defs>
       <use xlink:href="#TimesNewRomanPSMT-41"/>
       <use xlink:href="#TimesNewRomanPSMT-75" x="72.216797"/>
       <use xlink:href="#TimesNewRomanPSMT-67" x="122.216797"/>
       <use xlink:href="#TimesNewRomanPSMT-20" x="172.216797"/>
       <use xlink:href="#TimesNewRomanPSMT-30" x="197.216797"/>
       <use xlink:href="#TimesNewRomanPSMT-31" x="247.216797"/>
      </g>
     </g>
    </g>
    <g id="xtick_9">
     <g id="line2d_27">
      <path d="M 297.547402 388.43875 
L 297.547402 233.59875 
" clip-path="url(#p74a6782ff7)" style="fill: none; stroke: #b0b0b0; stroke-opacity: 0.5; stroke-width: 0.8; stroke-linecap: square"/>
     </g>
     <g id="line2d_28"/>
     <g id="text_16">
      <!-- Aug 02 -->
      <g transform="translate(275.255996 402.32625) scale(0.15 -0.15)">
       <use xlink:href="#TimesNewRomanPSMT-41"/>
       <use xlink:href="#TimesNewRomanPSMT-75" x="72.216797"/>
       <use xlink:href="#TimesNewRomanPSMT-67" x="122.216797"/>
       <use xlink:href="#TimesNewRomanPSMT-20" x="172.216797"/>
       <use xlink:href="#TimesNewRomanPSMT-30" x="197.216797"/>
       <use xlink:href="#TimesNewRomanPSMT-32" x="247.216797"/>
      </g>
     </g>
    </g>
    <g id="xtick_10">
     <g id="line2d_29">
      <path d="M 439.257807 388.43875 
L 439.257807 233.59875 
" clip-path="url(#p74a6782ff7)" style="fill: none; stroke: #b0b0b0; stroke-opacity: 0.5; stroke-width: 0.8; stroke-linecap: square"/>
     </g>
     <g id="line2d_30"/>
     <g id="text_17">
      <!-- Aug 03 -->
      <g transform="translate(416.966401 402.32625) scale(0.15 -0.15)">
       <use xlink:href="#TimesNewRomanPSMT-41"/>
       <use xlink:href="#TimesNewRomanPSMT-75" x="72.216797"/>
       <use xlink:href="#TimesNewRomanPSMT-67" x="122.216797"/>
       <use xlink:href="#TimesNewRomanPSMT-20" x="172.216797"/>
       <use xlink:href="#TimesNewRomanPSMT-30" x="197.216797"/>
       <use xlink:href="#TimesNewRomanPSMT-33" x="247.216797"/>
      </g>
     </g>
    </g>
    <g id="xtick_11">
     <g id="line2d_31">
      <path d="M 580.968212 388.43875 
L 580.968212 233.59875 
" clip-path="url(#p74a6782ff7)" style="fill: none; stroke: #b0b0b0; stroke-opacity: 0.5; stroke-width: 0.8; stroke-linecap: square"/>
     </g>
     <g id="line2d_32"/>
     <g id="text_18">
      <!-- Aug 04 -->
      <g transform="translate(558.676806 402.32625) scale(0.15 -0.15)">
       <use xlink:href="#TimesNewRomanPSMT-41"/>
       <use xlink:href="#TimesNewRomanPSMT-75" x="72.216797"/>
       <use xlink:href="#TimesNewRomanPSMT-67" x="122.216797"/>
       <use xlink:href="#TimesNewRomanPSMT-20" x="172.216797"/>
       <use xlink:href="#TimesNewRomanPSMT-30" x="197.216797"/>
       <use xlink:href="#TimesNewRomanPSMT-34" x="247.216797"/>
      </g>
     </g>
    </g>
    <g id="xtick_12">
     <g id="line2d_33">
      <path d="M 722.678618 388.43875 
L 722.678618 233.59875 
" clip-path="url(#p74a6782ff7)" style="fill: none; stroke: #b0b0b0; stroke-opacity: 0.5; stroke-width: 0.8; stroke-linecap: square"/>
     </g>
     <g id="line2d_34"/>
     <g id="text_19">
      <!-- Aug 05 -->
      <g transform="translate(700.387211 402.32625) scale(0.15 -0.15)">
       <use xlink:href="#TimesNewRomanPSMT-41"/>
       <use xlink:href="#TimesNewRomanPSMT-75" x="72.216797"/>
       <use xlink:href="#TimesNewRomanPSMT-67" x="122.216797"/>
       <use xlink:href="#TimesNewRomanPSMT-20" x="172.216797"/>
       <use xlink:href="#TimesNewRomanPSMT-30" x="197.216797"/>
       <use xlink:href="#TimesNewRomanPSMT-35" x="247.216797"/>
      </g>
     </g>
    </g>
    <g id="xtick_13">
     <g id="line2d_35">
      <path d="M 864.389023 388.43875 
L 864.389023 233.59875 
" clip-path="url(#p74a6782ff7)" style="fill: none; stroke: #b0b0b0; stroke-opacity: 0.5; stroke-width: 0.8; stroke-linecap: square"/>
     </g>
     <g id="line2d_36"/>
     <g id="text_20">
      <!-- Aug 06 -->
      <g transform="translate(842.097617 402.32625) scale(0.15 -0.15)">
       <use xlink:href="#TimesNewRomanPSMT-41"/>
       <use xlink:href="#TimesNewRomanPSMT-75" x="72.216797"/>
       <use xlink:href="#TimesNewRomanPSMT-67" x="122.216797"/>
       <use xlink:href="#TimesNewRomanPSMT-20" x="172.216797"/>
       <use xlink:href="#TimesNewRomanPSMT-30" x="197.216797"/>
       <use xlink:href="#TimesNewRomanPSMT-36" x="247.216797"/>
      </g>
     </g>
    </g>
    <g id="xtick_14">
     <g id="line2d_37">
      <path d="M 1006.099428 388.43875 
L 1006.099428 233.59875 
" clip-path="url(#p74a6782ff7)" style="fill: none; stroke: #b0b0b0; stroke-opacity: 0.5; stroke-width: 0.8; stroke-linecap: square"/>
     </g>
     <g id="line2d_38"/>
     <g id="text_21">
      <!-- Aug 07 -->
      <g transform="translate(983.808022 402.32625) scale(0.15 -0.15)">
       <use xlink:href="#TimesNewRomanPSMT-41"/>
       <use xlink:href="#TimesNewRomanPSMT-75" x="72.216797"/>
       <use xlink:href="#TimesNewRomanPSMT-67" x="122.216797"/>
       <use xlink:href="#TimesNewRomanPSMT-20" x="172.216797"/>
       <use xlink:href="#TimesNewRomanPSMT-30" x="197.216797"/>
       <use xlink:href="#TimesNewRomanPSMT-37" x="247.216797"/>
      </g>
     </g>
    </g>
   </g>
   <g id="matplotlib.axis_4">
    <g id="ytick_4">
     <g id="line2d_39">
      <path d="M 47.782813 365.279314 
L 1125.962812 365.279314 
" clip-path="url(#p74a6782ff7)" style="fill: none; stroke: #b0b0b0; stroke-opacity: 0.5; stroke-width: 0.8; stroke-linecap: square"/>
     </g>
     <g id="line2d_40">
      <g>
       <use xlink:href="#me6d6322410" x="47.782813" y="365.279314" style="stroke: #000000; stroke-width: 0.8"/>
      </g>
     </g>
     <g id="text_22">
      <!-- −5 -->
      <g transform="translate(24.824219 370.487126) scale(0.15 -0.15)">
       <defs>
        <path id="TimesNewRomanPSMT-2212" d="M 3484 2000 
L 116 2000 
L 116 2256 
L 3484 2256 
L 3484 2000 
z
" transform="scale(0.015625)"/>
       </defs>
       <use xlink:href="#TimesNewRomanPSMT-2212"/>
       <use xlink:href="#TimesNewRomanPSMT-35" x="56.396484"/>
      </g>
     </g>
    </g>
    <g id="ytick_5">
     <g id="line2d_41">
      <path d="M 47.782813 318.923512 
L 1125.962812 318.923512 
" clip-path="url(#p74a6782ff7)" style="fill: none; stroke: #b0b0b0; stroke-opacity: 0.5; stroke-width: 0.8; stroke-linecap: square"/>
     </g>
     <g id="line2d_42">
      <g>
       <use xlink:href="#me6d6322410" x="47.782813" y="318.923512" style="stroke: #000000; stroke-width: 0.8"/>
      </g>
     </g>
     <g id="text_23">
      <!-- 0 -->
      <g transform="translate(33.282813 324.131324) scale(0.15 -0.15)">
       <use xlink:href="#TimesNewRomanPSMT-30"/>
      </g>
     </g>
    </g>
    <g id="ytick_6">
     <g id="line2d_43">
      <path d="M 47.782813 272.56771 
L 1125.962812 272.56771 
" clip-path="url(#p74a6782ff7)" style="fill: none; stroke: #b0b0b0; stroke-opacity: 0.5; stroke-width: 0.8; stroke-linecap: square"/>
     </g>
     <g id="line2d_44">
      <g>
       <use xlink:href="#me6d6322410" x="47.782813" y="272.56771" style="stroke: #000000; stroke-width: 0.8"/>
      </g>
     </g>
     <g id="text_24">
      <!-- 5 -->
      <g transform="translate(33.282813 277.775522) scale(0.15 -0.15)">
       <use xlink:href="#TimesNewRomanPSMT-35"/>
      </g>
     </g>
    </g>
    <g id="text_25">
     <!-- Demand (MW) -->
     <g transform="translate(17.615625 357.045313) rotate(-90) scale(0.15 -0.15)">
      <use xlink:href="#TimesNewRomanPSMT-44"/>
      <use xlink:href="#TimesNewRomanPSMT-65" x="72.216797"/>
      <use xlink:href="#TimesNewRomanPSMT-6d" x="116.601562"/>
      <use xlink:href="#TimesNewRomanPSMT-61" x="194.384766"/>
      <use xlink:href="#TimesNewRomanPSMT-6e" x="238.769531"/>
      <use xlink:href="#TimesNewRomanPSMT-64" x="288.769531"/>
      <use xlink:href="#TimesNewRomanPSMT-20" x="338.769531"/>
      <use xlink:href="#TimesNewRomanPSMT-28" x="363.769531"/>
      <use xlink:href="#TimesNewRomanPSMT-4d" x="397.070312"/>
      <use xlink:href="#TimesNewRomanPSMT-57" x="485.986328"/>
      <use xlink:href="#TimesNewRomanPSMT-29" x="580.371094"/>
     </g>
    </g>
   </g>
   <g id="line2d_45">
    <path d="M 96.790994 290.458847 
L 102.695595 289.713516 
L 108.600195 288.830507 
L 114.504795 287.507434 
L 120.409395 284.310079 
L 126.313995 282.22703 
L 132.218596 281.894604 
L 138.123196 283.038572 
L 144.027796 282.216517 
L 155.836997 286.466472 
L 161.741597 285.571073 
L 167.646197 285.157041 
L 173.550797 285.610874 
L 179.455397 286.672612 
L 185.359998 285.744921 
L 191.264598 289.767585 
L 197.169198 287.180264 
L 203.073798 288.03048 
L 208.978398 288.244129 
L 214.882999 288.241626 
L 220.787599 289.933798 
L 226.692199 288.372044 
L 232.596799 289.330524 
L 244.406 290.109649 
L 250.3106 290.407657 
L 256.2152 288.516854 
L 262.1198 286.373103 
L 268.024401 286.742702 
L 273.929001 285.335646 
L 279.833601 283.416432 
L 285.738201 282.691376 
L 291.642802 282.586492 
L 297.547402 282.067325 
L 303.452002 283.010035 
L 309.356602 284.839759 
L 315.261202 285.739915 
L 321.165803 285.987983 
L 327.070403 286.36309 
L 332.975003 286.215025 
L 338.879603 285.415623 
L 344.784204 285.528769 
L 350.688804 285.416875 
L 356.593404 286.041051 
L 362.498004 287.235835 
L 368.402604 288.312592 
L 374.307205 289.153672 
L 380.211805 289.796622 
L 386.116405 290.238064 
L 392.021005 288.964053 
L 397.925605 288.9613 
L 403.830206 287.722209 
L 409.734806 286.736694 
L 415.639406 286.278982 
L 421.544006 284.754525 
L 427.448607 283.494407 
L 433.353207 284.726489 
L 439.257807 284.430859 
L 445.162407 285.175065 
L 451.067007 286.279983 
L 456.971608 287.665762 
L 462.876208 288.623616 
L 468.780808 287.37639 
L 474.685408 287.761259 
L 480.590009 287.710569 
L 486.494609 285.846051 
L 492.399209 284.509085 
L 498.303809 284.269903 
L 504.208409 285.102847 
L 510.11301 289.286342 
L 516.01761 289.87297 
L 521.92221 290.264723 
L 527.82681 290.091376 
L 533.731411 290.697404 
L 539.636011 287.544231 
L 545.540611 285.338274 
L 551.445211 279.959995 
L 557.349811 278.780606 
L 563.254412 281.72789 
L 569.159012 281.34665 
L 575.063612 283.567877 
L 580.968212 284.628238 
L 586.872812 284.80171 
L 592.777413 283.906812 
L 598.682013 284.887696 
L 604.586613 284.928498 
L 610.491213 283.884908 
L 616.395814 283.641721 
L 622.300414 283.548226 
L 628.205014 283.951869 
L 634.109614 283.851741 
L 640.014214 283.957752 
L 645.918815 285.4946 
L 651.823415 288.07341 
L 657.728015 287.296037 
L 663.632615 287.349356 
L 669.537216 287.115681 
L 675.441816 287.938988 
L 681.346416 285.578958 
L 687.251016 282.048176 
L 693.155616 280.478411 
L 699.060217 276.365631 
L 704.964817 276.614576 
L 710.869417 277.568675 
L 716.774017 277.992219 
L 728.583218 279.531946 
L 734.487818 282.9044 
L 740.392418 284.410834 
L 746.297018 284.468157 
L 758.106219 283.106159 
L 764.010819 283.454606 
L 769.915419 286.255952 
L 775.82002 285.574202 
L 781.72462 284.360018 
L 787.62922 289.931796 
L 793.53382 290.605786 
L 799.43842 290.800536 
L 805.343021 290.690144 
L 811.247621 289.132395 
L 817.152221 287.774276 
L 823.056821 286.213022 
L 828.961421 281.706863 
L 834.866022 270.952808 
L 840.770622 271.767604 
L 846.675222 273.688194 
L 852.579822 282.721665 
L 858.484423 284.632994 
L 864.389023 282.358324 
L 870.293623 286.745956 
L 876.198223 284.632243 
L 882.102823 280.570028 
L 888.007424 282.518905 
L 893.912024 283.83572 
L 899.816624 282.710025 
L 905.721224 283.602171 
L 917.530425 283.186011 
L 923.435025 286.035044 
L 929.339625 287.659128 
L 935.244225 289.440665 
L 941.148826 290.539075 
L 947.053426 289.740801 
L 952.958026 289.573836 
L 958.862626 289.260684 
L 964.767227 287.025064 
L 970.671827 284.361645 
L 976.576427 277.883955 
L 982.481027 283.888288 
L 988.385627 279.685893 
L 994.290228 278.335034 
L 1000.194828 280.297428 
L 1006.099428 282.432794 
L 1012.004028 281.942039 
L 1017.908628 282.477977 
L 1023.813229 284.768918 
L 1029.717829 285.010854 
L 1035.622429 284.360644 
L 1041.527029 284.839259 
L 1047.43163 284.344624 
L 1053.33623 283.713188 
L 1059.24083 283.467998 
L 1065.14543 283.511679 
L 1071.05003 286.185737 
L 1076.954631 289.635165 
L 1076.954631 289.635165 
" clip-path="url(#p74a6782ff7)" style="fill: none; stroke: #808080; stroke-width: 1.5; stroke-linecap: square"/>
   </g>
   <g id="line2d_46">
    <path d="M 96.790994 313.678279 
L 102.695595 303.657537 
L 114.504795 282.855961 
L 120.409395 271.65457 
L 126.313995 263.258303 
L 132.218596 267.586627 
L 138.123196 288.092958 
L 149.932396 304.758381 
L 155.836997 310.313594 
L 161.741597 323.007169 
L 167.646197 336.925573 
L 173.550797 358.074667 
L 179.455397 367.854918 
L 185.359998 378.49105 
L 191.264598 381.400568 
L 197.169198 372.860861 
L 203.073798 345.531899 
L 208.978398 330.269951 
L 214.882999 326.451489 
L 220.787599 335.747358 
L 226.692199 353.064563 
L 232.596799 350.82906 
L 238.5014 334.415806 
L 244.406 321.306867 
L 250.3106 310.828626 
L 256.2152 303.800384 
L 262.1198 296.580111 
L 268.024401 287.352993 
L 273.929001 277.431617 
L 279.833601 273.930373 
L 285.738201 273.485994 
L 291.642802 268.567889 
L 297.547402 262.428025 
L 303.452002 268.467167 
L 309.356602 289.043271 
L 315.261202 289.970989 
L 321.165803 294.800978 
L 327.070403 304.326404 
L 332.975003 308.954249 
L 338.879603 321.901251 
L 344.784204 320.644471 
L 350.688804 315.712085 
L 356.593404 301.215604 
L 362.498004 303.891885 
L 368.402604 325.477684 
L 374.307205 317.932572 
L 380.211805 309.696073 
L 386.116405 302.884399 
L 392.021005 296.63555 
L 397.925605 292.933981 
L 403.830206 286.51298 
L 409.734806 281.726507 
L 415.639406 279.62036 
L 421.544006 282.02219 
L 427.448607 296.299016 
L 433.353207 300.914469 
L 439.257807 308.366592 
L 445.162407 310.412638 
L 451.067007 319.338311 
L 456.971608 329.553489 
L 462.876208 336.338101 
L 468.780808 339.432324 
L 474.685408 348.590106 
L 480.590009 355.005723 
L 486.494609 349.449859 
L 492.399209 325.223863 
L 498.303809 312.384729 
L 504.208409 313.382974 
L 510.11301 334.380752 
L 516.01761 327.227654 
L 521.92221 317.840158 
L 527.82681 306.996188 
L 533.731411 295.728474 
L 539.636011 284.76485 
L 545.540611 274.853837 
L 551.445211 272.204928 
L 557.349811 272.427997 
L 563.254412 272.037817 
L 569.159012 283.483433 
L 575.063612 303.238239 
L 580.968212 320.835896 
L 586.872812 339.408589 
L 592.777413 334.916502 
L 598.682013 332.697222 
L 604.586613 331.821232 
L 610.491213 325.463567 
L 622.300414 343.74295 
L 628.205014 342.593974 
L 634.109614 334.529834 
L 640.014214 331.275436 
L 645.918815 326.472966 
L 651.823415 338.524119 
L 657.728015 317.073409 
L 663.632615 301.459428 
L 669.537216 292.781333 
L 675.441816 285.23775 
L 681.346416 275.385921 
L 687.251016 267.099588 
L 699.060217 243.238217 
L 704.964817 240.982706 
L 710.869417 243.177886 
L 716.774017 251.53707 
L 722.678618 257.734749 
L 728.583218 271.521607 
L 734.487818 274.738036 
L 740.392418 283.387336 
L 746.297018 286.676493 
L 752.201619 293.103921 
L 758.106219 295.49511 
L 764.010819 301.164812 
L 769.915419 302.457211 
L 775.82002 296.202867 
L 781.72462 299.072596 
L 787.62922 295.218581 
L 793.53382 310.204392 
L 799.43842 302.824798 
L 805.343021 294.050368 
L 817.152221 268.275533 
L 823.056821 258.190673 
L 828.961421 247.098175 
L 834.866022 240.636932 
L 840.770622 245.008813 
L 846.675222 261.700633 
L 852.579822 270.59707 
L 858.484423 282.619405 
L 864.389023 289.388771 
L 870.293623 299.647505 
L 876.198223 310.567004 
L 882.102823 318.922294 
L 888.007424 321.859727 
L 893.912024 327.512928 
L 899.816624 335.905194 
L 905.721224 337.803942 
L 911.625825 319.522876 
L 917.530425 298.448235 
L 923.435025 291.829053 
L 929.339625 295.694442 
L 935.244225 315.965906 
L 941.148826 308.099561 
L 947.053426 303.891002 
L 952.958026 295.425248 
L 958.862626 285.499093 
L 964.767227 274.037829 
L 970.671827 262.315931 
L 976.576427 254.334546 
L 982.481027 264.84362 
L 988.385627 277.895156 
L 994.290228 284.795591 
L 1000.194828 293.028459 
L 1006.099428 310.032651 
L 1012.004028 322.605355 
L 1017.908628 331.706345 
L 1029.717829 350.532266 
L 1035.622429 356.429387 
L 1041.527029 362.862673 
L 1047.43163 359.51497 
L 1053.33623 353.30575 
L 1059.24083 345.34288 
L 1065.14543 334.192672 
L 1071.05003 336.541186 
L 1076.954631 358.68016 
L 1076.954631 358.68016 
" clip-path="url(#p74a6782ff7)" style="fill: none; stroke: #0000ff; stroke-width: 1.5; stroke-linecap: square"/>
   </g>
   <g id="patch_9">
    <path d="M 47.782813 388.43875 
L 47.782813 233.59875 
" style="fill: none; stroke: #000000; stroke-width: 0.8; stroke-linejoin: miter; stroke-linecap: square"/>
   </g>
   <g id="patch_10">
    <path d="M 1125.962812 388.43875 
L 1125.962812 233.59875 
" style="fill: none; stroke: #000000; stroke-width: 0.8; stroke-linejoin: miter; stroke-linecap: square"/>
   </g>
   <g id="patch_11">
    <path d="M 47.782813 388.43875 
L 1125.962812 388.43875 
" style="fill: none; stroke: #000000; stroke-width: 0.8; stroke-linejoin: miter; stroke-linecap: square"/>
   </g>
   <g id="patch_12">
    <path d="M 47.782813 233.59875 
L 1125.962812 233.59875 
" style="fill: none; stroke: #000000; stroke-width: 0.8; stroke-linejoin: miter; stroke-linecap: square"/>
   </g>
   <g id="text_26">
    <!-- Model 2: Summer Week -->
    <g transform="translate(499.01875 227.59875) scale(0.18 -0.18)">
     <defs>
      <path id="TimesNewRomanPSMT-53" d="M 2934 4334 
L 2934 2869 
L 2819 2869 
Q 2763 3291 2617 3541 
Q 2472 3791 2203 3937 
Q 1934 4084 1647 4084 
Q 1322 4084 1109 3886 
Q 897 3688 897 3434 
Q 897 3241 1031 3081 
Q 1225 2847 1953 2456 
Q 2547 2138 2764 1967 
Q 2981 1797 3098 1565 
Q 3216 1334 3216 1081 
Q 3216 600 2842 251 
Q 2469 -97 1881 -97 
Q 1697 -97 1534 -69 
Q 1438 -53 1133 45 
Q 828 144 747 144 
Q 669 144 623 97 
Q 578 50 556 -97 
L 441 -97 
L 441 1356 
L 556 1356 
Q 638 900 775 673 
Q 913 447 1195 297 
Q 1478 147 1816 147 
Q 2206 147 2432 353 
Q 2659 559 2659 841 
Q 2659 997 2573 1156 
Q 2488 1316 2306 1453 
Q 2184 1547 1640 1851 
Q 1097 2156 867 2337 
Q 638 2519 519 2737 
Q 400 2956 400 3219 
Q 400 3675 750 4004 
Q 1100 4334 1641 4334 
Q 1978 4334 2356 4169 
Q 2531 4091 2603 4091 
Q 2684 4091 2736 4139 
Q 2788 4188 2819 4334 
L 2934 4334 
z
" transform="scale(0.015625)"/>
     </defs>
     <use xlink:href="#TimesNewRomanPSMT-4d"/>
     <use xlink:href="#TimesNewRomanPSMT-6f" x="88.916016"/>
     <use xlink:href="#TimesNewRomanPSMT-64" x="138.916016"/>
     <use xlink:href="#TimesNewRomanPSMT-65" x="188.916016"/>
     <use xlink:href="#TimesNewRomanPSMT-6c" x="233.300781"/>
     <use xlink:href="#TimesNewRomanPSMT-20" x="261.083984"/>
     <use xlink:href="#TimesNewRomanPSMT-32" x="286.083984"/>
     <use xlink:href="#TimesNewRomanPSMT-3a" x="336.083984"/>
     <use xlink:href="#TimesNewRomanPSMT-20" x="363.867188"/>
     <use xlink:href="#TimesNewRomanPSMT-53" x="388.867188"/>
     <use xlink:href="#TimesNewRomanPSMT-75" x="444.482422"/>
     <use xlink:href="#TimesNewRomanPSMT-6d" x="494.482422"/>
     <use xlink:href="#TimesNewRomanPSMT-6d" x="572.265625"/>
     <use xlink:href="#TimesNewRomanPSMT-65" x="650.048828"/>
     <use xlink:href="#TimesNewRomanPSMT-72" x="694.433594"/>
     <use xlink:href="#TimesNewRomanPSMT-20" x="727.734375"/>
     <use xlink:href="#TimesNewRomanPSMT-57" x="750.984375"/>
     <use xlink:href="#TimesNewRomanPSMT-65" x="837.369141"/>
     <use xlink:href="#TimesNewRomanPSMT-65" x="881.753906"/>
     <use xlink:href="#TimesNewRomanPSMT-6b" x="926.138672"/>
    </g>
   </g>
   <g id="legend_2">
    <g id="patch_13">
     <path d="M 58.282813 380.93875 
L 162.928906 380.93875 
Q 165.928906 380.93875 165.928906 377.93875 
L 165.928906 337.021563 
Q 165.928906 334.021563 162.928906 334.021563 
L 58.282813 334.021563 
Q 55.282813 334.021563 55.282813 337.021563 
L 55.282813 377.93875 
Q 55.282813 380.93875 58.282813 380.93875 
z
" style="fill: #ffffff; opacity: 0.8; stroke: #cccccc; stroke-linejoin: miter"/>
    </g>
    <g id="line2d_47">
     <path d="M 61.282813 345.271563 
L 76.282813 345.271563 
L 91.282813 345.271563 
" style="fill: none; stroke: #808080; stroke-width: 1.5; stroke-linecap: square"/>
    </g>
    <g id="text_27">
     <!-- Actual -->
     <g transform="translate(103.282813 350.521563) scale(0.15 -0.15)">
      <use xlink:href="#TimesNewRomanPSMT-41"/>
      <use xlink:href="#TimesNewRomanPSMT-63" x="72.216797"/>
      <use xlink:href="#TimesNewRomanPSMT-74" x="116.601562"/>
      <use xlink:href="#TimesNewRomanPSMT-75" x="144.384766"/>
      <use xlink:href="#TimesNewRomanPSMT-61" x="194.384766"/>
      <use xlink:href="#TimesNewRomanPSMT-6c" x="238.769531"/>
     </g>
    </g>
    <g id="line2d_48">
     <path d="M 61.282813 366.480156 
L 76.282813 366.480156 
L 91.282813 366.480156 
" style="fill: none; stroke: #0000ff; stroke-width: 1.5; stroke-linecap: square"/>
    </g>
    <g id="text_28">
     <!-- Predicted -->
     <g transform="translate(103.282813 371.730156) scale(0.15 -0.15)">
      <use xlink:href="#TimesNewRomanPSMT-50"/>
      <use xlink:href="#TimesNewRomanPSMT-72" x="55.615234"/>
      <use xlink:href="#TimesNewRomanPSMT-65" x="88.916016"/>
      <use xlink:href="#TimesNewRomanPSMT-64" x="133.300781"/>
      <use xlink:href="#TimesNewRomanPSMT-69" x="183.300781"/>
      <use xlink:href="#TimesNewRomanPSMT-63" x="211.083984"/>
      <use xlink:href="#TimesNewRomanPSMT-74" x="255.46875"/>
      <use xlink:href="#TimesNewRomanPSMT-65" x="283.251953"/>
      <use xlink:href="#TimesNewRomanPSMT-64" x="327.636719"/>
     </g>
    </g>
   </g>
  </g>
 </g>
 <defs>
  <clipPath id="p568be1989a">
   <rect x="47.782813" y="25.69875" width="1078.18" height="154.84"/>
  </clipPath>
  <clipPath id="p74a6782ff7">
   <rect x="47.782813" y="233.59875" width="1078.18" height="154.84"/>
  </clipPath>
 </defs>
</svg>
