<?xml version="1.0" encoding="utf-8" standalone="no"?>
<!DOCTYPE svg PUBLIC "-//W3C//DTD SVG 1.1//EN"
  "http://www.w3.org/Graphics/SVG/1.1/DTD/svg11.dtd">
<svg xmlns:xlink="http://www.w3.org/1999/xlink" width="1133.074219pt" height="412.762969pt" viewBox="0 0 1133.074219 412.762969" xmlns="http://www.w3.org/2000/svg" version="1.1">
 <metadata>
  <rdf:RDF xmlns:dc="http://purl.org/dc/elements/1.1/" xmlns:cc="http://creativecommons.org/ns#" xmlns:rdf="http://www.w3.org/1999/02/22-rdf-syntax-ns#">
   <cc:Work>
    <dc:type rdf:resource="http://purl.org/dc/dcmitype/StillImage"/>
    <dc:date>2024-04-19T18:10:57.531035</dc:date>
    <dc:format>image/svg+xml</dc:format>
    <dc:creator>
     <cc:Agent>
      <dc:title>Matplotlib v3.8.2, https://matplotlib.org/</dc:title>
     </cc:Agent>
    </dc:creator>
   </cc:Work>
  </rdf:RDF>
 </metadata>
 <defs>
  <style type="text/css">*{stroke-linejoin: round; stroke-linecap: butt}</style>
 </defs>
 <g id="figure_1">
  <g id="patch_1">
   <path d="M 0 412.762969 
L 1133.074219 412.762969 
L 1133.074219 0 
L 0 0 
z
" style="fill: #ffffff"/>
  </g>
  <g id="axes_1">
   <g id="patch_2">
    <path d="M 50.574219 180.53875 
L 1125.874219 180.53875 
L 1125.874219 25.69875 
L 50.574219 25.69875 
z
" style="fill: #ffffff"/>
   </g>
   <g id="matplotlib.axis_1">
    <g id="xtick_1">
     <g id="line2d_1">
      <path d="M 158.339772 180.53875 
L 158.339772 25.69875 
" clip-path="url(#pf62f808c48)" style="fill: none; stroke: #b0b0b0; stroke-opacity: 0.5; stroke-width: 0.8; stroke-linecap: square"/>
     </g>
     <g id="line2d_2"/>
     <g id="text_1">
      <!-- Jan 01 -->
      <g transform="translate(138.966334 194.454375) scale(0.15 -0.15)">
       <defs>
        <path id="TimesNewRomanPSMT-4a" d="M 638 4122 
L 638 4238 
L 2453 4238 
L 2453 4122 
L 2300 4122 
Q 2041 4122 1922 3969 
Q 1847 3869 1847 3488 
L 1847 1416 
Q 1847 938 1742 641 
Q 1638 344 1381 123 
Q 1125 -97 763 -97 
Q 469 -97 300 48 
Q 131 194 131 381 
Q 131 534 209 613 
Q 313 709 450 709 
Q 550 709 629 643 
Q 709 578 831 294 
Q 903 125 1016 125 
Q 1100 125 1173 228 
Q 1247 331 1247 594 
L 1247 3488 
Q 1247 3809 1206 3913 
Q 1175 3991 1075 4047 
Q 941 4122 791 4122 
L 638 4122 
z
" transform="scale(0.015625)"/>
        <path id="TimesNewRomanPSMT-61" d="M 1822 413 
Q 1381 72 1269 19 
Q 1100 -59 909 -59 
Q 613 -59 420 144 
Q 228 347 228 678 
Q 228 888 322 1041 
Q 450 1253 767 1440 
Q 1084 1628 1822 1897 
L 1822 2009 
Q 1822 2438 1686 2597 
Q 1550 2756 1291 2756 
Q 1094 2756 978 2650 
Q 859 2544 859 2406 
L 866 2225 
Q 866 2081 792 2003 
Q 719 1925 600 1925 
Q 484 1925 411 2006 
Q 338 2088 338 2228 
Q 338 2497 613 2722 
Q 888 2947 1384 2947 
Q 1766 2947 2009 2819 
Q 2194 2722 2281 2516 
Q 2338 2381 2338 1966 
L 2338 994 
Q 2338 584 2353 492 
Q 2369 400 2405 369 
Q 2441 338 2488 338 
Q 2538 338 2575 359 
Q 2641 400 2828 588 
L 2828 413 
Q 2478 -56 2159 -56 
Q 2006 -56 1915 50 
Q 1825 156 1822 413 
z
M 1822 616 
L 1822 1706 
Q 1350 1519 1213 1441 
Q 966 1303 859 1153 
Q 753 1003 753 825 
Q 753 600 887 451 
Q 1022 303 1197 303 
Q 1434 303 1822 616 
z
" transform="scale(0.015625)"/>
        <path id="TimesNewRomanPSMT-6e" d="M 1034 2341 
Q 1538 2947 1994 2947 
Q 2228 2947 2397 2830 
Q 2566 2713 2666 2444 
Q 2734 2256 2734 1869 
L 2734 647 
Q 2734 375 2778 278 
Q 2813 200 2889 156 
Q 2966 113 3172 113 
L 3172 0 
L 1756 0 
L 1756 113 
L 1816 113 
Q 2016 113 2095 173 
Q 2175 234 2206 353 
Q 2219 400 2219 647 
L 2219 1819 
Q 2219 2209 2117 2386 
Q 2016 2563 1775 2563 
Q 1403 2563 1034 2156 
L 1034 647 
Q 1034 356 1069 288 
Q 1113 197 1189 155 
Q 1266 113 1500 113 
L 1500 0 
L 84 0 
L 84 113 
L 147 113 
Q 366 113 442 223 
Q 519 334 519 647 
L 519 1709 
Q 519 2225 495 2337 
Q 472 2450 423 2490 
Q 375 2531 294 2531 
Q 206 2531 84 2484 
L 38 2597 
L 900 2947 
L 1034 2947 
L 1034 2341 
z
" transform="scale(0.015625)"/>
        <path id="TimesNewRomanPSMT-20" transform="scale(0.015625)"/>
        <path id="TimesNewRomanPSMT-30" d="M 231 2094 
Q 231 2819 450 3342 
Q 669 3866 1031 4122 
Q 1313 4325 1613 4325 
Q 2100 4325 2488 3828 
Q 2972 3213 2972 2159 
Q 2972 1422 2759 906 
Q 2547 391 2217 158 
Q 1888 -75 1581 -75 
Q 975 -75 572 641 
Q 231 1244 231 2094 
z
M 844 2016 
Q 844 1141 1059 588 
Q 1238 122 1591 122 
Q 1759 122 1940 273 
Q 2122 425 2216 781 
Q 2359 1319 2359 2297 
Q 2359 3022 2209 3506 
Q 2097 3866 1919 4016 
Q 1791 4119 1609 4119 
Q 1397 4119 1231 3928 
Q 1006 3669 925 3112 
Q 844 2556 844 2016 
z
" transform="scale(0.015625)"/>
        <path id="TimesNewRomanPSMT-31" d="M 750 3822 
L 1781 4325 
L 1884 4325 
L 1884 747 
Q 1884 391 1914 303 
Q 1944 216 2037 169 
Q 2131 122 2419 116 
L 2419 0 
L 825 0 
L 825 116 
Q 1125 122 1212 167 
Q 1300 213 1334 289 
Q 1369 366 1369 747 
L 1369 3034 
Q 1369 3497 1338 3628 
Q 1316 3728 1258 3775 
Q 1200 3822 1119 3822 
Q 1003 3822 797 3725 
L 750 3822 
z
" transform="scale(0.015625)"/>
       </defs>
       <use xlink:href="#TimesNewRomanPSMT-4a"/>
       <use xlink:href="#TimesNewRomanPSMT-61" x="38.916016"/>
       <use xlink:href="#TimesNewRomanPSMT-6e" x="83.300781"/>
       <use xlink:href="#TimesNewRomanPSMT-20" x="133.300781"/>
       <use xlink:href="#TimesNewRomanPSMT-30" x="158.300781"/>
       <use xlink:href="#TimesNewRomanPSMT-31" x="208.300781"/>
      </g>
     </g>
    </g>
    <g id="xtick_2">
     <g id="line2d_3">
      <path d="M 299.671645 180.53875 
L 299.671645 25.69875 
" clip-path="url(#pf62f808c48)" style="fill: none; stroke: #b0b0b0; stroke-opacity: 0.5; stroke-width: 0.8; stroke-linecap: square"/>
     </g>
     <g id="line2d_4"/>
     <g id="text_2">
      <!-- Jan 02 -->
      <g transform="translate(280.298207 194.454375) scale(0.15 -0.15)">
       <defs>
        <path id="TimesNewRomanPSMT-32" d="M 2934 816 
L 2638 0 
L 138 0 
L 138 116 
Q 1241 1122 1691 1759 
Q 2141 2397 2141 2925 
Q 2141 3328 1894 3587 
Q 1647 3847 1303 3847 
Q 991 3847 742 3664 
Q 494 3481 375 3128 
L 259 3128 
Q 338 3706 661 4015 
Q 984 4325 1469 4325 
Q 1984 4325 2329 3994 
Q 2675 3663 2675 3213 
Q 2675 2891 2525 2569 
Q 2294 2063 1775 1497 
Q 997 647 803 472 
L 1909 472 
Q 2247 472 2383 497 
Q 2519 522 2628 598 
Q 2738 675 2819 816 
L 2934 816 
z
" transform="scale(0.015625)"/>
       </defs>
       <use xlink:href="#TimesNewRomanPSMT-4a"/>
       <use xlink:href="#TimesNewRomanPSMT-61" x="38.916016"/>
       <use xlink:href="#TimesNewRomanPSMT-6e" x="83.300781"/>
       <use xlink:href="#TimesNewRomanPSMT-20" x="133.300781"/>
       <use xlink:href="#TimesNewRomanPSMT-30" x="158.300781"/>
       <use xlink:href="#TimesNewRomanPSMT-32" x="208.300781"/>
      </g>
     </g>
    </g>
    <g id="xtick_3">
     <g id="line2d_5">
      <path d="M 441.003518 180.53875 
L 441.003518 25.69875 
" clip-path="url(#pf62f808c48)" style="fill: none; stroke: #b0b0b0; stroke-opacity: 0.5; stroke-width: 0.8; stroke-linecap: square"/>
     </g>
     <g id="line2d_6"/>
     <g id="text_3">
      <!-- Jan 03 -->
      <g transform="translate(421.63008 194.454375) scale(0.15 -0.15)">
       <defs>
        <path id="TimesNewRomanPSMT-33" d="M 325 3431 
Q 506 3859 782 4092 
Q 1059 4325 1472 4325 
Q 1981 4325 2253 3994 
Q 2459 3747 2459 3466 
Q 2459 3003 1878 2509 
Q 2269 2356 2469 2072 
Q 2669 1788 2669 1403 
Q 2669 853 2319 450 
Q 1863 -75 997 -75 
Q 569 -75 414 31 
Q 259 138 259 259 
Q 259 350 332 419 
Q 406 488 509 488 
Q 588 488 669 463 
Q 722 447 909 348 
Q 1097 250 1169 231 
Q 1284 197 1416 197 
Q 1734 197 1970 444 
Q 2206 691 2206 1028 
Q 2206 1275 2097 1509 
Q 2016 1684 1919 1775 
Q 1784 1900 1550 2001 
Q 1316 2103 1072 2103 
L 972 2103 
L 972 2197 
Q 1219 2228 1467 2375 
Q 1716 2522 1828 2728 
Q 1941 2934 1941 3181 
Q 1941 3503 1739 3701 
Q 1538 3900 1238 3900 
Q 753 3900 428 3381 
L 325 3431 
z
" transform="scale(0.015625)"/>
       </defs>
       <use xlink:href="#TimesNewRomanPSMT-4a"/>
       <use xlink:href="#TimesNewRomanPSMT-61" x="38.916016"/>
       <use xlink:href="#TimesNewRomanPSMT-6e" x="83.300781"/>
       <use xlink:href="#TimesNewRomanPSMT-20" x="133.300781"/>
       <use xlink:href="#TimesNewRomanPSMT-30" x="158.300781"/>
       <use xlink:href="#TimesNewRomanPSMT-33" x="208.300781"/>
      </g>
     </g>
    </g>
    <g id="xtick_4">
     <g id="line2d_7">
      <path d="M 582.335391 180.53875 
L 582.335391 25.69875 
" clip-path="url(#pf62f808c48)" style="fill: none; stroke: #b0b0b0; stroke-opacity: 0.5; stroke-width: 0.8; stroke-linecap: square"/>
     </g>
     <g id="line2d_8"/>
     <g id="text_4">
      <!-- Jan 04 -->
      <g transform="translate(562.961953 194.454375) scale(0.15 -0.15)">
       <defs>
        <path id="TimesNewRomanPSMT-34" d="M 2978 1563 
L 2978 1119 
L 2409 1119 
L 2409 0 
L 1894 0 
L 1894 1119 
L 100 1119 
L 100 1519 
L 2066 4325 
L 2409 4325 
L 2409 1563 
L 2978 1563 
z
M 1894 1563 
L 1894 3666 
L 406 1563 
L 1894 1563 
z
" transform="scale(0.015625)"/>
       </defs>
       <use xlink:href="#TimesNewRomanPSMT-4a"/>
       <use xlink:href="#TimesNewRomanPSMT-61" x="38.916016"/>
       <use xlink:href="#TimesNewRomanPSMT-6e" x="83.300781"/>
       <use xlink:href="#TimesNewRomanPSMT-20" x="133.300781"/>
       <use xlink:href="#TimesNewRomanPSMT-30" x="158.300781"/>
       <use xlink:href="#TimesNewRomanPSMT-34" x="208.300781"/>
      </g>
     </g>
    </g>
    <g id="xtick_5">
     <g id="line2d_9">
      <path d="M 723.667264 180.53875 
L 723.667264 25.69875 
" clip-path="url(#pf62f808c48)" style="fill: none; stroke: #b0b0b0; stroke-opacity: 0.5; stroke-width: 0.8; stroke-linecap: square"/>
     </g>
     <g id="line2d_10"/>
     <g id="text_5">
      <!-- Jan 05 -->
      <g transform="translate(704.293826 194.454375) scale(0.15 -0.15)">
       <defs>
        <path id="TimesNewRomanPSMT-35" d="M 2778 4238 
L 2534 3706 
L 1259 3706 
L 981 3138 
Q 1809 3016 2294 2522 
Q 2709 2097 2709 1522 
Q 2709 1188 2573 903 
Q 2438 619 2231 419 
Q 2025 219 1772 97 
Q 1413 -75 1034 -75 
Q 653 -75 479 54 
Q 306 184 306 341 
Q 306 428 378 495 
Q 450 563 559 563 
Q 641 563 702 538 
Q 763 513 909 409 
Q 1144 247 1384 247 
Q 1750 247 2026 523 
Q 2303 800 2303 1197 
Q 2303 1581 2056 1914 
Q 1809 2247 1375 2428 
Q 1034 2569 447 2591 
L 1259 4238 
L 2778 4238 
z
" transform="scale(0.015625)"/>
       </defs>
       <use xlink:href="#TimesNewRomanPSMT-4a"/>
       <use xlink:href="#TimesNewRomanPSMT-61" x="38.916016"/>
       <use xlink:href="#TimesNewRomanPSMT-6e" x="83.300781"/>
       <use xlink:href="#TimesNewRomanPSMT-20" x="133.300781"/>
       <use xlink:href="#TimesNewRomanPSMT-30" x="158.300781"/>
       <use xlink:href="#TimesNewRomanPSMT-35" x="208.300781"/>
      </g>
     </g>
    </g>
    <g id="xtick_6">
     <g id="line2d_11">
      <path d="M 864.999137 180.53875 
L 864.999137 25.69875 
" clip-path="url(#pf62f808c48)" style="fill: none; stroke: #b0b0b0; stroke-opacity: 0.5; stroke-width: 0.8; stroke-linecap: square"/>
     </g>
     <g id="line2d_12"/>
     <g id="text_6">
      <!-- Jan 06 -->
      <g transform="translate(845.625699 194.454375) scale(0.15 -0.15)">
       <defs>
        <path id="TimesNewRomanPSMT-36" d="M 2869 4325 
L 2869 4209 
Q 2456 4169 2195 4045 
Q 1934 3922 1679 3669 
Q 1425 3416 1258 3105 
Q 1091 2794 978 2366 
Q 1428 2675 1881 2675 
Q 2316 2675 2634 2325 
Q 2953 1975 2953 1425 
Q 2953 894 2631 456 
Q 2244 -75 1606 -75 
Q 1172 -75 869 213 
Q 275 772 275 1663 
Q 275 2231 503 2743 
Q 731 3256 1154 3653 
Q 1578 4050 1965 4187 
Q 2353 4325 2688 4325 
L 2869 4325 
z
M 925 2138 
Q 869 1716 869 1456 
Q 869 1156 980 804 
Q 1091 453 1309 247 
Q 1469 100 1697 100 
Q 1969 100 2183 356 
Q 2397 613 2397 1088 
Q 2397 1622 2184 2012 
Q 1972 2403 1581 2403 
Q 1463 2403 1327 2353 
Q 1191 2303 925 2138 
z
" transform="scale(0.015625)"/>
       </defs>
       <use xlink:href="#TimesNewRomanPSMT-4a"/>
       <use xlink:href="#TimesNewRomanPSMT-61" x="38.916016"/>
       <use xlink:href="#TimesNewRomanPSMT-6e" x="83.300781"/>
       <use xlink:href="#TimesNewRomanPSMT-20" x="133.300781"/>
       <use xlink:href="#TimesNewRomanPSMT-30" x="158.300781"/>
       <use xlink:href="#TimesNewRomanPSMT-36" x="208.300781"/>
      </g>
     </g>
    </g>
    <g id="xtick_7">
     <g id="line2d_13">
      <path d="M 1006.33101 180.53875 
L 1006.33101 25.69875 
" clip-path="url(#pf62f808c48)" style="fill: none; stroke: #b0b0b0; stroke-opacity: 0.5; stroke-width: 0.8; stroke-linecap: square"/>
     </g>
     <g id="line2d_14"/>
     <g id="text_7">
      <!-- Jan 07 -->
      <g transform="translate(986.957572 194.454375) scale(0.15 -0.15)">
       <defs>
        <path id="TimesNewRomanPSMT-37" d="M 644 4238 
L 2916 4238 
L 2916 4119 
L 1503 -88 
L 1153 -88 
L 2419 3728 
L 1253 3728 
Q 900 3728 750 3644 
Q 488 3500 328 3200 
L 238 3234 
L 644 4238 
z
" transform="scale(0.015625)"/>
       </defs>
       <use xlink:href="#TimesNewRomanPSMT-4a"/>
       <use xlink:href="#TimesNewRomanPSMT-61" x="38.916016"/>
       <use xlink:href="#TimesNewRomanPSMT-6e" x="83.300781"/>
       <use xlink:href="#TimesNewRomanPSMT-20" x="133.300781"/>
       <use xlink:href="#TimesNewRomanPSMT-30" x="158.300781"/>
       <use xlink:href="#TimesNewRomanPSMT-37" x="208.300781"/>
      </g>
     </g>
    </g>
   </g>
   <g id="matplotlib.axis_2">
    <g id="ytick_1">
     <g id="line2d_15">
      <path d="M 50.574219 160.583969 
L 1125.874219 160.583969 
" clip-path="url(#pf62f808c48)" style="fill: none; stroke: #b0b0b0; stroke-opacity: 0.5; stroke-width: 0.8; stroke-linecap: square"/>
     </g>
     <g id="line2d_16">
      <defs>
       <path id="m4f99fb377b" d="M 0 0 
L -3.5 0 
" style="stroke: #000000; stroke-width: 0.8"/>
      </defs>
      <g>
       <use xlink:href="#m4f99fb377b" x="50.574219" y="160.583969" style="stroke: #000000; stroke-width: 0.8"/>
      </g>
     </g>
     <g id="text_8">
      <!-- 25 -->
      <g transform="translate(28.574219 165.791781) scale(0.15 -0.15)">
       <use xlink:href="#TimesNewRomanPSMT-32"/>
       <use xlink:href="#TimesNewRomanPSMT-35" x="50"/>
      </g>
     </g>
    </g>
    <g id="ytick_2">
     <g id="line2d_17">
      <path d="M 50.574219 124.541122 
L 1125.874219 124.541122 
" clip-path="url(#pf62f808c48)" style="fill: none; stroke: #b0b0b0; stroke-opacity: 0.5; stroke-width: 0.8; stroke-linecap: square"/>
     </g>
     <g id="line2d_18">
      <g>
       <use xlink:href="#m4f99fb377b" x="50.574219" y="124.541122" style="stroke: #000000; stroke-width: 0.8"/>
      </g>
     </g>
     <g id="text_9">
      <!-- 30 -->
      <g transform="translate(28.574219 129.748935) scale(0.15 -0.15)">
       <use xlink:href="#TimesNewRomanPSMT-33"/>
       <use xlink:href="#TimesNewRomanPSMT-30" x="50"/>
      </g>
     </g>
    </g>
    <g id="ytick_3">
     <g id="line2d_19">
      <path d="M 50.574219 88.498276 
L 1125.874219 88.498276 
" clip-path="url(#pf62f808c48)" style="fill: none; stroke: #b0b0b0; stroke-opacity: 0.5; stroke-width: 0.8; stroke-linecap: square"/>
     </g>
     <g id="line2d_20">
      <g>
       <use xlink:href="#m4f99fb377b" x="50.574219" y="88.498276" style="stroke: #000000; stroke-width: 0.8"/>
      </g>
     </g>
     <g id="text_10">
      <!-- 35 -->
      <g transform="translate(28.574219 93.706088) scale(0.15 -0.15)">
       <use xlink:href="#TimesNewRomanPSMT-33"/>
       <use xlink:href="#TimesNewRomanPSMT-35" x="50"/>
      </g>
     </g>
    </g>
    <g id="ytick_4">
     <g id="line2d_21">
      <path d="M 50.574219 52.455429 
L 1125.874219 52.455429 
" clip-path="url(#pf62f808c48)" style="fill: none; stroke: #b0b0b0; stroke-opacity: 0.5; stroke-width: 0.8; stroke-linecap: square"/>
     </g>
     <g id="line2d_22">
      <g>
       <use xlink:href="#m4f99fb377b" x="50.574219" y="52.455429" style="stroke: #000000; stroke-width: 0.8"/>
      </g>
     </g>
     <g id="text_11">
      <!-- 40 -->
      <g transform="translate(28.574219 57.663241) scale(0.15 -0.15)">
       <use xlink:href="#TimesNewRomanPSMT-34"/>
       <use xlink:href="#TimesNewRomanPSMT-30" x="50"/>
      </g>
     </g>
    </g>
    <g id="text_12">
     <!-- Demand (MW) -->
     <g transform="translate(21.365625 149.145312) rotate(-90) scale(0.15 -0.15)">
      <defs>
       <path id="TimesNewRomanPSMT-44" d="M 109 0 
L 109 116 
L 269 116 
Q 538 116 650 288 
Q 719 391 719 750 
L 719 3488 
Q 719 3884 631 3984 
Q 509 4122 269 4122 
L 109 4122 
L 109 4238 
L 1834 4238 
Q 2784 4238 3279 4022 
Q 3775 3806 4076 3303 
Q 4378 2800 4378 2141 
Q 4378 1256 3841 663 
Q 3238 0 2003 0 
L 109 0 
z
M 1319 306 
Q 1716 219 1984 219 
Q 2709 219 3187 728 
Q 3666 1238 3666 2109 
Q 3666 2988 3187 3494 
Q 2709 4000 1959 4000 
Q 1678 4000 1319 3909 
L 1319 306 
z
" transform="scale(0.015625)"/>
       <path id="TimesNewRomanPSMT-65" d="M 681 1784 
Q 678 1147 991 784 
Q 1303 422 1725 422 
Q 2006 422 2214 576 
Q 2422 731 2563 1106 
L 2659 1044 
Q 2594 616 2278 264 
Q 1963 -88 1488 -88 
Q 972 -88 605 314 
Q 238 716 238 1394 
Q 238 2128 614 2539 
Q 991 2950 1559 2950 
Q 2041 2950 2350 2633 
Q 2659 2316 2659 1784 
L 681 1784 
z
M 681 1966 
L 2006 1966 
Q 1991 2241 1941 2353 
Q 1863 2528 1708 2628 
Q 1553 2728 1384 2728 
Q 1125 2728 920 2526 
Q 716 2325 681 1966 
z
" transform="scale(0.015625)"/>
       <path id="TimesNewRomanPSMT-6d" d="M 1050 2338 
Q 1363 2650 1419 2697 
Q 1559 2816 1721 2881 
Q 1884 2947 2044 2947 
Q 2313 2947 2506 2790 
Q 2700 2634 2766 2338 
Q 3088 2713 3309 2830 
Q 3531 2947 3766 2947 
Q 3994 2947 4170 2830 
Q 4347 2713 4450 2447 
Q 4519 2266 4519 1878 
L 4519 647 
Q 4519 378 4559 278 
Q 4591 209 4675 161 
Q 4759 113 4950 113 
L 4950 0 
L 3538 0 
L 3538 113 
L 3597 113 
Q 3781 113 3884 184 
Q 3956 234 3988 344 
Q 4000 397 4000 647 
L 4000 1878 
Q 4000 2228 3916 2372 
Q 3794 2572 3525 2572 
Q 3359 2572 3192 2489 
Q 3025 2406 2788 2181 
L 2781 2147 
L 2788 2013 
L 2788 647 
Q 2788 353 2820 281 
Q 2853 209 2943 161 
Q 3034 113 3253 113 
L 3253 0 
L 1806 0 
L 1806 113 
Q 2044 113 2133 169 
Q 2222 225 2256 338 
Q 2272 391 2272 647 
L 2272 1878 
Q 2272 2228 2169 2381 
Q 2031 2581 1784 2581 
Q 1616 2581 1450 2491 
Q 1191 2353 1050 2181 
L 1050 647 
Q 1050 366 1089 281 
Q 1128 197 1204 155 
Q 1281 113 1516 113 
L 1516 0 
L 100 0 
L 100 113 
Q 297 113 375 155 
Q 453 197 493 289 
Q 534 381 534 647 
L 534 1741 
Q 534 2213 506 2350 
Q 484 2453 437 2492 
Q 391 2531 309 2531 
Q 222 2531 100 2484 
L 53 2597 
L 916 2947 
L 1050 2947 
L 1050 2338 
z
" transform="scale(0.015625)"/>
       <path id="TimesNewRomanPSMT-64" d="M 2222 322 
Q 2013 103 1813 7 
Q 1613 -88 1381 -88 
Q 913 -88 563 304 
Q 213 697 213 1313 
Q 213 1928 600 2439 
Q 988 2950 1597 2950 
Q 1975 2950 2222 2709 
L 2222 3238 
Q 2222 3728 2198 3840 
Q 2175 3953 2125 3993 
Q 2075 4034 2000 4034 
Q 1919 4034 1784 3984 
L 1744 4094 
L 2597 4444 
L 2738 4444 
L 2738 1134 
Q 2738 631 2761 520 
Q 2784 409 2836 365 
Q 2888 322 2956 322 
Q 3041 322 3181 375 
L 3216 266 
L 2366 -88 
L 2222 -88 
L 2222 322 
z
M 2222 541 
L 2222 2016 
Q 2203 2228 2109 2403 
Q 2016 2578 1861 2667 
Q 1706 2756 1559 2756 
Q 1284 2756 1069 2509 
Q 784 2184 784 1559 
Q 784 928 1059 592 
Q 1334 256 1672 256 
Q 1956 256 2222 541 
z
" transform="scale(0.015625)"/>
       <path id="TimesNewRomanPSMT-28" d="M 1988 -1253 
L 1988 -1369 
Q 1516 -1131 1200 -813 
Q 750 -359 506 256 
Q 263 872 263 1534 
Q 263 2503 741 3301 
Q 1219 4100 1988 4444 
L 1988 4313 
Q 1603 4100 1356 3731 
Q 1109 3363 987 2797 
Q 866 2231 866 1616 
Q 866 947 969 400 
Q 1050 -31 1165 -292 
Q 1281 -553 1476 -793 
Q 1672 -1034 1988 -1253 
z
" transform="scale(0.015625)"/>
       <path id="TimesNewRomanPSMT-4d" d="M 2619 0 
L 981 3566 
L 981 734 
Q 981 344 1066 247 
Q 1181 116 1431 116 
L 1581 116 
L 1581 0 
L 106 0 
L 106 116 
L 256 116 
Q 525 116 638 278 
Q 706 378 706 734 
L 706 3503 
Q 706 3784 644 3909 
Q 600 4000 483 4061 
Q 366 4122 106 4122 
L 106 4238 
L 1306 4238 
L 2844 922 
L 4356 4238 
L 5556 4238 
L 5556 4122 
L 5409 4122 
Q 5138 4122 5025 3959 
Q 4956 3859 4956 3503 
L 4956 734 
Q 4956 344 5044 247 
Q 5159 116 5409 116 
L 5556 116 
L 5556 0 
L 3756 0 
L 3756 116 
L 3906 116 
Q 4178 116 4288 278 
Q 4356 378 4356 734 
L 4356 3566 
L 2722 0 
L 2619 0 
z
" transform="scale(0.015625)"/>
       <path id="TimesNewRomanPSMT-57" d="M 5991 4238 
L 5991 4122 
Q 5825 4122 5722 4062 
Q 5619 4003 5525 3841 
Q 5463 3731 5328 3319 
L 4147 -97 
L 4022 -97 
L 3056 2613 
L 2097 -97 
L 1984 -97 
L 725 3422 
Q 584 3816 547 3888 
Q 484 4006 376 4064 
Q 269 4122 84 4122 
L 84 4238 
L 1653 4238 
L 1653 4122 
L 1578 4122 
Q 1413 4122 1325 4047 
Q 1238 3972 1238 3866 
Q 1238 3756 1375 3363 
L 2209 984 
L 2913 3006 
L 2788 3363 
L 2688 3647 
Q 2622 3803 2541 3922 
Q 2500 3981 2441 4022 
Q 2363 4078 2284 4103 
Q 2225 4122 2097 4122 
L 2097 4238 
L 3747 4238 
L 3747 4122 
L 3634 4122 
Q 3459 4122 3378 4047 
Q 3297 3972 3297 3844 
Q 3297 3684 3438 3288 
L 4250 984 
L 5056 3319 
Q 5194 3706 5194 3856 
Q 5194 3928 5148 3990 
Q 5103 4053 5034 4078 
Q 4916 4122 4725 4122 
L 4725 4238 
L 5991 4238 
z
" transform="scale(0.015625)"/>
       <path id="TimesNewRomanPSMT-29" d="M 144 4313 
L 144 4444 
Q 619 4209 934 3891 
Q 1381 3434 1625 2820 
Q 1869 2206 1869 1541 
Q 1869 572 1392 -226 
Q 916 -1025 144 -1369 
L 144 -1253 
Q 528 -1038 776 -670 
Q 1025 -303 1145 264 
Q 1266 831 1266 1447 
Q 1266 2113 1163 2663 
Q 1084 3094 967 3353 
Q 850 3613 656 3853 
Q 463 4094 144 4313 
z
" transform="scale(0.015625)"/>
      </defs>
      <use xlink:href="#TimesNewRomanPSMT-44"/>
      <use xlink:href="#TimesNewRomanPSMT-65" x="72.216797"/>
      <use xlink:href="#TimesNewRomanPSMT-6d" x="116.601562"/>
      <use xlink:href="#TimesNewRomanPSMT-61" x="194.384766"/>
      <use xlink:href="#TimesNewRomanPSMT-6e" x="238.769531"/>
      <use xlink:href="#TimesNewRomanPSMT-64" x="288.769531"/>
      <use xlink:href="#TimesNewRomanPSMT-20" x="338.769531"/>
      <use xlink:href="#TimesNewRomanPSMT-28" x="363.769531"/>
      <use xlink:href="#TimesNewRomanPSMT-4d" x="397.070312"/>
      <use xlink:href="#TimesNewRomanPSMT-57" x="485.986328"/>
      <use xlink:href="#TimesNewRomanPSMT-29" x="580.371094"/>
     </g>
    </g>
   </g>
   <g id="line2d_23">
    <path d="M 99.451491 173.500568 
L 105.34032 166.032076 
L 111.229148 160.928257 
L 117.117976 141.421231 
L 123.006804 113.283276 
L 128.895632 107.562184 
L 134.78446 112.580268 
L 140.673288 107.338553 
L 146.562116 116.712 
L 152.450944 122.703337 
L 158.339772 120.383429 
L 164.2286 124.059139 
L 170.117428 122.676089 
L 176.006256 116.156132 
L 181.895084 105.23449 
L 187.783912 91.990993 
L 193.67274 103.129357 
L 199.561568 104.792385 
L 205.450396 101.452997 
L 211.339224 107.010307 
L 217.228052 122.13696 
L 223.11688 151.863496 
L 229.005708 139.364756 
L 234.894536 130.312743 
L 240.783364 142.835714 
L 246.672192 157.86038 
L 252.561021 156.52881 
L 258.449849 133.134606 
L 264.338677 83.63469 
L 270.227505 64.08212 
L 276.116333 65.331848 
L 282.005161 66.821459 
L 287.893989 81.940618 
L 293.782817 97.518524 
L 299.671645 111.287137 
L 305.560473 109.689797 
L 317.338129 107.097113 
L 323.226957 99.21931 
L 329.115785 84.774841 
L 335.004613 86.148451 
L 340.893441 92.414803 
L 346.782269 96.960127 
L 352.671097 95.097991 
L 358.559925 104.493237 
L 364.448753 140.305506 
L 376.226409 145.976286 
L 382.115237 146.241666 
L 388.004065 145.270358 
L 393.892893 134.478632 
L 399.781721 114.196681 
L 405.67055 74.271169 
L 411.559378 56.226408 
L 417.448206 52.945215 
L 423.337034 32.736932 
L 429.225862 43.579651 
L 435.11469 110.776327 
L 441.003518 138.993399 
L 446.892346 137.545342 
L 452.781174 136.969719 
L 458.670002 140.229211 
L 464.55883 115.63092 
L 470.447658 84.91118 
L 476.336486 80.070698 
L 482.225314 90.185593 
L 488.114142 101.798176 
L 494.00297 110.583544 
L 499.891798 123.967371 
L 505.780626 158.21821 
L 511.669454 161.738119 
L 517.558282 157.509557 
L 523.44711 149.79038 
L 529.335938 145.862524 
L 535.224766 135.334135 
L 541.113594 112.707459 
L 547.002422 71.683448 
L 552.891251 58.020326 
L 558.780079 57.945101 
L 564.668907 64.666792 
L 576.446563 104.96911 
L 582.335391 120.506046 
L 588.224219 119.122898 
L 594.113047 111.118586 
L 600.001875 101.84518 
L 605.890703 99.892151 
L 611.779531 86.064955 
L 617.668359 82.645671 
L 623.557187 90.02181 
L 629.446015 94.235288 
L 635.334843 98.706943 
L 641.223671 108.306649 
L 647.112499 139.970838 
L 653.001327 141.106415 
L 658.890155 140.055308 
L 664.778983 133.589751 
L 670.667811 132.826991 
L 676.556639 127.898438 
L 682.445467 115.499835 
L 688.334295 93.115184 
L 694.223123 75.197712 
L 700.111951 70.069856 
L 706.00078 69.861796 
L 711.889608 72.401151 
L 717.778436 85.183956 
L 723.667264 103.004696 
L 729.556092 109.832267 
L 735.44492 107.197932 
L 747.222576 90.644436 
L 753.111404 83.437042 
L 759.000232 80.883284 
L 764.88906 91.930074 
L 770.777888 101.368041 
L 776.666716 97.218792 
L 782.555544 113.953003 
L 788.444372 156.376316 
L 794.3332 153.64194 
L 800.222028 151.492528 
L 806.110856 149.116177 
L 811.999684 143.799918 
L 817.888512 144.634108 
L 823.77734 136.149835 
L 829.666168 109.101134 
L 835.554996 101.952324 
L 841.443824 105.298329 
L 847.332652 102.316479 
L 853.221481 105.7272 
L 859.110309 97.700894 
L 864.999137 103.196408 
L 870.887965 110.186788 
L 876.776793 111.5241 
L 882.665621 113.91612 
L 888.554449 112.734902 
L 894.443277 109.620898 
L 900.332105 108.005068 
L 906.220933 102.283684 
L 912.109761 100.059242 
L 917.998589 112.481687 
L 923.887417 131.704941 
L 929.776245 161.984327 
L 935.665073 164.926667 
L 941.553901 168.486767 
L 947.442729 156.755263 
L 953.331557 150.640919 
L 959.220385 135.37092 
L 965.109213 123.913068 
L 970.998041 80.91968 
L 976.886869 59.634598 
L 982.775697 57.787838 
L 988.664525 66.823016 
L 994.553353 91.884043 
L 1000.442182 96.910107 
L 1006.33101 99.683312 
L 1012.219838 95.336609 
L 1018.108666 104.053954 
L 1023.997494 105.557384 
L 1029.886322 101.808784 
L 1035.77515 104.180659 
L 1041.663978 104.866734 
L 1047.552806 116.887557 
L 1053.441634 125.77102 
L 1059.330462 125.479462 
L 1065.21929 128.204398 
L 1071.108118 168.08748 
L 1076.996946 170.335862 
L 1076.996946 170.335862 
" clip-path="url(#pf62f808c48)" style="fill: none; stroke: #808080; stroke-width: 1.5; stroke-linecap: square"/>
   </g>
   <g id="line2d_24">
    <path d="M 99.451491 141.812166 
L 105.34032 140.108306 
L 111.229148 141.232417 
L 117.117976 141.613395 
L 128.895632 139.682906 
L 134.78446 139.363668 
L 140.673288 139.246212 
L 146.562116 139.908029 
L 152.450944 141.757955 
L 158.339772 144.806531 
L 164.2286 145.583545 
L 170.117428 145.184497 
L 176.006256 143.106436 
L 181.895084 140.493802 
L 187.783912 135.459774 
L 193.67274 132.183816 
L 199.561568 129.849009 
L 205.450396 128.852143 
L 211.339224 127.478815 
L 217.228052 122.370249 
L 223.11688 122.675934 
L 229.005708 118.253278 
L 234.894536 112.15688 
L 240.783364 112.252501 
L 246.672192 113.930761 
L 252.561021 116.608147 
L 258.449849 118.508519 
L 264.338677 118.442262 
L 270.227505 118.599622 
L 276.116333 121.090283 
L 282.005161 120.370491 
L 287.893989 123.371633 
L 293.782817 128.099222 
L 299.671645 135.291873 
L 305.560473 136.656165 
L 311.449301 138.789942 
L 317.338129 138.213958 
L 323.226957 135.655534 
L 329.115785 130.047028 
L 335.004613 124.207375 
L 340.893441 120.459336 
L 346.782269 118.918107 
L 352.671097 116.868657 
L 358.559925 117.312128 
L 370.337581 116.989125 
L 376.226409 117.518428 
L 382.115237 115.967411 
L 393.892893 114.018853 
L 399.781721 105.689292 
L 405.67055 103.02847 
L 411.559378 97.687251 
L 417.448206 90.782215 
L 423.337034 85.098417 
L 429.225862 96.549588 
L 435.11469 123.768422 
L 441.003518 143.512261 
L 446.892346 151.768788 
L 452.781174 155.967074 
L 458.670002 156.195209 
L 464.55883 152.650459 
L 470.447658 146.903415 
L 476.336486 139.597826 
L 482.225314 134.618009 
L 488.114142 131.899965 
L 494.00297 130.442311 
L 499.891798 129.964206 
L 505.780626 129.669814 
L 511.669454 127.810853 
L 517.558282 126.247037 
L 523.44711 124.18554 
L 529.335938 121.314654 
L 535.224766 118.795381 
L 547.002422 114.999155 
L 552.891251 111.650917 
L 558.780079 111.638118 
L 564.668907 111.102038 
L 570.557735 118.23295 
L 576.446563 126.915631 
L 582.335391 134.337169 
L 588.224219 139.594814 
L 594.113047 140.756571 
L 600.001875 139.396043 
L 605.890703 137.636468 
L 611.779531 131.290852 
L 623.557187 122.800919 
L 629.446015 119.228311 
L 635.334843 116.892751 
L 641.223671 114.29141 
L 647.112499 112.19302 
L 653.001327 108.996872 
L 658.890155 106.217089 
L 670.667811 103.155714 
L 676.556639 99.150929 
L 682.445467 99.562023 
L 688.334295 98.318951 
L 694.223123 95.138614 
L 700.111951 96.481072 
L 706.00078 96.42912 
L 711.889608 98.8987 
L 717.778436 104.032866 
L 729.556092 117.35655 
L 735.44492 115.925248 
L 741.333748 113.021233 
L 747.222576 110.758706 
L 753.111404 109.386132 
L 759.000232 109.598456 
L 764.88906 110.721813 
L 770.777888 112.342098 
L 776.666716 113.032527 
L 782.555544 109.532199 
L 788.444372 109.02473 
L 794.3332 108.761208 
L 800.222028 109.203172 
L 806.110856 109.237054 
L 811.999684 108.540602 
L 817.888512 108.728079 
L 829.666168 110.50949 
L 835.554996 113.448892 
L 841.443824 114.992379 
L 847.332652 117.2534 
L 853.221481 120.286164 
L 859.110309 120.955511 
L 870.887965 125.866812 
L 876.776793 127.301126 
L 882.665621 128.0292 
L 888.554449 129.758659 
L 894.443277 131.318711 
L 900.332105 132.676227 
L 906.220933 135.214322 
L 912.109761 136.852677 
L 917.998589 139.567709 
L 923.887417 141.507986 
L 929.776245 143.580023 
L 935.665073 143.842793 
L 941.553901 142.30834 
L 947.442729 140.329665 
L 953.331557 134.642102 
L 959.220385 131.553622 
L 965.109213 129.391987 
L 970.998041 129.437915 
L 976.886869 131.898459 
L 982.775697 127.456228 
L 988.664525 127.748361 
L 994.553353 130.226976 
L 1006.33101 139.898994 
L 1012.219838 143.244221 
L 1018.108666 144.000906 
L 1023.997494 145.768011 
L 1029.886322 149.427958 
L 1035.77515 148.733012 
L 1041.663978 145.563969 
L 1047.552806 146.967413 
L 1053.441634 151.623475 
L 1059.330462 151.669403 
L 1065.21929 148.270719 
L 1071.108118 147.414648 
L 1076.996946 155.027429 
L 1076.996946 155.027429 
" clip-path="url(#pf62f808c48)" style="fill: none; stroke: #0000ff; stroke-width: 1.5; stroke-linecap: square"/>
   </g>
   <g id="patch_3">
    <path d="M 50.574219 180.53875 
L 50.574219 25.69875 
" style="fill: none; stroke: #000000; stroke-width: 0.8; stroke-linejoin: miter; stroke-linecap: square"/>
   </g>
   <g id="patch_4">
    <path d="M 1125.874219 180.53875 
L 1125.874219 25.69875 
" style="fill: none; stroke: #000000; stroke-width: 0.8; stroke-linejoin: miter; stroke-linecap: square"/>
   </g>
   <g id="patch_5">
    <path d="M 50.574219 180.53875 
L 1125.874219 180.53875 
" style="fill: none; stroke: #000000; stroke-width: 0.8; stroke-linejoin: miter; stroke-linecap: square"/>
   </g>
   <g id="patch_6">
    <path d="M 50.574219 25.69875 
L 1125.874219 25.69875 
" style="fill: none; stroke: #000000; stroke-width: 0.8; stroke-linejoin: miter; stroke-linecap: square"/>
   </g>
   <g id="text_13">
    <!-- Model 4-1: Winter Week -->
    <g transform="translate(498.900625 19.69875) scale(0.18 -0.18)">
     <defs>
      <path id="TimesNewRomanPSMT-6f" d="M 1600 2947 
Q 2250 2947 2644 2453 
Q 2978 2031 2978 1484 
Q 2978 1100 2793 706 
Q 2609 313 2286 112 
Q 1963 -88 1566 -88 
Q 919 -88 538 428 
Q 216 863 216 1403 
Q 216 1797 411 2186 
Q 606 2575 925 2761 
Q 1244 2947 1600 2947 
z
M 1503 2744 
Q 1338 2744 1170 2645 
Q 1003 2547 900 2300 
Q 797 2053 797 1666 
Q 797 1041 1045 587 
Q 1294 134 1700 134 
Q 2003 134 2200 384 
Q 2397 634 2397 1244 
Q 2397 2006 2069 2444 
Q 1847 2744 1503 2744 
z
" transform="scale(0.015625)"/>
      <path id="TimesNewRomanPSMT-6c" d="M 1184 4444 
L 1184 647 
Q 1184 378 1223 290 
Q 1263 203 1344 158 
Q 1425 113 1647 113 
L 1647 0 
L 244 0 
L 244 113 
Q 441 113 512 153 
Q 584 194 625 287 
Q 666 381 666 647 
L 666 3247 
Q 666 3731 644 3842 
Q 622 3953 573 3993 
Q 525 4034 450 4034 
Q 369 4034 244 3984 
L 191 4094 
L 1044 4444 
L 1184 4444 
z
" transform="scale(0.015625)"/>
      <path id="TimesNewRomanPSMT-2d" d="M 259 1672 
L 1875 1672 
L 1875 1200 
L 259 1200 
L 259 1672 
z
" transform="scale(0.015625)"/>
      <path id="TimesNewRomanPSMT-3a" d="M 903 2950 
Q 1047 2950 1148 2848 
Q 1250 2747 1250 2603 
Q 1250 2459 1148 2357 
Q 1047 2256 903 2256 
Q 759 2256 657 2357 
Q 556 2459 556 2603 
Q 556 2747 657 2848 
Q 759 2950 903 2950 
z
M 897 609 
Q 1044 609 1145 506 
Q 1247 403 1247 259 
Q 1247 116 1144 14 
Q 1041 -88 897 -88 
Q 753 -88 651 14 
Q 550 116 550 259 
Q 550 403 651 506 
Q 753 609 897 609 
z
" transform="scale(0.015625)"/>
      <path id="TimesNewRomanPSMT-69" d="M 928 4444 
Q 1059 4444 1151 4351 
Q 1244 4259 1244 4128 
Q 1244 3997 1151 3903 
Q 1059 3809 928 3809 
Q 797 3809 703 3903 
Q 609 3997 609 4128 
Q 609 4259 701 4351 
Q 794 4444 928 4444 
z
M 1188 2947 
L 1188 647 
Q 1188 378 1227 289 
Q 1266 200 1342 156 
Q 1419 113 1622 113 
L 1622 0 
L 231 0 
L 231 113 
Q 441 113 512 153 
Q 584 194 626 287 
Q 669 381 669 647 
L 669 1750 
Q 669 2216 641 2353 
Q 619 2453 572 2492 
Q 525 2531 444 2531 
Q 356 2531 231 2484 
L 188 2597 
L 1050 2947 
L 1188 2947 
z
" transform="scale(0.015625)"/>
      <path id="TimesNewRomanPSMT-74" d="M 1031 3803 
L 1031 2863 
L 1700 2863 
L 1700 2644 
L 1031 2644 
L 1031 788 
Q 1031 509 1111 412 
Q 1191 316 1316 316 
Q 1419 316 1516 380 
Q 1613 444 1666 569 
L 1788 569 
Q 1678 263 1478 108 
Q 1278 -47 1066 -47 
Q 922 -47 784 33 
Q 647 113 581 261 
Q 516 409 516 719 
L 516 2644 
L 63 2644 
L 63 2747 
Q 234 2816 414 2980 
Q 594 3144 734 3369 
Q 806 3488 934 3803 
L 1031 3803 
z
" transform="scale(0.015625)"/>
      <path id="TimesNewRomanPSMT-72" d="M 1038 2947 
L 1038 2303 
Q 1397 2947 1775 2947 
Q 1947 2947 2059 2842 
Q 2172 2738 2172 2600 
Q 2172 2478 2090 2393 
Q 2009 2309 1897 2309 
Q 1788 2309 1652 2417 
Q 1516 2525 1450 2525 
Q 1394 2525 1328 2463 
Q 1188 2334 1038 2041 
L 1038 669 
Q 1038 431 1097 309 
Q 1138 225 1241 169 
Q 1344 113 1538 113 
L 1538 0 
L 72 0 
L 72 113 
Q 291 113 397 181 
Q 475 231 506 341 
Q 522 394 522 644 
L 522 1753 
Q 522 2253 501 2348 
Q 481 2444 426 2487 
Q 372 2531 291 2531 
Q 194 2531 72 2484 
L 41 2597 
L 906 2947 
L 1038 2947 
z
" transform="scale(0.015625)"/>
      <path id="TimesNewRomanPSMT-6b" d="M 1047 4444 
L 1047 1597 
L 1775 2259 
Q 2006 2472 2044 2528 
Q 2069 2566 2069 2603 
Q 2069 2666 2017 2711 
Q 1966 2756 1847 2763 
L 1847 2863 
L 3091 2863 
L 3091 2763 
Q 2834 2756 2664 2684 
Q 2494 2613 2291 2428 
L 1556 1750 
L 2291 822 
Q 2597 438 2703 334 
Q 2853 188 2966 144 
Q 3044 113 3238 113 
L 3238 0 
L 1847 0 
L 1847 113 
Q 1966 116 2008 148 
Q 2050 181 2050 241 
Q 2050 313 1925 472 
L 1047 1594 
L 1047 644 
Q 1047 366 1086 278 
Q 1125 191 1197 153 
Q 1269 116 1509 113 
L 1509 0 
L 53 0 
L 53 113 
Q 272 113 381 166 
Q 447 200 481 272 
Q 528 375 528 628 
L 528 3234 
Q 528 3731 506 3842 
Q 484 3953 434 3995 
Q 384 4038 303 4038 
Q 238 4038 106 3984 
L 53 4094 
L 903 4444 
L 1047 4444 
z
" transform="scale(0.015625)"/>
     </defs>
     <use xlink:href="#TimesNewRomanPSMT-4d"/>
     <use xlink:href="#TimesNewRomanPSMT-6f" x="88.916016"/>
     <use xlink:href="#TimesNewRomanPSMT-64" x="138.916016"/>
     <use xlink:href="#TimesNewRomanPSMT-65" x="188.916016"/>
     <use xlink:href="#TimesNewRomanPSMT-6c" x="233.300781"/>
     <use xlink:href="#TimesNewRomanPSMT-20" x="261.083984"/>
     <use xlink:href="#TimesNewRomanPSMT-34" x="286.083984"/>
     <use xlink:href="#TimesNewRomanPSMT-2d" x="336.083984"/>
     <use xlink:href="#TimesNewRomanPSMT-31" x="369.384766"/>
     <use xlink:href="#TimesNewRomanPSMT-3a" x="419.384766"/>
     <use xlink:href="#TimesNewRomanPSMT-20" x="447.167969"/>
     <use xlink:href="#TimesNewRomanPSMT-57" x="470.417969"/>
     <use xlink:href="#TimesNewRomanPSMT-69" x="560.802734"/>
     <use xlink:href="#TimesNewRomanPSMT-6e" x="588.585938"/>
     <use xlink:href="#TimesNewRomanPSMT-74" x="638.585938"/>
     <use xlink:href="#TimesNewRomanPSMT-65" x="666.369141"/>
     <use xlink:href="#TimesNewRomanPSMT-72" x="710.753906"/>
     <use xlink:href="#TimesNewRomanPSMT-20" x="744.054688"/>
     <use xlink:href="#TimesNewRomanPSMT-57" x="767.304688"/>
     <use xlink:href="#TimesNewRomanPSMT-65" x="853.689453"/>
     <use xlink:href="#TimesNewRomanPSMT-65" x="898.074219"/>
     <use xlink:href="#TimesNewRomanPSMT-6b" x="942.458984"/>
    </g>
   </g>
   <g id="legend_1">
    <g id="patch_7">
     <path d="M 1010.728125 80.115937 
L 1115.374219 80.115937 
Q 1118.374219 80.115937 1118.374219 77.115937 
L 1118.374219 36.19875 
Q 1118.374219 33.19875 1115.374219 33.19875 
L 1010.728125 33.19875 
Q 1007.728125 33.19875 1007.728125 36.19875 
L 1007.728125 77.115937 
Q 1007.728125 80.115937 1010.728125 80.115937 
z
" style="fill: #ffffff; opacity: 0.8; stroke: #cccccc; stroke-linejoin: miter"/>
    </g>
    <g id="line2d_25">
     <path d="M 1013.728125 44.44875 
L 1028.728125 44.44875 
L 1043.728125 44.44875 
" style="fill: none; stroke: #808080; stroke-width: 1.5; stroke-linecap: square"/>
    </g>
    <g id="text_14">
     <!-- Actual -->
     <g transform="translate(1055.728125 49.69875) scale(0.15 -0.15)">
      <defs>
       <path id="TimesNewRomanPSMT-41" d="M 2928 1419 
L 1288 1419 
L 1000 750 
Q 894 503 894 381 
Q 894 284 986 211 
Q 1078 138 1384 116 
L 1384 0 
L 50 0 
L 50 116 
Q 316 163 394 238 
Q 553 388 747 847 
L 2238 4334 
L 2347 4334 
L 3822 809 
Q 4000 384 4145 257 
Q 4291 131 4550 116 
L 4550 0 
L 2878 0 
L 2878 116 
Q 3131 128 3220 200 
Q 3309 272 3309 375 
Q 3309 513 3184 809 
L 2928 1419 
z
M 2841 1650 
L 2122 3363 
L 1384 1650 
L 2841 1650 
z
" transform="scale(0.015625)"/>
       <path id="TimesNewRomanPSMT-63" d="M 2631 1088 
Q 2516 522 2178 217 
Q 1841 -88 1431 -88 
Q 944 -88 581 321 
Q 219 731 219 1428 
Q 219 2103 620 2525 
Q 1022 2947 1584 2947 
Q 2006 2947 2278 2723 
Q 2550 2500 2550 2259 
Q 2550 2141 2473 2067 
Q 2397 1994 2259 1994 
Q 2075 1994 1981 2113 
Q 1928 2178 1911 2362 
Q 1894 2547 1784 2644 
Q 1675 2738 1481 2738 
Q 1169 2738 978 2506 
Q 725 2200 725 1697 
Q 725 1184 976 792 
Q 1228 400 1656 400 
Q 1963 400 2206 609 
Q 2378 753 2541 1131 
L 2631 1088 
z
" transform="scale(0.015625)"/>
       <path id="TimesNewRomanPSMT-75" d="M 2709 2863 
L 2709 1128 
Q 2709 631 2732 520 
Q 2756 409 2807 365 
Q 2859 322 2928 322 
Q 3025 322 3147 375 
L 3191 266 
L 2334 -88 
L 2194 -88 
L 2194 519 
Q 1825 119 1631 15 
Q 1438 -88 1222 -88 
Q 981 -88 804 51 
Q 628 191 559 409 
Q 491 628 491 1028 
L 491 2306 
Q 491 2509 447 2587 
Q 403 2666 317 2708 
Q 231 2750 6 2747 
L 6 2863 
L 1009 2863 
L 1009 947 
Q 1009 547 1148 422 
Q 1288 297 1484 297 
Q 1619 297 1789 381 
Q 1959 466 2194 703 
L 2194 2325 
Q 2194 2569 2105 2655 
Q 2016 2741 1734 2747 
L 1734 2863 
L 2709 2863 
z
" transform="scale(0.015625)"/>
      </defs>
      <use xlink:href="#TimesNewRomanPSMT-41"/>
      <use xlink:href="#TimesNewRomanPSMT-63" x="72.216797"/>
      <use xlink:href="#TimesNewRomanPSMT-74" x="116.601562"/>
      <use xlink:href="#TimesNewRomanPSMT-75" x="144.384766"/>
      <use xlink:href="#TimesNewRomanPSMT-61" x="194.384766"/>
      <use xlink:href="#TimesNewRomanPSMT-6c" x="238.769531"/>
     </g>
    </g>
    <g id="line2d_26">
     <path d="M 1013.728125 65.657344 
L 1028.728125 65.657344 
L 1043.728125 65.657344 
" style="fill: none; stroke: #0000ff; stroke-width: 1.5; stroke-linecap: square"/>
    </g>
    <g id="text_15">
     <!-- Predicted -->
     <g transform="translate(1055.728125 70.907344) scale(0.15 -0.15)">
      <defs>
       <path id="TimesNewRomanPSMT-50" d="M 1313 1984 
L 1313 750 
Q 1313 350 1400 253 
Q 1519 116 1759 116 
L 1922 116 
L 1922 0 
L 106 0 
L 106 116 
L 266 116 
Q 534 116 650 291 
Q 713 388 713 750 
L 713 3488 
Q 713 3888 628 3984 
Q 506 4122 266 4122 
L 106 4122 
L 106 4238 
L 1659 4238 
Q 2228 4238 2556 4120 
Q 2884 4003 3109 3725 
Q 3334 3447 3334 3066 
Q 3334 2547 2992 2222 
Q 2650 1897 2025 1897 
Q 1872 1897 1694 1919 
Q 1516 1941 1313 1984 
z
M 1313 2163 
Q 1478 2131 1606 2115 
Q 1734 2100 1825 2100 
Q 2150 2100 2386 2351 
Q 2622 2603 2622 3003 
Q 2622 3278 2509 3514 
Q 2397 3750 2190 3867 
Q 1984 3984 1722 3984 
Q 1563 3984 1313 3925 
L 1313 2163 
z
" transform="scale(0.015625)"/>
      </defs>
      <use xlink:href="#TimesNewRomanPSMT-50"/>
      <use xlink:href="#TimesNewRomanPSMT-72" x="55.615234"/>
      <use xlink:href="#TimesNewRomanPSMT-65" x="88.916016"/>
      <use xlink:href="#TimesNewRomanPSMT-64" x="133.300781"/>
      <use xlink:href="#TimesNewRomanPSMT-69" x="183.300781"/>
      <use xlink:href="#TimesNewRomanPSMT-63" x="211.083984"/>
      <use xlink:href="#TimesNewRomanPSMT-74" x="255.46875"/>
      <use xlink:href="#TimesNewRomanPSMT-65" x="283.251953"/>
      <use xlink:href="#TimesNewRomanPSMT-64" x="327.636719"/>
     </g>
    </g>
   </g>
  </g>
  <g id="axes_2">
   <g id="patch_8">
    <path d="M 50.574219 388.43875 
L 1125.874219 388.43875 
L 1125.874219 233.59875 
L 50.574219 233.59875 
z
" style="fill: #ffffff"/>
   </g>
   <g id="matplotlib.axis_3">
    <g id="xtick_8">
     <g id="line2d_27">
      <path d="M 158.339772 388.43875 
L 158.339772 233.59875 
" clip-path="url(#p3d04e6dfa3)" style="fill: none; stroke: #b0b0b0; stroke-opacity: 0.5; stroke-width: 0.8; stroke-linecap: square"/>
     </g>
     <g id="line2d_28"/>
     <g id="text_16">
      <!-- Aug 01 -->
      <g transform="translate(136.048366 402.32625) scale(0.15 -0.15)">
       <defs>
        <path id="TimesNewRomanPSMT-67" d="M 966 1044 
Q 703 1172 562 1401 
Q 422 1631 422 1909 
Q 422 2334 742 2640 
Q 1063 2947 1563 2947 
Q 1972 2947 2272 2747 
L 2878 2747 
Q 3013 2747 3034 2739 
Q 3056 2731 3066 2713 
Q 3084 2684 3084 2613 
Q 3084 2531 3069 2500 
Q 3059 2484 3036 2475 
Q 3013 2466 2878 2466 
L 2506 2466 
Q 2681 2241 2681 1891 
Q 2681 1491 2375 1206 
Q 2069 922 1553 922 
Q 1341 922 1119 984 
Q 981 866 932 777 
Q 884 688 884 625 
Q 884 572 936 522 
Q 988 472 1138 450 
Q 1225 438 1575 428 
Q 2219 413 2409 384 
Q 2700 344 2873 169 
Q 3047 -6 3047 -263 
Q 3047 -616 2716 -925 
Q 2228 -1381 1444 -1381 
Q 841 -1381 425 -1109 
Q 191 -953 191 -784 
Q 191 -709 225 -634 
Q 278 -519 444 -313 
Q 466 -284 763 25 
Q 600 122 533 198 
Q 466 275 466 372 
Q 466 481 555 628 
Q 644 775 966 1044 
z
M 1509 2797 
Q 1278 2797 1122 2612 
Q 966 2428 966 2047 
Q 966 1553 1178 1281 
Q 1341 1075 1591 1075 
Q 1828 1075 1981 1253 
Q 2134 1431 2134 1813 
Q 2134 2309 1919 2591 
Q 1759 2797 1509 2797 
z
M 934 0 
Q 788 -159 713 -296 
Q 638 -434 638 -550 
Q 638 -700 819 -813 
Q 1131 -1006 1722 -1006 
Q 2284 -1006 2551 -807 
Q 2819 -609 2819 -384 
Q 2819 -222 2659 -153 
Q 2497 -84 2016 -72 
Q 1313 -53 934 0 
z
" transform="scale(0.015625)"/>
       </defs>
       <use xlink:href="#TimesNewRomanPSMT-41"/>
       <use xlink:href="#TimesNewRomanPSMT-75" x="72.216797"/>
       <use xlink:href="#TimesNewRomanPSMT-67" x="122.216797"/>
       <use xlink:href="#TimesNewRomanPSMT-20" x="172.216797"/>
       <use xlink:href="#TimesNewRomanPSMT-30" x="197.216797"/>
       <use xlink:href="#TimesNewRomanPSMT-31" x="247.216797"/>
      </g>
     </g>
    </g>
    <g id="xtick_9">
     <g id="line2d_29">
      <path d="M 299.671645 388.43875 
L 299.671645 233.59875 
" clip-path="url(#p3d04e6dfa3)" style="fill: none; stroke: #b0b0b0; stroke-opacity: 0.5; stroke-width: 0.8; stroke-linecap: square"/>
     </g>
     <g id="line2d_30"/>
     <g id="text_17">
      <!-- Aug 02 -->
      <g transform="translate(277.380239 402.32625) scale(0.15 -0.15)">
       <use xlink:href="#TimesNewRomanPSMT-41"/>
       <use xlink:href="#TimesNewRomanPSMT-75" x="72.216797"/>
       <use xlink:href="#TimesNewRomanPSMT-67" x="122.216797"/>
       <use xlink:href="#TimesNewRomanPSMT-20" x="172.216797"/>
       <use xlink:href="#TimesNewRomanPSMT-30" x="197.216797"/>
       <use xlink:href="#TimesNewRomanPSMT-32" x="247.216797"/>
      </g>
     </g>
    </g>
    <g id="xtick_10">
     <g id="line2d_31">
      <path d="M 441.003518 388.43875 
L 441.003518 233.59875 
" clip-path="url(#p3d04e6dfa3)" style="fill: none; stroke: #b0b0b0; stroke-opacity: 0.5; stroke-width: 0.8; stroke-linecap: square"/>
     </g>
     <g id="line2d_32"/>
     <g id="text_18">
      <!-- Aug 03 -->
      <g transform="translate(418.712112 402.32625) scale(0.15 -0.15)">
       <use xlink:href="#TimesNewRomanPSMT-41"/>
       <use xlink:href="#TimesNewRomanPSMT-75" x="72.216797"/>
       <use xlink:href="#TimesNewRomanPSMT-67" x="122.216797"/>
       <use xlink:href="#TimesNewRomanPSMT-20" x="172.216797"/>
       <use xlink:href="#TimesNewRomanPSMT-30" x="197.216797"/>
       <use xlink:href="#TimesNewRomanPSMT-33" x="247.216797"/>
      </g>
     </g>
    </g>
    <g id="xtick_11">
     <g id="line2d_33">
      <path d="M 582.335391 388.43875 
L 582.335391 233.59875 
" clip-path="url(#p3d04e6dfa3)" style="fill: none; stroke: #b0b0b0; stroke-opacity: 0.5; stroke-width: 0.8; stroke-linecap: square"/>
     </g>
     <g id="line2d_34"/>
     <g id="text_19">
      <!-- Aug 04 -->
      <g transform="translate(560.043984 402.32625) scale(0.15 -0.15)">
       <use xlink:href="#TimesNewRomanPSMT-41"/>
       <use xlink:href="#TimesNewRomanPSMT-75" x="72.216797"/>
       <use xlink:href="#TimesNewRomanPSMT-67" x="122.216797"/>
       <use xlink:href="#TimesNewRomanPSMT-20" x="172.216797"/>
       <use xlink:href="#TimesNewRomanPSMT-30" x="197.216797"/>
       <use xlink:href="#TimesNewRomanPSMT-34" x="247.216797"/>
      </g>
     </g>
    </g>
    <g id="xtick_12">
     <g id="line2d_35">
      <path d="M 723.667264 388.43875 
L 723.667264 233.59875 
" clip-path="url(#p3d04e6dfa3)" style="fill: none; stroke: #b0b0b0; stroke-opacity: 0.5; stroke-width: 0.8; stroke-linecap: square"/>
     </g>
     <g id="line2d_36"/>
     <g id="text_20">
      <!-- Aug 05 -->
      <g transform="translate(701.375857 402.32625) scale(0.15 -0.15)">
       <use xlink:href="#TimesNewRomanPSMT-41"/>
       <use xlink:href="#TimesNewRomanPSMT-75" x="72.216797"/>
       <use xlink:href="#TimesNewRomanPSMT-67" x="122.216797"/>
       <use xlink:href="#TimesNewRomanPSMT-20" x="172.216797"/>
       <use xlink:href="#TimesNewRomanPSMT-30" x="197.216797"/>
       <use xlink:href="#TimesNewRomanPSMT-35" x="247.216797"/>
      </g>
     </g>
    </g>
    <g id="xtick_13">
     <g id="line2d_37">
      <path d="M 864.999137 388.43875 
L 864.999137 233.59875 
" clip-path="url(#p3d04e6dfa3)" style="fill: none; stroke: #b0b0b0; stroke-opacity: 0.5; stroke-width: 0.8; stroke-linecap: square"/>
     </g>
     <g id="line2d_38"/>
     <g id="text_21">
      <!-- Aug 06 -->
      <g transform="translate(842.70773 402.32625) scale(0.15 -0.15)">
       <use xlink:href="#TimesNewRomanPSMT-41"/>
       <use xlink:href="#TimesNewRomanPSMT-75" x="72.216797"/>
       <use xlink:href="#TimesNewRomanPSMT-67" x="122.216797"/>
       <use xlink:href="#TimesNewRomanPSMT-20" x="172.216797"/>
       <use xlink:href="#TimesNewRomanPSMT-30" x="197.216797"/>
       <use xlink:href="#TimesNewRomanPSMT-36" x="247.216797"/>
      </g>
     </g>
    </g>
    <g id="xtick_14">
     <g id="line2d_39">
      <path d="M 1006.33101 388.43875 
L 1006.33101 233.59875 
" clip-path="url(#p3d04e6dfa3)" style="fill: none; stroke: #b0b0b0; stroke-opacity: 0.5; stroke-width: 0.8; stroke-linecap: square"/>
     </g>
     <g id="line2d_40"/>
     <g id="text_22">
      <!-- Aug 07 -->
      <g transform="translate(984.039603 402.32625) scale(0.15 -0.15)">
       <use xlink:href="#TimesNewRomanPSMT-41"/>
       <use xlink:href="#TimesNewRomanPSMT-75" x="72.216797"/>
       <use xlink:href="#TimesNewRomanPSMT-67" x="122.216797"/>
       <use xlink:href="#TimesNewRomanPSMT-20" x="172.216797"/>
       <use xlink:href="#TimesNewRomanPSMT-30" x="197.216797"/>
       <use xlink:href="#TimesNewRomanPSMT-37" x="247.216797"/>
      </g>
     </g>
    </g>
   </g>
   <g id="matplotlib.axis_4">
    <g id="ytick_5">
     <g id="line2d_41">
      <path d="M 50.574219 383.595559 
L 1125.874219 383.595559 
" clip-path="url(#p3d04e6dfa3)" style="fill: none; stroke: #b0b0b0; stroke-opacity: 0.5; stroke-width: 0.8; stroke-linecap: square"/>
     </g>
     <g id="line2d_42">
      <g>
       <use xlink:href="#m4f99fb377b" x="50.574219" y="383.595559" style="stroke: #000000; stroke-width: 0.8"/>
      </g>
     </g>
     <g id="text_23">
      <!-- 3.0 -->
      <g transform="translate(24.824219 388.803371) scale(0.15 -0.15)">
       <defs>
        <path id="TimesNewRomanPSMT-2e" d="M 800 606 
Q 947 606 1047 504 
Q 1147 403 1147 259 
Q 1147 116 1045 14 
Q 944 -88 800 -88 
Q 656 -88 554 14 
Q 453 116 453 259 
Q 453 406 554 506 
Q 656 606 800 606 
z
" transform="scale(0.015625)"/>
       </defs>
       <use xlink:href="#TimesNewRomanPSMT-33"/>
       <use xlink:href="#TimesNewRomanPSMT-2e" x="50"/>
       <use xlink:href="#TimesNewRomanPSMT-30" x="75"/>
      </g>
     </g>
    </g>
    <g id="ytick_6">
     <g id="line2d_43">
      <path d="M 50.574219 350.719195 
L 1125.874219 350.719195 
" clip-path="url(#p3d04e6dfa3)" style="fill: none; stroke: #b0b0b0; stroke-opacity: 0.5; stroke-width: 0.8; stroke-linecap: square"/>
     </g>
     <g id="line2d_44">
      <g>
       <use xlink:href="#m4f99fb377b" x="50.574219" y="350.719195" style="stroke: #000000; stroke-width: 0.8"/>
      </g>
     </g>
     <g id="text_24">
      <!-- 3.5 -->
      <g transform="translate(24.824219 355.927007) scale(0.15 -0.15)">
       <use xlink:href="#TimesNewRomanPSMT-33"/>
       <use xlink:href="#TimesNewRomanPSMT-2e" x="50"/>
       <use xlink:href="#TimesNewRomanPSMT-35" x="75"/>
      </g>
     </g>
    </g>
    <g id="ytick_7">
     <g id="line2d_45">
      <path d="M 50.574219 317.842831 
L 1125.874219 317.842831 
" clip-path="url(#p3d04e6dfa3)" style="fill: none; stroke: #b0b0b0; stroke-opacity: 0.5; stroke-width: 0.8; stroke-linecap: square"/>
     </g>
     <g id="line2d_46">
      <g>
       <use xlink:href="#m4f99fb377b" x="50.574219" y="317.842831" style="stroke: #000000; stroke-width: 0.8"/>
      </g>
     </g>
     <g id="text_25">
      <!-- 4.0 -->
      <g transform="translate(24.824219 323.050644) scale(0.15 -0.15)">
       <use xlink:href="#TimesNewRomanPSMT-34"/>
       <use xlink:href="#TimesNewRomanPSMT-2e" x="50"/>
       <use xlink:href="#TimesNewRomanPSMT-30" x="75"/>
      </g>
     </g>
    </g>
    <g id="ytick_8">
     <g id="line2d_47">
      <path d="M 50.574219 284.966467 
L 1125.874219 284.966467 
" clip-path="url(#p3d04e6dfa3)" style="fill: none; stroke: #b0b0b0; stroke-opacity: 0.5; stroke-width: 0.8; stroke-linecap: square"/>
     </g>
     <g id="line2d_48">
      <g>
       <use xlink:href="#m4f99fb377b" x="50.574219" y="284.966467" style="stroke: #000000; stroke-width: 0.8"/>
      </g>
     </g>
     <g id="text_26">
      <!-- 4.5 -->
      <g transform="translate(24.824219 290.17428) scale(0.15 -0.15)">
       <use xlink:href="#TimesNewRomanPSMT-34"/>
       <use xlink:href="#TimesNewRomanPSMT-2e" x="50"/>
       <use xlink:href="#TimesNewRomanPSMT-35" x="75"/>
      </g>
     </g>
    </g>
    <g id="ytick_9">
     <g id="line2d_49">
      <path d="M 50.574219 252.090104 
L 1125.874219 252.090104 
" clip-path="url(#p3d04e6dfa3)" style="fill: none; stroke: #b0b0b0; stroke-opacity: 0.5; stroke-width: 0.8; stroke-linecap: square"/>
     </g>
     <g id="line2d_50">
      <g>
       <use xlink:href="#m4f99fb377b" x="50.574219" y="252.090104" style="stroke: #000000; stroke-width: 0.8"/>
      </g>
     </g>
     <g id="text_27">
      <!-- 5.0 -->
      <g transform="translate(24.824219 257.297916) scale(0.15 -0.15)">
       <use xlink:href="#TimesNewRomanPSMT-35"/>
       <use xlink:href="#TimesNewRomanPSMT-2e" x="50"/>
       <use xlink:href="#TimesNewRomanPSMT-30" x="75"/>
      </g>
     </g>
    </g>
    <g id="text_28">
     <!-- Demand (MW) -->
     <g transform="translate(17.615625 357.045313) rotate(-90) scale(0.15 -0.15)">
      <use xlink:href="#TimesNewRomanPSMT-44"/>
      <use xlink:href="#TimesNewRomanPSMT-65" x="72.216797"/>
      <use xlink:href="#TimesNewRomanPSMT-6d" x="116.601562"/>
      <use xlink:href="#TimesNewRomanPSMT-61" x="194.384766"/>
      <use xlink:href="#TimesNewRomanPSMT-6e" x="238.769531"/>
      <use xlink:href="#TimesNewRomanPSMT-64" x="288.769531"/>
      <use xlink:href="#TimesNewRomanPSMT-20" x="338.769531"/>
      <use xlink:href="#TimesNewRomanPSMT-28" x="363.769531"/>
      <use xlink:href="#TimesNewRomanPSMT-4d" x="397.070312"/>
      <use xlink:href="#TimesNewRomanPSMT-57" x="485.986328"/>
      <use xlink:href="#TimesNewRomanPSMT-29" x="580.371094"/>
     </g>
    </g>
   </g>
   <g id="line2d_51">
    <path d="M 99.451491 378.977251 
L 105.34032 373.691225 
L 111.229148 367.428771 
L 117.117976 358.045298 
L 123.006804 335.369089 
L 128.895632 320.595733 
L 134.78446 318.238104 
L 140.673288 326.351333 
L 146.562116 320.52117 
L 158.339772 350.662615 
L 164.2286 344.312282 
L 170.117428 341.375897 
L 176.006256 344.594558 
L 181.895084 352.124594 
L 187.783912 345.545244 
L 193.67274 374.074695 
L 199.561568 355.72495 
L 205.450396 361.754837 
L 211.339224 363.270075 
L 217.228052 363.252322 
L 223.11688 375.25351 
L 229.005708 364.177266 
L 234.894536 370.97498 
L 240.783364 374.104876 
L 246.672192 376.500675 
L 252.561021 378.614198 
L 258.449849 365.204291 
L 264.338677 350.000419 
L 270.227505 352.621684 
L 276.116333 342.64259 
L 282.005161 329.031184 
L 287.893989 323.888959 
L 293.782817 323.145098 
L 299.671645 319.463077 
L 305.560473 326.148946 
L 311.449301 339.125674 
L 317.338129 345.509738 
L 323.226957 347.269083 
L 329.115785 349.929406 
L 335.004613 348.879302 
L 340.893441 343.209806 
L 346.782269 344.012252 
L 352.671097 343.218683 
L 358.559925 347.645452 
L 364.448753 356.119072 
L 370.337581 363.755626 
L 376.226409 369.720714 
L 382.115237 374.280633 
L 388.004065 377.411416 
L 393.892893 368.375906 
L 399.781721 368.356378 
L 405.67055 359.568526 
L 411.559378 352.579076 
L 417.448206 349.332897 
L 423.337034 338.521176 
L 429.225862 329.584197 
L 435.11469 338.32234 
L 441.003518 336.225683 
L 446.892346 341.50372 
L 452.781174 349.339999 
L 458.670002 359.16819 
L 464.55883 365.961466 
L 470.447658 357.115916 
L 476.336486 359.845476 
L 482.225314 359.485973 
L 488.114142 346.262475 
L 494.00297 336.780471 
L 499.891798 335.08415 
L 505.780626 340.991539 
L 511.669454 370.661635 
L 517.558282 374.822106 
L 523.44711 377.600488 
L 529.335938 376.371076 
L 535.224766 380.669135 
L 541.113594 358.306271 
L 547.002422 342.661231 
L 552.891251 304.517515 
L 558.780079 296.153077 
L 564.668907 317.055738 
L 570.557735 314.35192 
L 576.446563 330.105254 
L 582.335391 337.625525 
L 588.224219 338.855825 
L 594.113047 332.509043 
L 600.001875 339.465648 
L 605.890703 339.755026 
L 611.779531 332.353702 
L 617.668359 330.628975 
L 623.557187 329.965892 
L 629.446015 332.828601 
L 635.334843 332.118472 
L 641.223671 332.870321 
L 647.112499 343.769921 
L 653.001327 362.059305 
L 658.890155 356.546037 
L 664.778983 356.924181 
L 670.667811 355.266916 
L 676.556639 361.105956 
L 682.445467 344.368205 
L 688.334295 319.327265 
L 694.223123 308.19421 
L 700.111951 279.025643 
L 706.00078 280.791202 
L 711.889608 287.557848 
L 717.778436 290.561696 
L 723.667264 296.18237 
L 729.556092 301.481711 
L 735.44492 325.399759 
L 741.333748 336.083657 
L 747.222576 336.490206 
L 753.111404 331.576998 
L 759.000232 326.83067 
L 764.88906 329.301921 
L 770.777888 349.169567 
L 776.666716 344.334473 
L 782.555544 335.723266 
L 788.444372 375.239307 
L 794.3332 380.019366 
L 800.222028 381.400568 
L 806.110856 380.61765 
L 811.999684 369.569811 
L 817.888512 359.937793 
L 823.77734 348.865099 
L 829.666168 316.906611 
L 835.554996 240.636932 
L 841.443824 246.41561 
L 847.332652 260.036781 
L 853.221481 324.103773 
L 859.110309 337.659257 
L 864.999137 321.526891 
L 870.887965 352.644763 
L 876.776793 337.653931 
L 882.665621 308.843979 
L 888.554449 322.665761 
L 894.443277 332.004851 
L 900.332105 324.02122 
L 906.220933 330.348474 
L 912.109761 329.086219 
L 917.998589 327.396998 
L 923.887417 347.602844 
L 929.776245 359.121144 
L 935.665073 371.756122 
L 941.553901 379.546243 
L 947.442729 373.884736 
L 953.331557 372.700595 
L 959.220385 370.479665 
L 965.109213 354.624249 
L 970.998041 335.734806 
L 976.886869 289.793868 
L 982.775697 332.377669 
L 988.664525 302.573535 
L 994.553353 292.993001 
L 1000.442182 306.910651 
L 1006.33101 322.055049 
L 1012.219838 318.574527 
L 1018.108666 322.375495 
L 1023.997494 338.623257 
L 1029.886322 340.339108 
L 1035.77515 335.727704 
L 1041.663978 339.122123 
L 1047.552806 335.614084 
L 1053.441634 331.13583 
L 1059.330462 329.3969 
L 1065.21929 329.706694 
L 1071.108118 348.671589 
L 1076.996946 373.135549 
L 1076.996946 373.135549 
" clip-path="url(#p3d04e6dfa3)" style="fill: none; stroke: #808080; stroke-width: 1.5; stroke-linecap: square"/>
   </g>
   <g id="line2d_52">
    <path d="M 99.451491 310.918207 
L 105.34032 308.783034 
L 111.229148 306.84093 
L 117.117976 305.169945 
L 123.006804 303.352902 
L 128.895632 302.819793 
L 134.78446 307.646983 
L 140.673288 319.200562 
L 146.562116 325.498365 
L 152.450944 331.612684 
L 158.339772 336.246804 
L 170.117428 350.789991 
L 176.006256 360.574909 
L 181.895084 364.969861 
L 187.783912 369.01747 
L 193.67274 369.038922 
L 199.561568 363.392443 
L 205.450396 348.920003 
L 211.339224 338.47372 
L 217.228052 331.710816 
L 223.11688 329.250209 
L 229.005708 324.679988 
L 234.894536 324.858908 
L 240.783364 319.610435 
L 246.672192 316.18083 
L 252.561021 314.20632 
L 264.338677 313.800554 
L 270.227505 312.919191 
L 276.116333 311.773555 
L 282.005161 313.264251 
L 287.893989 315.900126 
L 293.782817 316.443277 
L 299.671645 316.175353 
L 305.560473 320.631923 
L 311.449301 330.719909 
L 317.338129 332.028947 
L 323.226957 334.348974 
L 329.115785 337.931026 
L 335.004613 338.672722 
L 340.893441 342.032494 
L 346.782269 338.488325 
L 352.671097 332.371725 
L 358.559925 321.133081 
L 364.448753 315.897844 
L 370.337581 313.116824 
L 376.226409 311.070198 
L 382.115237 309.249048 
L 388.004065 308.45897 
L 393.892893 308.257228 
L 399.781721 309.394192 
L 405.67055 309.580871 
L 411.559378 310.560824 
L 417.448206 312.690976 
L 423.337034 316.655972 
L 429.225862 325.462307 
L 435.11469 330.00149 
L 441.003518 335.43071 
L 446.892346 338.213555 
L 458.670002 348.620129 
L 464.55883 351.759445 
L 470.447658 352.64583 
L 476.336486 355.28627 
L 482.225314 355.908382 
L 488.114142 350.562233 
L 494.00297 336.358629 
L 499.891798 325.81467 
L 505.780626 319.876077 
L 511.669454 316.848585 
L 517.558282 314.966273 
L 523.44711 312.662678 
L 529.335938 310.182444 
L 535.224766 307.877023 
L 541.113594 305.970064 
L 547.002422 304.69389 
L 552.891251 306.569811 
L 558.780079 309.676265 
L 564.668907 312.470978 
L 570.557735 320.090598 
L 576.446563 330.975509 
L 588.224219 350.367338 
L 594.113047 349.94788 
L 605.890703 349.866179 
L 611.779531 346.790763 
L 617.668359 349.453111 
L 623.557187 351.18754 
L 629.446015 347.688558 
L 635.334843 340.259269 
L 641.223671 333.732795 
L 647.112499 325.362806 
L 653.001327 318.585296 
L 658.890155 310.710076 
L 664.778983 305.796621 
L 670.667811 304.224224 
L 676.556639 303.479789 
L 682.445467 302.038844 
L 688.334295 301.443661 
L 700.111951 297.441238 
L 706.00078 299.454088 
L 711.889608 303.196347 
L 717.778436 309.304732 
L 723.667264 314.208145 
L 729.556092 321.912205 
L 735.44492 324.723806 
L 741.333748 329.269379 
L 747.222576 330.943559 
L 753.111404 333.227072 
L 759.000232 333.031264 
L 764.88906 333.340723 
L 770.777888 330.865053 
L 776.666716 324.194348 
L 782.555544 320.23483 
L 788.444372 312.26239 
L 794.3332 306.714956 
L 806.110856 302.69108 
L 811.999684 299.34135 
L 817.888512 296.37 
L 823.77734 294.831379 
L 829.666168 293.059979 
L 835.554996 293.337944 
L 841.443824 298.183391 
L 847.332652 308.1381 
L 853.221481 314.689221 
L 859.110309 322.333032 
L 864.999137 327.476071 
L 870.887965 333.701301 
L 876.776793 339.741678 
L 882.665621 344.164016 
L 888.554449 345.69077 
L 894.443277 347.649762 
L 900.332105 349.969332 
L 906.220933 348.698178 
L 912.109761 338.018204 
L 917.998589 325.135504 
L 923.887417 317.198666 
L 929.776245 312.461849 
L 935.665073 309.12992 
L 941.553901 306.948647 
L 947.442729 306.815826 
L 953.331557 305.332433 
L 959.220385 303.589332 
L 970.998041 299.43857 
L 976.886869 299.07936 
L 982.775697 306.497239 
L 988.664525 314.926108 
L 994.553353 320.640595 
L 1000.442182 326.696034 
L 1006.33101 336.129045 
L 1012.219838 343.324187 
L 1018.108666 348.602328 
L 1023.997494 353.467858 
L 1029.886322 357.708993 
L 1035.77515 359.770225 
L 1041.663978 361.268681 
L 1047.552806 357.798453 
L 1053.441634 352.178447 
L 1059.330462 344.791605 
L 1065.21929 334.955567 
L 1071.108118 329.582945 
L 1076.996946 327.033791 
L 1076.996946 327.033791 
" clip-path="url(#p3d04e6dfa3)" style="fill: none; stroke: #0000ff; stroke-width: 1.5; stroke-linecap: square"/>
   </g>
   <g id="patch_9">
    <path d="M 50.574219 388.43875 
L 50.574219 233.59875 
" style="fill: none; stroke: #000000; stroke-width: 0.8; stroke-linejoin: miter; stroke-linecap: square"/>
   </g>
   <g id="patch_10">
    <path d="M 1125.874219 388.43875 
L 1125.874219 233.59875 
" style="fill: none; stroke: #000000; stroke-width: 0.8; stroke-linejoin: miter; stroke-linecap: square"/>
   </g>
   <g id="patch_11">
    <path d="M 50.574219 388.43875 
L 1125.874219 388.43875 
" style="fill: none; stroke: #000000; stroke-width: 0.8; stroke-linejoin: miter; stroke-linecap: square"/>
   </g>
   <g id="patch_12">
    <path d="M 50.574219 233.59875 
L 1125.874219 233.59875 
" style="fill: none; stroke: #000000; stroke-width: 0.8; stroke-linejoin: miter; stroke-linecap: square"/>
   </g>
   <g id="text_29">
    <!-- Model 4-1: Summer Week -->
    <g transform="translate(492.873438 227.59875) scale(0.18 -0.18)">
     <defs>
      <path id="TimesNewRomanPSMT-53" d="M 2934 4334 
L 2934 2869 
L 2819 2869 
Q 2763 3291 2617 3541 
Q 2472 3791 2203 3937 
Q 1934 4084 1647 4084 
Q 1322 4084 1109 3886 
Q 897 3688 897 3434 
Q 897 3241 1031 3081 
Q 1225 2847 1953 2456 
Q 2547 2138 2764 1967 
Q 2981 1797 3098 1565 
Q 3216 1334 3216 1081 
Q 3216 600 2842 251 
Q 2469 -97 1881 -97 
Q 1697 -97 1534 -69 
Q 1438 -53 1133 45 
Q 828 144 747 144 
Q 669 144 623 97 
Q 578 50 556 -97 
L 441 -97 
L 441 1356 
L 556 1356 
Q 638 900 775 673 
Q 913 447 1195 297 
Q 1478 147 1816 147 
Q 2206 147 2432 353 
Q 2659 559 2659 841 
Q 2659 997 2573 1156 
Q 2488 1316 2306 1453 
Q 2184 1547 1640 1851 
Q 1097 2156 867 2337 
Q 638 2519 519 2737 
Q 400 2956 400 3219 
Q 400 3675 750 4004 
Q 1100 4334 1641 4334 
Q 1978 4334 2356 4169 
Q 2531 4091 2603 4091 
Q 2684 4091 2736 4139 
Q 2788 4188 2819 4334 
L 2934 4334 
z
" transform="scale(0.015625)"/>
     </defs>
     <use xlink:href="#TimesNewRomanPSMT-4d"/>
     <use xlink:href="#TimesNewRomanPSMT-6f" x="88.916016"/>
     <use xlink:href="#TimesNewRomanPSMT-64" x="138.916016"/>
     <use xlink:href="#TimesNewRomanPSMT-65" x="188.916016"/>
     <use xlink:href="#TimesNewRomanPSMT-6c" x="233.300781"/>
     <use xlink:href="#TimesNewRomanPSMT-20" x="261.083984"/>
     <use xlink:href="#TimesNewRomanPSMT-34" x="286.083984"/>
     <use xlink:href="#TimesNewRomanPSMT-2d" x="336.083984"/>
     <use xlink:href="#TimesNewRomanPSMT-31" x="369.384766"/>
     <use xlink:href="#TimesNewRomanPSMT-3a" x="419.384766"/>
     <use xlink:href="#TimesNewRomanPSMT-20" x="447.167969"/>
     <use xlink:href="#TimesNewRomanPSMT-53" x="472.167969"/>
     <use xlink:href="#TimesNewRomanPSMT-75" x="527.783203"/>
     <use xlink:href="#TimesNewRomanPSMT-6d" x="577.783203"/>
     <use xlink:href="#TimesNewRomanPSMT-6d" x="655.566406"/>
     <use xlink:href="#TimesNewRomanPSMT-65" x="733.349609"/>
     <use xlink:href="#TimesNewRomanPSMT-72" x="777.734375"/>
     <use xlink:href="#TimesNewRomanPSMT-20" x="811.035156"/>
     <use xlink:href="#TimesNewRomanPSMT-57" x="834.285156"/>
     <use xlink:href="#TimesNewRomanPSMT-65" x="920.669922"/>
     <use xlink:href="#TimesNewRomanPSMT-65" x="965.054688"/>
     <use xlink:href="#TimesNewRomanPSMT-6b" x="1009.439453"/>
    </g>
   </g>
   <g id="legend_2">
    <g id="patch_13">
     <path d="M 1010.728125 288.015937 
L 1115.374219 288.015937 
Q 1118.374219 288.015937 1118.374219 285.015937 
L 1118.374219 244.09875 
Q 1118.374219 241.09875 1115.374219 241.09875 
L 1010.728125 241.09875 
Q 1007.728125 241.09875 1007.728125 244.09875 
L 1007.728125 285.015937 
Q 1007.728125 288.015937 1010.728125 288.015937 
z
" style="fill: #ffffff; opacity: 0.8; stroke: #cccccc; stroke-linejoin: miter"/>
    </g>
    <g id="line2d_53">
     <path d="M 1013.728125 252.34875 
L 1028.728125 252.34875 
L 1043.728125 252.34875 
" style="fill: none; stroke: #808080; stroke-width: 1.5; stroke-linecap: square"/>
    </g>
    <g id="text_30">
     <!-- Actual -->
     <g transform="translate(1055.728125 257.59875) scale(0.15 -0.15)">
      <use xlink:href="#TimesNewRomanPSMT-41"/>
      <use xlink:href="#TimesNewRomanPSMT-63" x="72.216797"/>
      <use xlink:href="#TimesNewRomanPSMT-74" x="116.601562"/>
      <use xlink:href="#TimesNewRomanPSMT-75" x="144.384766"/>
      <use xlink:href="#TimesNewRomanPSMT-61" x="194.384766"/>
      <use xlink:href="#TimesNewRomanPSMT-6c" x="238.769531"/>
     </g>
    </g>
    <g id="line2d_54">
     <path d="M 1013.728125 273.557344 
L 1028.728125 273.557344 
L 1043.728125 273.557344 
" style="fill: none; stroke: #0000ff; stroke-width: 1.5; stroke-linecap: square"/>
    </g>
    <g id="text_31">
     <!-- Predicted -->
     <g transform="translate(1055.728125 278.807344) scale(0.15 -0.15)">
      <use xlink:href="#TimesNewRomanPSMT-50"/>
      <use xlink:href="#TimesNewRomanPSMT-72" x="55.615234"/>
      <use xlink:href="#TimesNewRomanPSMT-65" x="88.916016"/>
      <use xlink:href="#TimesNewRomanPSMT-64" x="133.300781"/>
      <use xlink:href="#TimesNewRomanPSMT-69" x="183.300781"/>
      <use xlink:href="#TimesNewRomanPSMT-63" x="211.083984"/>
      <use xlink:href="#TimesNewRomanPSMT-74" x="255.46875"/>
      <use xlink:href="#TimesNewRomanPSMT-65" x="283.251953"/>
      <use xlink:href="#TimesNewRomanPSMT-64" x="327.636719"/>
     </g>
    </g>
   </g>
  </g>
 </g>
 <defs>
  <clipPath id="pf62f808c48">
   <rect x="50.574219" y="25.69875" width="1075.3" height="154.84"/>
  </clipPath>
  <clipPath id="p3d04e6dfa3">
   <rect x="50.574219" y="233.59875" width="1075.3" height="154.84"/>
  </clipPath>
 </defs>
</svg>
