<?xml version="1.0" encoding="utf-8" standalone="no"?>
<!DOCTYPE svg PUBLIC "-//W3C//DTD SVG 1.1//EN"
  "http://www.w3.org/Graphics/SVG/1.1/DTD/svg11.dtd">
<svg xmlns:xlink="http://www.w3.org/1999/xlink" width="950.574219pt" height="382.662969pt" viewBox="0 0 950.574219 382.662969" xmlns="http://www.w3.org/2000/svg" version="1.1">
 <metadata>
  <rdf:RDF xmlns:dc="http://purl.org/dc/elements/1.1/" xmlns:cc="http://creativecommons.org/ns#" xmlns:rdf="http://www.w3.org/1999/02/22-rdf-syntax-ns#">
   <cc:Work>
    <dc:type rdf:resource="http://purl.org/dc/dcmitype/StillImage"/>
    <dc:date>2024-04-19T17:25:29.840605</dc:date>
    <dc:format>image/svg+xml</dc:format>
    <dc:creator>
     <cc:Agent>
      <dc:title>Matplotlib v3.8.2, https://matplotlib.org/</dc:title>
     </cc:Agent>
    </dc:creator>
   </cc:Work>
  </rdf:RDF>
 </metadata>
 <defs>
  <style type="text/css">*{stroke-linejoin: round; stroke-linecap: butt}</style>
 </defs>
 <g id="figure_1">
  <g id="patch_1">
   <path d="M 0 382.662969 
L 950.574219 382.662969 
L 950.574219 0 
L 0 0 
z
" style="fill: #ffffff"/>
  </g>
  <g id="axes_1">
   <g id="patch_2">
    <path d="M 50.574219 176.89875 
L 943.374219 176.89875 
L 943.374219 25.69875 
L 50.574219 25.69875 
z
" style="fill: #ffffff"/>
   </g>
   <g id="matplotlib.axis_1">
    <g id="xtick_1">
     <g id="line2d_1">
      <path d="M 140.049794 176.89875 
L 140.049794 25.69875 
" clip-path="url(#pd30e562661)" style="fill: none; stroke: #b0b0b0; stroke-opacity: 0.5; stroke-width: 0.8; stroke-linecap: square"/>
     </g>
     <g id="line2d_2"/>
     <g id="text_1">
      <!-- Jan 01 -->
      <g transform="translate(120.676356 190.814375) scale(0.15 -0.15)">
       <defs>
        <path id="TimesNewRomanPSMT-4a" d="M 638 4122 
L 638 4238 
L 2453 4238 
L 2453 4122 
L 2300 4122 
Q 2041 4122 1922 3969 
Q 1847 3869 1847 3488 
L 1847 1416 
Q 1847 938 1742 641 
Q 1638 344 1381 123 
Q 1125 -97 763 -97 
Q 469 -97 300 48 
Q 131 194 131 381 
Q 131 534 209 613 
Q 313 709 450 709 
Q 550 709 629 643 
Q 709 578 831 294 
Q 903 125 1016 125 
Q 1100 125 1173 228 
Q 1247 331 1247 594 
L 1247 3488 
Q 1247 3809 1206 3913 
Q 1175 3991 1075 4047 
Q 941 4122 791 4122 
L 638 4122 
z
" transform="scale(0.015625)"/>
        <path id="TimesNewRomanPSMT-61" d="M 1822 413 
Q 1381 72 1269 19 
Q 1100 -59 909 -59 
Q 613 -59 420 144 
Q 228 347 228 678 
Q 228 888 322 1041 
Q 450 1253 767 1440 
Q 1084 1628 1822 1897 
L 1822 2009 
Q 1822 2438 1686 2597 
Q 1550 2756 1291 2756 
Q 1094 2756 978 2650 
Q 859 2544 859 2406 
L 866 2225 
Q 866 2081 792 2003 
Q 719 1925 600 1925 
Q 484 1925 411 2006 
Q 338 2088 338 2228 
Q 338 2497 613 2722 
Q 888 2947 1384 2947 
Q 1766 2947 2009 2819 
Q 2194 2722 2281 2516 
Q 2338 2381 2338 1966 
L 2338 994 
Q 2338 584 2353 492 
Q 2369 400 2405 369 
Q 2441 338 2488 338 
Q 2538 338 2575 359 
Q 2641 400 2828 588 
L 2828 413 
Q 2478 -56 2159 -56 
Q 2006 -56 1915 50 
Q 1825 156 1822 413 
z
M 1822 616 
L 1822 1706 
Q 1350 1519 1213 1441 
Q 966 1303 859 1153 
Q 753 1003 753 825 
Q 753 600 887 451 
Q 1022 303 1197 303 
Q 1434 303 1822 616 
z
" transform="scale(0.015625)"/>
        <path id="TimesNewRomanPSMT-6e" d="M 1034 2341 
Q 1538 2947 1994 2947 
Q 2228 2947 2397 2830 
Q 2566 2713 2666 2444 
Q 2734 2256 2734 1869 
L 2734 647 
Q 2734 375 2778 278 
Q 2813 200 2889 156 
Q 2966 113 3172 113 
L 3172 0 
L 1756 0 
L 1756 113 
L 1816 113 
Q 2016 113 2095 173 
Q 2175 234 2206 353 
Q 2219 400 2219 647 
L 2219 1819 
Q 2219 2209 2117 2386 
Q 2016 2563 1775 2563 
Q 1403 2563 1034 2156 
L 1034 647 
Q 1034 356 1069 288 
Q 1113 197 1189 155 
Q 1266 113 1500 113 
L 1500 0 
L 84 0 
L 84 113 
L 147 113 
Q 366 113 442 223 
Q 519 334 519 647 
L 519 1709 
Q 519 2225 495 2337 
Q 472 2450 423 2490 
Q 375 2531 294 2531 
Q 206 2531 84 2484 
L 38 2597 
L 900 2947 
L 1034 2947 
L 1034 2341 
z
" transform="scale(0.015625)"/>
        <path id="TimesNewRomanPSMT-20" transform="scale(0.015625)"/>
        <path id="TimesNewRomanPSMT-30" d="M 231 2094 
Q 231 2819 450 3342 
Q 669 3866 1031 4122 
Q 1313 4325 1613 4325 
Q 2100 4325 2488 3828 
Q 2972 3213 2972 2159 
Q 2972 1422 2759 906 
Q 2547 391 2217 158 
Q 1888 -75 1581 -75 
Q 975 -75 572 641 
Q 231 1244 231 2094 
z
M 844 2016 
Q 844 1141 1059 588 
Q 1238 122 1591 122 
Q 1759 122 1940 273 
Q 2122 425 2216 781 
Q 2359 1319 2359 2297 
Q 2359 3022 2209 3506 
Q 2097 3866 1919 4016 
Q 1791 4119 1609 4119 
Q 1397 4119 1231 3928 
Q 1006 3669 925 3112 
Q 844 2556 844 2016 
z
" transform="scale(0.015625)"/>
        <path id="TimesNewRomanPSMT-31" d="M 750 3822 
L 1781 4325 
L 1884 4325 
L 1884 747 
Q 1884 391 1914 303 
Q 1944 216 2037 169 
Q 2131 122 2419 116 
L 2419 0 
L 825 0 
L 825 116 
Q 1125 122 1212 167 
Q 1300 213 1334 289 
Q 1369 366 1369 747 
L 1369 3034 
Q 1369 3497 1338 3628 
Q 1316 3728 1258 3775 
Q 1200 3822 1119 3822 
Q 1003 3822 797 3725 
L 750 3822 
z
" transform="scale(0.015625)"/>
       </defs>
       <use xlink:href="#TimesNewRomanPSMT-4a"/>
       <use xlink:href="#TimesNewRomanPSMT-61" x="38.916016"/>
       <use xlink:href="#TimesNewRomanPSMT-6e" x="83.300781"/>
       <use xlink:href="#TimesNewRomanPSMT-20" x="133.300781"/>
       <use xlink:href="#TimesNewRomanPSMT-30" x="158.300781"/>
       <use xlink:href="#TimesNewRomanPSMT-31" x="208.300781"/>
      </g>
     </g>
    </g>
    <g id="xtick_2">
     <g id="line2d_3">
      <path d="M 257.39481 176.89875 
L 257.39481 25.69875 
" clip-path="url(#pd30e562661)" style="fill: none; stroke: #b0b0b0; stroke-opacity: 0.5; stroke-width: 0.8; stroke-linecap: square"/>
     </g>
     <g id="line2d_4"/>
     <g id="text_2">
      <!-- Jan 02 -->
      <g transform="translate(238.021373 190.814375) scale(0.15 -0.15)">
       <defs>
        <path id="TimesNewRomanPSMT-32" d="M 2934 816 
L 2638 0 
L 138 0 
L 138 116 
Q 1241 1122 1691 1759 
Q 2141 2397 2141 2925 
Q 2141 3328 1894 3587 
Q 1647 3847 1303 3847 
Q 991 3847 742 3664 
Q 494 3481 375 3128 
L 259 3128 
Q 338 3706 661 4015 
Q 984 4325 1469 4325 
Q 1984 4325 2329 3994 
Q 2675 3663 2675 3213 
Q 2675 2891 2525 2569 
Q 2294 2063 1775 1497 
Q 997 647 803 472 
L 1909 472 
Q 2247 472 2383 497 
Q 2519 522 2628 598 
Q 2738 675 2819 816 
L 2934 816 
z
" transform="scale(0.015625)"/>
       </defs>
       <use xlink:href="#TimesNewRomanPSMT-4a"/>
       <use xlink:href="#TimesNewRomanPSMT-61" x="38.916016"/>
       <use xlink:href="#TimesNewRomanPSMT-6e" x="83.300781"/>
       <use xlink:href="#TimesNewRomanPSMT-20" x="133.300781"/>
       <use xlink:href="#TimesNewRomanPSMT-30" x="158.300781"/>
       <use xlink:href="#TimesNewRomanPSMT-32" x="208.300781"/>
      </g>
     </g>
    </g>
    <g id="xtick_3">
     <g id="line2d_5">
      <path d="M 374.739827 176.89875 
L 374.739827 25.69875 
" clip-path="url(#pd30e562661)" style="fill: none; stroke: #b0b0b0; stroke-opacity: 0.5; stroke-width: 0.8; stroke-linecap: square"/>
     </g>
     <g id="line2d_6"/>
     <g id="text_3">
      <!-- Jan 03 -->
      <g transform="translate(355.366389 190.814375) scale(0.15 -0.15)">
       <defs>
        <path id="TimesNewRomanPSMT-33" d="M 325 3431 
Q 506 3859 782 4092 
Q 1059 4325 1472 4325 
Q 1981 4325 2253 3994 
Q 2459 3747 2459 3466 
Q 2459 3003 1878 2509 
Q 2269 2356 2469 2072 
Q 2669 1788 2669 1403 
Q 2669 853 2319 450 
Q 1863 -75 997 -75 
Q 569 -75 414 31 
Q 259 138 259 259 
Q 259 350 332 419 
Q 406 488 509 488 
Q 588 488 669 463 
Q 722 447 909 348 
Q 1097 250 1169 231 
Q 1284 197 1416 197 
Q 1734 197 1970 444 
Q 2206 691 2206 1028 
Q 2206 1275 2097 1509 
Q 2016 1684 1919 1775 
Q 1784 1900 1550 2001 
Q 1316 2103 1072 2103 
L 972 2103 
L 972 2197 
Q 1219 2228 1467 2375 
Q 1716 2522 1828 2728 
Q 1941 2934 1941 3181 
Q 1941 3503 1739 3701 
Q 1538 3900 1238 3900 
Q 753 3900 428 3381 
L 325 3431 
z
" transform="scale(0.015625)"/>
       </defs>
       <use xlink:href="#TimesNewRomanPSMT-4a"/>
       <use xlink:href="#TimesNewRomanPSMT-61" x="38.916016"/>
       <use xlink:href="#TimesNewRomanPSMT-6e" x="83.300781"/>
       <use xlink:href="#TimesNewRomanPSMT-20" x="133.300781"/>
       <use xlink:href="#TimesNewRomanPSMT-30" x="158.300781"/>
       <use xlink:href="#TimesNewRomanPSMT-33" x="208.300781"/>
      </g>
     </g>
    </g>
    <g id="xtick_4">
     <g id="line2d_7">
      <path d="M 492.084843 176.89875 
L 492.084843 25.69875 
" clip-path="url(#pd30e562661)" style="fill: none; stroke: #b0b0b0; stroke-opacity: 0.5; stroke-width: 0.8; stroke-linecap: square"/>
     </g>
     <g id="line2d_8"/>
     <g id="text_4">
      <!-- Jan 04 -->
      <g transform="translate(472.711406 190.814375) scale(0.15 -0.15)">
       <defs>
        <path id="TimesNewRomanPSMT-34" d="M 2978 1563 
L 2978 1119 
L 2409 1119 
L 2409 0 
L 1894 0 
L 1894 1119 
L 100 1119 
L 100 1519 
L 2066 4325 
L 2409 4325 
L 2409 1563 
L 2978 1563 
z
M 1894 1563 
L 1894 3666 
L 406 1563 
L 1894 1563 
z
" transform="scale(0.015625)"/>
       </defs>
       <use xlink:href="#TimesNewRomanPSMT-4a"/>
       <use xlink:href="#TimesNewRomanPSMT-61" x="38.916016"/>
       <use xlink:href="#TimesNewRomanPSMT-6e" x="83.300781"/>
       <use xlink:href="#TimesNewRomanPSMT-20" x="133.300781"/>
       <use xlink:href="#TimesNewRomanPSMT-30" x="158.300781"/>
       <use xlink:href="#TimesNewRomanPSMT-34" x="208.300781"/>
      </g>
     </g>
    </g>
    <g id="xtick_5">
     <g id="line2d_9">
      <path d="M 609.429859 176.89875 
L 609.429859 25.69875 
" clip-path="url(#pd30e562661)" style="fill: none; stroke: #b0b0b0; stroke-opacity: 0.5; stroke-width: 0.8; stroke-linecap: square"/>
     </g>
     <g id="line2d_10"/>
     <g id="text_5">
      <!-- Jan 05 -->
      <g transform="translate(590.056422 190.814375) scale(0.15 -0.15)">
       <defs>
        <path id="TimesNewRomanPSMT-35" d="M 2778 4238 
L 2534 3706 
L 1259 3706 
L 981 3138 
Q 1809 3016 2294 2522 
Q 2709 2097 2709 1522 
Q 2709 1188 2573 903 
Q 2438 619 2231 419 
Q 2025 219 1772 97 
Q 1413 -75 1034 -75 
Q 653 -75 479 54 
Q 306 184 306 341 
Q 306 428 378 495 
Q 450 563 559 563 
Q 641 563 702 538 
Q 763 513 909 409 
Q 1144 247 1384 247 
Q 1750 247 2026 523 
Q 2303 800 2303 1197 
Q 2303 1581 2056 1914 
Q 1809 2247 1375 2428 
Q 1034 2569 447 2591 
L 1259 4238 
L 2778 4238 
z
" transform="scale(0.015625)"/>
       </defs>
       <use xlink:href="#TimesNewRomanPSMT-4a"/>
       <use xlink:href="#TimesNewRomanPSMT-61" x="38.916016"/>
       <use xlink:href="#TimesNewRomanPSMT-6e" x="83.300781"/>
       <use xlink:href="#TimesNewRomanPSMT-20" x="133.300781"/>
       <use xlink:href="#TimesNewRomanPSMT-30" x="158.300781"/>
       <use xlink:href="#TimesNewRomanPSMT-35" x="208.300781"/>
      </g>
     </g>
    </g>
    <g id="xtick_6">
     <g id="line2d_11">
      <path d="M 726.774876 176.89875 
L 726.774876 25.69875 
" clip-path="url(#pd30e562661)" style="fill: none; stroke: #b0b0b0; stroke-opacity: 0.5; stroke-width: 0.8; stroke-linecap: square"/>
     </g>
     <g id="line2d_12"/>
     <g id="text_6">
      <!-- Jan 06 -->
      <g transform="translate(707.401438 190.814375) scale(0.15 -0.15)">
       <defs>
        <path id="TimesNewRomanPSMT-36" d="M 2869 4325 
L 2869 4209 
Q 2456 4169 2195 4045 
Q 1934 3922 1679 3669 
Q 1425 3416 1258 3105 
Q 1091 2794 978 2366 
Q 1428 2675 1881 2675 
Q 2316 2675 2634 2325 
Q 2953 1975 2953 1425 
Q 2953 894 2631 456 
Q 2244 -75 1606 -75 
Q 1172 -75 869 213 
Q 275 772 275 1663 
Q 275 2231 503 2743 
Q 731 3256 1154 3653 
Q 1578 4050 1965 4187 
Q 2353 4325 2688 4325 
L 2869 4325 
z
M 925 2138 
Q 869 1716 869 1456 
Q 869 1156 980 804 
Q 1091 453 1309 247 
Q 1469 100 1697 100 
Q 1969 100 2183 356 
Q 2397 613 2397 1088 
Q 2397 1622 2184 2012 
Q 1972 2403 1581 2403 
Q 1463 2403 1327 2353 
Q 1191 2303 925 2138 
z
" transform="scale(0.015625)"/>
       </defs>
       <use xlink:href="#TimesNewRomanPSMT-4a"/>
       <use xlink:href="#TimesNewRomanPSMT-61" x="38.916016"/>
       <use xlink:href="#TimesNewRomanPSMT-6e" x="83.300781"/>
       <use xlink:href="#TimesNewRomanPSMT-20" x="133.300781"/>
       <use xlink:href="#TimesNewRomanPSMT-30" x="158.300781"/>
       <use xlink:href="#TimesNewRomanPSMT-36" x="208.300781"/>
      </g>
     </g>
    </g>
    <g id="xtick_7">
     <g id="line2d_13">
      <path d="M 844.119892 176.89875 
L 844.119892 25.69875 
" clip-path="url(#pd30e562661)" style="fill: none; stroke: #b0b0b0; stroke-opacity: 0.5; stroke-width: 0.8; stroke-linecap: square"/>
     </g>
     <g id="line2d_14"/>
     <g id="text_7">
      <!-- Jan 07 -->
      <g transform="translate(824.746455 190.814375) scale(0.15 -0.15)">
       <defs>
        <path id="TimesNewRomanPSMT-37" d="M 644 4238 
L 2916 4238 
L 2916 4119 
L 1503 -88 
L 1153 -88 
L 2419 3728 
L 1253 3728 
Q 900 3728 750 3644 
Q 488 3500 328 3200 
L 238 3234 
L 644 4238 
z
" transform="scale(0.015625)"/>
       </defs>
       <use xlink:href="#TimesNewRomanPSMT-4a"/>
       <use xlink:href="#TimesNewRomanPSMT-61" x="38.916016"/>
       <use xlink:href="#TimesNewRomanPSMT-6e" x="83.300781"/>
       <use xlink:href="#TimesNewRomanPSMT-20" x="133.300781"/>
       <use xlink:href="#TimesNewRomanPSMT-30" x="158.300781"/>
       <use xlink:href="#TimesNewRomanPSMT-37" x="208.300781"/>
      </g>
     </g>
    </g>
   </g>
   <g id="matplotlib.axis_2">
    <g id="ytick_1">
     <g id="line2d_15">
      <path d="M 50.574219 157.413069 
L 943.374219 157.413069 
" clip-path="url(#pd30e562661)" style="fill: none; stroke: #b0b0b0; stroke-opacity: 0.5; stroke-width: 0.8; stroke-linecap: square"/>
     </g>
     <g id="line2d_16">
      <defs>
       <path id="m4ae0d56f1d" d="M 0 0 
L -3.5 0 
" style="stroke: #000000; stroke-width: 0.8"/>
      </defs>
      <g>
       <use xlink:href="#m4ae0d56f1d" x="50.574219" y="157.413069" style="stroke: #000000; stroke-width: 0.8"/>
      </g>
     </g>
     <g id="text_8">
      <!-- 25 -->
      <g transform="translate(28.574219 162.620881) scale(0.15 -0.15)">
       <use xlink:href="#TimesNewRomanPSMT-32"/>
       <use xlink:href="#TimesNewRomanPSMT-35" x="50"/>
      </g>
     </g>
    </g>
    <g id="ytick_2">
     <g id="line2d_17">
      <path d="M 50.574219 122.217522 
L 943.374219 122.217522 
" clip-path="url(#pd30e562661)" style="fill: none; stroke: #b0b0b0; stroke-opacity: 0.5; stroke-width: 0.8; stroke-linecap: square"/>
     </g>
     <g id="line2d_18">
      <g>
       <use xlink:href="#m4ae0d56f1d" x="50.574219" y="122.217522" style="stroke: #000000; stroke-width: 0.8"/>
      </g>
     </g>
     <g id="text_9">
      <!-- 30 -->
      <g transform="translate(28.574219 127.425335) scale(0.15 -0.15)">
       <use xlink:href="#TimesNewRomanPSMT-33"/>
       <use xlink:href="#TimesNewRomanPSMT-30" x="50"/>
      </g>
     </g>
    </g>
    <g id="ytick_3">
     <g id="line2d_19">
      <path d="M 50.574219 87.021976 
L 943.374219 87.021976 
" clip-path="url(#pd30e562661)" style="fill: none; stroke: #b0b0b0; stroke-opacity: 0.5; stroke-width: 0.8; stroke-linecap: square"/>
     </g>
     <g id="line2d_20">
      <g>
       <use xlink:href="#m4ae0d56f1d" x="50.574219" y="87.021976" style="stroke: #000000; stroke-width: 0.8"/>
      </g>
     </g>
     <g id="text_10">
      <!-- 35 -->
      <g transform="translate(28.574219 92.229788) scale(0.15 -0.15)">
       <use xlink:href="#TimesNewRomanPSMT-33"/>
       <use xlink:href="#TimesNewRomanPSMT-35" x="50"/>
      </g>
     </g>
    </g>
    <g id="ytick_4">
     <g id="line2d_21">
      <path d="M 50.574219 51.826429 
L 943.374219 51.826429 
" clip-path="url(#pd30e562661)" style="fill: none; stroke: #b0b0b0; stroke-opacity: 0.5; stroke-width: 0.8; stroke-linecap: square"/>
     </g>
     <g id="line2d_22">
      <g>
       <use xlink:href="#m4ae0d56f1d" x="50.574219" y="51.826429" style="stroke: #000000; stroke-width: 0.8"/>
      </g>
     </g>
     <g id="text_11">
      <!-- 40 -->
      <g transform="translate(28.574219 57.034242) scale(0.15 -0.15)">
       <use xlink:href="#TimesNewRomanPSMT-34"/>
       <use xlink:href="#TimesNewRomanPSMT-30" x="50"/>
      </g>
     </g>
    </g>
    <g id="text_12">
     <!-- Demand (MW) -->
     <g transform="translate(21.365625 147.325312) rotate(-90) scale(0.15 -0.15)">
      <defs>
       <path id="TimesNewRomanPSMT-44" d="M 109 0 
L 109 116 
L 269 116 
Q 538 116 650 288 
Q 719 391 719 750 
L 719 3488 
Q 719 3884 631 3984 
Q 509 4122 269 4122 
L 109 4122 
L 109 4238 
L 1834 4238 
Q 2784 4238 3279 4022 
Q 3775 3806 4076 3303 
Q 4378 2800 4378 2141 
Q 4378 1256 3841 663 
Q 3238 0 2003 0 
L 109 0 
z
M 1319 306 
Q 1716 219 1984 219 
Q 2709 219 3187 728 
Q 3666 1238 3666 2109 
Q 3666 2988 3187 3494 
Q 2709 4000 1959 4000 
Q 1678 4000 1319 3909 
L 1319 306 
z
" transform="scale(0.015625)"/>
       <path id="TimesNewRomanPSMT-65" d="M 681 1784 
Q 678 1147 991 784 
Q 1303 422 1725 422 
Q 2006 422 2214 576 
Q 2422 731 2563 1106 
L 2659 1044 
Q 2594 616 2278 264 
Q 1963 -88 1488 -88 
Q 972 -88 605 314 
Q 238 716 238 1394 
Q 238 2128 614 2539 
Q 991 2950 1559 2950 
Q 2041 2950 2350 2633 
Q 2659 2316 2659 1784 
L 681 1784 
z
M 681 1966 
L 2006 1966 
Q 1991 2241 1941 2353 
Q 1863 2528 1708 2628 
Q 1553 2728 1384 2728 
Q 1125 2728 920 2526 
Q 716 2325 681 1966 
z
" transform="scale(0.015625)"/>
       <path id="TimesNewRomanPSMT-6d" d="M 1050 2338 
Q 1363 2650 1419 2697 
Q 1559 2816 1721 2881 
Q 1884 2947 2044 2947 
Q 2313 2947 2506 2790 
Q 2700 2634 2766 2338 
Q 3088 2713 3309 2830 
Q 3531 2947 3766 2947 
Q 3994 2947 4170 2830 
Q 4347 2713 4450 2447 
Q 4519 2266 4519 1878 
L 4519 647 
Q 4519 378 4559 278 
Q 4591 209 4675 161 
Q 4759 113 4950 113 
L 4950 0 
L 3538 0 
L 3538 113 
L 3597 113 
Q 3781 113 3884 184 
Q 3956 234 3988 344 
Q 4000 397 4000 647 
L 4000 1878 
Q 4000 2228 3916 2372 
Q 3794 2572 3525 2572 
Q 3359 2572 3192 2489 
Q 3025 2406 2788 2181 
L 2781 2147 
L 2788 2013 
L 2788 647 
Q 2788 353 2820 281 
Q 2853 209 2943 161 
Q 3034 113 3253 113 
L 3253 0 
L 1806 0 
L 1806 113 
Q 2044 113 2133 169 
Q 2222 225 2256 338 
Q 2272 391 2272 647 
L 2272 1878 
Q 2272 2228 2169 2381 
Q 2031 2581 1784 2581 
Q 1616 2581 1450 2491 
Q 1191 2353 1050 2181 
L 1050 647 
Q 1050 366 1089 281 
Q 1128 197 1204 155 
Q 1281 113 1516 113 
L 1516 0 
L 100 0 
L 100 113 
Q 297 113 375 155 
Q 453 197 493 289 
Q 534 381 534 647 
L 534 1741 
Q 534 2213 506 2350 
Q 484 2453 437 2492 
Q 391 2531 309 2531 
Q 222 2531 100 2484 
L 53 2597 
L 916 2947 
L 1050 2947 
L 1050 2338 
z
" transform="scale(0.015625)"/>
       <path id="TimesNewRomanPSMT-64" d="M 2222 322 
Q 2013 103 1813 7 
Q 1613 -88 1381 -88 
Q 913 -88 563 304 
Q 213 697 213 1313 
Q 213 1928 600 2439 
Q 988 2950 1597 2950 
Q 1975 2950 2222 2709 
L 2222 3238 
Q 2222 3728 2198 3840 
Q 2175 3953 2125 3993 
Q 2075 4034 2000 4034 
Q 1919 4034 1784 3984 
L 1744 4094 
L 2597 4444 
L 2738 4444 
L 2738 1134 
Q 2738 631 2761 520 
Q 2784 409 2836 365 
Q 2888 322 2956 322 
Q 3041 322 3181 375 
L 3216 266 
L 2366 -88 
L 2222 -88 
L 2222 322 
z
M 2222 541 
L 2222 2016 
Q 2203 2228 2109 2403 
Q 2016 2578 1861 2667 
Q 1706 2756 1559 2756 
Q 1284 2756 1069 2509 
Q 784 2184 784 1559 
Q 784 928 1059 592 
Q 1334 256 1672 256 
Q 1956 256 2222 541 
z
" transform="scale(0.015625)"/>
       <path id="TimesNewRomanPSMT-28" d="M 1988 -1253 
L 1988 -1369 
Q 1516 -1131 1200 -813 
Q 750 -359 506 256 
Q 263 872 263 1534 
Q 263 2503 741 3301 
Q 1219 4100 1988 4444 
L 1988 4313 
Q 1603 4100 1356 3731 
Q 1109 3363 987 2797 
Q 866 2231 866 1616 
Q 866 947 969 400 
Q 1050 -31 1165 -292 
Q 1281 -553 1476 -793 
Q 1672 -1034 1988 -1253 
z
" transform="scale(0.015625)"/>
       <path id="TimesNewRomanPSMT-4d" d="M 2619 0 
L 981 3566 
L 981 734 
Q 981 344 1066 247 
Q 1181 116 1431 116 
L 1581 116 
L 1581 0 
L 106 0 
L 106 116 
L 256 116 
Q 525 116 638 278 
Q 706 378 706 734 
L 706 3503 
Q 706 3784 644 3909 
Q 600 4000 483 4061 
Q 366 4122 106 4122 
L 106 4238 
L 1306 4238 
L 2844 922 
L 4356 4238 
L 5556 4238 
L 5556 4122 
L 5409 4122 
Q 5138 4122 5025 3959 
Q 4956 3859 4956 3503 
L 4956 734 
Q 4956 344 5044 247 
Q 5159 116 5409 116 
L 5556 116 
L 5556 0 
L 3756 0 
L 3756 116 
L 3906 116 
Q 4178 116 4288 278 
Q 4356 378 4356 734 
L 4356 3566 
L 2722 0 
L 2619 0 
z
" transform="scale(0.015625)"/>
       <path id="TimesNewRomanPSMT-57" d="M 5991 4238 
L 5991 4122 
Q 5825 4122 5722 4062 
Q 5619 4003 5525 3841 
Q 5463 3731 5328 3319 
L 4147 -97 
L 4022 -97 
L 3056 2613 
L 2097 -97 
L 1984 -97 
L 725 3422 
Q 584 3816 547 3888 
Q 484 4006 376 4064 
Q 269 4122 84 4122 
L 84 4238 
L 1653 4238 
L 1653 4122 
L 1578 4122 
Q 1413 4122 1325 4047 
Q 1238 3972 1238 3866 
Q 1238 3756 1375 3363 
L 2209 984 
L 2913 3006 
L 2788 3363 
L 2688 3647 
Q 2622 3803 2541 3922 
Q 2500 3981 2441 4022 
Q 2363 4078 2284 4103 
Q 2225 4122 2097 4122 
L 2097 4238 
L 3747 4238 
L 3747 4122 
L 3634 4122 
Q 3459 4122 3378 4047 
Q 3297 3972 3297 3844 
Q 3297 3684 3438 3288 
L 4250 984 
L 5056 3319 
Q 5194 3706 5194 3856 
Q 5194 3928 5148 3990 
Q 5103 4053 5034 4078 
Q 4916 4122 4725 4122 
L 4725 4238 
L 5991 4238 
z
" transform="scale(0.015625)"/>
       <path id="TimesNewRomanPSMT-29" d="M 144 4313 
L 144 4444 
Q 619 4209 934 3891 
Q 1381 3434 1625 2820 
Q 1869 2206 1869 1541 
Q 1869 572 1392 -226 
Q 916 -1025 144 -1369 
L 144 -1253 
Q 528 -1038 776 -670 
Q 1025 -303 1145 264 
Q 1266 831 1266 1447 
Q 1266 2113 1163 2663 
Q 1084 3094 967 3353 
Q 850 3613 656 3853 
Q 463 4094 144 4313 
z
" transform="scale(0.015625)"/>
      </defs>
      <use xlink:href="#TimesNewRomanPSMT-44"/>
      <use xlink:href="#TimesNewRomanPSMT-65" x="72.216797"/>
      <use xlink:href="#TimesNewRomanPSMT-6d" x="116.601562"/>
      <use xlink:href="#TimesNewRomanPSMT-61" x="194.384766"/>
      <use xlink:href="#TimesNewRomanPSMT-6e" x="238.769531"/>
      <use xlink:href="#TimesNewRomanPSMT-64" x="288.769531"/>
      <use xlink:href="#TimesNewRomanPSMT-20" x="338.769531"/>
      <use xlink:href="#TimesNewRomanPSMT-28" x="363.769531"/>
      <use xlink:href="#TimesNewRomanPSMT-4d" x="397.070312"/>
      <use xlink:href="#TimesNewRomanPSMT-57" x="485.986328"/>
      <use xlink:href="#TimesNewRomanPSMT-29" x="580.371094"/>
     </g>
    </g>
   </g>
   <g id="line2d_23">
    <path d="M 91.156037 170.026023 
L 96.045413 162.733101 
L 100.934788 157.749264 
L 105.824164 138.700811 
L 110.71354 111.224327 
L 115.602915 105.637727 
L 120.492291 110.537845 
L 125.381667 105.419353 
L 130.271042 114.572448 
L 135.160418 120.42294 
L 140.049794 118.157568 
L 144.939169 121.74687 
L 149.828545 120.396332 
L 154.717921 114.029648 
L 159.607297 103.364753 
L 164.496672 90.432586 
L 169.386048 101.309108 
L 174.275424 102.933041 
L 179.164799 99.672156 
L 184.054175 105.098824 
L 188.943551 119.869877 
L 193.832926 148.897598 
L 198.722302 136.69268 
L 203.611678 127.853462 
L 208.501053 140.082042 
L 213.390429 154.753507 
L 218.279805 153.453239 
L 223.16918 130.608989 
L 228.058556 82.272724 
L 232.947932 63.179798 
L 237.837307 64.400147 
L 242.726683 65.854741 
L 247.616059 80.618477 
L 252.505435 95.830175 
L 257.39481 109.275113 
L 262.284186 107.715324 
L 272.062937 105.183589 
L 276.952313 97.490979 
L 281.841689 83.386072 
L 286.731064 84.727392 
L 291.62044 90.846433 
L 296.509816 95.284905 
L 301.399191 93.466544 
L 306.288567 102.640925 
L 311.177943 137.611315 
L 320.956694 143.148785 
L 325.84607 143.407927 
L 330.735445 142.459452 
L 335.624821 131.92142 
L 340.514197 112.11626 
L 345.403573 73.129322 
L 350.292948 55.50876 
L 355.182324 52.304702 
L 360.0717 32.571477 
L 364.961075 43.159304 
L 369.850451 108.776311 
L 374.739827 136.330053 
L 379.629202 134.916037 
L 384.518578 134.353946 
L 389.407954 137.536813 
L 394.297329 113.516782 
L 399.186705 83.519206 
L 404.076081 78.792514 
L 408.965456 88.669627 
L 413.854832 100.00922 
L 418.744208 108.588061 
L 423.633583 121.657258 
L 428.522959 155.102924 
L 433.412335 158.540086 
L 438.301711 154.410931 
L 443.191086 146.873217 
L 448.080462 143.037698 
L 452.969838 132.756811 
L 457.859213 110.662046 
L 462.748589 70.602433 
L 467.637965 57.260506 
L 472.52734 57.187049 
L 477.416716 63.750726 
L 487.195467 103.105612 
L 492.084843 118.277303 
L 496.974219 116.926671 
L 501.863594 109.110525 
L 506.75297 100.055119 
L 511.642346 98.148002 
L 516.531721 84.645858 
L 521.421097 81.306955 
L 526.310473 88.509695 
L 531.199849 92.624121 
L 536.089224 96.990657 
L 540.9786 106.364691 
L 545.867976 137.284514 
L 550.757351 138.393395 
L 555.646727 137.366998 
L 560.536103 131.053435 
L 565.425478 130.308605 
L 570.314854 125.495913 
L 575.20423 113.388779 
L 580.093605 91.530349 
L 584.982981 74.034084 
L 589.872357 69.026774 
L 594.761732 68.823605 
L 599.651108 71.303265 
L 604.540484 83.785569 
L 609.429859 101.187377 
L 614.319235 107.854445 
L 619.208611 105.282038 
L 628.987362 89.117684 
L 633.876738 82.079722 
L 638.766114 79.585998 
L 643.655489 90.373099 
L 648.544865 99.589197 
L 653.434241 95.537489 
L 658.323616 111.87831 
L 663.212992 153.30433 
L 668.102368 150.634234 
L 672.991743 148.535351 
L 677.881119 146.214863 
L 682.770495 141.02358 
L 687.65987 141.838159 
L 692.549246 133.553335 
L 697.438622 107.1405 
L 702.327998 100.159745 
L 707.217373 103.427092 
L 712.106749 100.515339 
L 716.996125 103.84588 
L 721.8855 96.008258 
L 726.774876 101.374582 
L 731.664252 108.200632 
L 736.553627 109.506506 
L 741.443003 111.842294 
L 746.332379 110.688844 
L 751.221754 107.648044 
L 756.11113 106.0702 
L 761.000506 100.483315 
L 765.889881 98.311165 
L 770.779257 110.441582 
L 775.668633 129.212933 
L 780.558008 158.780507 
L 785.447384 161.653678 
L 790.33676 165.130086 
L 795.226136 153.674369 
L 800.115511 147.703761 
L 805.004887 132.792732 
L 809.894263 121.604233 
L 814.783638 79.621538 
L 819.673014 58.83683 
L 824.56239 57.033484 
L 829.451765 65.856261 
L 834.341141 90.32815 
L 839.230517 95.23606 
L 844.119892 97.944072 
L 849.009268 93.699553 
L 853.898644 102.211969 
L 858.788019 103.680056 
L 863.677395 100.019578 
L 868.566771 102.335695 
L 873.456146 103.005642 
L 878.345522 114.743878 
L 883.234898 123.418507 
L 888.124274 123.133803 
L 893.013649 125.794681 
L 897.903025 164.740187 
L 902.792401 166.935713 
L 902.792401 166.935713 
" clip-path="url(#pd30e562661)" style="fill: none; stroke: #808080; stroke-width: 1.5; stroke-linecap: square"/>
   </g>
   <g id="line2d_24">
    <path d="M 91.156037 139.082556 
L 96.045413 137.418751 
L 100.934788 138.516435 
L 105.824164 138.888457 
L 115.602915 137.003351 
L 120.492291 136.691617 
L 125.381667 136.576923 
L 130.271042 137.223182 
L 135.160418 139.02962 
L 140.049794 142.006529 
L 144.939169 142.765277 
L 149.828545 142.37561 
L 154.717921 140.3464 
L 159.607297 137.795184 
L 164.496672 132.879497 
L 169.386048 129.680551 
L 174.275424 127.400631 
L 179.164799 126.427198 
L 184.054175 125.086155 
L 188.943551 120.097682 
L 193.832926 120.396181 
L 198.722302 116.077494 
L 203.611678 110.12441 
L 208.501053 110.217783 
L 213.390429 111.856591 
L 218.279805 114.471036 
L 223.16918 116.326734 
L 228.058556 116.262034 
L 232.947932 116.415695 
L 237.837307 118.847806 
L 242.726683 118.144935 
L 247.616059 121.075526 
L 252.505435 125.691977 
L 257.39481 132.715543 
L 262.284186 134.047763 
L 267.173562 136.131379 
L 272.062937 135.568935 
L 276.952313 133.070654 
L 281.841689 127.593994 
L 286.731064 121.891621 
L 291.62044 118.231691 
L 296.509816 116.726694 
L 301.399191 114.725423 
L 306.288567 115.158468 
L 316.067318 114.843058 
L 320.956694 115.359918 
L 325.84607 113.845363 
L 335.624821 111.942612 
L 340.514197 103.808863 
L 345.403573 101.210592 
L 350.292948 95.994935 
L 355.182324 89.252224 
L 360.0717 83.702042 
L 364.961075 94.884016 
L 369.850451 121.462987 
L 374.739827 140.742684 
L 379.629202 148.805117 
L 384.518578 152.904708 
L 389.407954 153.12748 
L 394.297329 149.66606 
L 399.186705 144.054119 
L 404.076081 136.920271 
L 408.965456 132.05752 
L 413.854832 129.403373 
L 418.744208 127.979985 
L 423.633583 127.51312 
L 428.522959 127.225648 
L 433.412335 125.410388 
L 438.301711 123.883334 
L 443.191086 121.870299 
L 448.080462 119.066902 
L 452.969838 116.606853 
L 462.748589 112.899869 
L 467.637965 109.630342 
L 472.52734 109.617843 
L 477.416716 109.094366 
L 482.306092 116.057643 
L 487.195467 124.53621 
L 492.084843 131.783283 
L 496.974219 136.91733 
L 501.863594 138.051776 
L 506.75297 136.723232 
L 511.642346 135.005021 
L 516.531721 128.808579 
L 526.310473 120.518228 
L 531.199849 117.029605 
L 536.089224 114.74895 
L 540.9786 112.208762 
L 545.867976 110.159701 
L 550.757351 107.038688 
L 555.646727 104.324253 
L 565.425478 101.334845 
L 570.314854 97.424205 
L 575.20423 97.825635 
L 580.093605 96.611786 
L 584.982981 93.506213 
L 589.872357 94.817111 
L 594.761732 94.766381 
L 599.651108 97.177906 
L 604.540484 102.191377 
L 614.319235 115.201846 
L 619.208611 113.804191 
L 624.097987 110.968444 
L 628.987362 108.759105 
L 633.876738 107.418797 
L 638.766114 107.62613 
L 643.655489 108.723079 
L 648.544865 110.305275 
L 653.434241 110.979472 
L 658.323616 107.56143 
L 663.212992 107.065891 
L 668.102368 106.808564 
L 672.991743 107.240139 
L 677.881119 107.273224 
L 682.770495 106.593144 
L 687.65987 106.776214 
L 697.438622 108.515747 
L 702.327998 111.386049 
L 707.217373 112.893252 
L 712.106749 115.101121 
L 716.996125 118.06259 
L 721.8855 118.716202 
L 731.664252 123.512048 
L 736.553627 124.912643 
L 741.443003 125.623602 
L 746.332379 127.312404 
L 751.221754 128.835782 
L 756.11113 130.161385 
L 761.000506 132.639815 
L 765.889881 134.239656 
L 770.779257 136.890862 
L 775.668633 138.785526 
L 780.558008 140.808854 
L 785.447384 141.065446 
L 790.33676 139.567066 
L 795.226136 137.634906 
L 800.115511 132.081047 
L 805.004887 129.065171 
L 809.894263 126.954352 
L 814.783638 126.9992 
L 819.673014 129.401902 
L 824.56239 125.064099 
L 829.451765 125.349365 
L 834.341141 127.769712 
L 844.119892 137.214359 
L 849.009268 140.480946 
L 853.898644 141.219843 
L 858.788019 142.945406 
L 863.677395 146.519315 
L 868.566771 145.840706 
L 873.456146 142.746161 
L 878.345522 144.116613 
L 883.234898 148.663219 
L 888.124274 148.708067 
L 893.013649 145.38928 
L 897.903025 144.553334 
L 902.792401 151.987153 
L 902.792401 151.987153 
" clip-path="url(#pd30e562661)" style="fill: none; stroke: #0000ff; stroke-width: 1.5; stroke-linecap: square"/>
   </g>
   <g id="patch_3">
    <path d="M 50.574219 176.89875 
L 50.574219 25.69875 
" style="fill: none; stroke: #000000; stroke-width: 0.8; stroke-linejoin: miter; stroke-linecap: square"/>
   </g>
   <g id="patch_4">
    <path d="M 943.374219 176.89875 
L 943.374219 25.69875 
" style="fill: none; stroke: #000000; stroke-width: 0.8; stroke-linejoin: miter; stroke-linecap: square"/>
   </g>
   <g id="patch_5">
    <path d="M 50.574219 176.89875 
L 943.374219 176.89875 
" style="fill: none; stroke: #000000; stroke-width: 0.8; stroke-linejoin: miter; stroke-linecap: square"/>
   </g>
   <g id="patch_6">
    <path d="M 50.574219 25.69875 
L 943.374219 25.69875 
" style="fill: none; stroke: #000000; stroke-width: 0.8; stroke-linejoin: miter; stroke-linecap: square"/>
   </g>
   <g id="text_13">
    <!-- Model 4-1: Winter Week -->
    <g transform="translate(407.650625 19.69875) scale(0.18 -0.18)">
     <defs>
      <path id="TimesNewRomanPSMT-6f" d="M 1600 2947 
Q 2250 2947 2644 2453 
Q 2978 2031 2978 1484 
Q 2978 1100 2793 706 
Q 2609 313 2286 112 
Q 1963 -88 1566 -88 
Q 919 -88 538 428 
Q 216 863 216 1403 
Q 216 1797 411 2186 
Q 606 2575 925 2761 
Q 1244 2947 1600 2947 
z
M 1503 2744 
Q 1338 2744 1170 2645 
Q 1003 2547 900 2300 
Q 797 2053 797 1666 
Q 797 1041 1045 587 
Q 1294 134 1700 134 
Q 2003 134 2200 384 
Q 2397 634 2397 1244 
Q 2397 2006 2069 2444 
Q 1847 2744 1503 2744 
z
" transform="scale(0.015625)"/>
      <path id="TimesNewRomanPSMT-6c" d="M 1184 4444 
L 1184 647 
Q 1184 378 1223 290 
Q 1263 203 1344 158 
Q 1425 113 1647 113 
L 1647 0 
L 244 0 
L 244 113 
Q 441 113 512 153 
Q 584 194 625 287 
Q 666 381 666 647 
L 666 3247 
Q 666 3731 644 3842 
Q 622 3953 573 3993 
Q 525 4034 450 4034 
Q 369 4034 244 3984 
L 191 4094 
L 1044 4444 
L 1184 4444 
z
" transform="scale(0.015625)"/>
      <path id="TimesNewRomanPSMT-2d" d="M 259 1672 
L 1875 1672 
L 1875 1200 
L 259 1200 
L 259 1672 
z
" transform="scale(0.015625)"/>
      <path id="TimesNewRomanPSMT-3a" d="M 903 2950 
Q 1047 2950 1148 2848 
Q 1250 2747 1250 2603 
Q 1250 2459 1148 2357 
Q 1047 2256 903 2256 
Q 759 2256 657 2357 
Q 556 2459 556 2603 
Q 556 2747 657 2848 
Q 759 2950 903 2950 
z
M 897 609 
Q 1044 609 1145 506 
Q 1247 403 1247 259 
Q 1247 116 1144 14 
Q 1041 -88 897 -88 
Q 753 -88 651 14 
Q 550 116 550 259 
Q 550 403 651 506 
Q 753 609 897 609 
z
" transform="scale(0.015625)"/>
      <path id="TimesNewRomanPSMT-69" d="M 928 4444 
Q 1059 4444 1151 4351 
Q 1244 4259 1244 4128 
Q 1244 3997 1151 3903 
Q 1059 3809 928 3809 
Q 797 3809 703 3903 
Q 609 3997 609 4128 
Q 609 4259 701 4351 
Q 794 4444 928 4444 
z
M 1188 2947 
L 1188 647 
Q 1188 378 1227 289 
Q 1266 200 1342 156 
Q 1419 113 1622 113 
L 1622 0 
L 231 0 
L 231 113 
Q 441 113 512 153 
Q 584 194 626 287 
Q 669 381 669 647 
L 669 1750 
Q 669 2216 641 2353 
Q 619 2453 572 2492 
Q 525 2531 444 2531 
Q 356 2531 231 2484 
L 188 2597 
L 1050 2947 
L 1188 2947 
z
" transform="scale(0.015625)"/>
      <path id="TimesNewRomanPSMT-74" d="M 1031 3803 
L 1031 2863 
L 1700 2863 
L 1700 2644 
L 1031 2644 
L 1031 788 
Q 1031 509 1111 412 
Q 1191 316 1316 316 
Q 1419 316 1516 380 
Q 1613 444 1666 569 
L 1788 569 
Q 1678 263 1478 108 
Q 1278 -47 1066 -47 
Q 922 -47 784 33 
Q 647 113 581 261 
Q 516 409 516 719 
L 516 2644 
L 63 2644 
L 63 2747 
Q 234 2816 414 2980 
Q 594 3144 734 3369 
Q 806 3488 934 3803 
L 1031 3803 
z
" transform="scale(0.015625)"/>
      <path id="TimesNewRomanPSMT-72" d="M 1038 2947 
L 1038 2303 
Q 1397 2947 1775 2947 
Q 1947 2947 2059 2842 
Q 2172 2738 2172 2600 
Q 2172 2478 2090 2393 
Q 2009 2309 1897 2309 
Q 1788 2309 1652 2417 
Q 1516 2525 1450 2525 
Q 1394 2525 1328 2463 
Q 1188 2334 1038 2041 
L 1038 669 
Q 1038 431 1097 309 
Q 1138 225 1241 169 
Q 1344 113 1538 113 
L 1538 0 
L 72 0 
L 72 113 
Q 291 113 397 181 
Q 475 231 506 341 
Q 522 394 522 644 
L 522 1753 
Q 522 2253 501 2348 
Q 481 2444 426 2487 
Q 372 2531 291 2531 
Q 194 2531 72 2484 
L 41 2597 
L 906 2947 
L 1038 2947 
z
" transform="scale(0.015625)"/>
      <path id="TimesNewRomanPSMT-6b" d="M 1047 4444 
L 1047 1597 
L 1775 2259 
Q 2006 2472 2044 2528 
Q 2069 2566 2069 2603 
Q 2069 2666 2017 2711 
Q 1966 2756 1847 2763 
L 1847 2863 
L 3091 2863 
L 3091 2763 
Q 2834 2756 2664 2684 
Q 2494 2613 2291 2428 
L 1556 1750 
L 2291 822 
Q 2597 438 2703 334 
Q 2853 188 2966 144 
Q 3044 113 3238 113 
L 3238 0 
L 1847 0 
L 1847 113 
Q 1966 116 2008 148 
Q 2050 181 2050 241 
Q 2050 313 1925 472 
L 1047 1594 
L 1047 644 
Q 1047 366 1086 278 
Q 1125 191 1197 153 
Q 1269 116 1509 113 
L 1509 0 
L 53 0 
L 53 113 
Q 272 113 381 166 
Q 447 200 481 272 
Q 528 375 528 628 
L 528 3234 
Q 528 3731 506 3842 
Q 484 3953 434 3995 
Q 384 4038 303 4038 
Q 238 4038 106 3984 
L 53 4094 
L 903 4444 
L 1047 4444 
z
" transform="scale(0.015625)"/>
     </defs>
     <use xlink:href="#TimesNewRomanPSMT-4d"/>
     <use xlink:href="#TimesNewRomanPSMT-6f" x="88.916016"/>
     <use xlink:href="#TimesNewRomanPSMT-64" x="138.916016"/>
     <use xlink:href="#TimesNewRomanPSMT-65" x="188.916016"/>
     <use xlink:href="#TimesNewRomanPSMT-6c" x="233.300781"/>
     <use xlink:href="#TimesNewRomanPSMT-20" x="261.083984"/>
     <use xlink:href="#TimesNewRomanPSMT-34" x="286.083984"/>
     <use xlink:href="#TimesNewRomanPSMT-2d" x="336.083984"/>
     <use xlink:href="#TimesNewRomanPSMT-31" x="369.384766"/>
     <use xlink:href="#TimesNewRomanPSMT-3a" x="419.384766"/>
     <use xlink:href="#TimesNewRomanPSMT-20" x="447.167969"/>
     <use xlink:href="#TimesNewRomanPSMT-57" x="470.417969"/>
     <use xlink:href="#TimesNewRomanPSMT-69" x="560.802734"/>
     <use xlink:href="#TimesNewRomanPSMT-6e" x="588.585938"/>
     <use xlink:href="#TimesNewRomanPSMT-74" x="638.585938"/>
     <use xlink:href="#TimesNewRomanPSMT-65" x="666.369141"/>
     <use xlink:href="#TimesNewRomanPSMT-72" x="710.753906"/>
     <use xlink:href="#TimesNewRomanPSMT-20" x="744.054688"/>
     <use xlink:href="#TimesNewRomanPSMT-57" x="767.304688"/>
     <use xlink:href="#TimesNewRomanPSMT-65" x="853.689453"/>
     <use xlink:href="#TimesNewRomanPSMT-65" x="898.074219"/>
     <use xlink:href="#TimesNewRomanPSMT-6b" x="942.458984"/>
    </g>
   </g>
   <g id="legend_1">
    <g id="patch_7">
     <path d="M 61.074219 80.115937 
L 165.720313 80.115937 
Q 168.720313 80.115937 168.720313 77.115937 
L 168.720313 36.19875 
Q 168.720313 33.19875 165.720313 33.19875 
L 61.074219 33.19875 
Q 58.074219 33.19875 58.074219 36.19875 
L 58.074219 77.115937 
Q 58.074219 80.115937 61.074219 80.115937 
z
" style="fill: #ffffff; opacity: 0.8; stroke: #cccccc; stroke-linejoin: miter"/>
    </g>
    <g id="line2d_25">
     <path d="M 64.074219 44.44875 
L 79.074219 44.44875 
L 94.074219 44.44875 
" style="fill: none; stroke: #808080; stroke-width: 1.5; stroke-linecap: square"/>
    </g>
    <g id="text_14">
     <!-- Actual -->
     <g transform="translate(106.074219 49.69875) scale(0.15 -0.15)">
      <defs>
       <path id="TimesNewRomanPSMT-41" d="M 2928 1419 
L 1288 1419 
L 1000 750 
Q 894 503 894 381 
Q 894 284 986 211 
Q 1078 138 1384 116 
L 1384 0 
L 50 0 
L 50 116 
Q 316 163 394 238 
Q 553 388 747 847 
L 2238 4334 
L 2347 4334 
L 3822 809 
Q 4000 384 4145 257 
Q 4291 131 4550 116 
L 4550 0 
L 2878 0 
L 2878 116 
Q 3131 128 3220 200 
Q 3309 272 3309 375 
Q 3309 513 3184 809 
L 2928 1419 
z
M 2841 1650 
L 2122 3363 
L 1384 1650 
L 2841 1650 
z
" transform="scale(0.015625)"/>
       <path id="TimesNewRomanPSMT-63" d="M 2631 1088 
Q 2516 522 2178 217 
Q 1841 -88 1431 -88 
Q 944 -88 581 321 
Q 219 731 219 1428 
Q 219 2103 620 2525 
Q 1022 2947 1584 2947 
Q 2006 2947 2278 2723 
Q 2550 2500 2550 2259 
Q 2550 2141 2473 2067 
Q 2397 1994 2259 1994 
Q 2075 1994 1981 2113 
Q 1928 2178 1911 2362 
Q 1894 2547 1784 2644 
Q 1675 2738 1481 2738 
Q 1169 2738 978 2506 
Q 725 2200 725 1697 
Q 725 1184 976 792 
Q 1228 400 1656 400 
Q 1963 400 2206 609 
Q 2378 753 2541 1131 
L 2631 1088 
z
" transform="scale(0.015625)"/>
       <path id="TimesNewRomanPSMT-75" d="M 2709 2863 
L 2709 1128 
Q 2709 631 2732 520 
Q 2756 409 2807 365 
Q 2859 322 2928 322 
Q 3025 322 3147 375 
L 3191 266 
L 2334 -88 
L 2194 -88 
L 2194 519 
Q 1825 119 1631 15 
Q 1438 -88 1222 -88 
Q 981 -88 804 51 
Q 628 191 559 409 
Q 491 628 491 1028 
L 491 2306 
Q 491 2509 447 2587 
Q 403 2666 317 2708 
Q 231 2750 6 2747 
L 6 2863 
L 1009 2863 
L 1009 947 
Q 1009 547 1148 422 
Q 1288 297 1484 297 
Q 1619 297 1789 381 
Q 1959 466 2194 703 
L 2194 2325 
Q 2194 2569 2105 2655 
Q 2016 2741 1734 2747 
L 1734 2863 
L 2709 2863 
z
" transform="scale(0.015625)"/>
      </defs>
      <use xlink:href="#TimesNewRomanPSMT-41"/>
      <use xlink:href="#TimesNewRomanPSMT-63" x="72.216797"/>
      <use xlink:href="#TimesNewRomanPSMT-74" x="116.601562"/>
      <use xlink:href="#TimesNewRomanPSMT-75" x="144.384766"/>
      <use xlink:href="#TimesNewRomanPSMT-61" x="194.384766"/>
      <use xlink:href="#TimesNewRomanPSMT-6c" x="238.769531"/>
     </g>
    </g>
    <g id="line2d_26">
     <path d="M 64.074219 65.657344 
L 79.074219 65.657344 
L 94.074219 65.657344 
" style="fill: none; stroke: #0000ff; stroke-width: 1.5; stroke-linecap: square"/>
    </g>
    <g id="text_15">
     <!-- Predicted -->
     <g transform="translate(106.074219 70.907344) scale(0.15 -0.15)">
      <defs>
       <path id="TimesNewRomanPSMT-50" d="M 1313 1984 
L 1313 750 
Q 1313 350 1400 253 
Q 1519 116 1759 116 
L 1922 116 
L 1922 0 
L 106 0 
L 106 116 
L 266 116 
Q 534 116 650 291 
Q 713 388 713 750 
L 713 3488 
Q 713 3888 628 3984 
Q 506 4122 266 4122 
L 106 4122 
L 106 4238 
L 1659 4238 
Q 2228 4238 2556 4120 
Q 2884 4003 3109 3725 
Q 3334 3447 3334 3066 
Q 3334 2547 2992 2222 
Q 2650 1897 2025 1897 
Q 1872 1897 1694 1919 
Q 1516 1941 1313 1984 
z
M 1313 2163 
Q 1478 2131 1606 2115 
Q 1734 2100 1825 2100 
Q 2150 2100 2386 2351 
Q 2622 2603 2622 3003 
Q 2622 3278 2509 3514 
Q 2397 3750 2190 3867 
Q 1984 3984 1722 3984 
Q 1563 3984 1313 3925 
L 1313 2163 
z
" transform="scale(0.015625)"/>
      </defs>
      <use xlink:href="#TimesNewRomanPSMT-50"/>
      <use xlink:href="#TimesNewRomanPSMT-72" x="55.615234"/>
      <use xlink:href="#TimesNewRomanPSMT-65" x="88.916016"/>
      <use xlink:href="#TimesNewRomanPSMT-64" x="133.300781"/>
      <use xlink:href="#TimesNewRomanPSMT-69" x="183.300781"/>
      <use xlink:href="#TimesNewRomanPSMT-63" x="211.083984"/>
      <use xlink:href="#TimesNewRomanPSMT-74" x="255.46875"/>
      <use xlink:href="#TimesNewRomanPSMT-65" x="283.251953"/>
      <use xlink:href="#TimesNewRomanPSMT-64" x="327.636719"/>
     </g>
    </g>
   </g>
  </g>
  <g id="axes_2">
   <g id="patch_8">
    <path d="M 50.574219 358.33875 
L 943.374219 358.33875 
L 943.374219 207.13875 
L 50.574219 207.13875 
z
" style="fill: #ffffff"/>
   </g>
   <g id="matplotlib.axis_3">
    <g id="xtick_8">
     <g id="line2d_27">
      <path d="M 140.049794 358.33875 
L 140.049794 207.13875 
" clip-path="url(#pfd808e1144)" style="fill: none; stroke: #b0b0b0; stroke-opacity: 0.5; stroke-width: 0.8; stroke-linecap: square"/>
     </g>
     <g id="line2d_28"/>
     <g id="text_16">
      <!-- Aug 01 -->
      <g transform="translate(117.758388 372.22625) scale(0.15 -0.15)">
       <defs>
        <path id="TimesNewRomanPSMT-67" d="M 966 1044 
Q 703 1172 562 1401 
Q 422 1631 422 1909 
Q 422 2334 742 2640 
Q 1063 2947 1563 2947 
Q 1972 2947 2272 2747 
L 2878 2747 
Q 3013 2747 3034 2739 
Q 3056 2731 3066 2713 
Q 3084 2684 3084 2613 
Q 3084 2531 3069 2500 
Q 3059 2484 3036 2475 
Q 3013 2466 2878 2466 
L 2506 2466 
Q 2681 2241 2681 1891 
Q 2681 1491 2375 1206 
Q 2069 922 1553 922 
Q 1341 922 1119 984 
Q 981 866 932 777 
Q 884 688 884 625 
Q 884 572 936 522 
Q 988 472 1138 450 
Q 1225 438 1575 428 
Q 2219 413 2409 384 
Q 2700 344 2873 169 
Q 3047 -6 3047 -263 
Q 3047 -616 2716 -925 
Q 2228 -1381 1444 -1381 
Q 841 -1381 425 -1109 
Q 191 -953 191 -784 
Q 191 -709 225 -634 
Q 278 -519 444 -313 
Q 466 -284 763 25 
Q 600 122 533 198 
Q 466 275 466 372 
Q 466 481 555 628 
Q 644 775 966 1044 
z
M 1509 2797 
Q 1278 2797 1122 2612 
Q 966 2428 966 2047 
Q 966 1553 1178 1281 
Q 1341 1075 1591 1075 
Q 1828 1075 1981 1253 
Q 2134 1431 2134 1813 
Q 2134 2309 1919 2591 
Q 1759 2797 1509 2797 
z
M 934 0 
Q 788 -159 713 -296 
Q 638 -434 638 -550 
Q 638 -700 819 -813 
Q 1131 -1006 1722 -1006 
Q 2284 -1006 2551 -807 
Q 2819 -609 2819 -384 
Q 2819 -222 2659 -153 
Q 2497 -84 2016 -72 
Q 1313 -53 934 0 
z
" transform="scale(0.015625)"/>
       </defs>
       <use xlink:href="#TimesNewRomanPSMT-41"/>
       <use xlink:href="#TimesNewRomanPSMT-75" x="72.216797"/>
       <use xlink:href="#TimesNewRomanPSMT-67" x="122.216797"/>
       <use xlink:href="#TimesNewRomanPSMT-20" x="172.216797"/>
       <use xlink:href="#TimesNewRomanPSMT-30" x="197.216797"/>
       <use xlink:href="#TimesNewRomanPSMT-31" x="247.216797"/>
      </g>
     </g>
    </g>
    <g id="xtick_9">
     <g id="line2d_29">
      <path d="M 257.39481 358.33875 
L 257.39481 207.13875 
" clip-path="url(#pfd808e1144)" style="fill: none; stroke: #b0b0b0; stroke-opacity: 0.5; stroke-width: 0.8; stroke-linecap: square"/>
     </g>
     <g id="line2d_30"/>
     <g id="text_17">
      <!-- Aug 02 -->
      <g transform="translate(235.103404 372.22625) scale(0.15 -0.15)">
       <use xlink:href="#TimesNewRomanPSMT-41"/>
       <use xlink:href="#TimesNewRomanPSMT-75" x="72.216797"/>
       <use xlink:href="#TimesNewRomanPSMT-67" x="122.216797"/>
       <use xlink:href="#TimesNewRomanPSMT-20" x="172.216797"/>
       <use xlink:href="#TimesNewRomanPSMT-30" x="197.216797"/>
       <use xlink:href="#TimesNewRomanPSMT-32" x="247.216797"/>
      </g>
     </g>
    </g>
    <g id="xtick_10">
     <g id="line2d_31">
      <path d="M 374.739827 358.33875 
L 374.739827 207.13875 
" clip-path="url(#pfd808e1144)" style="fill: none; stroke: #b0b0b0; stroke-opacity: 0.5; stroke-width: 0.8; stroke-linecap: square"/>
     </g>
     <g id="line2d_32"/>
     <g id="text_18">
      <!-- Aug 03 -->
      <g transform="translate(352.44842 372.22625) scale(0.15 -0.15)">
       <use xlink:href="#TimesNewRomanPSMT-41"/>
       <use xlink:href="#TimesNewRomanPSMT-75" x="72.216797"/>
       <use xlink:href="#TimesNewRomanPSMT-67" x="122.216797"/>
       <use xlink:href="#TimesNewRomanPSMT-20" x="172.216797"/>
       <use xlink:href="#TimesNewRomanPSMT-30" x="197.216797"/>
       <use xlink:href="#TimesNewRomanPSMT-33" x="247.216797"/>
      </g>
     </g>
    </g>
    <g id="xtick_11">
     <g id="line2d_33">
      <path d="M 492.084843 358.33875 
L 492.084843 207.13875 
" clip-path="url(#pfd808e1144)" style="fill: none; stroke: #b0b0b0; stroke-opacity: 0.5; stroke-width: 0.8; stroke-linecap: square"/>
     </g>
     <g id="line2d_34"/>
     <g id="text_19">
      <!-- Aug 04 -->
      <g transform="translate(469.793437 372.22625) scale(0.15 -0.15)">
       <use xlink:href="#TimesNewRomanPSMT-41"/>
       <use xlink:href="#TimesNewRomanPSMT-75" x="72.216797"/>
       <use xlink:href="#TimesNewRomanPSMT-67" x="122.216797"/>
       <use xlink:href="#TimesNewRomanPSMT-20" x="172.216797"/>
       <use xlink:href="#TimesNewRomanPSMT-30" x="197.216797"/>
       <use xlink:href="#TimesNewRomanPSMT-34" x="247.216797"/>
      </g>
     </g>
    </g>
    <g id="xtick_12">
     <g id="line2d_35">
      <path d="M 609.429859 358.33875 
L 609.429859 207.13875 
" clip-path="url(#pfd808e1144)" style="fill: none; stroke: #b0b0b0; stroke-opacity: 0.5; stroke-width: 0.8; stroke-linecap: square"/>
     </g>
     <g id="line2d_36"/>
     <g id="text_20">
      <!-- Aug 05 -->
      <g transform="translate(587.138453 372.22625) scale(0.15 -0.15)">
       <use xlink:href="#TimesNewRomanPSMT-41"/>
       <use xlink:href="#TimesNewRomanPSMT-75" x="72.216797"/>
       <use xlink:href="#TimesNewRomanPSMT-67" x="122.216797"/>
       <use xlink:href="#TimesNewRomanPSMT-20" x="172.216797"/>
       <use xlink:href="#TimesNewRomanPSMT-30" x="197.216797"/>
       <use xlink:href="#TimesNewRomanPSMT-35" x="247.216797"/>
      </g>
     </g>
    </g>
    <g id="xtick_13">
     <g id="line2d_37">
      <path d="M 726.774876 358.33875 
L 726.774876 207.13875 
" clip-path="url(#pfd808e1144)" style="fill: none; stroke: #b0b0b0; stroke-opacity: 0.5; stroke-width: 0.8; stroke-linecap: square"/>
     </g>
     <g id="line2d_38"/>
     <g id="text_21">
      <!-- Aug 06 -->
      <g transform="translate(704.48347 372.22625) scale(0.15 -0.15)">
       <use xlink:href="#TimesNewRomanPSMT-41"/>
       <use xlink:href="#TimesNewRomanPSMT-75" x="72.216797"/>
       <use xlink:href="#TimesNewRomanPSMT-67" x="122.216797"/>
       <use xlink:href="#TimesNewRomanPSMT-20" x="172.216797"/>
       <use xlink:href="#TimesNewRomanPSMT-30" x="197.216797"/>
       <use xlink:href="#TimesNewRomanPSMT-36" x="247.216797"/>
      </g>
     </g>
    </g>
    <g id="xtick_14">
     <g id="line2d_39">
      <path d="M 844.119892 358.33875 
L 844.119892 207.13875 
" clip-path="url(#pfd808e1144)" style="fill: none; stroke: #b0b0b0; stroke-opacity: 0.5; stroke-width: 0.8; stroke-linecap: square"/>
     </g>
     <g id="line2d_40"/>
     <g id="text_22">
      <!-- Aug 07 -->
      <g transform="translate(821.828486 372.22625) scale(0.15 -0.15)">
       <use xlink:href="#TimesNewRomanPSMT-41"/>
       <use xlink:href="#TimesNewRomanPSMT-75" x="72.216797"/>
       <use xlink:href="#TimesNewRomanPSMT-67" x="122.216797"/>
       <use xlink:href="#TimesNewRomanPSMT-20" x="172.216797"/>
       <use xlink:href="#TimesNewRomanPSMT-30" x="197.216797"/>
       <use xlink:href="#TimesNewRomanPSMT-37" x="247.216797"/>
      </g>
     </g>
    </g>
   </g>
   <g id="matplotlib.axis_4">
    <g id="ytick_5">
     <g id="line2d_41">
      <path d="M 50.574219 353.609413 
L 943.374219 353.609413 
" clip-path="url(#pfd808e1144)" style="fill: none; stroke: #b0b0b0; stroke-opacity: 0.5; stroke-width: 0.8; stroke-linecap: square"/>
     </g>
     <g id="line2d_42">
      <g>
       <use xlink:href="#m4ae0d56f1d" x="50.574219" y="353.609413" style="stroke: #000000; stroke-width: 0.8"/>
      </g>
     </g>
     <g id="text_23">
      <!-- 3.0 -->
      <g transform="translate(24.824219 358.817226) scale(0.15 -0.15)">
       <defs>
        <path id="TimesNewRomanPSMT-2e" d="M 800 606 
Q 947 606 1047 504 
Q 1147 403 1147 259 
Q 1147 116 1045 14 
Q 944 -88 800 -88 
Q 656 -88 554 14 
Q 453 116 453 259 
Q 453 406 554 506 
Q 656 606 800 606 
z
" transform="scale(0.015625)"/>
       </defs>
       <use xlink:href="#TimesNewRomanPSMT-33"/>
       <use xlink:href="#TimesNewRomanPSMT-2e" x="50"/>
       <use xlink:href="#TimesNewRomanPSMT-30" x="75"/>
      </g>
     </g>
    </g>
    <g id="ytick_6">
     <g id="line2d_43">
      <path d="M 50.574219 321.505911 
L 943.374219 321.505911 
" clip-path="url(#pfd808e1144)" style="fill: none; stroke: #b0b0b0; stroke-opacity: 0.5; stroke-width: 0.8; stroke-linecap: square"/>
     </g>
     <g id="line2d_44">
      <g>
       <use xlink:href="#m4ae0d56f1d" x="50.574219" y="321.505911" style="stroke: #000000; stroke-width: 0.8"/>
      </g>
     </g>
     <g id="text_24">
      <!-- 3.5 -->
      <g transform="translate(24.824219 326.713724) scale(0.15 -0.15)">
       <use xlink:href="#TimesNewRomanPSMT-33"/>
       <use xlink:href="#TimesNewRomanPSMT-2e" x="50"/>
       <use xlink:href="#TimesNewRomanPSMT-35" x="75"/>
      </g>
     </g>
    </g>
    <g id="ytick_7">
     <g id="line2d_45">
      <path d="M 50.574219 289.40241 
L 943.374219 289.40241 
" clip-path="url(#pfd808e1144)" style="fill: none; stroke: #b0b0b0; stroke-opacity: 0.5; stroke-width: 0.8; stroke-linecap: square"/>
     </g>
     <g id="line2d_46">
      <g>
       <use xlink:href="#m4ae0d56f1d" x="50.574219" y="289.40241" style="stroke: #000000; stroke-width: 0.8"/>
      </g>
     </g>
     <g id="text_25">
      <!-- 4.0 -->
      <g transform="translate(24.824219 294.610222) scale(0.15 -0.15)">
       <use xlink:href="#TimesNewRomanPSMT-34"/>
       <use xlink:href="#TimesNewRomanPSMT-2e" x="50"/>
       <use xlink:href="#TimesNewRomanPSMT-30" x="75"/>
      </g>
     </g>
    </g>
    <g id="ytick_8">
     <g id="line2d_47">
      <path d="M 50.574219 257.298908 
L 943.374219 257.298908 
" clip-path="url(#pfd808e1144)" style="fill: none; stroke: #b0b0b0; stroke-opacity: 0.5; stroke-width: 0.8; stroke-linecap: square"/>
     </g>
     <g id="line2d_48">
      <g>
       <use xlink:href="#m4ae0d56f1d" x="50.574219" y="257.298908" style="stroke: #000000; stroke-width: 0.8"/>
      </g>
     </g>
     <g id="text_26">
      <!-- 4.5 -->
      <g transform="translate(24.824219 262.50672) scale(0.15 -0.15)">
       <use xlink:href="#TimesNewRomanPSMT-34"/>
       <use xlink:href="#TimesNewRomanPSMT-2e" x="50"/>
       <use xlink:href="#TimesNewRomanPSMT-35" x="75"/>
      </g>
     </g>
    </g>
    <g id="ytick_9">
     <g id="line2d_49">
      <path d="M 50.574219 225.195406 
L 943.374219 225.195406 
" clip-path="url(#pfd808e1144)" style="fill: none; stroke: #b0b0b0; stroke-opacity: 0.5; stroke-width: 0.8; stroke-linecap: square"/>
     </g>
     <g id="line2d_50">
      <g>
       <use xlink:href="#m4ae0d56f1d" x="50.574219" y="225.195406" style="stroke: #000000; stroke-width: 0.8"/>
      </g>
     </g>
     <g id="text_27">
      <!-- 5.0 -->
      <g transform="translate(24.824219 230.403219) scale(0.15 -0.15)">
       <use xlink:href="#TimesNewRomanPSMT-35"/>
       <use xlink:href="#TimesNewRomanPSMT-2e" x="50"/>
       <use xlink:href="#TimesNewRomanPSMT-30" x="75"/>
      </g>
     </g>
    </g>
    <g id="text_28">
     <!-- Demand (MW) -->
     <g transform="translate(17.615625 328.765312) rotate(-90) scale(0.15 -0.15)">
      <use xlink:href="#TimesNewRomanPSMT-44"/>
      <use xlink:href="#TimesNewRomanPSMT-65" x="72.216797"/>
      <use xlink:href="#TimesNewRomanPSMT-6d" x="116.601562"/>
      <use xlink:href="#TimesNewRomanPSMT-61" x="194.384766"/>
      <use xlink:href="#TimesNewRomanPSMT-6e" x="238.769531"/>
      <use xlink:href="#TimesNewRomanPSMT-64" x="288.769531"/>
      <use xlink:href="#TimesNewRomanPSMT-20" x="338.769531"/>
      <use xlink:href="#TimesNewRomanPSMT-28" x="363.769531"/>
      <use xlink:href="#TimesNewRomanPSMT-4d" x="397.070312"/>
      <use xlink:href="#TimesNewRomanPSMT-57" x="485.986328"/>
      <use xlink:href="#TimesNewRomanPSMT-29" x="580.371094"/>
     </g>
    </g>
   </g>
   <g id="line2d_51">
    <path d="M 91.156037 349.099674 
L 96.045413 343.937912 
L 100.934788 337.822677 
L 105.824164 328.659791 
L 110.71354 306.516658 
L 115.602915 292.090596 
L 120.492291 289.78839 
L 125.381667 297.710892 
L 130.271042 292.017786 
L 140.049794 321.450661 
L 144.939169 315.249613 
L 149.828545 312.382257 
L 154.717921 315.525254 
L 159.607297 322.878272 
L 164.496672 316.453591 
L 169.386048 344.312367 
L 174.275424 326.39399 
L 179.164799 332.282126 
L 184.054175 333.761744 
L 188.943551 333.744408 
L 193.832926 345.46347 
L 198.722302 334.647608 
L 203.611678 341.285521 
L 208.501053 344.341838 
L 213.390429 346.681317 
L 218.279805 348.745155 
L 223.16918 335.650489 
L 228.058556 320.804032 
L 232.947932 323.363677 
L 237.837307 313.619172 
L 242.726683 300.327745 
L 247.616059 295.306404 
L 252.505435 294.58003 
L 257.39481 290.984567 
L 262.284186 297.513263 
L 267.173562 310.184932 
L 272.062937 316.418919 
L 276.952313 318.136906 
L 281.841689 320.734689 
L 286.731064 319.709271 
L 291.62044 314.173054 
L 296.509816 314.956636 
L 301.399191 314.181722 
L 306.288567 318.504427 
L 311.177943 326.778847 
L 316.067318 334.235881 
L 320.956694 340.06074 
L 325.84607 344.513464 
L 330.735445 347.570648 
L 335.624821 338.747546 
L 340.514197 338.728477 
L 345.403573 330.147211 
L 350.292948 323.322071 
L 355.182324 320.152203 
L 360.0717 309.594645 
L 364.961075 300.867758 
L 369.850451 309.400483 
L 374.739827 307.353115 
L 379.629202 312.507075 
L 384.518578 320.159137 
L 389.407954 329.756287 
L 394.297329 336.389865 
L 399.186705 327.752258 
L 404.076081 330.417651 
L 408.965456 330.066599 
L 413.854832 317.153961 
L 418.744208 307.894861 
L 423.633583 306.238417 
L 428.522959 312.006935 
L 433.412335 340.979542 
L 438.301711 345.042208 
L 443.191086 347.755275 
L 448.080462 346.554765 
L 452.969838 350.751784 
L 457.859213 328.914629 
L 462.748589 313.637375 
L 467.637965 276.390347 
L 472.52734 268.222542 
L 477.416716 288.63382 
L 482.306092 285.993564 
L 487.195467 301.376566 
L 492.084843 308.72005 
L 496.974219 309.921427 
L 501.863594 303.723846 
L 506.75297 310.516915 
L 511.642346 310.79949 
L 516.531721 303.572157 
L 521.421097 301.887975 
L 526.310473 301.24048 
L 531.199849 304.035892 
L 536.089224 303.342456 
L 540.9786 304.076631 
L 545.867976 314.720002 
L 550.757351 332.579436 
L 555.646727 327.195775 
L 560.536103 327.56503 
L 565.425478 325.946725 
L 570.314854 331.648499 
L 575.20423 315.304221 
L 580.093605 290.851947 
L 584.982981 279.98061 
L 589.872357 251.497741 
L 594.761732 253.221795 
L 599.651108 259.82937 
L 604.540484 262.762603 
L 609.429859 268.251146 
L 614.319235 273.425909 
L 619.208611 296.781688 
L 624.097987 307.214428 
L 628.987362 307.611419 
L 633.876738 302.813712 
L 638.766114 298.178961 
L 643.655489 300.592117 
L 648.544865 319.992713 
L 653.434241 315.271283 
L 658.323616 306.862509 
L 663.212992 345.449602 
L 668.102368 350.11729 
L 672.991743 351.466023 
L 677.881119 350.70151 
L 682.770495 339.913385 
L 687.65987 330.507797 
L 692.549246 319.695402 
L 697.438622 288.488198 
L 702.327998 214.011477 
L 707.217373 219.65431 
L 712.106749 232.955272 
L 716.996125 295.516168 
L 721.8855 308.752988 
L 726.774876 292.999864 
L 731.664252 323.386213 
L 736.553627 308.747787 
L 741.443003 280.615103 
L 746.332379 294.111961 
L 751.221754 303.231507 
L 756.11113 295.435557 
L 761.000506 301.614068 
L 765.889881 300.381486 
L 770.779257 298.731976 
L 775.668633 318.46282 
L 780.558008 329.710346 
L 785.447384 342.0483 
L 790.33676 349.655289 
L 795.226136 344.126873 
L 800.115511 342.970569 
L 805.004887 340.801849 
L 809.894263 325.319165 
L 814.783638 306.873777 
L 819.673014 262.012826 
L 824.56239 303.59556 
L 829.451765 274.492067 
L 834.341141 265.136753 
L 839.230517 278.727225 
L 844.119892 293.515607 
L 849.009268 290.116905 
L 853.898644 293.828519 
L 858.788019 309.694327 
L 863.677395 311.369841 
L 868.566771 306.866843 
L 873.456146 310.181465 
L 878.345522 306.755893 
L 883.234898 302.382915 
L 888.124274 300.684864 
L 893.013649 300.987376 
L 897.903025 319.506441 
L 902.792401 343.395299 
L 902.792401 343.395299 
" clip-path="url(#pfd808e1144)" style="fill: none; stroke: #808080; stroke-width: 1.5; stroke-linecap: square"/>
   </g>
   <g id="line2d_52">
    <path d="M 91.156037 282.640571 
L 96.045413 280.555592 
L 100.934788 278.659143 
L 105.824164 277.027439 
L 110.71354 275.253112 
L 115.602915 274.732536 
L 120.492291 279.446247 
L 125.381667 290.728223 
L 130.271042 296.877976 
L 135.160418 302.848559 
L 140.049794 307.373739 
L 149.828545 321.575043 
L 154.717921 331.129936 
L 159.607297 335.421571 
L 164.496672 339.374028 
L 169.386048 339.394976 
L 174.275424 333.881235 
L 179.164799 319.749015 
L 184.054175 309.548304 
L 188.943551 302.944384 
L 193.832926 300.541621 
L 198.722302 296.078838 
L 203.611678 296.253552 
L 208.501053 291.128461 
L 213.390429 287.779479 
L 218.279805 285.851386 
L 228.058556 285.455159 
L 232.947932 284.594515 
L 237.837307 283.475811 
L 242.726683 284.931463 
L 247.616059 287.505374 
L 252.505435 288.035756 
L 257.39481 287.774131 
L 262.284186 292.125935 
L 267.173562 301.976772 
L 272.062937 303.255036 
L 276.952313 305.520523 
L 281.841689 309.018368 
L 286.731064 309.742629 
L 291.62044 313.023419 
L 296.509816 309.562567 
L 301.399191 303.589756 
L 306.288567 292.615312 
L 311.177943 287.503146 
L 316.067318 284.787503 
L 320.956694 282.788989 
L 325.84607 281.01065 
L 330.735445 280.239145 
L 335.624821 280.042146 
L 340.514197 281.152382 
L 345.403573 281.334673 
L 350.292948 282.291589 
L 355.182324 284.371665 
L 360.0717 288.243452 
L 364.961075 296.842766 
L 369.850451 301.275242 
L 374.739827 306.57683 
L 379.629202 309.294256 
L 389.407954 319.456191 
L 394.297329 322.521708 
L 399.186705 323.387255 
L 404.076081 325.965623 
L 408.965456 326.573111 
L 413.854832 321.352639 
L 418.744208 307.482936 
L 423.633583 297.186846 
L 428.522959 291.387857 
L 433.412335 288.431537 
L 438.301711 286.593474 
L 443.191086 284.344032 
L 448.080462 281.922104 
L 452.969838 279.670879 
L 457.859213 277.808749 
L 462.748589 276.562575 
L 467.637965 278.394398 
L 472.52734 281.427824 
L 477.416716 284.156839 
L 482.306092 291.597336 
L 487.195467 302.226363 
L 496.974219 321.162326 
L 501.863594 320.752729 
L 511.642346 320.672949 
L 516.531721 317.669829 
L 521.421097 320.269591 
L 526.310473 321.963247 
L 531.199849 318.546519 
L 536.089224 311.291878 
L 540.9786 304.91883 
L 545.867976 296.745604 
L 550.757351 290.127421 
L 555.646727 282.437332 
L 560.536103 277.639384 
L 565.425478 276.103951 
L 570.314854 275.377016 
L 575.20423 273.969945 
L 580.093605 273.388753 
L 589.872357 269.48042 
L 594.761732 271.445952 
L 599.651108 275.100237 
L 604.540484 281.065025 
L 609.429859 285.853169 
L 614.319235 293.37612 
L 619.208611 296.121625 
L 624.097987 300.560341 
L 628.987362 302.195164 
L 633.876738 304.424996 
L 638.766114 304.233791 
L 643.655489 304.535975 
L 648.544865 302.118504 
L 653.434241 295.604615 
L 658.323616 291.738177 
L 663.212992 283.953154 
L 668.102368 278.53613 
L 677.881119 274.606848 
L 682.770495 271.335864 
L 687.65987 268.434365 
L 692.549246 266.931914 
L 697.438622 265.202156 
L 702.327998 265.473587 
L 707.217373 270.205126 
L 712.106749 279.925819 
L 716.996125 286.322935 
L 721.8855 293.787054 
L 726.774876 298.80919 
L 731.664252 304.888077 
L 736.553627 310.786456 
L 741.443003 315.104832 
L 746.332379 316.595695 
L 751.221754 318.508635 
L 756.11113 320.773677 
L 761.000506 319.532405 
L 765.889881 309.103497 
L 770.779257 296.523646 
L 775.668633 288.773388 
L 780.558008 284.147925 
L 785.447384 280.894323 
L 790.33676 278.764328 
L 795.226136 278.634629 
L 800.115511 277.186108 
L 805.004887 275.483984 
L 814.783638 271.430798 
L 819.673014 271.080033 
L 824.56239 278.323532 
L 829.451765 286.554253 
L 834.341141 292.134403 
L 839.230517 298.04749 
L 844.119892 307.258749 
L 849.009268 314.284746 
L 853.898644 319.438808 
L 858.788019 324.189959 
L 863.677395 328.331393 
L 868.566771 330.344169 
L 873.456146 331.807398 
L 878.345522 328.41875 
L 883.234898 322.930859 
L 888.124274 315.717668 
L 893.013649 306.112857 
L 897.903025 300.866536 
L 902.792401 298.377307 
L 902.792401 298.377307 
" clip-path="url(#pfd808e1144)" style="fill: none; stroke: #0000ff; stroke-width: 1.5; stroke-linecap: square"/>
   </g>
   <g id="patch_9">
    <path d="M 50.574219 358.33875 
L 50.574219 207.13875 
" style="fill: none; stroke: #000000; stroke-width: 0.8; stroke-linejoin: miter; stroke-linecap: square"/>
   </g>
   <g id="patch_10">
    <path d="M 943.374219 358.33875 
L 943.374219 207.13875 
" style="fill: none; stroke: #000000; stroke-width: 0.8; stroke-linejoin: miter; stroke-linecap: square"/>
   </g>
   <g id="patch_11">
    <path d="M 50.574219 358.33875 
L 943.374219 358.33875 
" style="fill: none; stroke: #000000; stroke-width: 0.8; stroke-linejoin: miter; stroke-linecap: square"/>
   </g>
   <g id="patch_12">
    <path d="M 50.574219 207.13875 
L 943.374219 207.13875 
" style="fill: none; stroke: #000000; stroke-width: 0.8; stroke-linejoin: miter; stroke-linecap: square"/>
   </g>
   <g id="text_29">
    <!-- Model 4-1: Summer Week -->
    <g transform="translate(401.623437 201.13875) scale(0.18 -0.18)">
     <defs>
      <path id="TimesNewRomanPSMT-53" d="M 2934 4334 
L 2934 2869 
L 2819 2869 
Q 2763 3291 2617 3541 
Q 2472 3791 2203 3937 
Q 1934 4084 1647 4084 
Q 1322 4084 1109 3886 
Q 897 3688 897 3434 
Q 897 3241 1031 3081 
Q 1225 2847 1953 2456 
Q 2547 2138 2764 1967 
Q 2981 1797 3098 1565 
Q 3216 1334 3216 1081 
Q 3216 600 2842 251 
Q 2469 -97 1881 -97 
Q 1697 -97 1534 -69 
Q 1438 -53 1133 45 
Q 828 144 747 144 
Q 669 144 623 97 
Q 578 50 556 -97 
L 441 -97 
L 441 1356 
L 556 1356 
Q 638 900 775 673 
Q 913 447 1195 297 
Q 1478 147 1816 147 
Q 2206 147 2432 353 
Q 2659 559 2659 841 
Q 2659 997 2573 1156 
Q 2488 1316 2306 1453 
Q 2184 1547 1640 1851 
Q 1097 2156 867 2337 
Q 638 2519 519 2737 
Q 400 2956 400 3219 
Q 400 3675 750 4004 
Q 1100 4334 1641 4334 
Q 1978 4334 2356 4169 
Q 2531 4091 2603 4091 
Q 2684 4091 2736 4139 
Q 2788 4188 2819 4334 
L 2934 4334 
z
" transform="scale(0.015625)"/>
     </defs>
     <use xlink:href="#TimesNewRomanPSMT-4d"/>
     <use xlink:href="#TimesNewRomanPSMT-6f" x="88.916016"/>
     <use xlink:href="#TimesNewRomanPSMT-64" x="138.916016"/>
     <use xlink:href="#TimesNewRomanPSMT-65" x="188.916016"/>
     <use xlink:href="#TimesNewRomanPSMT-6c" x="233.300781"/>
     <use xlink:href="#TimesNewRomanPSMT-20" x="261.083984"/>
     <use xlink:href="#TimesNewRomanPSMT-34" x="286.083984"/>
     <use xlink:href="#TimesNewRomanPSMT-2d" x="336.083984"/>
     <use xlink:href="#TimesNewRomanPSMT-31" x="369.384766"/>
     <use xlink:href="#TimesNewRomanPSMT-3a" x="419.384766"/>
     <use xlink:href="#TimesNewRomanPSMT-20" x="447.167969"/>
     <use xlink:href="#TimesNewRomanPSMT-53" x="472.167969"/>
     <use xlink:href="#TimesNewRomanPSMT-75" x="527.783203"/>
     <use xlink:href="#TimesNewRomanPSMT-6d" x="577.783203"/>
     <use xlink:href="#TimesNewRomanPSMT-6d" x="655.566406"/>
     <use xlink:href="#TimesNewRomanPSMT-65" x="733.349609"/>
     <use xlink:href="#TimesNewRomanPSMT-72" x="777.734375"/>
     <use xlink:href="#TimesNewRomanPSMT-20" x="811.035156"/>
     <use xlink:href="#TimesNewRomanPSMT-57" x="834.285156"/>
     <use xlink:href="#TimesNewRomanPSMT-65" x="920.669922"/>
     <use xlink:href="#TimesNewRomanPSMT-65" x="965.054688"/>
     <use xlink:href="#TimesNewRomanPSMT-6b" x="1009.439453"/>
    </g>
   </g>
   <g id="legend_2">
    <g id="patch_13">
     <path d="M 828.228125 261.555937 
L 932.874219 261.555937 
Q 935.874219 261.555937 935.874219 258.555937 
L 935.874219 217.63875 
Q 935.874219 214.63875 932.874219 214.63875 
L 828.228125 214.63875 
Q 825.228125 214.63875 825.228125 217.63875 
L 825.228125 258.555937 
Q 825.228125 261.555937 828.228125 261.555937 
z
" style="fill: #ffffff; opacity: 0.8; stroke: #cccccc; stroke-linejoin: miter"/>
    </g>
    <g id="line2d_53">
     <path d="M 831.228125 225.88875 
L 846.228125 225.88875 
L 861.228125 225.88875 
" style="fill: none; stroke: #808080; stroke-width: 1.5; stroke-linecap: square"/>
    </g>
    <g id="text_30">
     <!-- Actual -->
     <g transform="translate(873.228125 231.13875) scale(0.15 -0.15)">
      <use xlink:href="#TimesNewRomanPSMT-41"/>
      <use xlink:href="#TimesNewRomanPSMT-63" x="72.216797"/>
      <use xlink:href="#TimesNewRomanPSMT-74" x="116.601562"/>
      <use xlink:href="#TimesNewRomanPSMT-75" x="144.384766"/>
      <use xlink:href="#TimesNewRomanPSMT-61" x="194.384766"/>
      <use xlink:href="#TimesNewRomanPSMT-6c" x="238.769531"/>
     </g>
    </g>
    <g id="line2d_54">
     <path d="M 831.228125 247.097344 
L 846.228125 247.097344 
L 861.228125 247.097344 
" style="fill: none; stroke: #0000ff; stroke-width: 1.5; stroke-linecap: square"/>
    </g>
    <g id="text_31">
     <!-- Predicted -->
     <g transform="translate(873.228125 252.347344) scale(0.15 -0.15)">
      <use xlink:href="#TimesNewRomanPSMT-50"/>
      <use xlink:href="#TimesNewRomanPSMT-72" x="55.615234"/>
      <use xlink:href="#TimesNewRomanPSMT-65" x="88.916016"/>
      <use xlink:href="#TimesNewRomanPSMT-64" x="133.300781"/>
      <use xlink:href="#TimesNewRomanPSMT-69" x="183.300781"/>
      <use xlink:href="#TimesNewRomanPSMT-63" x="211.083984"/>
      <use xlink:href="#TimesNewRomanPSMT-74" x="255.46875"/>
      <use xlink:href="#TimesNewRomanPSMT-65" x="283.251953"/>
      <use xlink:href="#TimesNewRomanPSMT-64" x="327.636719"/>
     </g>
    </g>
   </g>
  </g>
 </g>
 <defs>
  <clipPath id="pd30e562661">
   <rect x="50.574219" y="25.69875" width="892.8" height="151.2"/>
  </clipPath>
  <clipPath id="pfd808e1144">
   <rect x="50.574219" y="207.13875" width="892.8" height="151.2"/>
  </clipPath>
 </defs>
</svg>
