<?xml version="1.0" encoding="utf-8" standalone="no"?>
<!DOCTYPE svg PUBLIC "-//W3C//DTD SVG 1.1//EN"
  "http://www.w3.org/Graphics/SVG/1.1/DTD/svg11.dtd">
<svg xmlns:xlink="http://www.w3.org/1999/xlink" width="1133.104219pt" height="412.762969pt" viewBox="0 0 1133.104219 412.762969" xmlns="http://www.w3.org/2000/svg" version="1.1">
 <metadata>
  <rdf:RDF xmlns:dc="http://purl.org/dc/elements/1.1/" xmlns:cc="http://creativecommons.org/ns#" xmlns:rdf="http://www.w3.org/1999/02/22-rdf-syntax-ns#">
   <cc:Work>
    <dc:type rdf:resource="http://purl.org/dc/dcmitype/StillImage"/>
    <dc:date>2024-04-19T17:31:49.014119</dc:date>
    <dc:format>image/svg+xml</dc:format>
    <dc:creator>
     <cc:Agent>
      <dc:title>Matplotlib v3.8.2, https://matplotlib.org/</dc:title>
     </cc:Agent>
    </dc:creator>
   </cc:Work>
  </rdf:RDF>
 </metadata>
 <defs>
  <style type="text/css">*{stroke-linejoin: round; stroke-linecap: butt}</style>
 </defs>
 <g id="figure_1">
  <g id="patch_1">
   <path d="M 0 412.762969 
L 1133.104219 412.762969 
L 1133.104219 0 
L 0 0 
z
" style="fill: #ffffff"/>
  </g>
  <g id="axes_1">
   <g id="patch_2">
    <path d="M 46.824219 180.53875 
L 1125.904219 180.53875 
L 1125.904219 25.69875 
L 46.824219 25.69875 
z
" style="fill: #ffffff"/>
   </g>
   <g id="matplotlib.axis_1">
    <g id="xtick_1">
     <g id="line2d_1">
      <path d="M 154.9686 180.53875 
L 154.9686 25.69875 
" clip-path="url(#pc37900ffa8)" style="fill: none; stroke: #b0b0b0; stroke-opacity: 0.5; stroke-width: 0.8; stroke-linecap: square"/>
     </g>
     <g id="line2d_2"/>
     <g id="text_1">
      <!-- Jan 01 -->
      <g transform="translate(135.595162 194.454375) scale(0.15 -0.15)">
       <defs>
        <path id="TimesNewRomanPSMT-4a" d="M 638 4122 
L 638 4238 
L 2453 4238 
L 2453 4122 
L 2300 4122 
Q 2041 4122 1922 3969 
Q 1847 3869 1847 3488 
L 1847 1416 
Q 1847 938 1742 641 
Q 1638 344 1381 123 
Q 1125 -97 763 -97 
Q 469 -97 300 48 
Q 131 194 131 381 
Q 131 534 209 613 
Q 313 709 450 709 
Q 550 709 629 643 
Q 709 578 831 294 
Q 903 125 1016 125 
Q 1100 125 1173 228 
Q 1247 331 1247 594 
L 1247 3488 
Q 1247 3809 1206 3913 
Q 1175 3991 1075 4047 
Q 941 4122 791 4122 
L 638 4122 
z
" transform="scale(0.015625)"/>
        <path id="TimesNewRomanPSMT-61" d="M 1822 413 
Q 1381 72 1269 19 
Q 1100 -59 909 -59 
Q 613 -59 420 144 
Q 228 347 228 678 
Q 228 888 322 1041 
Q 450 1253 767 1440 
Q 1084 1628 1822 1897 
L 1822 2009 
Q 1822 2438 1686 2597 
Q 1550 2756 1291 2756 
Q 1094 2756 978 2650 
Q 859 2544 859 2406 
L 866 2225 
Q 866 2081 792 2003 
Q 719 1925 600 1925 
Q 484 1925 411 2006 
Q 338 2088 338 2228 
Q 338 2497 613 2722 
Q 888 2947 1384 2947 
Q 1766 2947 2009 2819 
Q 2194 2722 2281 2516 
Q 2338 2381 2338 1966 
L 2338 994 
Q 2338 584 2353 492 
Q 2369 400 2405 369 
Q 2441 338 2488 338 
Q 2538 338 2575 359 
Q 2641 400 2828 588 
L 2828 413 
Q 2478 -56 2159 -56 
Q 2006 -56 1915 50 
Q 1825 156 1822 413 
z
M 1822 616 
L 1822 1706 
Q 1350 1519 1213 1441 
Q 966 1303 859 1153 
Q 753 1003 753 825 
Q 753 600 887 451 
Q 1022 303 1197 303 
Q 1434 303 1822 616 
z
" transform="scale(0.015625)"/>
        <path id="TimesNewRomanPSMT-6e" d="M 1034 2341 
Q 1538 2947 1994 2947 
Q 2228 2947 2397 2830 
Q 2566 2713 2666 2444 
Q 2734 2256 2734 1869 
L 2734 647 
Q 2734 375 2778 278 
Q 2813 200 2889 156 
Q 2966 113 3172 113 
L 3172 0 
L 1756 0 
L 1756 113 
L 1816 113 
Q 2016 113 2095 173 
Q 2175 234 2206 353 
Q 2219 400 2219 647 
L 2219 1819 
Q 2219 2209 2117 2386 
Q 2016 2563 1775 2563 
Q 1403 2563 1034 2156 
L 1034 647 
Q 1034 356 1069 288 
Q 1113 197 1189 155 
Q 1266 113 1500 113 
L 1500 0 
L 84 0 
L 84 113 
L 147 113 
Q 366 113 442 223 
Q 519 334 519 647 
L 519 1709 
Q 519 2225 495 2337 
Q 472 2450 423 2490 
Q 375 2531 294 2531 
Q 206 2531 84 2484 
L 38 2597 
L 900 2947 
L 1034 2947 
L 1034 2341 
z
" transform="scale(0.015625)"/>
        <path id="TimesNewRomanPSMT-20" transform="scale(0.015625)"/>
        <path id="TimesNewRomanPSMT-30" d="M 231 2094 
Q 231 2819 450 3342 
Q 669 3866 1031 4122 
Q 1313 4325 1613 4325 
Q 2100 4325 2488 3828 
Q 2972 3213 2972 2159 
Q 2972 1422 2759 906 
Q 2547 391 2217 158 
Q 1888 -75 1581 -75 
Q 975 -75 572 641 
Q 231 1244 231 2094 
z
M 844 2016 
Q 844 1141 1059 588 
Q 1238 122 1591 122 
Q 1759 122 1940 273 
Q 2122 425 2216 781 
Q 2359 1319 2359 2297 
Q 2359 3022 2209 3506 
Q 2097 3866 1919 4016 
Q 1791 4119 1609 4119 
Q 1397 4119 1231 3928 
Q 1006 3669 925 3112 
Q 844 2556 844 2016 
z
" transform="scale(0.015625)"/>
        <path id="TimesNewRomanPSMT-31" d="M 750 3822 
L 1781 4325 
L 1884 4325 
L 1884 747 
Q 1884 391 1914 303 
Q 1944 216 2037 169 
Q 2131 122 2419 116 
L 2419 0 
L 825 0 
L 825 116 
Q 1125 122 1212 167 
Q 1300 213 1334 289 
Q 1369 366 1369 747 
L 1369 3034 
Q 1369 3497 1338 3628 
Q 1316 3728 1258 3775 
Q 1200 3822 1119 3822 
Q 1003 3822 797 3725 
L 750 3822 
z
" transform="scale(0.015625)"/>
       </defs>
       <use xlink:href="#TimesNewRomanPSMT-4a"/>
       <use xlink:href="#TimesNewRomanPSMT-61" x="38.916016"/>
       <use xlink:href="#TimesNewRomanPSMT-6e" x="83.300781"/>
       <use xlink:href="#TimesNewRomanPSMT-20" x="133.300781"/>
       <use xlink:href="#TimesNewRomanPSMT-30" x="158.300781"/>
       <use xlink:href="#TimesNewRomanPSMT-31" x="208.300781"/>
      </g>
     </g>
    </g>
    <g id="xtick_2">
     <g id="line2d_3">
      <path d="M 296.797297 180.53875 
L 296.797297 25.69875 
" clip-path="url(#pc37900ffa8)" style="fill: none; stroke: #b0b0b0; stroke-opacity: 0.5; stroke-width: 0.8; stroke-linecap: square"/>
     </g>
     <g id="line2d_4"/>
     <g id="text_2">
      <!-- Jan 02 -->
      <g transform="translate(277.423859 194.454375) scale(0.15 -0.15)">
       <defs>
        <path id="TimesNewRomanPSMT-32" d="M 2934 816 
L 2638 0 
L 138 0 
L 138 116 
Q 1241 1122 1691 1759 
Q 2141 2397 2141 2925 
Q 2141 3328 1894 3587 
Q 1647 3847 1303 3847 
Q 991 3847 742 3664 
Q 494 3481 375 3128 
L 259 3128 
Q 338 3706 661 4015 
Q 984 4325 1469 4325 
Q 1984 4325 2329 3994 
Q 2675 3663 2675 3213 
Q 2675 2891 2525 2569 
Q 2294 2063 1775 1497 
Q 997 647 803 472 
L 1909 472 
Q 2247 472 2383 497 
Q 2519 522 2628 598 
Q 2738 675 2819 816 
L 2934 816 
z
" transform="scale(0.015625)"/>
       </defs>
       <use xlink:href="#TimesNewRomanPSMT-4a"/>
       <use xlink:href="#TimesNewRomanPSMT-61" x="38.916016"/>
       <use xlink:href="#TimesNewRomanPSMT-6e" x="83.300781"/>
       <use xlink:href="#TimesNewRomanPSMT-20" x="133.300781"/>
       <use xlink:href="#TimesNewRomanPSMT-30" x="158.300781"/>
       <use xlink:href="#TimesNewRomanPSMT-32" x="208.300781"/>
      </g>
     </g>
    </g>
    <g id="xtick_3">
     <g id="line2d_5">
      <path d="M 438.625993 180.53875 
L 438.625993 25.69875 
" clip-path="url(#pc37900ffa8)" style="fill: none; stroke: #b0b0b0; stroke-opacity: 0.5; stroke-width: 0.8; stroke-linecap: square"/>
     </g>
     <g id="line2d_6"/>
     <g id="text_3">
      <!-- Jan 03 -->
      <g transform="translate(419.252556 194.454375) scale(0.15 -0.15)">
       <defs>
        <path id="TimesNewRomanPSMT-33" d="M 325 3431 
Q 506 3859 782 4092 
Q 1059 4325 1472 4325 
Q 1981 4325 2253 3994 
Q 2459 3747 2459 3466 
Q 2459 3003 1878 2509 
Q 2269 2356 2469 2072 
Q 2669 1788 2669 1403 
Q 2669 853 2319 450 
Q 1863 -75 997 -75 
Q 569 -75 414 31 
Q 259 138 259 259 
Q 259 350 332 419 
Q 406 488 509 488 
Q 588 488 669 463 
Q 722 447 909 348 
Q 1097 250 1169 231 
Q 1284 197 1416 197 
Q 1734 197 1970 444 
Q 2206 691 2206 1028 
Q 2206 1275 2097 1509 
Q 2016 1684 1919 1775 
Q 1784 1900 1550 2001 
Q 1316 2103 1072 2103 
L 972 2103 
L 972 2197 
Q 1219 2228 1467 2375 
Q 1716 2522 1828 2728 
Q 1941 2934 1941 3181 
Q 1941 3503 1739 3701 
Q 1538 3900 1238 3900 
Q 753 3900 428 3381 
L 325 3431 
z
" transform="scale(0.015625)"/>
       </defs>
       <use xlink:href="#TimesNewRomanPSMT-4a"/>
       <use xlink:href="#TimesNewRomanPSMT-61" x="38.916016"/>
       <use xlink:href="#TimesNewRomanPSMT-6e" x="83.300781"/>
       <use xlink:href="#TimesNewRomanPSMT-20" x="133.300781"/>
       <use xlink:href="#TimesNewRomanPSMT-30" x="158.300781"/>
       <use xlink:href="#TimesNewRomanPSMT-33" x="208.300781"/>
      </g>
     </g>
    </g>
    <g id="xtick_4">
     <g id="line2d_7">
      <path d="M 580.45469 180.53875 
L 580.45469 25.69875 
" clip-path="url(#pc37900ffa8)" style="fill: none; stroke: #b0b0b0; stroke-opacity: 0.5; stroke-width: 0.8; stroke-linecap: square"/>
     </g>
     <g id="line2d_8"/>
     <g id="text_4">
      <!-- Jan 04 -->
      <g transform="translate(561.081252 194.454375) scale(0.15 -0.15)">
       <defs>
        <path id="TimesNewRomanPSMT-34" d="M 2978 1563 
L 2978 1119 
L 2409 1119 
L 2409 0 
L 1894 0 
L 1894 1119 
L 100 1119 
L 100 1519 
L 2066 4325 
L 2409 4325 
L 2409 1563 
L 2978 1563 
z
M 1894 1563 
L 1894 3666 
L 406 1563 
L 1894 1563 
z
" transform="scale(0.015625)"/>
       </defs>
       <use xlink:href="#TimesNewRomanPSMT-4a"/>
       <use xlink:href="#TimesNewRomanPSMT-61" x="38.916016"/>
       <use xlink:href="#TimesNewRomanPSMT-6e" x="83.300781"/>
       <use xlink:href="#TimesNewRomanPSMT-20" x="133.300781"/>
       <use xlink:href="#TimesNewRomanPSMT-30" x="158.300781"/>
       <use xlink:href="#TimesNewRomanPSMT-34" x="208.300781"/>
      </g>
     </g>
    </g>
    <g id="xtick_5">
     <g id="line2d_9">
      <path d="M 722.283386 180.53875 
L 722.283386 25.69875 
" clip-path="url(#pc37900ffa8)" style="fill: none; stroke: #b0b0b0; stroke-opacity: 0.5; stroke-width: 0.8; stroke-linecap: square"/>
     </g>
     <g id="line2d_10"/>
     <g id="text_5">
      <!-- Jan 05 -->
      <g transform="translate(702.909949 194.454375) scale(0.15 -0.15)">
       <defs>
        <path id="TimesNewRomanPSMT-35" d="M 2778 4238 
L 2534 3706 
L 1259 3706 
L 981 3138 
Q 1809 3016 2294 2522 
Q 2709 2097 2709 1522 
Q 2709 1188 2573 903 
Q 2438 619 2231 419 
Q 2025 219 1772 97 
Q 1413 -75 1034 -75 
Q 653 -75 479 54 
Q 306 184 306 341 
Q 306 428 378 495 
Q 450 563 559 563 
Q 641 563 702 538 
Q 763 513 909 409 
Q 1144 247 1384 247 
Q 1750 247 2026 523 
Q 2303 800 2303 1197 
Q 2303 1581 2056 1914 
Q 1809 2247 1375 2428 
Q 1034 2569 447 2591 
L 1259 4238 
L 2778 4238 
z
" transform="scale(0.015625)"/>
       </defs>
       <use xlink:href="#TimesNewRomanPSMT-4a"/>
       <use xlink:href="#TimesNewRomanPSMT-61" x="38.916016"/>
       <use xlink:href="#TimesNewRomanPSMT-6e" x="83.300781"/>
       <use xlink:href="#TimesNewRomanPSMT-20" x="133.300781"/>
       <use xlink:href="#TimesNewRomanPSMT-30" x="158.300781"/>
       <use xlink:href="#TimesNewRomanPSMT-35" x="208.300781"/>
      </g>
     </g>
    </g>
    <g id="xtick_6">
     <g id="line2d_11">
      <path d="M 864.112083 180.53875 
L 864.112083 25.69875 
" clip-path="url(#pc37900ffa8)" style="fill: none; stroke: #b0b0b0; stroke-opacity: 0.5; stroke-width: 0.8; stroke-linecap: square"/>
     </g>
     <g id="line2d_12"/>
     <g id="text_6">
      <!-- Jan 06 -->
      <g transform="translate(844.738645 194.454375) scale(0.15 -0.15)">
       <defs>
        <path id="TimesNewRomanPSMT-36" d="M 2869 4325 
L 2869 4209 
Q 2456 4169 2195 4045 
Q 1934 3922 1679 3669 
Q 1425 3416 1258 3105 
Q 1091 2794 978 2366 
Q 1428 2675 1881 2675 
Q 2316 2675 2634 2325 
Q 2953 1975 2953 1425 
Q 2953 894 2631 456 
Q 2244 -75 1606 -75 
Q 1172 -75 869 213 
Q 275 772 275 1663 
Q 275 2231 503 2743 
Q 731 3256 1154 3653 
Q 1578 4050 1965 4187 
Q 2353 4325 2688 4325 
L 2869 4325 
z
M 925 2138 
Q 869 1716 869 1456 
Q 869 1156 980 804 
Q 1091 453 1309 247 
Q 1469 100 1697 100 
Q 1969 100 2183 356 
Q 2397 613 2397 1088 
Q 2397 1622 2184 2012 
Q 1972 2403 1581 2403 
Q 1463 2403 1327 2353 
Q 1191 2303 925 2138 
z
" transform="scale(0.015625)"/>
       </defs>
       <use xlink:href="#TimesNewRomanPSMT-4a"/>
       <use xlink:href="#TimesNewRomanPSMT-61" x="38.916016"/>
       <use xlink:href="#TimesNewRomanPSMT-6e" x="83.300781"/>
       <use xlink:href="#TimesNewRomanPSMT-20" x="133.300781"/>
       <use xlink:href="#TimesNewRomanPSMT-30" x="158.300781"/>
       <use xlink:href="#TimesNewRomanPSMT-36" x="208.300781"/>
      </g>
     </g>
    </g>
    <g id="xtick_7">
     <g id="line2d_13">
      <path d="M 1005.94078 180.53875 
L 1005.94078 25.69875 
" clip-path="url(#pc37900ffa8)" style="fill: none; stroke: #b0b0b0; stroke-opacity: 0.5; stroke-width: 0.8; stroke-linecap: square"/>
     </g>
     <g id="line2d_14"/>
     <g id="text_7">
      <!-- Jan 07 -->
      <g transform="translate(986.567342 194.454375) scale(0.15 -0.15)">
       <defs>
        <path id="TimesNewRomanPSMT-37" d="M 644 4238 
L 2916 4238 
L 2916 4119 
L 1503 -88 
L 1153 -88 
L 2419 3728 
L 1253 3728 
Q 900 3728 750 3644 
Q 488 3500 328 3200 
L 238 3234 
L 644 4238 
z
" transform="scale(0.015625)"/>
       </defs>
       <use xlink:href="#TimesNewRomanPSMT-4a"/>
       <use xlink:href="#TimesNewRomanPSMT-61" x="38.916016"/>
       <use xlink:href="#TimesNewRomanPSMT-6e" x="83.300781"/>
       <use xlink:href="#TimesNewRomanPSMT-20" x="133.300781"/>
       <use xlink:href="#TimesNewRomanPSMT-30" x="158.300781"/>
       <use xlink:href="#TimesNewRomanPSMT-37" x="208.300781"/>
      </g>
     </g>
    </g>
   </g>
   <g id="matplotlib.axis_2">
    <g id="ytick_1">
     <g id="line2d_15">
      <path d="M 46.824219 160.883915 
L 1125.904219 160.883915 
" clip-path="url(#pc37900ffa8)" style="fill: none; stroke: #b0b0b0; stroke-opacity: 0.5; stroke-width: 0.8; stroke-linecap: square"/>
     </g>
     <g id="line2d_16">
      <defs>
       <path id="mefa9460682" d="M 0 0 
L -3.5 0 
" style="stroke: #000000; stroke-width: 0.8"/>
      </defs>
      <g>
       <use xlink:href="#mefa9460682" x="46.824219" y="160.883915" style="stroke: #000000; stroke-width: 0.8"/>
      </g>
     </g>
     <g id="text_8">
      <!-- 20 -->
      <g transform="translate(24.824219 166.091727) scale(0.15 -0.15)">
       <use xlink:href="#TimesNewRomanPSMT-32"/>
       <use xlink:href="#TimesNewRomanPSMT-30" x="50"/>
      </g>
     </g>
    </g>
    <g id="ytick_2">
     <g id="line2d_17">
      <path d="M 46.824219 104.519459 
L 1125.904219 104.519459 
" clip-path="url(#pc37900ffa8)" style="fill: none; stroke: #b0b0b0; stroke-opacity: 0.5; stroke-width: 0.8; stroke-linecap: square"/>
     </g>
     <g id="line2d_18">
      <g>
       <use xlink:href="#mefa9460682" x="46.824219" y="104.519459" style="stroke: #000000; stroke-width: 0.8"/>
      </g>
     </g>
     <g id="text_9">
      <!-- 30 -->
      <g transform="translate(24.824219 109.727272) scale(0.15 -0.15)">
       <use xlink:href="#TimesNewRomanPSMT-33"/>
       <use xlink:href="#TimesNewRomanPSMT-30" x="50"/>
      </g>
     </g>
    </g>
    <g id="ytick_3">
     <g id="line2d_19">
      <path d="M 46.824219 48.155003 
L 1125.904219 48.155003 
" clip-path="url(#pc37900ffa8)" style="fill: none; stroke: #b0b0b0; stroke-opacity: 0.5; stroke-width: 0.8; stroke-linecap: square"/>
     </g>
     <g id="line2d_20">
      <g>
       <use xlink:href="#mefa9460682" x="46.824219" y="48.155003" style="stroke: #000000; stroke-width: 0.8"/>
      </g>
     </g>
     <g id="text_10">
      <!-- 40 -->
      <g transform="translate(24.824219 53.362816) scale(0.15 -0.15)">
       <use xlink:href="#TimesNewRomanPSMT-34"/>
       <use xlink:href="#TimesNewRomanPSMT-30" x="50"/>
      </g>
     </g>
    </g>
    <g id="text_11">
     <!-- Demand (MW) -->
     <g transform="translate(17.615625 149.145312) rotate(-90) scale(0.15 -0.15)">
      <defs>
       <path id="TimesNewRomanPSMT-44" d="M 109 0 
L 109 116 
L 269 116 
Q 538 116 650 288 
Q 719 391 719 750 
L 719 3488 
Q 719 3884 631 3984 
Q 509 4122 269 4122 
L 109 4122 
L 109 4238 
L 1834 4238 
Q 2784 4238 3279 4022 
Q 3775 3806 4076 3303 
Q 4378 2800 4378 2141 
Q 4378 1256 3841 663 
Q 3238 0 2003 0 
L 109 0 
z
M 1319 306 
Q 1716 219 1984 219 
Q 2709 219 3187 728 
Q 3666 1238 3666 2109 
Q 3666 2988 3187 3494 
Q 2709 4000 1959 4000 
Q 1678 4000 1319 3909 
L 1319 306 
z
" transform="scale(0.015625)"/>
       <path id="TimesNewRomanPSMT-65" d="M 681 1784 
Q 678 1147 991 784 
Q 1303 422 1725 422 
Q 2006 422 2214 576 
Q 2422 731 2563 1106 
L 2659 1044 
Q 2594 616 2278 264 
Q 1963 -88 1488 -88 
Q 972 -88 605 314 
Q 238 716 238 1394 
Q 238 2128 614 2539 
Q 991 2950 1559 2950 
Q 2041 2950 2350 2633 
Q 2659 2316 2659 1784 
L 681 1784 
z
M 681 1966 
L 2006 1966 
Q 1991 2241 1941 2353 
Q 1863 2528 1708 2628 
Q 1553 2728 1384 2728 
Q 1125 2728 920 2526 
Q 716 2325 681 1966 
z
" transform="scale(0.015625)"/>
       <path id="TimesNewRomanPSMT-6d" d="M 1050 2338 
Q 1363 2650 1419 2697 
Q 1559 2816 1721 2881 
Q 1884 2947 2044 2947 
Q 2313 2947 2506 2790 
Q 2700 2634 2766 2338 
Q 3088 2713 3309 2830 
Q 3531 2947 3766 2947 
Q 3994 2947 4170 2830 
Q 4347 2713 4450 2447 
Q 4519 2266 4519 1878 
L 4519 647 
Q 4519 378 4559 278 
Q 4591 209 4675 161 
Q 4759 113 4950 113 
L 4950 0 
L 3538 0 
L 3538 113 
L 3597 113 
Q 3781 113 3884 184 
Q 3956 234 3988 344 
Q 4000 397 4000 647 
L 4000 1878 
Q 4000 2228 3916 2372 
Q 3794 2572 3525 2572 
Q 3359 2572 3192 2489 
Q 3025 2406 2788 2181 
L 2781 2147 
L 2788 2013 
L 2788 647 
Q 2788 353 2820 281 
Q 2853 209 2943 161 
Q 3034 113 3253 113 
L 3253 0 
L 1806 0 
L 1806 113 
Q 2044 113 2133 169 
Q 2222 225 2256 338 
Q 2272 391 2272 647 
L 2272 1878 
Q 2272 2228 2169 2381 
Q 2031 2581 1784 2581 
Q 1616 2581 1450 2491 
Q 1191 2353 1050 2181 
L 1050 647 
Q 1050 366 1089 281 
Q 1128 197 1204 155 
Q 1281 113 1516 113 
L 1516 0 
L 100 0 
L 100 113 
Q 297 113 375 155 
Q 453 197 493 289 
Q 534 381 534 647 
L 534 1741 
Q 534 2213 506 2350 
Q 484 2453 437 2492 
Q 391 2531 309 2531 
Q 222 2531 100 2484 
L 53 2597 
L 916 2947 
L 1050 2947 
L 1050 2338 
z
" transform="scale(0.015625)"/>
       <path id="TimesNewRomanPSMT-64" d="M 2222 322 
Q 2013 103 1813 7 
Q 1613 -88 1381 -88 
Q 913 -88 563 304 
Q 213 697 213 1313 
Q 213 1928 600 2439 
Q 988 2950 1597 2950 
Q 1975 2950 2222 2709 
L 2222 3238 
Q 2222 3728 2198 3840 
Q 2175 3953 2125 3993 
Q 2075 4034 2000 4034 
Q 1919 4034 1784 3984 
L 1744 4094 
L 2597 4444 
L 2738 4444 
L 2738 1134 
Q 2738 631 2761 520 
Q 2784 409 2836 365 
Q 2888 322 2956 322 
Q 3041 322 3181 375 
L 3216 266 
L 2366 -88 
L 2222 -88 
L 2222 322 
z
M 2222 541 
L 2222 2016 
Q 2203 2228 2109 2403 
Q 2016 2578 1861 2667 
Q 1706 2756 1559 2756 
Q 1284 2756 1069 2509 
Q 784 2184 784 1559 
Q 784 928 1059 592 
Q 1334 256 1672 256 
Q 1956 256 2222 541 
z
" transform="scale(0.015625)"/>
       <path id="TimesNewRomanPSMT-28" d="M 1988 -1253 
L 1988 -1369 
Q 1516 -1131 1200 -813 
Q 750 -359 506 256 
Q 263 872 263 1534 
Q 263 2503 741 3301 
Q 1219 4100 1988 4444 
L 1988 4313 
Q 1603 4100 1356 3731 
Q 1109 3363 987 2797 
Q 866 2231 866 1616 
Q 866 947 969 400 
Q 1050 -31 1165 -292 
Q 1281 -553 1476 -793 
Q 1672 -1034 1988 -1253 
z
" transform="scale(0.015625)"/>
       <path id="TimesNewRomanPSMT-4d" d="M 2619 0 
L 981 3566 
L 981 734 
Q 981 344 1066 247 
Q 1181 116 1431 116 
L 1581 116 
L 1581 0 
L 106 0 
L 106 116 
L 256 116 
Q 525 116 638 278 
Q 706 378 706 734 
L 706 3503 
Q 706 3784 644 3909 
Q 600 4000 483 4061 
Q 366 4122 106 4122 
L 106 4238 
L 1306 4238 
L 2844 922 
L 4356 4238 
L 5556 4238 
L 5556 4122 
L 5409 4122 
Q 5138 4122 5025 3959 
Q 4956 3859 4956 3503 
L 4956 734 
Q 4956 344 5044 247 
Q 5159 116 5409 116 
L 5556 116 
L 5556 0 
L 3756 0 
L 3756 116 
L 3906 116 
Q 4178 116 4288 278 
Q 4356 378 4356 734 
L 4356 3566 
L 2722 0 
L 2619 0 
z
" transform="scale(0.015625)"/>
       <path id="TimesNewRomanPSMT-57" d="M 5991 4238 
L 5991 4122 
Q 5825 4122 5722 4062 
Q 5619 4003 5525 3841 
Q 5463 3731 5328 3319 
L 4147 -97 
L 4022 -97 
L 3056 2613 
L 2097 -97 
L 1984 -97 
L 725 3422 
Q 584 3816 547 3888 
Q 484 4006 376 4064 
Q 269 4122 84 4122 
L 84 4238 
L 1653 4238 
L 1653 4122 
L 1578 4122 
Q 1413 4122 1325 4047 
Q 1238 3972 1238 3866 
Q 1238 3756 1375 3363 
L 2209 984 
L 2913 3006 
L 2788 3363 
L 2688 3647 
Q 2622 3803 2541 3922 
Q 2500 3981 2441 4022 
Q 2363 4078 2284 4103 
Q 2225 4122 2097 4122 
L 2097 4238 
L 3747 4238 
L 3747 4122 
L 3634 4122 
Q 3459 4122 3378 4047 
Q 3297 3972 3297 3844 
Q 3297 3684 3438 3288 
L 4250 984 
L 5056 3319 
Q 5194 3706 5194 3856 
Q 5194 3928 5148 3990 
Q 5103 4053 5034 4078 
Q 4916 4122 4725 4122 
L 4725 4238 
L 5991 4238 
z
" transform="scale(0.015625)"/>
       <path id="TimesNewRomanPSMT-29" d="M 144 4313 
L 144 4444 
Q 619 4209 934 3891 
Q 1381 3434 1625 2820 
Q 1869 2206 1869 1541 
Q 1869 572 1392 -226 
Q 916 -1025 144 -1369 
L 144 -1253 
Q 528 -1038 776 -670 
Q 1025 -303 1145 264 
Q 1266 831 1266 1447 
Q 1266 2113 1163 2663 
Q 1084 3094 967 3353 
Q 850 3613 656 3853 
Q 463 4094 144 4313 
z
" transform="scale(0.015625)"/>
      </defs>
      <use xlink:href="#TimesNewRomanPSMT-44"/>
      <use xlink:href="#TimesNewRomanPSMT-65" x="72.216797"/>
      <use xlink:href="#TimesNewRomanPSMT-6d" x="116.601562"/>
      <use xlink:href="#TimesNewRomanPSMT-61" x="194.384766"/>
      <use xlink:href="#TimesNewRomanPSMT-6e" x="238.769531"/>
      <use xlink:href="#TimesNewRomanPSMT-64" x="288.769531"/>
      <use xlink:href="#TimesNewRomanPSMT-20" x="338.769531"/>
      <use xlink:href="#TimesNewRomanPSMT-28" x="363.769531"/>
      <use xlink:href="#TimesNewRomanPSMT-4d" x="397.070312"/>
      <use xlink:href="#TimesNewRomanPSMT-57" x="485.986328"/>
      <use xlink:href="#TimesNewRomanPSMT-29" x="580.371094"/>
     </g>
    </g>
   </g>
   <g id="line2d_21">
    <path d="M 95.87331 142.801293 
L 101.782839 136.961611 
L 107.692368 132.970889 
L 113.601897 117.718169 
L 119.511426 95.716847 
L 125.420955 91.243474 
L 131.330484 95.167159 
L 137.240013 91.068614 
L 143.149542 98.397797 
L 149.059071 103.082478 
L 154.9686 101.268521 
L 160.878129 104.142592 
L 166.787658 103.061172 
L 172.697187 97.96316 
L 178.606716 89.423429 
L 184.516245 79.068219 
L 190.425774 87.777406 
L 196.335303 89.077743 
L 202.244832 86.466645 
L 208.154361 90.811956 
L 214.06389 102.639623 
L 219.973419 125.88307 
L 225.882948 116.110192 
L 231.792477 109.032341 
L 237.702006 118.824166 
L 243.611535 130.572088 
L 249.521064 129.530921 
L 255.430593 111.238781 
L 261.340122 72.534349 
L 267.249651 57.246018 
L 273.15918 58.223191 
L 279.068709 59.387932 
L 284.978238 71.20974 
L 290.887767 83.390245 
L 296.797297 94.156048 
L 302.706826 92.907073 
L 314.525884 90.87983 
L 320.435413 84.720105 
L 326.344942 73.425843 
L 332.254471 74.499882 
L 338.164 79.399599 
L 344.073529 82.953629 
L 349.983058 81.497608 
L 355.892587 88.843836 
L 361.802116 116.845774 
L 373.621174 121.279808 
L 379.530703 121.487311 
L 385.440232 120.727836 
L 391.349761 112.289688 
L 397.25929 96.431047 
L 403.168819 65.212928 
L 409.078348 51.103566 
L 414.987877 48.537971 
L 420.897406 32.736932 
L 426.806935 41.214952 
L 432.716464 93.756641 
L 438.625993 115.819825 
L 444.535522 114.687576 
L 450.445051 114.237492 
L 456.35458 116.786118 
L 462.264109 97.552491 
L 468.173638 73.532448 
L 474.083167 69.747632 
L 479.992696 77.65656 
L 485.902225 86.736544 
L 491.811754 93.605903 
L 497.721283 104.070837 
L 503.630812 130.851879 
L 509.540341 133.604127 
L 515.44987 130.297777 
L 521.359399 124.262082 
L 527.268928 121.190856 
L 533.178458 112.958613 
L 539.087987 95.266611 
L 544.997516 63.189565 
L 550.907045 52.506246 
L 556.816574 52.447427 
L 562.726103 57.703179 
L 574.545161 89.215926 
L 580.45469 101.364397 
L 586.364219 100.282901 
L 592.273748 94.024256 
L 598.183277 86.773296 
L 604.092806 85.246205 
L 610.002335 74.434595 
L 615.911864 71.761026 
L 621.821393 77.528497 
L 627.730922 80.823053 
L 633.640451 84.319481 
L 639.54998 91.825578 
L 645.459509 116.584093 
L 651.369038 117.472011 
L 657.278567 116.650141 
L 663.188096 111.594664 
L 669.097625 110.998255 
L 675.007154 107.144574 
L 680.916683 97.449995 
L 686.826212 79.947234 
L 692.735741 65.9374 
L 698.64527 61.927883 
L 704.554799 61.765199 
L 710.464328 63.750744 
L 716.373857 73.745734 
L 722.283386 87.679932 
L 728.192915 93.018472 
L 734.102444 90.958661 
L 745.921502 78.015333 
L 751.831031 72.379807 
L 757.74056 70.383 
L 763.65009 79.020585 
L 769.559619 86.400217 
L 775.469148 83.155882 
L 781.378677 96.240512 
L 787.288206 129.411685 
L 793.197735 127.273652 
L 799.107264 125.593007 
L 805.016793 123.734917 
L 810.926322 119.578086 
L 816.835851 120.230347 
L 822.74538 113.596416 
L 828.654909 92.446793 
L 834.564438 86.857073 
L 840.473967 89.473345 
L 846.383496 87.14181 
L 852.293025 89.808683 
L 858.202554 83.532842 
L 864.112083 87.829834 
L 870.021612 93.295675 
L 875.931141 94.341332 
L 881.84067 96.211674 
L 887.750199 95.288069 
L 893.659728 92.8532 
L 899.569257 91.589768 
L 905.478786 87.116167 
L 911.388315 85.376855 
L 917.297844 95.090077 
L 923.207373 110.120914 
L 929.116902 133.79664 
L 935.026431 136.097282 
L 940.93596 138.880956 
L 946.845489 129.707988 
L 952.755018 124.927126 
L 958.664547 112.987376 
L 964.574076 104.028378 
L 970.483605 70.411458 
L 976.393134 53.768461 
L 982.302663 52.324462 
L 988.212192 59.389149 
L 994.121721 78.984593 
L 1000.031251 82.914518 
L 1005.94078 85.082912 
L 1011.850309 81.684186 
L 1017.759838 88.500357 
L 1023.669367 89.675902 
L 1029.578896 86.744838 
L 1035.488425 88.599428 
L 1041.397954 89.135877 
L 1047.307483 98.535067 
L 1053.217012 105.481127 
L 1059.126541 105.253155 
L 1065.03607 107.383808 
L 1070.945599 138.568751 
L 1076.855128 140.32678 
L 1076.855128 140.32678 
" clip-path="url(#pc37900ffa8)" style="fill: none; stroke: #808080; stroke-width: 1.5; stroke-linecap: square"/>
   </g>
   <g id="line2d_22">
    <path d="M 95.87331 146.093558 
L 101.782839 137.362069 
L 107.692368 131.598847 
L 113.601897 125.666967 
L 119.511426 119.015467 
L 125.420955 113.022155 
L 131.330484 108.146248 
L 137.240013 104.076792 
L 143.149542 101.360586 
L 149.059071 100.394672 
L 154.9686 101.222428 
L 160.878129 100.796519 
L 166.787658 100.123707 
L 172.697187 98.791417 
L 178.606716 97.849867 
L 184.516245 95.657685 
L 190.425774 95.960022 
L 196.335303 98.065516 
L 202.244832 102.360515 
L 208.154361 107.356744 
L 214.06389 110.105813 
L 219.973419 118.765982 
L 225.882948 140.847166 
L 231.792477 127.403033 
L 237.702006 119.846218 
L 243.611535 114.117864 
L 249.521064 109.733863 
L 255.430593 105.151121 
L 261.340122 99.347345 
L 267.249651 94.30137 
L 273.15918 91.920498 
L 279.068709 87.316201 
L 284.978238 86.677185 
L 290.887767 88.266475 
L 296.797297 92.77394 
L 302.706826 92.869502 
L 308.616355 94.445697 
L 314.525884 94.447168 
L 320.435413 93.553753 
L 326.344942 90.851467 
L 332.254471 88.877385 
L 338.164 89.728008 
L 344.073529 93.539644 
L 349.983058 97.935513 
L 355.892587 105.614483 
L 361.802116 113.876863 
L 367.711645 139.724667 
L 373.621174 132.16379 
L 379.530703 123.144852 
L 385.440232 115.03378 
L 391.349761 107.434714 
L 397.25929 93.76836 
L 403.168819 85.660754 
L 409.078348 75.732347 
L 414.987877 65.008618 
L 420.897406 55.996559 
L 426.806935 62.860699 
L 432.716464 84.420966 
L 438.625993 100.073188 
L 444.535522 106.288671 
L 450.445051 109.698036 
L 456.35458 110.413519 
L 462.264109 108.644302 
L 468.173638 105.819003 
L 474.083167 102.54325 
L 479.992696 102.300123 
L 485.902225 105.066812 
L 491.811754 109.988163 
L 497.721283 116.848825 
L 503.630812 124.976158 
L 509.540341 149.333761 
L 521.359399 130.442094 
L 527.268928 120.67435 
L 533.178458 111.676006 
L 539.087987 103.672285 
L 544.997516 96.290058 
L 550.907045 88.131307 
L 556.816574 83.5275 
L 562.726103 79.08633 
L 568.635632 82.11432 
L 574.545161 87.215512 
L 580.45469 91.926217 
L 586.364219 95.478859 
L 592.273748 96.191954 
L 598.183277 95.496794 
L 604.092806 95.312713 
L 610.002335 91.955914 
L 615.911864 91.379774 
L 621.821393 91.807204 
L 627.730922 93.815087 
L 633.640451 97.956907 
L 639.54998 102.932253 
L 645.459509 109.457736 
L 651.369038 132.627991 
L 657.278567 122.128829 
L 663.188096 113.168723 
L 669.097625 104.55022 
L 675.007154 94.232823 
L 680.916683 88.327686 
L 686.826212 81.478963 
L 692.735741 73.469299 
L 698.64527 70.068886 
L 704.554799 66.057594 
L 710.464328 64.94658 
L 716.373857 66.896889 
L 722.283386 70.993194 
L 728.192915 75.732516 
L 734.102444 74.143119 
L 740.011973 72.077427 
L 745.921502 71.446754 
L 751.831031 72.50574 
L 757.74056 75.905476 
L 763.65009 81.081629 
L 769.559619 87.700513 
L 775.469148 94.529242 
L 781.378677 98.706338 
L 787.288206 106.644471 
L 793.197735 132.418734 
L 810.926322 109.331702 
L 816.835851 102.736801 
L 822.74538 97.274245 
L 828.654909 92.303484 
L 834.564438 89.727808 
L 840.473967 86.505898 
L 846.383496 84.548397 
L 852.293025 83.93746 
L 858.202554 81.923257 
L 864.112083 82.230211 
L 881.84067 85.403669 
L 887.750199 88.317656 
L 893.659728 91.980651 
L 899.569257 96.397255 
L 905.478786 102.829616 
L 911.388315 109.464545 
L 917.297844 118.09101 
L 923.207373 127.09906 
L 929.116902 137.327651 
L 935.026431 163.569233 
L 946.845489 144.777179 
L 952.755018 132.508384 
L 958.664547 123.004614 
L 964.574076 114.815036 
L 970.483605 109.110874 
L 976.393134 106.109999 
L 982.302663 97.573103 
L 988.212192 93.867339 
L 994.121721 92.764348 
L 1000.031251 94.5054 
L 1005.94078 96.864808 
L 1011.850309 98.719329 
L 1017.759838 99.072743 
L 1023.669367 101.154747 
L 1029.578896 105.782901 
L 1035.488425 107.443583 
L 1041.397954 107.840854 
L 1047.307483 113.265708 
L 1053.217012 122.580193 
L 1059.126541 128.836642 
L 1065.03607 133.103992 
L 1070.945599 140.732585 
L 1076.855128 173.500568 
L 1076.855128 173.500568 
" clip-path="url(#pc37900ffa8)" style="fill: none; stroke: #0000ff; stroke-width: 1.5; stroke-linecap: square"/>
   </g>
   <g id="patch_3">
    <path d="M 46.824219 180.53875 
L 46.824219 25.69875 
" style="fill: none; stroke: #000000; stroke-width: 0.8; stroke-linejoin: miter; stroke-linecap: square"/>
   </g>
   <g id="patch_4">
    <path d="M 1125.904219 180.53875 
L 1125.904219 25.69875 
" style="fill: none; stroke: #000000; stroke-width: 0.8; stroke-linejoin: miter; stroke-linecap: square"/>
   </g>
   <g id="patch_5">
    <path d="M 46.824219 180.53875 
L 1125.904219 180.53875 
" style="fill: none; stroke: #000000; stroke-width: 0.8; stroke-linejoin: miter; stroke-linecap: square"/>
   </g>
   <g id="patch_6">
    <path d="M 46.824219 25.69875 
L 1125.904219 25.69875 
" style="fill: none; stroke: #000000; stroke-width: 0.8; stroke-linejoin: miter; stroke-linecap: square"/>
   </g>
   <g id="text_12">
    <!-- Model 4-2: Winter Week -->
    <g transform="translate(497.040625 19.69875) scale(0.18 -0.18)">
     <defs>
      <path id="TimesNewRomanPSMT-6f" d="M 1600 2947 
Q 2250 2947 2644 2453 
Q 2978 2031 2978 1484 
Q 2978 1100 2793 706 
Q 2609 313 2286 112 
Q 1963 -88 1566 -88 
Q 919 -88 538 428 
Q 216 863 216 1403 
Q 216 1797 411 2186 
Q 606 2575 925 2761 
Q 1244 2947 1600 2947 
z
M 1503 2744 
Q 1338 2744 1170 2645 
Q 1003 2547 900 2300 
Q 797 2053 797 1666 
Q 797 1041 1045 587 
Q 1294 134 1700 134 
Q 2003 134 2200 384 
Q 2397 634 2397 1244 
Q 2397 2006 2069 2444 
Q 1847 2744 1503 2744 
z
" transform="scale(0.015625)"/>
      <path id="TimesNewRomanPSMT-6c" d="M 1184 4444 
L 1184 647 
Q 1184 378 1223 290 
Q 1263 203 1344 158 
Q 1425 113 1647 113 
L 1647 0 
L 244 0 
L 244 113 
Q 441 113 512 153 
Q 584 194 625 287 
Q 666 381 666 647 
L 666 3247 
Q 666 3731 644 3842 
Q 622 3953 573 3993 
Q 525 4034 450 4034 
Q 369 4034 244 3984 
L 191 4094 
L 1044 4444 
L 1184 4444 
z
" transform="scale(0.015625)"/>
      <path id="TimesNewRomanPSMT-2d" d="M 259 1672 
L 1875 1672 
L 1875 1200 
L 259 1200 
L 259 1672 
z
" transform="scale(0.015625)"/>
      <path id="TimesNewRomanPSMT-3a" d="M 903 2950 
Q 1047 2950 1148 2848 
Q 1250 2747 1250 2603 
Q 1250 2459 1148 2357 
Q 1047 2256 903 2256 
Q 759 2256 657 2357 
Q 556 2459 556 2603 
Q 556 2747 657 2848 
Q 759 2950 903 2950 
z
M 897 609 
Q 1044 609 1145 506 
Q 1247 403 1247 259 
Q 1247 116 1144 14 
Q 1041 -88 897 -88 
Q 753 -88 651 14 
Q 550 116 550 259 
Q 550 403 651 506 
Q 753 609 897 609 
z
" transform="scale(0.015625)"/>
      <path id="TimesNewRomanPSMT-69" d="M 928 4444 
Q 1059 4444 1151 4351 
Q 1244 4259 1244 4128 
Q 1244 3997 1151 3903 
Q 1059 3809 928 3809 
Q 797 3809 703 3903 
Q 609 3997 609 4128 
Q 609 4259 701 4351 
Q 794 4444 928 4444 
z
M 1188 2947 
L 1188 647 
Q 1188 378 1227 289 
Q 1266 200 1342 156 
Q 1419 113 1622 113 
L 1622 0 
L 231 0 
L 231 113 
Q 441 113 512 153 
Q 584 194 626 287 
Q 669 381 669 647 
L 669 1750 
Q 669 2216 641 2353 
Q 619 2453 572 2492 
Q 525 2531 444 2531 
Q 356 2531 231 2484 
L 188 2597 
L 1050 2947 
L 1188 2947 
z
" transform="scale(0.015625)"/>
      <path id="TimesNewRomanPSMT-74" d="M 1031 3803 
L 1031 2863 
L 1700 2863 
L 1700 2644 
L 1031 2644 
L 1031 788 
Q 1031 509 1111 412 
Q 1191 316 1316 316 
Q 1419 316 1516 380 
Q 1613 444 1666 569 
L 1788 569 
Q 1678 263 1478 108 
Q 1278 -47 1066 -47 
Q 922 -47 784 33 
Q 647 113 581 261 
Q 516 409 516 719 
L 516 2644 
L 63 2644 
L 63 2747 
Q 234 2816 414 2980 
Q 594 3144 734 3369 
Q 806 3488 934 3803 
L 1031 3803 
z
" transform="scale(0.015625)"/>
      <path id="TimesNewRomanPSMT-72" d="M 1038 2947 
L 1038 2303 
Q 1397 2947 1775 2947 
Q 1947 2947 2059 2842 
Q 2172 2738 2172 2600 
Q 2172 2478 2090 2393 
Q 2009 2309 1897 2309 
Q 1788 2309 1652 2417 
Q 1516 2525 1450 2525 
Q 1394 2525 1328 2463 
Q 1188 2334 1038 2041 
L 1038 669 
Q 1038 431 1097 309 
Q 1138 225 1241 169 
Q 1344 113 1538 113 
L 1538 0 
L 72 0 
L 72 113 
Q 291 113 397 181 
Q 475 231 506 341 
Q 522 394 522 644 
L 522 1753 
Q 522 2253 501 2348 
Q 481 2444 426 2487 
Q 372 2531 291 2531 
Q 194 2531 72 2484 
L 41 2597 
L 906 2947 
L 1038 2947 
z
" transform="scale(0.015625)"/>
      <path id="TimesNewRomanPSMT-6b" d="M 1047 4444 
L 1047 1597 
L 1775 2259 
Q 2006 2472 2044 2528 
Q 2069 2566 2069 2603 
Q 2069 2666 2017 2711 
Q 1966 2756 1847 2763 
L 1847 2863 
L 3091 2863 
L 3091 2763 
Q 2834 2756 2664 2684 
Q 2494 2613 2291 2428 
L 1556 1750 
L 2291 822 
Q 2597 438 2703 334 
Q 2853 188 2966 144 
Q 3044 113 3238 113 
L 3238 0 
L 1847 0 
L 1847 113 
Q 1966 116 2008 148 
Q 2050 181 2050 241 
Q 2050 313 1925 472 
L 1047 1594 
L 1047 644 
Q 1047 366 1086 278 
Q 1125 191 1197 153 
Q 1269 116 1509 113 
L 1509 0 
L 53 0 
L 53 113 
Q 272 113 381 166 
Q 447 200 481 272 
Q 528 375 528 628 
L 528 3234 
Q 528 3731 506 3842 
Q 484 3953 434 3995 
Q 384 4038 303 4038 
Q 238 4038 106 3984 
L 53 4094 
L 903 4444 
L 1047 4444 
z
" transform="scale(0.015625)"/>
     </defs>
     <use xlink:href="#TimesNewRomanPSMT-4d"/>
     <use xlink:href="#TimesNewRomanPSMT-6f" x="88.916016"/>
     <use xlink:href="#TimesNewRomanPSMT-64" x="138.916016"/>
     <use xlink:href="#TimesNewRomanPSMT-65" x="188.916016"/>
     <use xlink:href="#TimesNewRomanPSMT-6c" x="233.300781"/>
     <use xlink:href="#TimesNewRomanPSMT-20" x="261.083984"/>
     <use xlink:href="#TimesNewRomanPSMT-34" x="286.083984"/>
     <use xlink:href="#TimesNewRomanPSMT-2d" x="336.083984"/>
     <use xlink:href="#TimesNewRomanPSMT-32" x="369.384766"/>
     <use xlink:href="#TimesNewRomanPSMT-3a" x="419.384766"/>
     <use xlink:href="#TimesNewRomanPSMT-20" x="447.167969"/>
     <use xlink:href="#TimesNewRomanPSMT-57" x="470.417969"/>
     <use xlink:href="#TimesNewRomanPSMT-69" x="560.802734"/>
     <use xlink:href="#TimesNewRomanPSMT-6e" x="588.585938"/>
     <use xlink:href="#TimesNewRomanPSMT-74" x="638.585938"/>
     <use xlink:href="#TimesNewRomanPSMT-65" x="666.369141"/>
     <use xlink:href="#TimesNewRomanPSMT-72" x="710.753906"/>
     <use xlink:href="#TimesNewRomanPSMT-20" x="744.054688"/>
     <use xlink:href="#TimesNewRomanPSMT-57" x="767.304688"/>
     <use xlink:href="#TimesNewRomanPSMT-65" x="853.689453"/>
     <use xlink:href="#TimesNewRomanPSMT-65" x="898.074219"/>
     <use xlink:href="#TimesNewRomanPSMT-6b" x="942.458984"/>
    </g>
   </g>
   <g id="legend_1">
    <g id="patch_7">
     <path d="M 1010.758125 80.115937 
L 1115.404219 80.115937 
Q 1118.404219 80.115937 1118.404219 77.115937 
L 1118.404219 36.19875 
Q 1118.404219 33.19875 1115.404219 33.19875 
L 1010.758125 33.19875 
Q 1007.758125 33.19875 1007.758125 36.19875 
L 1007.758125 77.115937 
Q 1007.758125 80.115937 1010.758125 80.115937 
z
" style="fill: #ffffff; opacity: 0.8; stroke: #cccccc; stroke-linejoin: miter"/>
    </g>
    <g id="line2d_23">
     <path d="M 1013.758125 44.44875 
L 1028.758125 44.44875 
L 1043.758125 44.44875 
" style="fill: none; stroke: #808080; stroke-width: 1.5; stroke-linecap: square"/>
    </g>
    <g id="text_13">
     <!-- Actual -->
     <g transform="translate(1055.758125 49.69875) scale(0.15 -0.15)">
      <defs>
       <path id="TimesNewRomanPSMT-41" d="M 2928 1419 
L 1288 1419 
L 1000 750 
Q 894 503 894 381 
Q 894 284 986 211 
Q 1078 138 1384 116 
L 1384 0 
L 50 0 
L 50 116 
Q 316 163 394 238 
Q 553 388 747 847 
L 2238 4334 
L 2347 4334 
L 3822 809 
Q 4000 384 4145 257 
Q 4291 131 4550 116 
L 4550 0 
L 2878 0 
L 2878 116 
Q 3131 128 3220 200 
Q 3309 272 3309 375 
Q 3309 513 3184 809 
L 2928 1419 
z
M 2841 1650 
L 2122 3363 
L 1384 1650 
L 2841 1650 
z
" transform="scale(0.015625)"/>
       <path id="TimesNewRomanPSMT-63" d="M 2631 1088 
Q 2516 522 2178 217 
Q 1841 -88 1431 -88 
Q 944 -88 581 321 
Q 219 731 219 1428 
Q 219 2103 620 2525 
Q 1022 2947 1584 2947 
Q 2006 2947 2278 2723 
Q 2550 2500 2550 2259 
Q 2550 2141 2473 2067 
Q 2397 1994 2259 1994 
Q 2075 1994 1981 2113 
Q 1928 2178 1911 2362 
Q 1894 2547 1784 2644 
Q 1675 2738 1481 2738 
Q 1169 2738 978 2506 
Q 725 2200 725 1697 
Q 725 1184 976 792 
Q 1228 400 1656 400 
Q 1963 400 2206 609 
Q 2378 753 2541 1131 
L 2631 1088 
z
" transform="scale(0.015625)"/>
       <path id="TimesNewRomanPSMT-75" d="M 2709 2863 
L 2709 1128 
Q 2709 631 2732 520 
Q 2756 409 2807 365 
Q 2859 322 2928 322 
Q 3025 322 3147 375 
L 3191 266 
L 2334 -88 
L 2194 -88 
L 2194 519 
Q 1825 119 1631 15 
Q 1438 -88 1222 -88 
Q 981 -88 804 51 
Q 628 191 559 409 
Q 491 628 491 1028 
L 491 2306 
Q 491 2509 447 2587 
Q 403 2666 317 2708 
Q 231 2750 6 2747 
L 6 2863 
L 1009 2863 
L 1009 947 
Q 1009 547 1148 422 
Q 1288 297 1484 297 
Q 1619 297 1789 381 
Q 1959 466 2194 703 
L 2194 2325 
Q 2194 2569 2105 2655 
Q 2016 2741 1734 2747 
L 1734 2863 
L 2709 2863 
z
" transform="scale(0.015625)"/>
      </defs>
      <use xlink:href="#TimesNewRomanPSMT-41"/>
      <use xlink:href="#TimesNewRomanPSMT-63" x="72.216797"/>
      <use xlink:href="#TimesNewRomanPSMT-74" x="116.601562"/>
      <use xlink:href="#TimesNewRomanPSMT-75" x="144.384766"/>
      <use xlink:href="#TimesNewRomanPSMT-61" x="194.384766"/>
      <use xlink:href="#TimesNewRomanPSMT-6c" x="238.769531"/>
     </g>
    </g>
    <g id="line2d_24">
     <path d="M 1013.758125 65.657344 
L 1028.758125 65.657344 
L 1043.758125 65.657344 
" style="fill: none; stroke: #0000ff; stroke-width: 1.5; stroke-linecap: square"/>
    </g>
    <g id="text_14">
     <!-- Predicted -->
     <g transform="translate(1055.758125 70.907344) scale(0.15 -0.15)">
      <defs>
       <path id="TimesNewRomanPSMT-50" d="M 1313 1984 
L 1313 750 
Q 1313 350 1400 253 
Q 1519 116 1759 116 
L 1922 116 
L 1922 0 
L 106 0 
L 106 116 
L 266 116 
Q 534 116 650 291 
Q 713 388 713 750 
L 713 3488 
Q 713 3888 628 3984 
Q 506 4122 266 4122 
L 106 4122 
L 106 4238 
L 1659 4238 
Q 2228 4238 2556 4120 
Q 2884 4003 3109 3725 
Q 3334 3447 3334 3066 
Q 3334 2547 2992 2222 
Q 2650 1897 2025 1897 
Q 1872 1897 1694 1919 
Q 1516 1941 1313 1984 
z
M 1313 2163 
Q 1478 2131 1606 2115 
Q 1734 2100 1825 2100 
Q 2150 2100 2386 2351 
Q 2622 2603 2622 3003 
Q 2622 3278 2509 3514 
Q 2397 3750 2190 3867 
Q 1984 3984 1722 3984 
Q 1563 3984 1313 3925 
L 1313 2163 
z
" transform="scale(0.015625)"/>
      </defs>
      <use xlink:href="#TimesNewRomanPSMT-50"/>
      <use xlink:href="#TimesNewRomanPSMT-72" x="55.615234"/>
      <use xlink:href="#TimesNewRomanPSMT-65" x="88.916016"/>
      <use xlink:href="#TimesNewRomanPSMT-64" x="133.300781"/>
      <use xlink:href="#TimesNewRomanPSMT-69" x="183.300781"/>
      <use xlink:href="#TimesNewRomanPSMT-63" x="211.083984"/>
      <use xlink:href="#TimesNewRomanPSMT-74" x="255.46875"/>
      <use xlink:href="#TimesNewRomanPSMT-65" x="283.251953"/>
      <use xlink:href="#TimesNewRomanPSMT-64" x="327.636719"/>
     </g>
    </g>
   </g>
  </g>
  <g id="axes_2">
   <g id="patch_8">
    <path d="M 46.824219 388.43875 
L 1125.904219 388.43875 
L 1125.904219 233.59875 
L 46.824219 233.59875 
z
" style="fill: #ffffff"/>
   </g>
   <g id="matplotlib.axis_3">
    <g id="xtick_8">
     <g id="line2d_25">
      <path d="M 154.9686 388.43875 
L 154.9686 233.59875 
" clip-path="url(#p04583641f2)" style="fill: none; stroke: #b0b0b0; stroke-opacity: 0.5; stroke-width: 0.8; stroke-linecap: square"/>
     </g>
     <g id="line2d_26"/>
     <g id="text_15">
      <!-- Aug 01 -->
      <g transform="translate(132.677194 402.32625) scale(0.15 -0.15)">
       <defs>
        <path id="TimesNewRomanPSMT-67" d="M 966 1044 
Q 703 1172 562 1401 
Q 422 1631 422 1909 
Q 422 2334 742 2640 
Q 1063 2947 1563 2947 
Q 1972 2947 2272 2747 
L 2878 2747 
Q 3013 2747 3034 2739 
Q 3056 2731 3066 2713 
Q 3084 2684 3084 2613 
Q 3084 2531 3069 2500 
Q 3059 2484 3036 2475 
Q 3013 2466 2878 2466 
L 2506 2466 
Q 2681 2241 2681 1891 
Q 2681 1491 2375 1206 
Q 2069 922 1553 922 
Q 1341 922 1119 984 
Q 981 866 932 777 
Q 884 688 884 625 
Q 884 572 936 522 
Q 988 472 1138 450 
Q 1225 438 1575 428 
Q 2219 413 2409 384 
Q 2700 344 2873 169 
Q 3047 -6 3047 -263 
Q 3047 -616 2716 -925 
Q 2228 -1381 1444 -1381 
Q 841 -1381 425 -1109 
Q 191 -953 191 -784 
Q 191 -709 225 -634 
Q 278 -519 444 -313 
Q 466 -284 763 25 
Q 600 122 533 198 
Q 466 275 466 372 
Q 466 481 555 628 
Q 644 775 966 1044 
z
M 1509 2797 
Q 1278 2797 1122 2612 
Q 966 2428 966 2047 
Q 966 1553 1178 1281 
Q 1341 1075 1591 1075 
Q 1828 1075 1981 1253 
Q 2134 1431 2134 1813 
Q 2134 2309 1919 2591 
Q 1759 2797 1509 2797 
z
M 934 0 
Q 788 -159 713 -296 
Q 638 -434 638 -550 
Q 638 -700 819 -813 
Q 1131 -1006 1722 -1006 
Q 2284 -1006 2551 -807 
Q 2819 -609 2819 -384 
Q 2819 -222 2659 -153 
Q 2497 -84 2016 -72 
Q 1313 -53 934 0 
z
" transform="scale(0.015625)"/>
       </defs>
       <use xlink:href="#TimesNewRomanPSMT-41"/>
       <use xlink:href="#TimesNewRomanPSMT-75" x="72.216797"/>
       <use xlink:href="#TimesNewRomanPSMT-67" x="122.216797"/>
       <use xlink:href="#TimesNewRomanPSMT-20" x="172.216797"/>
       <use xlink:href="#TimesNewRomanPSMT-30" x="197.216797"/>
       <use xlink:href="#TimesNewRomanPSMT-31" x="247.216797"/>
      </g>
     </g>
    </g>
    <g id="xtick_9">
     <g id="line2d_27">
      <path d="M 296.797297 388.43875 
L 296.797297 233.59875 
" clip-path="url(#p04583641f2)" style="fill: none; stroke: #b0b0b0; stroke-opacity: 0.5; stroke-width: 0.8; stroke-linecap: square"/>
     </g>
     <g id="line2d_28"/>
     <g id="text_16">
      <!-- Aug 02 -->
      <g transform="translate(274.50589 402.32625) scale(0.15 -0.15)">
       <use xlink:href="#TimesNewRomanPSMT-41"/>
       <use xlink:href="#TimesNewRomanPSMT-75" x="72.216797"/>
       <use xlink:href="#TimesNewRomanPSMT-67" x="122.216797"/>
       <use xlink:href="#TimesNewRomanPSMT-20" x="172.216797"/>
       <use xlink:href="#TimesNewRomanPSMT-30" x="197.216797"/>
       <use xlink:href="#TimesNewRomanPSMT-32" x="247.216797"/>
      </g>
     </g>
    </g>
    <g id="xtick_10">
     <g id="line2d_29">
      <path d="M 438.625993 388.43875 
L 438.625993 233.59875 
" clip-path="url(#p04583641f2)" style="fill: none; stroke: #b0b0b0; stroke-opacity: 0.5; stroke-width: 0.8; stroke-linecap: square"/>
     </g>
     <g id="line2d_30"/>
     <g id="text_17">
      <!-- Aug 03 -->
      <g transform="translate(416.334587 402.32625) scale(0.15 -0.15)">
       <use xlink:href="#TimesNewRomanPSMT-41"/>
       <use xlink:href="#TimesNewRomanPSMT-75" x="72.216797"/>
       <use xlink:href="#TimesNewRomanPSMT-67" x="122.216797"/>
       <use xlink:href="#TimesNewRomanPSMT-20" x="172.216797"/>
       <use xlink:href="#TimesNewRomanPSMT-30" x="197.216797"/>
       <use xlink:href="#TimesNewRomanPSMT-33" x="247.216797"/>
      </g>
     </g>
    </g>
    <g id="xtick_11">
     <g id="line2d_31">
      <path d="M 580.45469 388.43875 
L 580.45469 233.59875 
" clip-path="url(#p04583641f2)" style="fill: none; stroke: #b0b0b0; stroke-opacity: 0.5; stroke-width: 0.8; stroke-linecap: square"/>
     </g>
     <g id="line2d_32"/>
     <g id="text_18">
      <!-- Aug 04 -->
      <g transform="translate(558.163283 402.32625) scale(0.15 -0.15)">
       <use xlink:href="#TimesNewRomanPSMT-41"/>
       <use xlink:href="#TimesNewRomanPSMT-75" x="72.216797"/>
       <use xlink:href="#TimesNewRomanPSMT-67" x="122.216797"/>
       <use xlink:href="#TimesNewRomanPSMT-20" x="172.216797"/>
       <use xlink:href="#TimesNewRomanPSMT-30" x="197.216797"/>
       <use xlink:href="#TimesNewRomanPSMT-34" x="247.216797"/>
      </g>
     </g>
    </g>
    <g id="xtick_12">
     <g id="line2d_33">
      <path d="M 722.283386 388.43875 
L 722.283386 233.59875 
" clip-path="url(#p04583641f2)" style="fill: none; stroke: #b0b0b0; stroke-opacity: 0.5; stroke-width: 0.8; stroke-linecap: square"/>
     </g>
     <g id="line2d_34"/>
     <g id="text_19">
      <!-- Aug 05 -->
      <g transform="translate(699.99198 402.32625) scale(0.15 -0.15)">
       <use xlink:href="#TimesNewRomanPSMT-41"/>
       <use xlink:href="#TimesNewRomanPSMT-75" x="72.216797"/>
       <use xlink:href="#TimesNewRomanPSMT-67" x="122.216797"/>
       <use xlink:href="#TimesNewRomanPSMT-20" x="172.216797"/>
       <use xlink:href="#TimesNewRomanPSMT-30" x="197.216797"/>
       <use xlink:href="#TimesNewRomanPSMT-35" x="247.216797"/>
      </g>
     </g>
    </g>
    <g id="xtick_13">
     <g id="line2d_35">
      <path d="M 864.112083 388.43875 
L 864.112083 233.59875 
" clip-path="url(#p04583641f2)" style="fill: none; stroke: #b0b0b0; stroke-opacity: 0.5; stroke-width: 0.8; stroke-linecap: square"/>
     </g>
     <g id="line2d_36"/>
     <g id="text_20">
      <!-- Aug 06 -->
      <g transform="translate(841.820677 402.32625) scale(0.15 -0.15)">
       <use xlink:href="#TimesNewRomanPSMT-41"/>
       <use xlink:href="#TimesNewRomanPSMT-75" x="72.216797"/>
       <use xlink:href="#TimesNewRomanPSMT-67" x="122.216797"/>
       <use xlink:href="#TimesNewRomanPSMT-20" x="172.216797"/>
       <use xlink:href="#TimesNewRomanPSMT-30" x="197.216797"/>
       <use xlink:href="#TimesNewRomanPSMT-36" x="247.216797"/>
      </g>
     </g>
    </g>
    <g id="xtick_14">
     <g id="line2d_37">
      <path d="M 1005.94078 388.43875 
L 1005.94078 233.59875 
" clip-path="url(#p04583641f2)" style="fill: none; stroke: #b0b0b0; stroke-opacity: 0.5; stroke-width: 0.8; stroke-linecap: square"/>
     </g>
     <g id="line2d_38"/>
     <g id="text_21">
      <!-- Aug 07 -->
      <g transform="translate(983.649373 402.32625) scale(0.15 -0.15)">
       <use xlink:href="#TimesNewRomanPSMT-41"/>
       <use xlink:href="#TimesNewRomanPSMT-75" x="72.216797"/>
       <use xlink:href="#TimesNewRomanPSMT-67" x="122.216797"/>
       <use xlink:href="#TimesNewRomanPSMT-20" x="172.216797"/>
       <use xlink:href="#TimesNewRomanPSMT-30" x="197.216797"/>
       <use xlink:href="#TimesNewRomanPSMT-37" x="247.216797"/>
      </g>
     </g>
    </g>
   </g>
   <g id="matplotlib.axis_4">
    <g id="ytick_4">
     <g id="line2d_39">
      <path d="M 46.824219 367.88832 
L 1125.904219 367.88832 
" clip-path="url(#p04583641f2)" style="fill: none; stroke: #b0b0b0; stroke-opacity: 0.5; stroke-width: 0.8; stroke-linecap: square"/>
     </g>
     <g id="line2d_40">
      <g>
       <use xlink:href="#mefa9460682" x="46.824219" y="367.88832" style="stroke: #000000; stroke-width: 0.8"/>
      </g>
     </g>
     <g id="text_22">
      <!-- 3 -->
      <g transform="translate(32.324219 373.096133) scale(0.15 -0.15)">
       <use xlink:href="#TimesNewRomanPSMT-33"/>
      </g>
     </g>
    </g>
    <g id="ytick_5">
     <g id="line2d_41">
      <path d="M 46.824219 309.360017 
L 1125.904219 309.360017 
" clip-path="url(#p04583641f2)" style="fill: none; stroke: #b0b0b0; stroke-opacity: 0.5; stroke-width: 0.8; stroke-linecap: square"/>
     </g>
     <g id="line2d_42">
      <g>
       <use xlink:href="#mefa9460682" x="46.824219" y="309.360017" style="stroke: #000000; stroke-width: 0.8"/>
      </g>
     </g>
     <g id="text_23">
      <!-- 4 -->
      <g transform="translate(32.324219 314.567829) scale(0.15 -0.15)">
       <use xlink:href="#TimesNewRomanPSMT-34"/>
      </g>
     </g>
    </g>
    <g id="ytick_6">
     <g id="line2d_43">
      <path d="M 46.824219 250.831714 
L 1125.904219 250.831714 
" clip-path="url(#p04583641f2)" style="fill: none; stroke: #b0b0b0; stroke-opacity: 0.5; stroke-width: 0.8; stroke-linecap: square"/>
     </g>
     <g id="line2d_44">
      <g>
       <use xlink:href="#mefa9460682" x="46.824219" y="250.831714" style="stroke: #000000; stroke-width: 0.8"/>
      </g>
     </g>
     <g id="text_24">
      <!-- 5 -->
      <g transform="translate(32.324219 256.039526) scale(0.15 -0.15)">
       <use xlink:href="#TimesNewRomanPSMT-35"/>
      </g>
     </g>
    </g>
    <g id="text_25">
     <!-- Demand (MW) -->
     <g transform="translate(25.115625 357.045313) rotate(-90) scale(0.15 -0.15)">
      <use xlink:href="#TimesNewRomanPSMT-44"/>
      <use xlink:href="#TimesNewRomanPSMT-65" x="72.216797"/>
      <use xlink:href="#TimesNewRomanPSMT-6d" x="116.601562"/>
      <use xlink:href="#TimesNewRomanPSMT-61" x="194.384766"/>
      <use xlink:href="#TimesNewRomanPSMT-6e" x="238.769531"/>
      <use xlink:href="#TimesNewRomanPSMT-64" x="288.769531"/>
      <use xlink:href="#TimesNewRomanPSMT-20" x="338.769531"/>
      <use xlink:href="#TimesNewRomanPSMT-28" x="363.769531"/>
      <use xlink:href="#TimesNewRomanPSMT-4d" x="397.070312"/>
      <use xlink:href="#TimesNewRomanPSMT-57" x="485.986328"/>
      <use xlink:href="#TimesNewRomanPSMT-29" x="580.371094"/>
     </g>
    </g>
   </g>
   <g id="line2d_45">
    <path d="M 95.87331 363.777438 
L 101.782839 359.072202 
L 107.692368 353.49782 
L 113.601897 345.145333 
L 119.511426 324.960619 
L 125.420955 311.810451 
L 131.330484 309.71186 
L 137.240013 316.933667 
L 143.149542 311.744079 
L 154.9686 338.573805 
L 160.878129 332.9212 
L 166.787658 330.307443 
L 172.697187 333.172462 
L 178.606716 339.875152 
L 184.516245 334.018693 
L 190.425774 359.413539 
L 196.335303 343.079928 
L 202.244832 348.447295 
L 208.154361 349.796051 
L 214.06389 349.780248 
L 219.973419 360.462834 
L 225.882948 350.603566 
L 231.792477 356.654397 
L 237.702006 359.440403 
L 243.611535 361.57297 
L 249.521064 363.454274 
L 255.430593 351.517749 
L 261.340122 337.984366 
L 267.249651 340.317626 
L 273.15918 331.434961 
L 279.068709 319.319076 
L 284.978238 314.741841 
L 290.887767 314.07971 
L 296.797297 310.802242 
L 302.706826 316.753517 
L 308.616355 328.304458 
L 314.525884 333.987088 
L 320.435413 335.55313 
L 326.344942 337.921156 
L 332.254471 336.986429 
L 338.164 331.939856 
L 344.073529 332.654135 
L 349.983058 331.947757 
L 355.892587 335.888146 
L 361.802116 343.430747 
L 367.711645 350.228253 
L 373.621174 355.537941 
L 379.530703 359.596849 
L 385.440232 362.383645 
L 391.349761 354.340891 
L 397.25929 354.323508 
L 403.168819 346.5012 
L 409.078348 340.2797 
L 414.987877 337.390187 
L 420.897406 327.766378 
L 426.806935 319.811328 
L 432.716464 327.589388 
L 438.625993 325.723096 
L 444.535522 330.421222 
L 450.445051 337.396508 
L 456.35458 346.144851 
L 462.264109 352.191731 
L 468.173638 344.318065 
L 474.083167 346.747721 
L 479.992696 346.427718 
L 485.902225 334.65712 
L 491.811754 326.216929 
L 497.721283 324.706987 
L 503.630812 329.965316 
L 509.540341 356.375481 
L 515.44987 360.07883 
L 521.359399 362.551943 
L 527.268928 361.45761 
L 533.178458 365.28343 
L 539.087987 345.377632 
L 544.997516 331.451554 
L 550.907045 297.498788 
L 556.816574 290.053373 
L 562.726103 308.659404 
L 568.635632 306.252661 
L 574.545161 320.275136 
L 580.45469 326.969135 
L 586.364219 328.064258 
L 592.273748 322.414813 
L 598.183277 328.607079 
L 604.092806 328.864662 
L 610.002335 322.27654 
L 615.911864 320.741314 
L 621.821393 320.151085 
L 627.730922 322.699261 
L 633.640451 322.067155 
L 639.54998 322.736397 
L 645.459509 332.438429 
L 651.369038 348.718311 
L 657.278567 343.8108 
L 663.188096 344.147397 
L 669.097625 342.67222 
L 675.007154 347.869709 
L 680.916683 332.970978 
L 686.826212 310.681352 
L 692.735741 300.771515 
L 698.64527 274.807774 
L 704.554799 276.379347 
L 710.464328 282.402524 
L 716.373857 285.076331 
L 722.283386 290.079448 
L 728.192915 294.796536 
L 734.102444 316.086645 
L 740.011973 325.596675 
L 745.921502 325.958556 
L 751.831031 321.585175 
L 757.74056 317.360338 
L 763.65009 319.560066 
L 769.559619 337.244803 
L 775.469148 332.940953 
L 781.378677 325.275882 
L 787.288206 360.450192 
L 793.197735 364.705053 
L 799.107264 365.934499 
L 805.016793 365.237602 
L 810.926322 355.403618 
L 816.835851 346.829895 
L 822.74538 336.973787 
L 828.654909 308.526662 
L 834.564438 240.636932 
L 840.473967 245.780692 
L 846.383496 257.905269 
L 852.293025 314.933053 
L 858.202554 326.99916 
L 864.112083 312.639299 
L 870.021612 340.33817 
L 875.931141 326.994419 
L 881.84067 301.349892 
L 887.750199 313.653039 
L 893.659728 321.966018 
L 899.569257 314.85957 
L 905.478786 320.491632 
L 911.388315 319.368064 
L 917.297844 317.864443 
L 923.207373 335.850219 
L 929.116902 346.102974 
L 935.026431 357.349714 
L 940.93596 364.283913 
L 946.845489 359.24445 
L 952.755018 358.190414 
L 958.664547 356.213504 
L 964.574076 342.100164 
L 970.483605 325.286153 
L 976.393134 284.392867 
L 982.302663 322.297874 
L 988.212192 295.768399 
L 994.121721 287.240503 
L 1000.031251 299.628984 
L 1005.94078 313.109428 
L 1011.850309 310.01132 
L 1017.759838 313.394665 
L 1023.669367 327.857243 
L 1029.578896 329.384569 
L 1035.488425 325.279832 
L 1041.397954 328.301297 
L 1047.307483 325.178695 
L 1053.217012 321.192479 
L 1059.126541 319.64461 
L 1065.03607 319.920366 
L 1070.945599 336.801539 
L 1076.855128 358.577579 
L 1076.855128 358.577579 
" clip-path="url(#p04583641f2)" style="fill: none; stroke: #808080; stroke-width: 1.5; stroke-linecap: square"/>
   </g>
   <g id="line2d_46">
    <path d="M 95.87331 343.579166 
L 107.692368 323.286514 
L 113.601897 313.449065 
L 119.511426 303.364512 
L 125.420955 295.427101 
L 131.330484 296.229402 
L 137.240013 308.064287 
L 143.149542 312.048377 
L 149.059071 316.354224 
L 154.9686 319.050312 
L 160.878129 326.753828 
L 166.787658 335.528953 
L 172.697187 349.365847 
L 178.606716 355.892946 
L 184.516245 363.235735 
L 190.425774 365.683628 
L 196.335303 360.757693 
L 202.244832 343.573541 
L 208.154361 334.645977 
L 214.06389 333.55685 
L 219.973419 341.413685 
L 225.882948 377.666394 
L 231.792477 372.08176 
L 237.702006 357.368893 
L 243.611535 345.149221 
L 249.521064 334.971287 
L 261.340122 319.93912 
L 273.15918 302.775974 
L 279.068709 298.646665 
L 284.978238 296.821316 
L 290.887767 292.28882 
L 296.797297 287.208093 
L 302.706826 290.486645 
L 308.616355 303.688907 
L 314.525884 304.079297 
L 320.435413 307.314646 
L 326.344942 313.918854 
L 332.254471 317.509374 
L 338.164 326.871345 
L 344.073529 327.024276 
L 349.983058 324.965508 
L 355.892587 316.775874 
L 361.802116 320.230916 
L 367.711645 359.32209 
L 379.530703 340.931139 
L 385.440232 332.898928 
L 391.349761 325.533391 
L 397.25929 320.150594 
L 403.168819 313.244832 
L 409.078348 307.707807 
L 414.987877 304.231411 
L 420.897406 304.027439 
L 426.806935 311.991173 
L 432.716464 313.798157 
L 438.625993 317.755624 
L 444.535522 318.378908 
L 450.445051 323.834043 
L 456.35458 330.400267 
L 462.264109 334.935372 
L 468.173638 337.263056 
L 474.083167 343.865825 
L 479.992696 348.884655 
L 485.902225 346.178846 
L 491.811754 331.290506 
L 497.721283 324.202949 
L 503.630812 326.542156 
L 509.540341 365.242317 
L 515.44987 356.387656 
L 521.359399 346.34667 
L 533.178458 324.930217 
L 539.087987 314.71841 
L 544.997516 305.491913 
L 550.907045 301.376292 
L 556.816574 299.448742 
L 562.726103 297.388183 
L 568.635632 303.469262 
L 574.545161 315.343383 
L 580.45469 326.047273 
L 586.364219 337.660195 
L 592.273748 334.192992 
L 598.183277 332.490739 
L 604.092806 331.931812 
L 610.002335 327.974324 
L 621.821393 341.395307 
L 627.730922 341.619924 
L 633.640451 337.478649 
L 639.54998 336.764605 
L 645.459509 335.246541 
L 651.369038 367.99751 
L 657.278567 349.63544 
L 663.188096 335.45406 
L 669.097625 326.180745 
L 675.007154 317.954255 
L 680.916683 308.481752 
L 686.826212 300.335609 
L 692.735741 290.0485 
L 698.64527 280.038566 
L 704.554799 276.737626 
L 710.464328 276.667491 
L 716.373857 280.963924 
L 722.283386 284.08723 
L 728.192915 292.517741 
L 734.102444 294.176429 
L 740.011973 299.701399 
L 745.921502 301.912149 
L 751.831031 306.456298 
L 757.74056 308.559521 
L 763.65009 313.082343 
L 769.559619 314.930388 
L 775.469148 311.992564 
L 781.378677 315.350849 
L 787.288206 314.463474 
L 793.197735 349.165888 
L 799.107264 340.160615 
L 805.016793 330.527296 
L 810.926322 318.434342 
L 816.835851 306.674977 
L 822.74538 297.047517 
L 828.654909 287.035373 
L 834.564438 280.384685 
L 840.473967 281.21595 
L 846.383496 290.514318 
L 852.293025 294.900283 
L 858.202554 301.632583 
L 864.112083 305.136041 
L 870.021612 311.220473 
L 875.931141 318.001432 
L 881.84067 323.330896 
L 887.750199 325.307762 
L 893.659728 329.337077 
L 899.569257 335.430805 
L 905.478786 337.446075 
L 911.388315 326.278455 
L 917.297844 313.485655 
L 923.207373 310.534148 
L 929.116902 314.779905 
L 935.026431 352.997092 
L 940.93596 343.668147 
L 946.845489 337.070972 
L 952.755018 327.938855 
L 958.664547 318.128039 
L 970.483605 297.154646 
L 976.393134 289.493117 
L 982.302663 294.405398 
L 988.212192 301.283107 
L 994.121721 304.3418 
L 1000.031251 308.554238 
L 1005.94078 318.863494 
L 1011.850309 326.486636 
L 1017.759838 332.058351 
L 1023.669367 338.090914 
L 1029.578896 344.373992 
L 1035.488425 348.565505 
L 1041.397954 353.35658 
L 1047.307483 351.883145 
L 1053.217012 348.742878 
L 1059.126541 344.668944 
L 1065.03607 338.704464 
L 1070.945599 341.941553 
L 1076.855128 381.400568 
L 1076.855128 381.400568 
" clip-path="url(#p04583641f2)" style="fill: none; stroke: #0000ff; stroke-width: 1.5; stroke-linecap: square"/>
   </g>
   <g id="patch_9">
    <path d="M 46.824219 388.43875 
L 46.824219 233.59875 
" style="fill: none; stroke: #000000; stroke-width: 0.8; stroke-linejoin: miter; stroke-linecap: square"/>
   </g>
   <g id="patch_10">
    <path d="M 1125.904219 388.43875 
L 1125.904219 233.59875 
" style="fill: none; stroke: #000000; stroke-width: 0.8; stroke-linejoin: miter; stroke-linecap: square"/>
   </g>
   <g id="patch_11">
    <path d="M 46.824219 388.43875 
L 1125.904219 388.43875 
" style="fill: none; stroke: #000000; stroke-width: 0.8; stroke-linejoin: miter; stroke-linecap: square"/>
   </g>
   <g id="patch_12">
    <path d="M 46.824219 233.59875 
L 1125.904219 233.59875 
" style="fill: none; stroke: #000000; stroke-width: 0.8; stroke-linejoin: miter; stroke-linecap: square"/>
   </g>
   <g id="text_26">
    <!-- Model 4-2: Summer Week -->
    <g transform="translate(491.013437 227.59875) scale(0.18 -0.18)">
     <defs>
      <path id="TimesNewRomanPSMT-53" d="M 2934 4334 
L 2934 2869 
L 2819 2869 
Q 2763 3291 2617 3541 
Q 2472 3791 2203 3937 
Q 1934 4084 1647 4084 
Q 1322 4084 1109 3886 
Q 897 3688 897 3434 
Q 897 3241 1031 3081 
Q 1225 2847 1953 2456 
Q 2547 2138 2764 1967 
Q 2981 1797 3098 1565 
Q 3216 1334 3216 1081 
Q 3216 600 2842 251 
Q 2469 -97 1881 -97 
Q 1697 -97 1534 -69 
Q 1438 -53 1133 45 
Q 828 144 747 144 
Q 669 144 623 97 
Q 578 50 556 -97 
L 441 -97 
L 441 1356 
L 556 1356 
Q 638 900 775 673 
Q 913 447 1195 297 
Q 1478 147 1816 147 
Q 2206 147 2432 353 
Q 2659 559 2659 841 
Q 2659 997 2573 1156 
Q 2488 1316 2306 1453 
Q 2184 1547 1640 1851 
Q 1097 2156 867 2337 
Q 638 2519 519 2737 
Q 400 2956 400 3219 
Q 400 3675 750 4004 
Q 1100 4334 1641 4334 
Q 1978 4334 2356 4169 
Q 2531 4091 2603 4091 
Q 2684 4091 2736 4139 
Q 2788 4188 2819 4334 
L 2934 4334 
z
" transform="scale(0.015625)"/>
     </defs>
     <use xlink:href="#TimesNewRomanPSMT-4d"/>
     <use xlink:href="#TimesNewRomanPSMT-6f" x="88.916016"/>
     <use xlink:href="#TimesNewRomanPSMT-64" x="138.916016"/>
     <use xlink:href="#TimesNewRomanPSMT-65" x="188.916016"/>
     <use xlink:href="#TimesNewRomanPSMT-6c" x="233.300781"/>
     <use xlink:href="#TimesNewRomanPSMT-20" x="261.083984"/>
     <use xlink:href="#TimesNewRomanPSMT-34" x="286.083984"/>
     <use xlink:href="#TimesNewRomanPSMT-2d" x="336.083984"/>
     <use xlink:href="#TimesNewRomanPSMT-32" x="369.384766"/>
     <use xlink:href="#TimesNewRomanPSMT-3a" x="419.384766"/>
     <use xlink:href="#TimesNewRomanPSMT-20" x="447.167969"/>
     <use xlink:href="#TimesNewRomanPSMT-53" x="472.167969"/>
     <use xlink:href="#TimesNewRomanPSMT-75" x="527.783203"/>
     <use xlink:href="#TimesNewRomanPSMT-6d" x="577.783203"/>
     <use xlink:href="#TimesNewRomanPSMT-6d" x="655.566406"/>
     <use xlink:href="#TimesNewRomanPSMT-65" x="733.349609"/>
     <use xlink:href="#TimesNewRomanPSMT-72" x="777.734375"/>
     <use xlink:href="#TimesNewRomanPSMT-20" x="811.035156"/>
     <use xlink:href="#TimesNewRomanPSMT-57" x="834.285156"/>
     <use xlink:href="#TimesNewRomanPSMT-65" x="920.669922"/>
     <use xlink:href="#TimesNewRomanPSMT-65" x="965.054688"/>
     <use xlink:href="#TimesNewRomanPSMT-6b" x="1009.439453"/>
    </g>
   </g>
   <g id="legend_2">
    <g id="patch_13">
     <path d="M 1010.758125 288.015937 
L 1115.404219 288.015937 
Q 1118.404219 288.015937 1118.404219 285.015937 
L 1118.404219 244.09875 
Q 1118.404219 241.09875 1115.404219 241.09875 
L 1010.758125 241.09875 
Q 1007.758125 241.09875 1007.758125 244.09875 
L 1007.758125 285.015937 
Q 1007.758125 288.015937 1010.758125 288.015937 
z
" style="fill: #ffffff; opacity: 0.8; stroke: #cccccc; stroke-linejoin: miter"/>
    </g>
    <g id="line2d_47">
     <path d="M 1013.758125 252.34875 
L 1028.758125 252.34875 
L 1043.758125 252.34875 
" style="fill: none; stroke: #808080; stroke-width: 1.5; stroke-linecap: square"/>
    </g>
    <g id="text_27">
     <!-- Actual -->
     <g transform="translate(1055.758125 257.59875) scale(0.15 -0.15)">
      <use xlink:href="#TimesNewRomanPSMT-41"/>
      <use xlink:href="#TimesNewRomanPSMT-63" x="72.216797"/>
      <use xlink:href="#TimesNewRomanPSMT-74" x="116.601562"/>
      <use xlink:href="#TimesNewRomanPSMT-75" x="144.384766"/>
      <use xlink:href="#TimesNewRomanPSMT-61" x="194.384766"/>
      <use xlink:href="#TimesNewRomanPSMT-6c" x="238.769531"/>
     </g>
    </g>
    <g id="line2d_48">
     <path d="M 1013.758125 273.557344 
L 1028.758125 273.557344 
L 1043.758125 273.557344 
" style="fill: none; stroke: #0000ff; stroke-width: 1.5; stroke-linecap: square"/>
    </g>
    <g id="text_28">
     <!-- Predicted -->
     <g transform="translate(1055.758125 278.807344) scale(0.15 -0.15)">
      <use xlink:href="#TimesNewRomanPSMT-50"/>
      <use xlink:href="#TimesNewRomanPSMT-72" x="55.615234"/>
      <use xlink:href="#TimesNewRomanPSMT-65" x="88.916016"/>
      <use xlink:href="#TimesNewRomanPSMT-64" x="133.300781"/>
      <use xlink:href="#TimesNewRomanPSMT-69" x="183.300781"/>
      <use xlink:href="#TimesNewRomanPSMT-63" x="211.083984"/>
      <use xlink:href="#TimesNewRomanPSMT-74" x="255.46875"/>
      <use xlink:href="#TimesNewRomanPSMT-65" x="283.251953"/>
      <use xlink:href="#TimesNewRomanPSMT-64" x="327.636719"/>
     </g>
    </g>
   </g>
  </g>
 </g>
 <defs>
  <clipPath id="pc37900ffa8">
   <rect x="46.824219" y="25.69875" width="1079.08" height="154.84"/>
  </clipPath>
  <clipPath id="p04583641f2">
   <rect x="46.824219" y="233.59875" width="1079.08" height="154.84"/>
  </clipPath>
 </defs>
</svg>
