<?xml version="1.0" encoding="utf-8" standalone="no"?>
<!DOCTYPE svg PUBLIC "-//W3C//DTD SVG 1.1//EN"
  "http://www.w3.org/Graphics/SVG/1.1/DTD/svg11.dtd">
<svg xmlns:xlink="http://www.w3.org/1999/xlink" width="1133.104219pt" height="700.762969pt" viewBox="0 0 1133.104219 700.762969" xmlns="http://www.w3.org/2000/svg" version="1.1">
 <metadata>
  <rdf:RDF xmlns:dc="http://purl.org/dc/elements/1.1/" xmlns:cc="http://creativecommons.org/ns#" xmlns:rdf="http://www.w3.org/1999/02/22-rdf-syntax-ns#">
   <cc:Work>
    <dc:type rdf:resource="http://purl.org/dc/dcmitype/StillImage"/>
    <dc:date>2024-04-19T17:41:48.481844</dc:date>
    <dc:format>image/svg+xml</dc:format>
    <dc:creator>
     <cc:Agent>
      <dc:title>Matplotlib v3.8.2, https://matplotlib.org/</dc:title>
     </cc:Agent>
    </dc:creator>
   </cc:Work>
  </rdf:RDF>
 </metadata>
 <defs>
  <style type="text/css">*{stroke-linejoin: round; stroke-linecap: butt}</style>
 </defs>
 <g id="figure_1">
  <g id="patch_1">
   <path d="M 0 700.762969 
L 1133.104219 700.762969 
L 1133.104219 0 
L 0 0 
z
" style="fill: #ffffff"/>
  </g>
  <g id="axes_1">
   <g id="patch_2">
    <path d="M 46.824219 321.03875 
L 1125.904219 321.03875 
L 1125.904219 25.69875 
L 46.824219 25.69875 
z
" style="fill: #ffffff"/>
   </g>
   <g id="matplotlib.axis_1">
    <g id="xtick_1">
     <g id="line2d_1">
      <path d="M 178.405653 321.03875 
L 178.405653 25.69875 
" clip-path="url(#p70a6b689e3)" style="fill: none; stroke: #b0b0b0; stroke-width: 0.8; stroke-linecap: square"/>
     </g>
     <g id="line2d_2">
      <defs>
       <path id="ma380696708" d="M 0 0 
L 0 3.5 
" style="stroke: #000000; stroke-width: 0.8"/>
      </defs>
      <g>
       <use xlink:href="#ma380696708" x="178.405653" y="321.03875" style="stroke: #000000; stroke-width: 0.8"/>
      </g>
     </g>
     <g id="text_1">
      <!-- 2007-11 -->
      <g transform="translate(153.689637 338.454375) scale(0.15 -0.15)">
       <defs>
        <path id="TimesNewRomanPSMT-32" d="M 2934 816 
L 2638 0 
L 138 0 
L 138 116 
Q 1241 1122 1691 1759 
Q 2141 2397 2141 2925 
Q 2141 3328 1894 3587 
Q 1647 3847 1303 3847 
Q 991 3847 742 3664 
Q 494 3481 375 3128 
L 259 3128 
Q 338 3706 661 4015 
Q 984 4325 1469 4325 
Q 1984 4325 2329 3994 
Q 2675 3663 2675 3213 
Q 2675 2891 2525 2569 
Q 2294 2063 1775 1497 
Q 997 647 803 472 
L 1909 472 
Q 2247 472 2383 497 
Q 2519 522 2628 598 
Q 2738 675 2819 816 
L 2934 816 
z
" transform="scale(0.015625)"/>
        <path id="TimesNewRomanPSMT-30" d="M 231 2094 
Q 231 2819 450 3342 
Q 669 3866 1031 4122 
Q 1313 4325 1613 4325 
Q 2100 4325 2488 3828 
Q 2972 3213 2972 2159 
Q 2972 1422 2759 906 
Q 2547 391 2217 158 
Q 1888 -75 1581 -75 
Q 975 -75 572 641 
Q 231 1244 231 2094 
z
M 844 2016 
Q 844 1141 1059 588 
Q 1238 122 1591 122 
Q 1759 122 1940 273 
Q 2122 425 2216 781 
Q 2359 1319 2359 2297 
Q 2359 3022 2209 3506 
Q 2097 3866 1919 4016 
Q 1791 4119 1609 4119 
Q 1397 4119 1231 3928 
Q 1006 3669 925 3112 
Q 844 2556 844 2016 
z
" transform="scale(0.015625)"/>
        <path id="TimesNewRomanPSMT-37" d="M 644 4238 
L 2916 4238 
L 2916 4119 
L 1503 -88 
L 1153 -88 
L 2419 3728 
L 1253 3728 
Q 900 3728 750 3644 
Q 488 3500 328 3200 
L 238 3234 
L 644 4238 
z
" transform="scale(0.015625)"/>
        <path id="TimesNewRomanPSMT-2d" d="M 259 1672 
L 1875 1672 
L 1875 1200 
L 259 1200 
L 259 1672 
z
" transform="scale(0.015625)"/>
        <path id="TimesNewRomanPSMT-31" d="M 750 3822 
L 1781 4325 
L 1884 4325 
L 1884 747 
Q 1884 391 1914 303 
Q 1944 216 2037 169 
Q 2131 122 2419 116 
L 2419 0 
L 825 0 
L 825 116 
Q 1125 122 1212 167 
Q 1300 213 1334 289 
Q 1369 366 1369 747 
L 1369 3034 
Q 1369 3497 1338 3628 
Q 1316 3728 1258 3775 
Q 1200 3822 1119 3822 
Q 1003 3822 797 3725 
L 750 3822 
z
" transform="scale(0.015625)"/>
       </defs>
       <use xlink:href="#TimesNewRomanPSMT-32"/>
       <use xlink:href="#TimesNewRomanPSMT-30" x="50"/>
       <use xlink:href="#TimesNewRomanPSMT-30" x="100"/>
       <use xlink:href="#TimesNewRomanPSMT-37" x="150"/>
       <use xlink:href="#TimesNewRomanPSMT-2d" x="200"/>
       <use xlink:href="#TimesNewRomanPSMT-31" x="233.300781"/>
       <use xlink:href="#TimesNewRomanPSMT-31" x="279.550781"/>
      </g>
     </g>
    </g>
    <g id="xtick_2">
     <g id="line2d_3">
      <path d="M 342.35056 321.03875 
L 342.35056 25.69875 
" clip-path="url(#p70a6b689e3)" style="fill: none; stroke: #b0b0b0; stroke-width: 0.8; stroke-linecap: square"/>
     </g>
     <g id="line2d_4">
      <g>
       <use xlink:href="#ma380696708" x="342.35056" y="321.03875" style="stroke: #000000; stroke-width: 0.8"/>
      </g>
     </g>
     <g id="text_2">
      <!-- 2008-01 -->
      <g transform="translate(317.353294 338.454375) scale(0.15 -0.15)">
       <defs>
        <path id="TimesNewRomanPSMT-38" d="M 1228 2134 
Q 725 2547 579 2797 
Q 434 3047 434 3316 
Q 434 3728 753 4026 
Q 1072 4325 1600 4325 
Q 2113 4325 2425 4047 
Q 2738 3769 2738 3413 
Q 2738 3175 2569 2928 
Q 2400 2681 1866 2347 
Q 2416 1922 2594 1678 
Q 2831 1359 2831 1006 
Q 2831 559 2490 242 
Q 2150 -75 1597 -75 
Q 994 -75 656 303 
Q 388 606 388 966 
Q 388 1247 577 1523 
Q 766 1800 1228 2134 
z
M 1719 2469 
Q 2094 2806 2194 3001 
Q 2294 3197 2294 3444 
Q 2294 3772 2109 3958 
Q 1925 4144 1606 4144 
Q 1288 4144 1088 3959 
Q 888 3775 888 3528 
Q 888 3366 970 3203 
Q 1053 3041 1206 2894 
L 1719 2469 
z
M 1375 2016 
Q 1116 1797 991 1539 
Q 866 1281 866 981 
Q 866 578 1086 336 
Q 1306 94 1647 94 
Q 1984 94 2187 284 
Q 2391 475 2391 747 
Q 2391 972 2272 1150 
Q 2050 1481 1375 2016 
z
" transform="scale(0.015625)"/>
       </defs>
       <use xlink:href="#TimesNewRomanPSMT-32"/>
       <use xlink:href="#TimesNewRomanPSMT-30" x="50"/>
       <use xlink:href="#TimesNewRomanPSMT-30" x="100"/>
       <use xlink:href="#TimesNewRomanPSMT-38" x="150"/>
       <use xlink:href="#TimesNewRomanPSMT-2d" x="200"/>
       <use xlink:href="#TimesNewRomanPSMT-30" x="233.300781"/>
       <use xlink:href="#TimesNewRomanPSMT-31" x="283.300781"/>
      </g>
     </g>
    </g>
    <g id="xtick_3">
     <g id="line2d_5">
      <path d="M 503.607845 321.03875 
L 503.607845 25.69875 
" clip-path="url(#p70a6b689e3)" style="fill: none; stroke: #b0b0b0; stroke-width: 0.8; stroke-linecap: square"/>
     </g>
     <g id="line2d_6">
      <g>
       <use xlink:href="#ma380696708" x="503.607845" y="321.03875" style="stroke: #000000; stroke-width: 0.8"/>
      </g>
     </g>
     <g id="text_3">
      <!-- 2008-03 -->
      <g transform="translate(478.610579 338.454375) scale(0.15 -0.15)">
       <defs>
        <path id="TimesNewRomanPSMT-33" d="M 325 3431 
Q 506 3859 782 4092 
Q 1059 4325 1472 4325 
Q 1981 4325 2253 3994 
Q 2459 3747 2459 3466 
Q 2459 3003 1878 2509 
Q 2269 2356 2469 2072 
Q 2669 1788 2669 1403 
Q 2669 853 2319 450 
Q 1863 -75 997 -75 
Q 569 -75 414 31 
Q 259 138 259 259 
Q 259 350 332 419 
Q 406 488 509 488 
Q 588 488 669 463 
Q 722 447 909 348 
Q 1097 250 1169 231 
Q 1284 197 1416 197 
Q 1734 197 1970 444 
Q 2206 691 2206 1028 
Q 2206 1275 2097 1509 
Q 2016 1684 1919 1775 
Q 1784 1900 1550 2001 
Q 1316 2103 1072 2103 
L 972 2103 
L 972 2197 
Q 1219 2228 1467 2375 
Q 1716 2522 1828 2728 
Q 1941 2934 1941 3181 
Q 1941 3503 1739 3701 
Q 1538 3900 1238 3900 
Q 753 3900 428 3381 
L 325 3431 
z
" transform="scale(0.015625)"/>
       </defs>
       <use xlink:href="#TimesNewRomanPSMT-32"/>
       <use xlink:href="#TimesNewRomanPSMT-30" x="50"/>
       <use xlink:href="#TimesNewRomanPSMT-30" x="100"/>
       <use xlink:href="#TimesNewRomanPSMT-38" x="150"/>
       <use xlink:href="#TimesNewRomanPSMT-2d" x="200"/>
       <use xlink:href="#TimesNewRomanPSMT-30" x="233.300781"/>
       <use xlink:href="#TimesNewRomanPSMT-33" x="283.300781"/>
      </g>
     </g>
    </g>
    <g id="xtick_4">
     <g id="line2d_7">
      <path d="M 667.552751 321.03875 
L 667.552751 25.69875 
" clip-path="url(#p70a6b689e3)" style="fill: none; stroke: #b0b0b0; stroke-width: 0.8; stroke-linecap: square"/>
     </g>
     <g id="line2d_8">
      <g>
       <use xlink:href="#ma380696708" x="667.552751" y="321.03875" style="stroke: #000000; stroke-width: 0.8"/>
      </g>
     </g>
     <g id="text_4">
      <!-- 2008-05 -->
      <g transform="translate(642.555486 338.454375) scale(0.15 -0.15)">
       <defs>
        <path id="TimesNewRomanPSMT-35" d="M 2778 4238 
L 2534 3706 
L 1259 3706 
L 981 3138 
Q 1809 3016 2294 2522 
Q 2709 2097 2709 1522 
Q 2709 1188 2573 903 
Q 2438 619 2231 419 
Q 2025 219 1772 97 
Q 1413 -75 1034 -75 
Q 653 -75 479 54 
Q 306 184 306 341 
Q 306 428 378 495 
Q 450 563 559 563 
Q 641 563 702 538 
Q 763 513 909 409 
Q 1144 247 1384 247 
Q 1750 247 2026 523 
Q 2303 800 2303 1197 
Q 2303 1581 2056 1914 
Q 1809 2247 1375 2428 
Q 1034 2569 447 2591 
L 1259 4238 
L 2778 4238 
z
" transform="scale(0.015625)"/>
       </defs>
       <use xlink:href="#TimesNewRomanPSMT-32"/>
       <use xlink:href="#TimesNewRomanPSMT-30" x="50"/>
       <use xlink:href="#TimesNewRomanPSMT-30" x="100"/>
       <use xlink:href="#TimesNewRomanPSMT-38" x="150"/>
       <use xlink:href="#TimesNewRomanPSMT-2d" x="200"/>
       <use xlink:href="#TimesNewRomanPSMT-30" x="233.300781"/>
       <use xlink:href="#TimesNewRomanPSMT-35" x="283.300781"/>
      </g>
     </g>
    </g>
    <g id="xtick_5">
     <g id="line2d_9">
      <path d="M 831.497658 321.03875 
L 831.497658 25.69875 
" clip-path="url(#p70a6b689e3)" style="fill: none; stroke: #b0b0b0; stroke-width: 0.8; stroke-linecap: square"/>
     </g>
     <g id="line2d_10">
      <g>
       <use xlink:href="#ma380696708" x="831.497658" y="321.03875" style="stroke: #000000; stroke-width: 0.8"/>
      </g>
     </g>
     <g id="text_5">
      <!-- 2008-07 -->
      <g transform="translate(806.500392 338.454375) scale(0.15 -0.15)">
       <use xlink:href="#TimesNewRomanPSMT-32"/>
       <use xlink:href="#TimesNewRomanPSMT-30" x="50"/>
       <use xlink:href="#TimesNewRomanPSMT-30" x="100"/>
       <use xlink:href="#TimesNewRomanPSMT-38" x="150"/>
       <use xlink:href="#TimesNewRomanPSMT-2d" x="200"/>
       <use xlink:href="#TimesNewRomanPSMT-30" x="233.300781"/>
       <use xlink:href="#TimesNewRomanPSMT-37" x="283.300781"/>
      </g>
     </g>
    </g>
    <g id="xtick_6">
     <g id="line2d_11">
      <path d="M 998.130186 321.03875 
L 998.130186 25.69875 
" clip-path="url(#p70a6b689e3)" style="fill: none; stroke: #b0b0b0; stroke-width: 0.8; stroke-linecap: square"/>
     </g>
     <g id="line2d_12">
      <g>
       <use xlink:href="#ma380696708" x="998.130186" y="321.03875" style="stroke: #000000; stroke-width: 0.8"/>
      </g>
     </g>
     <g id="text_6">
      <!-- 2008-09 -->
      <g transform="translate(973.13292 338.454375) scale(0.15 -0.15)">
       <defs>
        <path id="TimesNewRomanPSMT-39" d="M 338 -88 
L 338 28 
Q 744 34 1094 217 
Q 1444 400 1770 856 
Q 2097 1313 2225 1859 
Q 1734 1544 1338 1544 
Q 891 1544 572 1889 
Q 253 2234 253 2806 
Q 253 3363 572 3797 
Q 956 4325 1575 4325 
Q 2097 4325 2469 3894 
Q 2925 3359 2925 2575 
Q 2925 1869 2578 1258 
Q 2231 647 1613 244 
Q 1109 -88 516 -88 
L 338 -88 
z
M 2275 2091 
Q 2331 2497 2331 2741 
Q 2331 3044 2228 3395 
Q 2125 3747 1936 3934 
Q 1747 4122 1506 4122 
Q 1228 4122 1018 3872 
Q 809 3622 809 3128 
Q 809 2469 1088 2097 
Q 1291 1828 1588 1828 
Q 1731 1828 1928 1897 
Q 2125 1966 2275 2091 
z
" transform="scale(0.015625)"/>
       </defs>
       <use xlink:href="#TimesNewRomanPSMT-32"/>
       <use xlink:href="#TimesNewRomanPSMT-30" x="50"/>
       <use xlink:href="#TimesNewRomanPSMT-30" x="100"/>
       <use xlink:href="#TimesNewRomanPSMT-38" x="150"/>
       <use xlink:href="#TimesNewRomanPSMT-2d" x="200"/>
       <use xlink:href="#TimesNewRomanPSMT-30" x="233.300781"/>
       <use xlink:href="#TimesNewRomanPSMT-39" x="283.300781"/>
      </g>
     </g>
    </g>
   </g>
   <g id="matplotlib.axis_2">
    <g id="ytick_1">
     <g id="line2d_13">
      <path d="M 46.824219 284.877199 
L 1125.904219 284.877199 
" clip-path="url(#p70a6b689e3)" style="fill: none; stroke: #b0b0b0; stroke-width: 0.8; stroke-linecap: square"/>
     </g>
     <g id="line2d_14">
      <defs>
       <path id="m98c1f2716a" d="M 0 0 
L -3.5 0 
" style="stroke: #000000; stroke-width: 0.8"/>
      </defs>
      <g>
       <use xlink:href="#m98c1f2716a" x="46.824219" y="284.877199" style="stroke: #000000; stroke-width: 0.8"/>
      </g>
     </g>
     <g id="text_7">
      <!-- 0 -->
      <g transform="translate(32.324219 290.085012) scale(0.15 -0.15)">
       <use xlink:href="#TimesNewRomanPSMT-30"/>
      </g>
     </g>
    </g>
    <g id="ytick_2">
     <g id="line2d_15">
      <path d="M 46.824219 228.889851 
L 1125.904219 228.889851 
" clip-path="url(#p70a6b689e3)" style="fill: none; stroke: #b0b0b0; stroke-width: 0.8; stroke-linecap: square"/>
     </g>
     <g id="line2d_16">
      <g>
       <use xlink:href="#m98c1f2716a" x="46.824219" y="228.889851" style="stroke: #000000; stroke-width: 0.8"/>
      </g>
     </g>
     <g id="text_8">
      <!-- 10 -->
      <g transform="translate(24.824219 234.097663) scale(0.15 -0.15)">
       <use xlink:href="#TimesNewRomanPSMT-31"/>
       <use xlink:href="#TimesNewRomanPSMT-30" x="50"/>
      </g>
     </g>
    </g>
    <g id="ytick_3">
     <g id="line2d_17">
      <path d="M 46.824219 172.902502 
L 1125.904219 172.902502 
" clip-path="url(#p70a6b689e3)" style="fill: none; stroke: #b0b0b0; stroke-width: 0.8; stroke-linecap: square"/>
     </g>
     <g id="line2d_18">
      <g>
       <use xlink:href="#m98c1f2716a" x="46.824219" y="172.902502" style="stroke: #000000; stroke-width: 0.8"/>
      </g>
     </g>
     <g id="text_9">
      <!-- 20 -->
      <g transform="translate(24.824219 178.110315) scale(0.15 -0.15)">
       <use xlink:href="#TimesNewRomanPSMT-32"/>
       <use xlink:href="#TimesNewRomanPSMT-30" x="50"/>
      </g>
     </g>
    </g>
    <g id="ytick_4">
     <g id="line2d_19">
      <path d="M 46.824219 116.915154 
L 1125.904219 116.915154 
" clip-path="url(#p70a6b689e3)" style="fill: none; stroke: #b0b0b0; stroke-width: 0.8; stroke-linecap: square"/>
     </g>
     <g id="line2d_20">
      <g>
       <use xlink:href="#m98c1f2716a" x="46.824219" y="116.915154" style="stroke: #000000; stroke-width: 0.8"/>
      </g>
     </g>
     <g id="text_10">
      <!-- 30 -->
      <g transform="translate(24.824219 122.122966) scale(0.15 -0.15)">
       <use xlink:href="#TimesNewRomanPSMT-33"/>
       <use xlink:href="#TimesNewRomanPSMT-30" x="50"/>
      </g>
     </g>
    </g>
    <g id="ytick_5">
     <g id="line2d_21">
      <path d="M 46.824219 60.927805 
L 1125.904219 60.927805 
" clip-path="url(#p70a6b689e3)" style="fill: none; stroke: #b0b0b0; stroke-width: 0.8; stroke-linecap: square"/>
     </g>
     <g id="line2d_22">
      <g>
       <use xlink:href="#m98c1f2716a" x="46.824219" y="60.927805" style="stroke: #000000; stroke-width: 0.8"/>
      </g>
     </g>
     <g id="text_11">
      <!-- 40 -->
      <g transform="translate(24.824219 66.135618) scale(0.15 -0.15)">
       <defs>
        <path id="TimesNewRomanPSMT-34" d="M 2978 1563 
L 2978 1119 
L 2409 1119 
L 2409 0 
L 1894 0 
L 1894 1119 
L 100 1119 
L 100 1519 
L 2066 4325 
L 2409 4325 
L 2409 1563 
L 2978 1563 
z
M 1894 1563 
L 1894 3666 
L 406 1563 
L 1894 1563 
z
" transform="scale(0.015625)"/>
       </defs>
       <use xlink:href="#TimesNewRomanPSMT-34"/>
       <use xlink:href="#TimesNewRomanPSMT-30" x="50"/>
      </g>
     </g>
    </g>
    <g id="text_12">
     <!-- Demand (MW) -->
     <g transform="translate(17.615625 219.395312) rotate(-90) scale(0.15 -0.15)">
      <defs>
       <path id="TimesNewRomanPSMT-44" d="M 109 0 
L 109 116 
L 269 116 
Q 538 116 650 288 
Q 719 391 719 750 
L 719 3488 
Q 719 3884 631 3984 
Q 509 4122 269 4122 
L 109 4122 
L 109 4238 
L 1834 4238 
Q 2784 4238 3279 4022 
Q 3775 3806 4076 3303 
Q 4378 2800 4378 2141 
Q 4378 1256 3841 663 
Q 3238 0 2003 0 
L 109 0 
z
M 1319 306 
Q 1716 219 1984 219 
Q 2709 219 3187 728 
Q 3666 1238 3666 2109 
Q 3666 2988 3187 3494 
Q 2709 4000 1959 4000 
Q 1678 4000 1319 3909 
L 1319 306 
z
" transform="scale(0.015625)"/>
       <path id="TimesNewRomanPSMT-65" d="M 681 1784 
Q 678 1147 991 784 
Q 1303 422 1725 422 
Q 2006 422 2214 576 
Q 2422 731 2563 1106 
L 2659 1044 
Q 2594 616 2278 264 
Q 1963 -88 1488 -88 
Q 972 -88 605 314 
Q 238 716 238 1394 
Q 238 2128 614 2539 
Q 991 2950 1559 2950 
Q 2041 2950 2350 2633 
Q 2659 2316 2659 1784 
L 681 1784 
z
M 681 1966 
L 2006 1966 
Q 1991 2241 1941 2353 
Q 1863 2528 1708 2628 
Q 1553 2728 1384 2728 
Q 1125 2728 920 2526 
Q 716 2325 681 1966 
z
" transform="scale(0.015625)"/>
       <path id="TimesNewRomanPSMT-6d" d="M 1050 2338 
Q 1363 2650 1419 2697 
Q 1559 2816 1721 2881 
Q 1884 2947 2044 2947 
Q 2313 2947 2506 2790 
Q 2700 2634 2766 2338 
Q 3088 2713 3309 2830 
Q 3531 2947 3766 2947 
Q 3994 2947 4170 2830 
Q 4347 2713 4450 2447 
Q 4519 2266 4519 1878 
L 4519 647 
Q 4519 378 4559 278 
Q 4591 209 4675 161 
Q 4759 113 4950 113 
L 4950 0 
L 3538 0 
L 3538 113 
L 3597 113 
Q 3781 113 3884 184 
Q 3956 234 3988 344 
Q 4000 397 4000 647 
L 4000 1878 
Q 4000 2228 3916 2372 
Q 3794 2572 3525 2572 
Q 3359 2572 3192 2489 
Q 3025 2406 2788 2181 
L 2781 2147 
L 2788 2013 
L 2788 647 
Q 2788 353 2820 281 
Q 2853 209 2943 161 
Q 3034 113 3253 113 
L 3253 0 
L 1806 0 
L 1806 113 
Q 2044 113 2133 169 
Q 2222 225 2256 338 
Q 2272 391 2272 647 
L 2272 1878 
Q 2272 2228 2169 2381 
Q 2031 2581 1784 2581 
Q 1616 2581 1450 2491 
Q 1191 2353 1050 2181 
L 1050 647 
Q 1050 366 1089 281 
Q 1128 197 1204 155 
Q 1281 113 1516 113 
L 1516 0 
L 100 0 
L 100 113 
Q 297 113 375 155 
Q 453 197 493 289 
Q 534 381 534 647 
L 534 1741 
Q 534 2213 506 2350 
Q 484 2453 437 2492 
Q 391 2531 309 2531 
Q 222 2531 100 2484 
L 53 2597 
L 916 2947 
L 1050 2947 
L 1050 2338 
z
" transform="scale(0.015625)"/>
       <path id="TimesNewRomanPSMT-61" d="M 1822 413 
Q 1381 72 1269 19 
Q 1100 -59 909 -59 
Q 613 -59 420 144 
Q 228 347 228 678 
Q 228 888 322 1041 
Q 450 1253 767 1440 
Q 1084 1628 1822 1897 
L 1822 2009 
Q 1822 2438 1686 2597 
Q 1550 2756 1291 2756 
Q 1094 2756 978 2650 
Q 859 2544 859 2406 
L 866 2225 
Q 866 2081 792 2003 
Q 719 1925 600 1925 
Q 484 1925 411 2006 
Q 338 2088 338 2228 
Q 338 2497 613 2722 
Q 888 2947 1384 2947 
Q 1766 2947 2009 2819 
Q 2194 2722 2281 2516 
Q 2338 2381 2338 1966 
L 2338 994 
Q 2338 584 2353 492 
Q 2369 400 2405 369 
Q 2441 338 2488 338 
Q 2538 338 2575 359 
Q 2641 400 2828 588 
L 2828 413 
Q 2478 -56 2159 -56 
Q 2006 -56 1915 50 
Q 1825 156 1822 413 
z
M 1822 616 
L 1822 1706 
Q 1350 1519 1213 1441 
Q 966 1303 859 1153 
Q 753 1003 753 825 
Q 753 600 887 451 
Q 1022 303 1197 303 
Q 1434 303 1822 616 
z
" transform="scale(0.015625)"/>
       <path id="TimesNewRomanPSMT-6e" d="M 1034 2341 
Q 1538 2947 1994 2947 
Q 2228 2947 2397 2830 
Q 2566 2713 2666 2444 
Q 2734 2256 2734 1869 
L 2734 647 
Q 2734 375 2778 278 
Q 2813 200 2889 156 
Q 2966 113 3172 113 
L 3172 0 
L 1756 0 
L 1756 113 
L 1816 113 
Q 2016 113 2095 173 
Q 2175 234 2206 353 
Q 2219 400 2219 647 
L 2219 1819 
Q 2219 2209 2117 2386 
Q 2016 2563 1775 2563 
Q 1403 2563 1034 2156 
L 1034 647 
Q 1034 356 1069 288 
Q 1113 197 1189 155 
Q 1266 113 1500 113 
L 1500 0 
L 84 0 
L 84 113 
L 147 113 
Q 366 113 442 223 
Q 519 334 519 647 
L 519 1709 
Q 519 2225 495 2337 
Q 472 2450 423 2490 
Q 375 2531 294 2531 
Q 206 2531 84 2484 
L 38 2597 
L 900 2947 
L 1034 2947 
L 1034 2341 
z
" transform="scale(0.015625)"/>
       <path id="TimesNewRomanPSMT-64" d="M 2222 322 
Q 2013 103 1813 7 
Q 1613 -88 1381 -88 
Q 913 -88 563 304 
Q 213 697 213 1313 
Q 213 1928 600 2439 
Q 988 2950 1597 2950 
Q 1975 2950 2222 2709 
L 2222 3238 
Q 2222 3728 2198 3840 
Q 2175 3953 2125 3993 
Q 2075 4034 2000 4034 
Q 1919 4034 1784 3984 
L 1744 4094 
L 2597 4444 
L 2738 4444 
L 2738 1134 
Q 2738 631 2761 520 
Q 2784 409 2836 365 
Q 2888 322 2956 322 
Q 3041 322 3181 375 
L 3216 266 
L 2366 -88 
L 2222 -88 
L 2222 322 
z
M 2222 541 
L 2222 2016 
Q 2203 2228 2109 2403 
Q 2016 2578 1861 2667 
Q 1706 2756 1559 2756 
Q 1284 2756 1069 2509 
Q 784 2184 784 1559 
Q 784 928 1059 592 
Q 1334 256 1672 256 
Q 1956 256 2222 541 
z
" transform="scale(0.015625)"/>
       <path id="TimesNewRomanPSMT-20" transform="scale(0.015625)"/>
       <path id="TimesNewRomanPSMT-28" d="M 1988 -1253 
L 1988 -1369 
Q 1516 -1131 1200 -813 
Q 750 -359 506 256 
Q 263 872 263 1534 
Q 263 2503 741 3301 
Q 1219 4100 1988 4444 
L 1988 4313 
Q 1603 4100 1356 3731 
Q 1109 3363 987 2797 
Q 866 2231 866 1616 
Q 866 947 969 400 
Q 1050 -31 1165 -292 
Q 1281 -553 1476 -793 
Q 1672 -1034 1988 -1253 
z
" transform="scale(0.015625)"/>
       <path id="TimesNewRomanPSMT-4d" d="M 2619 0 
L 981 3566 
L 981 734 
Q 981 344 1066 247 
Q 1181 116 1431 116 
L 1581 116 
L 1581 0 
L 106 0 
L 106 116 
L 256 116 
Q 525 116 638 278 
Q 706 378 706 734 
L 706 3503 
Q 706 3784 644 3909 
Q 600 4000 483 4061 
Q 366 4122 106 4122 
L 106 4238 
L 1306 4238 
L 2844 922 
L 4356 4238 
L 5556 4238 
L 5556 4122 
L 5409 4122 
Q 5138 4122 5025 3959 
Q 4956 3859 4956 3503 
L 4956 734 
Q 4956 344 5044 247 
Q 5159 116 5409 116 
L 5556 116 
L 5556 0 
L 3756 0 
L 3756 116 
L 3906 116 
Q 4178 116 4288 278 
Q 4356 378 4356 734 
L 4356 3566 
L 2722 0 
L 2619 0 
z
" transform="scale(0.015625)"/>
       <path id="TimesNewRomanPSMT-57" d="M 5991 4238 
L 5991 4122 
Q 5825 4122 5722 4062 
Q 5619 4003 5525 3841 
Q 5463 3731 5328 3319 
L 4147 -97 
L 4022 -97 
L 3056 2613 
L 2097 -97 
L 1984 -97 
L 725 3422 
Q 584 3816 547 3888 
Q 484 4006 376 4064 
Q 269 4122 84 4122 
L 84 4238 
L 1653 4238 
L 1653 4122 
L 1578 4122 
Q 1413 4122 1325 4047 
Q 1238 3972 1238 3866 
Q 1238 3756 1375 3363 
L 2209 984 
L 2913 3006 
L 2788 3363 
L 2688 3647 
Q 2622 3803 2541 3922 
Q 2500 3981 2441 4022 
Q 2363 4078 2284 4103 
Q 2225 4122 2097 4122 
L 2097 4238 
L 3747 4238 
L 3747 4122 
L 3634 4122 
Q 3459 4122 3378 4047 
Q 3297 3972 3297 3844 
Q 3297 3684 3438 3288 
L 4250 984 
L 5056 3319 
Q 5194 3706 5194 3856 
Q 5194 3928 5148 3990 
Q 5103 4053 5034 4078 
Q 4916 4122 4725 4122 
L 4725 4238 
L 5991 4238 
z
" transform="scale(0.015625)"/>
       <path id="TimesNewRomanPSMT-29" d="M 144 4313 
L 144 4444 
Q 619 4209 934 3891 
Q 1381 3434 1625 2820 
Q 1869 2206 1869 1541 
Q 1869 572 1392 -226 
Q 916 -1025 144 -1369 
L 144 -1253 
Q 528 -1038 776 -670 
Q 1025 -303 1145 264 
Q 1266 831 1266 1447 
Q 1266 2113 1163 2663 
Q 1084 3094 967 3353 
Q 850 3613 656 3853 
Q 463 4094 144 4313 
z
" transform="scale(0.015625)"/>
      </defs>
      <use xlink:href="#TimesNewRomanPSMT-44"/>
      <use xlink:href="#TimesNewRomanPSMT-65" x="72.216797"/>
      <use xlink:href="#TimesNewRomanPSMT-6d" x="116.601562"/>
      <use xlink:href="#TimesNewRomanPSMT-61" x="194.384766"/>
      <use xlink:href="#TimesNewRomanPSMT-6e" x="238.769531"/>
      <use xlink:href="#TimesNewRomanPSMT-64" x="288.769531"/>
      <use xlink:href="#TimesNewRomanPSMT-20" x="338.769531"/>
      <use xlink:href="#TimesNewRomanPSMT-28" x="363.769531"/>
      <use xlink:href="#TimesNewRomanPSMT-4d" x="397.070312"/>
      <use xlink:href="#TimesNewRomanPSMT-57" x="485.986328"/>
      <use xlink:href="#TimesNewRomanPSMT-29" x="580.371094"/>
     </g>
    </g>
   </g>
   <g id="line2d_23">
    <path d="M 95.87331 195.212727 
L 98.560931 202.25509 
L 101.248552 225.628353 
L 103.936174 230.018058 
L 106.623795 231.568641 
L 109.311417 213.007819 
L 111.999038 219.656244 
L 114.68666 167.604478 
L 117.374281 172.462873 
L 120.061902 169.921322 
L 122.749524 169.842942 
L 125.437145 164.347686 
L 128.124767 207.355728 
L 130.812388 173.269721 
L 133.50001 136.696581 
L 138.875252 156.773673 
L 141.562874 184.901176 
L 144.250495 153.991994 
L 146.938117 148.837768 
L 149.625738 167.346816 
L 152.313359 138.143087 
L 155.000981 131.188703 
L 157.688602 131.950805 
L 160.376224 142.324032 
L 163.063845 141.839697 
L 165.751467 175.51151 
L 168.439088 178.765279 
L 171.126709 133.114858 
L 173.814331 148.735505 
L 176.501952 158.48041 
L 179.189574 131.876885 
L 181.877195 122.011727 
L 184.564817 174.964214 
L 187.252438 197.208721 
L 189.940059 121.784449 
L 192.627681 123.323091 
L 195.315302 129.059532 
L 198.002924 139.08349 
L 200.690545 152.781685 
L 203.378166 134.010289 
L 206.065788 133.024839 
L 208.753409 108.225478 
L 211.441031 106.229484 
L 214.128652 103.772888 
L 216.816274 95.980818 
L 219.503895 83.707285 
L 222.191516 112.956364 
L 224.879138 123.024009 
L 227.566759 79.548184 
L 230.254381 98.998239 
L 232.942002 82.332886 
L 235.629623 83.094006 
L 238.317245 89.582875 
L 241.004866 136.840567 
L 243.692488 153.970604 
L 246.380109 94.243242 
L 249.067731 105.936525 
L 251.755352 72.863026 
L 254.442973 78.293734 
L 257.130595 83.439722 
L 259.818216 116.127672 
L 262.505838 142.834897 
L 265.193459 121.285073 
L 267.881081 119.774397 
L 270.568702 119.367458 
L 273.256323 116.609211 
L 275.943945 131.117428 
L 278.631566 155.420814 
L 281.319188 138.118901 
L 284.006809 92.344599 
L 286.69443 117.246828 
L 289.382052 111.620511 
L 292.069673 112.197133 
L 294.757295 89.733663 
L 297.444916 87.605248 
L 300.132538 121.311527 
L 302.820159 74.309381 
L 305.50778 80.203639 
L 308.195402 54.464858 
L 310.883023 53.808572 
L 313.570645 45.457566 
L 316.258266 81.235799 
L 318.945887 90.6331 
L 321.633509 71.427101 
L 324.32113 96.623877 
L 327.008752 80.436888 
L 329.696373 72.317166 
L 332.383995 81.93993 
L 335.071616 86.670816 
L 337.759237 87.343428 
L 340.446859 100.329784 
L 343.13448 103.727992 
L 345.822102 69.957996 
L 348.509723 63.856641 
L 351.197345 65.249936 
L 353.884966 78.591229 
L 356.572587 99.370939 
L 359.260209 66.503706 
L 361.94783 67.36195 
L 364.635452 65.014344 
L 367.323073 89.416517 
L 370.010694 83.655738 
L 372.698316 96.824852 
L 375.385937 129.05409 
L 378.073559 77.339953 
L 380.76118 88.360926 
L 383.448802 94.345733 
L 386.136423 88.463114 
L 388.824044 104.67497 
L 391.511666 140.626062 
L 394.199287 166.433926 
L 396.886909 130.509968 
L 399.57453 138.005375 
L 402.262152 95.518175 
L 404.949773 83.642435 
L 407.637394 113.315761 
L 410.325016 120.103409 
L 413.012637 158.970641 
L 415.700259 116.144603 
L 418.38788 102.29766 
L 421.075501 100.352912 
L 423.763123 99.744696 
L 426.450744 89.067928 
L 429.138366 126.729386 
L 431.825987 119.096116 
L 434.513609 130.733467 
L 437.20123 121.644016 
L 439.888851 111.494515 
L 442.576473 114.466284 
L 445.264094 70.914725 
L 447.951716 101.903647 
L 450.639337 111.836754 
L 453.326958 73.868203 
L 456.01458 75.106856 
L 458.702201 82.749499 
L 461.389823 78.580345 
L 464.077444 96.819939 
L 466.765066 85.332696 
L 469.452687 82.303333 
L 472.140308 60.806945 
L 474.82793 106.383068 
L 477.515551 82.625694 
L 480.203173 118.820389 
L 482.890794 136.859236 
L 485.578416 181.918221 
L 488.266037 139.793818 
L 490.953658 103.266256 
L 493.64128 110.60702 
L 496.328901 164.591365 
L 499.016523 135.928205 
L 501.704144 137.174265 
L 504.391765 175.547412 
L 507.079387 171.854279 
L 509.767008 151.723146 
L 512.45463 117.199136 
L 515.142251 111.007912 
L 517.829873 72.967179 
L 520.517494 82.542326 
L 523.205115 145.1562 
L 525.892737 129.951713 
L 528.580358 99.164522 
L 531.26798 135.388241 
L 533.955601 141.595791 
L 536.643222 122.400752 
L 539.330844 133.205482 
L 542.018465 159.478332 
L 544.706087 164.889993 
L 547.393708 151.751792 
L 550.08133 122.206731 
L 555.456572 102.87398 
L 558.144194 124.301058 
L 560.831815 131.720882 
L 563.519437 140.028806 
L 566.207058 117.975372 
L 568.89468 89.58809 
L 571.582301 80.671649 
L 574.269922 111.019778 
L 576.957544 130.99453 
L 579.645165 157.658144 
L 582.332787 148.299164 
L 585.020408 132.188967 
L 587.708029 149.229288 
L 590.395651 169.529802 
L 593.083272 146.57542 
L 595.770894 139.01025 
L 598.458515 144.786297 
L 601.146137 167.050758 
L 603.833758 139.525877 
L 606.521379 94.486921 
L 609.209001 118.75176 
L 611.896622 151.748618 
L 614.584244 170.916371 
L 617.271865 185.779147 
L 619.959486 183.399344 
L 622.647108 152.607315 
L 625.334729 162.339599 
L 628.022351 157.67447 
L 630.709972 143.0135 
L 633.397594 144.979865 
L 636.085215 195.201692 
L 638.772836 175.45777 
L 641.460458 176.915689 
L 644.148079 180.374364 
L 646.835701 169.935985 
L 649.523322 166.851068 
L 652.210944 180.098259 
L 654.898565 190.702014 
L 657.586186 183.065418 
L 660.273808 166.385326 
L 662.961429 209.688746 
L 665.649051 168.826276 
L 668.336672 207.457916 
L 671.024293 198.486375 
L 673.711915 198.723176 
L 676.399536 210.795053 
L 679.087158 196.923018 
L 681.774779 200.88651 
L 684.462401 177.020145 
L 687.150022 188.251162 
L 689.837643 201.873774 
L 692.525265 232.372314 
L 695.212886 234.653407 
L 697.900508 228.975845 
L 700.588129 225.183623 
L 703.275751 236.618865 
L 705.963372 238.203008 
L 708.650993 248.587572 
L 714.026236 257.944737 
L 716.713858 236.360749 
L 719.401479 236.777514 
L 722.0891 223.337283 
L 724.776722 222.749777 
L 727.464343 225.441058 
L 730.151965 232.796108 
L 732.839586 253.26162 
L 735.527208 243.31982 
L 738.214829 250.873426 
L 740.90245 257.61051 
L 743.590072 257.765455 
L 746.277693 257.264642 
L 748.965315 261.011439 
L 751.652936 262.311314 
L 754.340557 258.133014 
L 757.028179 259.216193 
L 759.7158 257.670674 
L 762.403422 256.921874 
L 765.091043 254.618333 
L 767.778665 258.980375 
L 770.466286 260.558697 
L 773.153907 254.641083 
L 775.841529 255.119448 
L 778.52915 256.445701 
L 781.216772 253.469019 
L 783.904393 249.216346 
L 786.592015 250.484552 
L 789.279636 248.47261 
L 791.967257 246.944928 
L 794.654879 252.049194 
L 797.3425 252.105503 
L 800.030122 253.405076 
L 802.717743 256.798144 
L 805.405364 260.545924 
L 808.092986 262.970019 
L 810.780607 262.145636 
L 813.468229 262.061134 
L 816.15585 259.38565 
L 818.843472 263.927277 
L 821.531093 260.602384 
L 824.218714 263.114231 
L 826.906336 264.837749 
L 829.593957 259.860689 
L 832.281579 263.033509 
L 834.9692 263.188454 
L 837.656821 261.802112 
L 840.344443 262.43013 
L 843.032064 262.800109 
L 845.719686 265.245594 
L 848.407307 261.922591 
L 851.094929 252.384177 
L 853.78255 253.534096 
L 856.470171 258.241174 
L 859.157793 260.246237 
L 861.845414 267.027159 
L 864.533036 264.836161 
L 867.220657 258.647583 
L 869.908279 257.086493 
L 872.5959 260.693386 
L 875.283521 261.942394 
L 877.971143 256.673055 
L 880.658764 259.4991 
L 883.346386 265.305834 
L 886.034007 255.7 
L 888.721628 251.950483 
L 891.40925 250.105579 
L 894.096871 251.326621 
L 896.784493 254.246767 
L 899.472114 261.771576 
L 902.159736 263.302584 
L 904.847357 259.261921 
L 907.534978 262.473288 
L 910.2226 263.10176 
L 912.910221 261.244461 
L 915.597843 262.716665 
L 918.285464 265.443621 
L 920.973085 265.439993 
L 923.660707 261.347632 
L 926.348328 261.660696 
L 929.03595 255.908307 
L 931.723571 260.093938 
L 934.411193 260.884611 
L 937.098814 260.857401 
L 939.786435 260.36785 
L 942.474057 260.028558 
L 945.161678 260.638891 
L 947.8493 260.259464 
L 950.536921 260.192649 
L 953.224543 263.439011 
L 955.912164 256.173376 
L 958.599785 251.422763 
L 961.287407 249.43856 
L 963.975028 254.849768 
L 966.66265 259.915184 
L 969.350271 254.163248 
L 974.725514 262.400577 
L 977.413135 259.728268 
L 980.100757 251.384367 
L 982.788378 258.855663 
L 985.476 253.914203 
L 988.163621 256.927996 
L 990.851242 254.842134 
L 993.538864 257.90226 
L 996.226485 258.133846 
L 998.914107 255.267288 
L 1001.601728 259.171448 
L 1004.28935 257.470757 
L 1006.976971 260.050855 
L 1009.664592 259.641272 
L 1012.352214 262.751811 
L 1015.039835 265.601741 
L 1017.727457 252.948706 
L 1020.415078 247.723735 
L 1023.102699 253.197525 
L 1025.790321 258.221144 
L 1028.477942 261.18339 
L 1031.165564 258.577895 
L 1033.853185 241.656013 
L 1036.540807 222.546006 
L 1039.228428 199.272362 
L 1041.916049 178.793018 
L 1044.603671 152.019356 
L 1047.291292 147.484456 
L 1049.978914 201.876571 
L 1052.666535 195.324363 
L 1055.354156 176.265298 
L 1058.041778 168.40475 
L 1060.729399 157.685958 
L 1063.417021 178.194175 
L 1066.104642 155.807118 
L 1068.792264 190.523638 
L 1071.479885 175.050001 
L 1074.167506 139.395496 
L 1076.855128 162.567103 
L 1076.855128 162.567103 
" clip-path="url(#p70a6b689e3)" style="fill: none; stroke: #808080; stroke-width: 1.5; stroke-linecap: square"/>
   </g>
   <g id="line2d_24">
    <path d="M 95.87331 187.037702 
L 98.560931 190.883024 
L 101.248552 229.70582 
L 103.936174 230.26855 
L 106.623795 234.437951 
L 109.311417 191.585972 
L 111.999038 192.882294 
L 114.68666 141.370216 
L 117.374281 147.205521 
L 120.061902 142.159523 
L 122.749524 151.906081 
L 125.437145 143.103907 
L 128.124767 195.392292 
L 130.812388 118.477506 
L 133.50001 126.637091 
L 136.187631 126.716022 
L 138.875252 142.583892 
L 141.562874 187.387783 
L 146.938117 110.575143 
L 149.625738 133.335063 
L 152.313359 137.961335 
L 155.000981 133.348992 
L 157.688602 133.738074 
L 160.376224 152.414952 
L 163.063845 126.974172 
L 165.751467 163.228467 
L 168.439088 169.673861 
L 171.126709 138.941005 
L 173.814331 159.958876 
L 176.501952 173.448609 
L 179.189574 105.798439 
L 181.877195 108.352081 
L 184.564817 166.506416 
L 187.252438 190.725162 
L 189.940059 121.473161 
L 192.627681 113.985881 
L 195.315302 141.489076 
L 198.002924 172.85895 
L 200.690545 171.447482 
L 203.378166 121.842743 
L 206.065788 109.582473 
L 208.753409 123.137208 
L 211.441031 127.841482 
L 214.128652 114.007239 
L 216.816274 103.018219 
L 219.503895 90.009499 
L 222.191516 78.519036 
L 224.879138 103.974674 
L 227.566759 92.49814 
L 230.254381 105.440929 
L 232.942002 86.608976 
L 235.629623 97.661141 
L 238.317245 105.264495 
L 241.004866 133.221774 
L 243.692488 145.825625 
L 246.380109 116.530238 
L 249.067731 117.695627 
L 251.755352 75.498309 
L 254.442973 68.897839 
L 257.130595 94.430551 
L 259.818216 108.210006 
L 262.505838 134.716816 
L 265.193459 145.26011 
L 267.881081 143.039834 
L 270.568702 145.357612 
L 273.256323 134.676886 
L 275.943945 153.348192 
L 278.631566 150.71469 
L 281.319188 105.597862 
L 284.006809 106.75768 
L 286.69443 143.06212 
L 289.382052 134.28409 
L 292.069673 130.606844 
L 294.757295 110.967011 
L 297.444916 73.130386 
L 300.132538 91.519398 
L 302.820159 85.291296 
L 305.50778 77.738086 
L 308.195402 48.213334 
L 310.883023 55.351462 
L 313.570645 39.123295 
L 316.258266 55.214958 
L 318.945887 50.922053 
L 321.633509 62.144151 
L 324.32113 82.506433 
L 327.008752 75.174228 
L 329.696373 78.233028 
L 332.383995 82.08485 
L 335.071616 64.886299 
L 337.759237 57.681313 
L 340.446859 108.244364 
L 343.13448 113.912522 
L 348.509723 62.11815 
L 351.197345 79.339916 
L 353.884966 58.974849 
L 359.260209 104.311755 
L 361.94783 100.537007 
L 364.635452 75.001509 
L 367.323073 115.549639 
L 370.010694 97.262772 
L 372.698316 83.85197 
L 375.385937 122.882772 
L 378.073559 131.030285 
L 380.76118 117.374333 
L 383.448802 114.618256 
L 386.136423 116.173656 
L 388.824044 119.446033 
L 391.511666 149.659804 
L 394.199287 192.217418 
L 396.886909 172.098429 
L 399.57453 166.906641 
L 402.262152 122.187253 
L 404.949773 111.701532 
L 407.637394 140.501977 
L 410.325016 112.322763 
L 413.012637 173.417037 
L 415.700259 166.534274 
L 418.38788 120.34863 
L 421.075501 122.283827 
L 423.763123 130.184333 
L 426.450744 105.99623 
L 429.138366 131.797306 
L 431.825987 90.597301 
L 434.513609 132.057313 
L 437.20123 147.288166 
L 439.888851 126.179292 
L 442.576473 152.520812 
L 445.264094 96.420535 
L 447.951716 86.998058 
L 450.639337 88.431812 
L 453.326958 83.55389 
L 456.01458 86.602475 
L 458.702201 93.869678 
L 461.389823 90.658588 
L 464.077444 107.642633 
L 466.765066 87.789223 
L 469.452687 41.513505 
L 472.140308 89.983498 
L 474.82793 145.345541 
L 477.515551 90.847094 
L 480.203173 133.129843 
L 482.890794 181.330543 
L 485.578416 208.453942 
L 488.266037 117.050252 
L 490.953658 119.308601 
L 493.64128 122.859557 
L 496.328901 204.908557 
L 499.016523 159.38686 
L 501.704144 158.608696 
L 504.391765 195.786946 
L 507.079387 181.246041 
L 509.767008 196.656113 
L 512.45463 135.03161 
L 515.142251 133.074127 
L 517.829873 70.292592 
L 520.517494 79.910075 
L 523.205115 131.10643 
L 525.892737 106.208879 
L 528.580358 110.154489 
L 531.26798 174.60007 
L 533.955601 155.611184 
L 536.643222 157.410805 
L 539.330844 157.729314 
L 542.018465 165.391171 
L 544.706087 149.118431 
L 547.393708 177.899376 
L 550.08133 139.052437 
L 552.768951 124.236667 
L 555.456572 113.040569 
L 558.144194 133.022126 
L 560.831815 132.201246 
L 563.519437 105.573718 
L 566.207058 115.430779 
L 568.89468 104.703623 
L 571.582301 98.546094 
L 574.269922 127.761622 
L 576.957544 160.140881 
L 579.645165 152.371308 
L 582.332787 128.617789 
L 585.020408 140.392403 
L 587.708029 180.826315 
L 590.395651 201.713254 
L 593.083272 161.887573 
L 595.770894 153.51534 
L 598.458515 134.698244 
L 601.146137 126.618519 
L 603.833758 148.542701 
L 606.521379 92.39878 
L 609.209001 142.088021 
L 611.896622 167.60959 
L 614.584244 184.549061 
L 617.271865 176.678271 
L 619.959486 154.164429 
L 622.647108 136.411506 
L 625.334729 159.788014 
L 628.022351 165.089376 
L 630.709972 139.391375 
L 633.397594 145.58419 
L 636.085215 196.305103 
L 638.772836 148.469342 
L 641.460458 180.793814 
L 644.148079 202.02062 
L 646.835701 185.097863 
L 649.523322 167.257651 
L 652.210944 185.993959 
L 654.898565 180.308158 
L 657.586186 155.646471 
L 660.273808 164.517361 
L 662.961429 223.774869 
L 665.649051 165.773753 
L 668.336672 206.889255 
L 671.024293 167.309653 
L 673.711915 176.921563 
L 676.399536 185.799882 
L 679.087158 198.692527 
L 681.774779 204.08582 
L 684.462401 173.424466 
L 687.150022 178.021951 
L 689.837643 188.587531 
L 692.525265 213.430295 
L 695.212886 210.173704 
L 697.900508 204.328184 
L 700.588129 213.713517 
L 703.275751 212.290906 
L 705.963372 206.863255 
L 708.650993 238.994578 
L 711.338615 227.669406 
L 714.026236 249.332652 
L 716.713858 221.537878 
L 719.401479 206.933828 
L 722.0891 201.255456 
L 727.464343 218.518079 
L 730.151965 206.911542 
L 732.839586 247.122591 
L 735.527208 235.586626 
L 738.214829 243.714639 
L 740.90245 271.273549 
L 743.590072 256.811575 
L 746.277693 263.131608 
L 748.965315 249.213792 
L 751.652936 279.573352 
L 754.340557 264.187423 
L 757.028179 286.456115 
L 759.7158 274.325849 
L 762.403422 262.969104 
L 765.091043 244.080506 
L 767.778665 242.812042 
L 770.466286 250.056029 
L 773.153907 248.277766 
L 775.841529 252.210375 
L 778.52915 267.411513 
L 781.216772 240.935347 
L 783.904393 222.551906 
L 786.592015 182.965803 
L 789.279636 202.978932 
L 791.967257 234.248518 
L 794.654879 243.106407 
L 797.3425 250.952126 
L 800.030122 230.214691 
L 802.717743 252.170446 
L 805.405364 262.138938 
L 808.092986 272.913452 
L 810.780607 307.614205 
L 813.468229 279.2372 
L 816.15585 272.984025 
L 818.843472 293.857036 
L 821.531093 278.022594 
L 824.218714 273.0806 
L 826.906336 263.744482 
L 829.593957 280.522378 
L 832.281579 262.52152 
L 834.9692 270.989398 
L 837.656821 277.318718 
L 840.344443 276.879491 
L 843.032064 234.492739 
L 845.719686 240.882417 
L 848.407307 276.973279 
L 851.094929 227.390827 
L 853.78255 242.854757 
L 856.470171 259.355003 
L 859.157793 259.082924 
L 861.845414 271.964426 
L 864.533036 254.199431 
L 867.220657 244.230939 
L 869.908279 246.992587 
L 872.5959 259.821159 
L 875.283521 267.664091 
L 877.971143 244.24301 
L 880.658764 234.878107 
L 883.346386 272.415724 
L 886.034007 232.812906 
L 888.721628 224.129593 
L 891.40925 225.775067 
L 894.096871 239.824744 
L 896.784493 250.57883 
L 899.472114 265.085377 
L 902.159736 273.93398 
L 904.847357 257.083654 
L 907.534978 267.597232 
L 910.2226 283.685181 
L 912.910221 277.464507 
L 915.597843 264.378714 
L 918.285464 284.925787 
L 920.973085 280.127724 
L 923.660707 272.00807 
L 926.348328 257.481093 
L 929.03595 245.088034 
L 931.723571 256.768859 
L 934.411193 276.826561 
L 937.098814 254.516082 
L 939.786435 227.652691 
L 942.474057 251.268778 
L 945.161678 271.273549 
L 947.8493 258.972421 
L 950.536921 266.495916 
L 953.224543 274.918294 
L 955.912164 225.982144 
L 958.599785 192.942652 
L 963.975028 232.596543 
L 966.66265 278.294673 
L 969.350271 230.794136 
L 972.037892 255.804047 
L 974.725514 263.159466 
L 980.100757 202.335414 
L 982.788378 236.137285 
L 985.476 240.195255 
L 988.163621 243.970003 
L 990.851242 257.383591 
L 993.538864 264.529147 
L 996.226485 219.070595 
L 998.914107 232.057028 
L 1001.601728 250.478541 
L 1004.28935 251.890938 
L 1006.976971 266.273981 
L 1009.664592 258.431049 
L 1012.352214 257.66217 
L 1015.039835 273.746404 
L 1020.415078 211.028014 
L 1023.102699 227.828196 
L 1025.790321 258.384619 
L 1028.477942 273.651687 
L 1031.165564 242.095165 
L 1033.853185 184.107978 
L 1036.540807 187.289352 
L 1039.228428 189.723206 
L 1041.916049 172.50794 
L 1044.603671 140.931918 
L 1047.291292 143.736282 
L 1049.978914 205.604077 
L 1052.666535 185.418229 
L 1055.354156 190.013857 
L 1058.041778 195.902092 
L 1060.729399 181.566407 
L 1063.417021 199.712127 
L 1066.104642 198.205013 
L 1068.792264 191.188532 
L 1071.479885 157.763672 
L 1074.167506 155.695686 
L 1076.855128 187.896655 
L 1076.855128 187.896655 
" clip-path="url(#p70a6b689e3)" style="fill: none; stroke: #0000ff; stroke-width: 1.5; stroke-linecap: square"/>
   </g>
   <g id="patch_3">
    <path d="M 46.824219 321.03875 
L 46.824219 25.69875 
" style="fill: none; stroke: #000000; stroke-width: 0.8; stroke-linejoin: miter; stroke-linecap: square"/>
   </g>
   <g id="patch_4">
    <path d="M 1125.904219 321.03875 
L 1125.904219 25.69875 
" style="fill: none; stroke: #000000; stroke-width: 0.8; stroke-linejoin: miter; stroke-linecap: square"/>
   </g>
   <g id="patch_5">
    <path d="M 46.824219 321.03875 
L 1125.904219 321.03875 
" style="fill: none; stroke: #000000; stroke-width: 0.8; stroke-linejoin: miter; stroke-linecap: square"/>
   </g>
   <g id="patch_6">
    <path d="M 46.824219 25.69875 
L 1125.904219 25.69875 
" style="fill: none; stroke: #000000; stroke-width: 0.8; stroke-linejoin: miter; stroke-linecap: square"/>
   </g>
   <g id="text_13">
    <!-- Demand at 7 AM for Each Day -->
    <g transform="translate(473.895156 19.69875) scale(0.18 -0.18)">
     <defs>
      <path id="TimesNewRomanPSMT-74" d="M 1031 3803 
L 1031 2863 
L 1700 2863 
L 1700 2644 
L 1031 2644 
L 1031 788 
Q 1031 509 1111 412 
Q 1191 316 1316 316 
Q 1419 316 1516 380 
Q 1613 444 1666 569 
L 1788 569 
Q 1678 263 1478 108 
Q 1278 -47 1066 -47 
Q 922 -47 784 33 
Q 647 113 581 261 
Q 516 409 516 719 
L 516 2644 
L 63 2644 
L 63 2747 
Q 234 2816 414 2980 
Q 594 3144 734 3369 
Q 806 3488 934 3803 
L 1031 3803 
z
" transform="scale(0.015625)"/>
      <path id="TimesNewRomanPSMT-41" d="M 2928 1419 
L 1288 1419 
L 1000 750 
Q 894 503 894 381 
Q 894 284 986 211 
Q 1078 138 1384 116 
L 1384 0 
L 50 0 
L 50 116 
Q 316 163 394 238 
Q 553 388 747 847 
L 2238 4334 
L 2347 4334 
L 3822 809 
Q 4000 384 4145 257 
Q 4291 131 4550 116 
L 4550 0 
L 2878 0 
L 2878 116 
Q 3131 128 3220 200 
Q 3309 272 3309 375 
Q 3309 513 3184 809 
L 2928 1419 
z
M 2841 1650 
L 2122 3363 
L 1384 1650 
L 2841 1650 
z
" transform="scale(0.015625)"/>
      <path id="TimesNewRomanPSMT-66" d="M 1319 2638 
L 1319 756 
Q 1319 356 1406 250 
Q 1522 113 1716 113 
L 1975 113 
L 1975 0 
L 266 0 
L 266 113 
L 394 113 
Q 519 113 622 175 
Q 725 238 764 344 
Q 803 450 803 756 
L 803 2638 
L 247 2638 
L 247 2863 
L 803 2863 
L 803 3050 
Q 803 3478 940 3775 
Q 1078 4072 1361 4255 
Q 1644 4438 1997 4438 
Q 2325 4438 2600 4225 
Q 2781 4084 2781 3909 
Q 2781 3816 2700 3733 
Q 2619 3650 2525 3650 
Q 2453 3650 2373 3701 
Q 2294 3753 2178 3923 
Q 2063 4094 1966 4153 
Q 1869 4213 1750 4213 
Q 1606 4213 1506 4136 
Q 1406 4059 1362 3898 
Q 1319 3738 1319 3069 
L 1319 2863 
L 2056 2863 
L 2056 2638 
L 1319 2638 
z
" transform="scale(0.015625)"/>
      <path id="TimesNewRomanPSMT-6f" d="M 1600 2947 
Q 2250 2947 2644 2453 
Q 2978 2031 2978 1484 
Q 2978 1100 2793 706 
Q 2609 313 2286 112 
Q 1963 -88 1566 -88 
Q 919 -88 538 428 
Q 216 863 216 1403 
Q 216 1797 411 2186 
Q 606 2575 925 2761 
Q 1244 2947 1600 2947 
z
M 1503 2744 
Q 1338 2744 1170 2645 
Q 1003 2547 900 2300 
Q 797 2053 797 1666 
Q 797 1041 1045 587 
Q 1294 134 1700 134 
Q 2003 134 2200 384 
Q 2397 634 2397 1244 
Q 2397 2006 2069 2444 
Q 1847 2744 1503 2744 
z
" transform="scale(0.015625)"/>
      <path id="TimesNewRomanPSMT-72" d="M 1038 2947 
L 1038 2303 
Q 1397 2947 1775 2947 
Q 1947 2947 2059 2842 
Q 2172 2738 2172 2600 
Q 2172 2478 2090 2393 
Q 2009 2309 1897 2309 
Q 1788 2309 1652 2417 
Q 1516 2525 1450 2525 
Q 1394 2525 1328 2463 
Q 1188 2334 1038 2041 
L 1038 669 
Q 1038 431 1097 309 
Q 1138 225 1241 169 
Q 1344 113 1538 113 
L 1538 0 
L 72 0 
L 72 113 
Q 291 113 397 181 
Q 475 231 506 341 
Q 522 394 522 644 
L 522 1753 
Q 522 2253 501 2348 
Q 481 2444 426 2487 
Q 372 2531 291 2531 
Q 194 2531 72 2484 
L 41 2597 
L 906 2947 
L 1038 2947 
z
" transform="scale(0.015625)"/>
      <path id="TimesNewRomanPSMT-45" d="M 1338 4006 
L 1338 2331 
L 2269 2331 
Q 2631 2331 2753 2441 
Q 2916 2584 2934 2947 
L 3050 2947 
L 3050 1472 
L 2934 1472 
Q 2891 1781 2847 1869 
Q 2791 1978 2662 2040 
Q 2534 2103 2269 2103 
L 1338 2103 
L 1338 706 
Q 1338 425 1363 364 
Q 1388 303 1450 267 
Q 1513 231 1688 231 
L 2406 231 
Q 2766 231 2928 281 
Q 3091 331 3241 478 
Q 3434 672 3638 1063 
L 3763 1063 
L 3397 0 
L 131 0 
L 131 116 
L 281 116 
Q 431 116 566 188 
Q 666 238 702 338 
Q 738 438 738 747 
L 738 3500 
Q 738 3903 656 3997 
Q 544 4122 281 4122 
L 131 4122 
L 131 4238 
L 3397 4238 
L 3444 3309 
L 3322 3309 
Q 3256 3644 3176 3769 
Q 3097 3894 2941 3959 
Q 2816 4006 2500 4006 
L 1338 4006 
z
" transform="scale(0.015625)"/>
      <path id="TimesNewRomanPSMT-63" d="M 2631 1088 
Q 2516 522 2178 217 
Q 1841 -88 1431 -88 
Q 944 -88 581 321 
Q 219 731 219 1428 
Q 219 2103 620 2525 
Q 1022 2947 1584 2947 
Q 2006 2947 2278 2723 
Q 2550 2500 2550 2259 
Q 2550 2141 2473 2067 
Q 2397 1994 2259 1994 
Q 2075 1994 1981 2113 
Q 1928 2178 1911 2362 
Q 1894 2547 1784 2644 
Q 1675 2738 1481 2738 
Q 1169 2738 978 2506 
Q 725 2200 725 1697 
Q 725 1184 976 792 
Q 1228 400 1656 400 
Q 1963 400 2206 609 
Q 2378 753 2541 1131 
L 2631 1088 
z
" transform="scale(0.015625)"/>
      <path id="TimesNewRomanPSMT-68" d="M 1041 4444 
L 1041 2350 
Q 1388 2731 1591 2839 
Q 1794 2947 1997 2947 
Q 2241 2947 2416 2812 
Q 2591 2678 2675 2391 
Q 2734 2191 2734 1659 
L 2734 647 
Q 2734 375 2778 275 
Q 2809 200 2884 156 
Q 2959 113 3159 113 
L 3159 0 
L 1753 0 
L 1753 113 
L 1819 113 
Q 2019 113 2097 173 
Q 2175 234 2206 353 
Q 2216 403 2216 647 
L 2216 1659 
Q 2216 2128 2167 2275 
Q 2119 2422 2012 2495 
Q 1906 2569 1756 2569 
Q 1603 2569 1437 2487 
Q 1272 2406 1041 2159 
L 1041 647 
Q 1041 353 1073 281 
Q 1106 209 1195 161 
Q 1284 113 1503 113 
L 1503 0 
L 84 0 
L 84 113 
Q 275 113 384 172 
Q 447 203 484 290 
Q 522 378 522 647 
L 522 3238 
Q 522 3728 498 3840 
Q 475 3953 426 3993 
Q 378 4034 297 4034 
Q 231 4034 84 3984 
L 41 4094 
L 897 4444 
L 1041 4444 
z
" transform="scale(0.015625)"/>
      <path id="TimesNewRomanPSMT-79" d="M 38 2863 
L 1372 2863 
L 1372 2747 
L 1306 2747 
Q 1166 2747 1095 2686 
Q 1025 2625 1025 2534 
Q 1025 2413 1128 2197 
L 1825 753 
L 2466 2334 
Q 2519 2463 2519 2588 
Q 2519 2644 2497 2672 
Q 2472 2706 2419 2726 
Q 2366 2747 2231 2747 
L 2231 2863 
L 3163 2863 
L 3163 2747 
Q 3047 2734 2984 2696 
Q 2922 2659 2847 2556 
Q 2819 2513 2741 2316 
L 1575 -541 
Q 1406 -956 1132 -1168 
Q 859 -1381 606 -1381 
Q 422 -1381 303 -1275 
Q 184 -1169 184 -1031 
Q 184 -900 270 -820 
Q 356 -741 506 -741 
Q 609 -741 788 -809 
Q 913 -856 944 -856 
Q 1038 -856 1148 -759 
Q 1259 -663 1372 -384 
L 1575 113 
L 547 2272 
Q 500 2369 397 2513 
Q 319 2622 269 2659 
Q 197 2709 38 2747 
L 38 2863 
z
" transform="scale(0.015625)"/>
     </defs>
     <use xlink:href="#TimesNewRomanPSMT-44"/>
     <use xlink:href="#TimesNewRomanPSMT-65" x="72.216797"/>
     <use xlink:href="#TimesNewRomanPSMT-6d" x="116.601562"/>
     <use xlink:href="#TimesNewRomanPSMT-61" x="194.384766"/>
     <use xlink:href="#TimesNewRomanPSMT-6e" x="238.769531"/>
     <use xlink:href="#TimesNewRomanPSMT-64" x="288.769531"/>
     <use xlink:href="#TimesNewRomanPSMT-20" x="338.769531"/>
     <use xlink:href="#TimesNewRomanPSMT-61" x="363.769531"/>
     <use xlink:href="#TimesNewRomanPSMT-74" x="408.154297"/>
     <use xlink:href="#TimesNewRomanPSMT-20" x="435.9375"/>
     <use xlink:href="#TimesNewRomanPSMT-37" x="460.9375"/>
     <use xlink:href="#TimesNewRomanPSMT-20" x="510.9375"/>
     <use xlink:href="#TimesNewRomanPSMT-41" x="530.4375"/>
     <use xlink:href="#TimesNewRomanPSMT-4d" x="602.654297"/>
     <use xlink:href="#TimesNewRomanPSMT-20" x="691.570312"/>
     <use xlink:href="#TimesNewRomanPSMT-66" x="716.570312"/>
     <use xlink:href="#TimesNewRomanPSMT-6f" x="749.871094"/>
     <use xlink:href="#TimesNewRomanPSMT-72" x="799.871094"/>
     <use xlink:href="#TimesNewRomanPSMT-20" x="833.171875"/>
     <use xlink:href="#TimesNewRomanPSMT-45" x="858.171875"/>
     <use xlink:href="#TimesNewRomanPSMT-61" x="919.255859"/>
     <use xlink:href="#TimesNewRomanPSMT-63" x="963.640625"/>
     <use xlink:href="#TimesNewRomanPSMT-68" x="1008.025391"/>
     <use xlink:href="#TimesNewRomanPSMT-20" x="1058.025391"/>
     <use xlink:href="#TimesNewRomanPSMT-44" x="1083.025391"/>
     <use xlink:href="#TimesNewRomanPSMT-61" x="1155.242188"/>
     <use xlink:href="#TimesNewRomanPSMT-79" x="1199.626953"/>
    </g>
   </g>
   <g id="legend_1">
    <g id="patch_7">
     <path d="M 1010.758125 80.115937 
L 1115.404219 80.115937 
Q 1118.404219 80.115937 1118.404219 77.115937 
L 1118.404219 36.19875 
Q 1118.404219 33.19875 1115.404219 33.19875 
L 1010.758125 33.19875 
Q 1007.758125 33.19875 1007.758125 36.19875 
L 1007.758125 77.115937 
Q 1007.758125 80.115937 1010.758125 80.115937 
z
" style="fill: #ffffff; opacity: 0.8; stroke: #cccccc; stroke-linejoin: miter"/>
    </g>
    <g id="line2d_25">
     <path d="M 1013.758125 44.44875 
L 1028.758125 44.44875 
L 1043.758125 44.44875 
" style="fill: none; stroke: #808080; stroke-width: 1.5; stroke-linecap: square"/>
    </g>
    <g id="text_14">
     <!-- Actual -->
     <g transform="translate(1055.758125 49.69875) scale(0.15 -0.15)">
      <defs>
       <path id="TimesNewRomanPSMT-75" d="M 2709 2863 
L 2709 1128 
Q 2709 631 2732 520 
Q 2756 409 2807 365 
Q 2859 322 2928 322 
Q 3025 322 3147 375 
L 3191 266 
L 2334 -88 
L 2194 -88 
L 2194 519 
Q 1825 119 1631 15 
Q 1438 -88 1222 -88 
Q 981 -88 804 51 
Q 628 191 559 409 
Q 491 628 491 1028 
L 491 2306 
Q 491 2509 447 2587 
Q 403 2666 317 2708 
Q 231 2750 6 2747 
L 6 2863 
L 1009 2863 
L 1009 947 
Q 1009 547 1148 422 
Q 1288 297 1484 297 
Q 1619 297 1789 381 
Q 1959 466 2194 703 
L 2194 2325 
Q 2194 2569 2105 2655 
Q 2016 2741 1734 2747 
L 1734 2863 
L 2709 2863 
z
" transform="scale(0.015625)"/>
       <path id="TimesNewRomanPSMT-6c" d="M 1184 4444 
L 1184 647 
Q 1184 378 1223 290 
Q 1263 203 1344 158 
Q 1425 113 1647 113 
L 1647 0 
L 244 0 
L 244 113 
Q 441 113 512 153 
Q 584 194 625 287 
Q 666 381 666 647 
L 666 3247 
Q 666 3731 644 3842 
Q 622 3953 573 3993 
Q 525 4034 450 4034 
Q 369 4034 244 3984 
L 191 4094 
L 1044 4444 
L 1184 4444 
z
" transform="scale(0.015625)"/>
      </defs>
      <use xlink:href="#TimesNewRomanPSMT-41"/>
      <use xlink:href="#TimesNewRomanPSMT-63" x="72.216797"/>
      <use xlink:href="#TimesNewRomanPSMT-74" x="116.601562"/>
      <use xlink:href="#TimesNewRomanPSMT-75" x="144.384766"/>
      <use xlink:href="#TimesNewRomanPSMT-61" x="194.384766"/>
      <use xlink:href="#TimesNewRomanPSMT-6c" x="238.769531"/>
     </g>
    </g>
    <g id="line2d_26">
     <path d="M 1013.758125 65.657344 
L 1028.758125 65.657344 
L 1043.758125 65.657344 
" style="fill: none; stroke: #0000ff; stroke-width: 1.5; stroke-linecap: square"/>
    </g>
    <g id="text_15">
     <!-- Predicted -->
     <g transform="translate(1055.758125 70.907344) scale(0.15 -0.15)">
      <defs>
       <path id="TimesNewRomanPSMT-50" d="M 1313 1984 
L 1313 750 
Q 1313 350 1400 253 
Q 1519 116 1759 116 
L 1922 116 
L 1922 0 
L 106 0 
L 106 116 
L 266 116 
Q 534 116 650 291 
Q 713 388 713 750 
L 713 3488 
Q 713 3888 628 3984 
Q 506 4122 266 4122 
L 106 4122 
L 106 4238 
L 1659 4238 
Q 2228 4238 2556 4120 
Q 2884 4003 3109 3725 
Q 3334 3447 3334 3066 
Q 3334 2547 2992 2222 
Q 2650 1897 2025 1897 
Q 1872 1897 1694 1919 
Q 1516 1941 1313 1984 
z
M 1313 2163 
Q 1478 2131 1606 2115 
Q 1734 2100 1825 2100 
Q 2150 2100 2386 2351 
Q 2622 2603 2622 3003 
Q 2622 3278 2509 3514 
Q 2397 3750 2190 3867 
Q 1984 3984 1722 3984 
Q 1563 3984 1313 3925 
L 1313 2163 
z
" transform="scale(0.015625)"/>
       <path id="TimesNewRomanPSMT-69" d="M 928 4444 
Q 1059 4444 1151 4351 
Q 1244 4259 1244 4128 
Q 1244 3997 1151 3903 
Q 1059 3809 928 3809 
Q 797 3809 703 3903 
Q 609 3997 609 4128 
Q 609 4259 701 4351 
Q 794 4444 928 4444 
z
M 1188 2947 
L 1188 647 
Q 1188 378 1227 289 
Q 1266 200 1342 156 
Q 1419 113 1622 113 
L 1622 0 
L 231 0 
L 231 113 
Q 441 113 512 153 
Q 584 194 626 287 
Q 669 381 669 647 
L 669 1750 
Q 669 2216 641 2353 
Q 619 2453 572 2492 
Q 525 2531 444 2531 
Q 356 2531 231 2484 
L 188 2597 
L 1050 2947 
L 1188 2947 
z
" transform="scale(0.015625)"/>
      </defs>
      <use xlink:href="#TimesNewRomanPSMT-50"/>
      <use xlink:href="#TimesNewRomanPSMT-72" x="55.615234"/>
      <use xlink:href="#TimesNewRomanPSMT-65" x="88.916016"/>
      <use xlink:href="#TimesNewRomanPSMT-64" x="133.300781"/>
      <use xlink:href="#TimesNewRomanPSMT-69" x="183.300781"/>
      <use xlink:href="#TimesNewRomanPSMT-63" x="211.083984"/>
      <use xlink:href="#TimesNewRomanPSMT-74" x="255.46875"/>
      <use xlink:href="#TimesNewRomanPSMT-65" x="283.251953"/>
      <use xlink:href="#TimesNewRomanPSMT-64" x="327.636719"/>
     </g>
    </g>
   </g>
  </g>
  <g id="axes_2">
   <g id="patch_8">
    <path d="M 46.824219 672.93875 
L 1125.904219 672.93875 
L 1125.904219 377.59875 
L 46.824219 377.59875 
z
" style="fill: #ffffff"/>
   </g>
   <g id="matplotlib.axis_3">
    <g id="xtick_7">
     <g id="line2d_27">
      <path d="M 176.613905 672.93875 
L 176.613905 377.59875 
" clip-path="url(#p77e705a26e)" style="fill: none; stroke: #b0b0b0; stroke-width: 0.8; stroke-linecap: square"/>
     </g>
     <g id="line2d_28">
      <g>
       <use xlink:href="#ma380696708" x="176.613905" y="672.93875" style="stroke: #000000; stroke-width: 0.8"/>
      </g>
     </g>
     <g id="text_16">
      <!-- 2007-11 -->
      <g transform="translate(151.89789 690.354375) scale(0.15 -0.15)">
       <use xlink:href="#TimesNewRomanPSMT-32"/>
       <use xlink:href="#TimesNewRomanPSMT-30" x="50"/>
       <use xlink:href="#TimesNewRomanPSMT-30" x="100"/>
       <use xlink:href="#TimesNewRomanPSMT-37" x="150"/>
       <use xlink:href="#TimesNewRomanPSMT-2d" x="200"/>
       <use xlink:href="#TimesNewRomanPSMT-31" x="233.300781"/>
       <use xlink:href="#TimesNewRomanPSMT-31" x="279.550781"/>
      </g>
     </g>
    </g>
    <g id="xtick_8">
     <g id="line2d_29">
      <path d="M 340.558812 672.93875 
L 340.558812 377.59875 
" clip-path="url(#p77e705a26e)" style="fill: none; stroke: #b0b0b0; stroke-width: 0.8; stroke-linecap: square"/>
     </g>
     <g id="line2d_30">
      <g>
       <use xlink:href="#ma380696708" x="340.558812" y="672.93875" style="stroke: #000000; stroke-width: 0.8"/>
      </g>
     </g>
     <g id="text_17">
      <!-- 2008-01 -->
      <g transform="translate(315.561546 690.354375) scale(0.15 -0.15)">
       <use xlink:href="#TimesNewRomanPSMT-32"/>
       <use xlink:href="#TimesNewRomanPSMT-30" x="50"/>
       <use xlink:href="#TimesNewRomanPSMT-30" x="100"/>
       <use xlink:href="#TimesNewRomanPSMT-38" x="150"/>
       <use xlink:href="#TimesNewRomanPSMT-2d" x="200"/>
       <use xlink:href="#TimesNewRomanPSMT-30" x="233.300781"/>
       <use xlink:href="#TimesNewRomanPSMT-31" x="283.300781"/>
      </g>
     </g>
    </g>
    <g id="xtick_9">
     <g id="line2d_31">
      <path d="M 501.816097 672.93875 
L 501.816097 377.59875 
" clip-path="url(#p77e705a26e)" style="fill: none; stroke: #b0b0b0; stroke-width: 0.8; stroke-linecap: square"/>
     </g>
     <g id="line2d_32">
      <g>
       <use xlink:href="#ma380696708" x="501.816097" y="672.93875" style="stroke: #000000; stroke-width: 0.8"/>
      </g>
     </g>
     <g id="text_18">
      <!-- 2008-03 -->
      <g transform="translate(476.818832 690.354375) scale(0.15 -0.15)">
       <use xlink:href="#TimesNewRomanPSMT-32"/>
       <use xlink:href="#TimesNewRomanPSMT-30" x="50"/>
       <use xlink:href="#TimesNewRomanPSMT-30" x="100"/>
       <use xlink:href="#TimesNewRomanPSMT-38" x="150"/>
       <use xlink:href="#TimesNewRomanPSMT-2d" x="200"/>
       <use xlink:href="#TimesNewRomanPSMT-30" x="233.300781"/>
       <use xlink:href="#TimesNewRomanPSMT-33" x="283.300781"/>
      </g>
     </g>
    </g>
    <g id="xtick_10">
     <g id="line2d_33">
      <path d="M 665.761004 672.93875 
L 665.761004 377.59875 
" clip-path="url(#p77e705a26e)" style="fill: none; stroke: #b0b0b0; stroke-width: 0.8; stroke-linecap: square"/>
     </g>
     <g id="line2d_34">
      <g>
       <use xlink:href="#ma380696708" x="665.761004" y="672.93875" style="stroke: #000000; stroke-width: 0.8"/>
      </g>
     </g>
     <g id="text_19">
      <!-- 2008-05 -->
      <g transform="translate(640.763738 690.354375) scale(0.15 -0.15)">
       <use xlink:href="#TimesNewRomanPSMT-32"/>
       <use xlink:href="#TimesNewRomanPSMT-30" x="50"/>
       <use xlink:href="#TimesNewRomanPSMT-30" x="100"/>
       <use xlink:href="#TimesNewRomanPSMT-38" x="150"/>
       <use xlink:href="#TimesNewRomanPSMT-2d" x="200"/>
       <use xlink:href="#TimesNewRomanPSMT-30" x="233.300781"/>
       <use xlink:href="#TimesNewRomanPSMT-35" x="283.300781"/>
      </g>
     </g>
    </g>
    <g id="xtick_11">
     <g id="line2d_35">
      <path d="M 829.70591 672.93875 
L 829.70591 377.59875 
" clip-path="url(#p77e705a26e)" style="fill: none; stroke: #b0b0b0; stroke-width: 0.8; stroke-linecap: square"/>
     </g>
     <g id="line2d_36">
      <g>
       <use xlink:href="#ma380696708" x="829.70591" y="672.93875" style="stroke: #000000; stroke-width: 0.8"/>
      </g>
     </g>
     <g id="text_20">
      <!-- 2008-07 -->
      <g transform="translate(804.708645 690.354375) scale(0.15 -0.15)">
       <use xlink:href="#TimesNewRomanPSMT-32"/>
       <use xlink:href="#TimesNewRomanPSMT-30" x="50"/>
       <use xlink:href="#TimesNewRomanPSMT-30" x="100"/>
       <use xlink:href="#TimesNewRomanPSMT-38" x="150"/>
       <use xlink:href="#TimesNewRomanPSMT-2d" x="200"/>
       <use xlink:href="#TimesNewRomanPSMT-30" x="233.300781"/>
       <use xlink:href="#TimesNewRomanPSMT-37" x="283.300781"/>
      </g>
     </g>
    </g>
    <g id="xtick_12">
     <g id="line2d_37">
      <path d="M 996.338438 672.93875 
L 996.338438 377.59875 
" clip-path="url(#p77e705a26e)" style="fill: none; stroke: #b0b0b0; stroke-width: 0.8; stroke-linecap: square"/>
     </g>
     <g id="line2d_38">
      <g>
       <use xlink:href="#ma380696708" x="996.338438" y="672.93875" style="stroke: #000000; stroke-width: 0.8"/>
      </g>
     </g>
     <g id="text_21">
      <!-- 2008-09 -->
      <g transform="translate(971.341173 690.354375) scale(0.15 -0.15)">
       <use xlink:href="#TimesNewRomanPSMT-32"/>
       <use xlink:href="#TimesNewRomanPSMT-30" x="50"/>
       <use xlink:href="#TimesNewRomanPSMT-30" x="100"/>
       <use xlink:href="#TimesNewRomanPSMT-38" x="150"/>
       <use xlink:href="#TimesNewRomanPSMT-2d" x="200"/>
       <use xlink:href="#TimesNewRomanPSMT-30" x="233.300781"/>
       <use xlink:href="#TimesNewRomanPSMT-39" x="283.300781"/>
      </g>
     </g>
    </g>
   </g>
   <g id="matplotlib.axis_4">
    <g id="ytick_6">
     <g id="line2d_39">
      <path d="M 46.824219 640.475721 
L 1125.904219 640.475721 
" clip-path="url(#p77e705a26e)" style="fill: none; stroke: #b0b0b0; stroke-width: 0.8; stroke-linecap: square"/>
     </g>
     <g id="line2d_40">
      <g>
       <use xlink:href="#m98c1f2716a" x="46.824219" y="640.475721" style="stroke: #000000; stroke-width: 0.8"/>
      </g>
     </g>
     <g id="text_22">
      <!-- 0 -->
      <g transform="translate(32.324219 645.683533) scale(0.15 -0.15)">
       <use xlink:href="#TimesNewRomanPSMT-30"/>
      </g>
     </g>
    </g>
    <g id="ytick_7">
     <g id="line2d_41">
      <path d="M 46.824219 598.605175 
L 1125.904219 598.605175 
" clip-path="url(#p77e705a26e)" style="fill: none; stroke: #b0b0b0; stroke-width: 0.8; stroke-linecap: square"/>
     </g>
     <g id="line2d_42">
      <g>
       <use xlink:href="#m98c1f2716a" x="46.824219" y="598.605175" style="stroke: #000000; stroke-width: 0.8"/>
      </g>
     </g>
     <g id="text_23">
      <!-- 5 -->
      <g transform="translate(32.324219 603.812988) scale(0.15 -0.15)">
       <use xlink:href="#TimesNewRomanPSMT-35"/>
      </g>
     </g>
    </g>
    <g id="ytick_8">
     <g id="line2d_43">
      <path d="M 46.824219 556.73463 
L 1125.904219 556.73463 
" clip-path="url(#p77e705a26e)" style="fill: none; stroke: #b0b0b0; stroke-width: 0.8; stroke-linecap: square"/>
     </g>
     <g id="line2d_44">
      <g>
       <use xlink:href="#m98c1f2716a" x="46.824219" y="556.73463" style="stroke: #000000; stroke-width: 0.8"/>
      </g>
     </g>
     <g id="text_24">
      <!-- 10 -->
      <g transform="translate(24.824219 561.942442) scale(0.15 -0.15)">
       <use xlink:href="#TimesNewRomanPSMT-31"/>
       <use xlink:href="#TimesNewRomanPSMT-30" x="50"/>
      </g>
     </g>
    </g>
    <g id="ytick_9">
     <g id="line2d_45">
      <path d="M 46.824219 514.864084 
L 1125.904219 514.864084 
" clip-path="url(#p77e705a26e)" style="fill: none; stroke: #b0b0b0; stroke-width: 0.8; stroke-linecap: square"/>
     </g>
     <g id="line2d_46">
      <g>
       <use xlink:href="#m98c1f2716a" x="46.824219" y="514.864084" style="stroke: #000000; stroke-width: 0.8"/>
      </g>
     </g>
     <g id="text_25">
      <!-- 15 -->
      <g transform="translate(24.824219 520.071897) scale(0.15 -0.15)">
       <use xlink:href="#TimesNewRomanPSMT-31"/>
       <use xlink:href="#TimesNewRomanPSMT-35" x="50"/>
      </g>
     </g>
    </g>
    <g id="ytick_10">
     <g id="line2d_47">
      <path d="M 46.824219 472.993539 
L 1125.904219 472.993539 
" clip-path="url(#p77e705a26e)" style="fill: none; stroke: #b0b0b0; stroke-width: 0.8; stroke-linecap: square"/>
     </g>
     <g id="line2d_48">
      <g>
       <use xlink:href="#m98c1f2716a" x="46.824219" y="472.993539" style="stroke: #000000; stroke-width: 0.8"/>
      </g>
     </g>
     <g id="text_26">
      <!-- 20 -->
      <g transform="translate(24.824219 478.201351) scale(0.15 -0.15)">
       <use xlink:href="#TimesNewRomanPSMT-32"/>
       <use xlink:href="#TimesNewRomanPSMT-30" x="50"/>
      </g>
     </g>
    </g>
    <g id="ytick_11">
     <g id="line2d_49">
      <path d="M 46.824219 431.122993 
L 1125.904219 431.122993 
" clip-path="url(#p77e705a26e)" style="fill: none; stroke: #b0b0b0; stroke-width: 0.8; stroke-linecap: square"/>
     </g>
     <g id="line2d_50">
      <g>
       <use xlink:href="#m98c1f2716a" x="46.824219" y="431.122993" style="stroke: #000000; stroke-width: 0.8"/>
      </g>
     </g>
     <g id="text_27">
      <!-- 25 -->
      <g transform="translate(24.824219 436.330806) scale(0.15 -0.15)">
       <use xlink:href="#TimesNewRomanPSMT-32"/>
       <use xlink:href="#TimesNewRomanPSMT-35" x="50"/>
      </g>
     </g>
    </g>
    <g id="ytick_12">
     <g id="line2d_51">
      <path d="M 46.824219 389.252448 
L 1125.904219 389.252448 
" clip-path="url(#p77e705a26e)" style="fill: none; stroke: #b0b0b0; stroke-width: 0.8; stroke-linecap: square"/>
     </g>
     <g id="line2d_52">
      <g>
       <use xlink:href="#m98c1f2716a" x="46.824219" y="389.252448" style="stroke: #000000; stroke-width: 0.8"/>
      </g>
     </g>
     <g id="text_28">
      <!-- 30 -->
      <g transform="translate(24.824219 394.46026) scale(0.15 -0.15)">
       <use xlink:href="#TimesNewRomanPSMT-33"/>
       <use xlink:href="#TimesNewRomanPSMT-30" x="50"/>
      </g>
     </g>
    </g>
    <g id="text_29">
     <!-- Demand (MW) -->
     <g transform="translate(17.615625 571.295312) rotate(-90) scale(0.15 -0.15)">
      <use xlink:href="#TimesNewRomanPSMT-44"/>
      <use xlink:href="#TimesNewRomanPSMT-65" x="72.216797"/>
      <use xlink:href="#TimesNewRomanPSMT-6d" x="116.601562"/>
      <use xlink:href="#TimesNewRomanPSMT-61" x="194.384766"/>
      <use xlink:href="#TimesNewRomanPSMT-6e" x="238.769531"/>
      <use xlink:href="#TimesNewRomanPSMT-64" x="288.769531"/>
      <use xlink:href="#TimesNewRomanPSMT-20" x="338.769531"/>
      <use xlink:href="#TimesNewRomanPSMT-28" x="363.769531"/>
      <use xlink:href="#TimesNewRomanPSMT-4d" x="397.070312"/>
      <use xlink:href="#TimesNewRomanPSMT-57" x="485.986328"/>
      <use xlink:href="#TimesNewRomanPSMT-29" x="580.371094"/>
     </g>
    </g>
   </g>
   <g id="line2d_53">
    <path d="M 95.87331 576.601412 
L 98.560931 587.261959 
L 101.248552 583.170436 
L 103.936174 585.218798 
L 106.623795 580.329139 
L 109.311417 576.942372 
L 111.999038 555.727547 
L 114.68666 550.370085 
L 117.374281 546.252561 
L 120.061902 546.64428 
L 122.749524 541.109442 
L 125.437145 548.325567 
L 128.124767 539.744245 
L 130.812388 514.500979 
L 133.50001 526.63446 
L 136.187631 537.010345 
L 138.875252 537.07501 
L 141.562874 520.261013 
L 144.250495 501.882963 
L 146.938117 499.686393 
L 149.625738 495.530431 
L 152.313359 491.953627 
L 155.000981 489.027994 
L 157.688602 511.861928 
L 160.376224 516.207589 
L 163.063845 506.734298 
L 165.751467 527.656662 
L 168.439088 536.087966 
L 171.126709 543.088956 
L 173.814331 539.242414 
L 176.501952 506.630179 
L 179.189574 499.612684 
L 181.877195 530.174635 
L 184.564817 543.680662 
L 187.252438 499.390992 
L 189.940059 487.171253 
L 192.627681 497.343082 
L 195.315302 503.523665 
L 198.002924 523.727141 
L 200.690545 488.682399 
L 203.378166 482.692306 
L 206.065788 474.598345 
L 208.753409 473.844524 
L 211.441031 472.082293 
L 214.128652 462.033124 
L 216.816274 447.572951 
L 219.503895 448.668975 
L 222.191516 458.245368 
L 224.879138 455.780641 
L 227.566759 450.364506 
L 230.254381 452.923856 
L 232.942002 446.111773 
L 235.629623 467.833065 
L 238.317245 481.251817 
L 241.004866 492.769512 
L 243.692488 488.934388 
L 246.380109 457.618842 
L 249.067731 459.414649 
L 251.755352 432.686012 
L 254.442973 444.796544 
L 257.130595 479.412147 
L 259.818216 493.272135 
L 262.505838 494.413266 
L 265.193459 496.060525 
L 267.881081 486.996816 
L 270.568702 489.971513 
L 273.256323 508.494381 
L 275.943945 516.702297 
L 278.631566 466.219496 
L 281.319188 485.452434 
L 284.006809 491.938591 
L 286.69443 486.027747 
L 289.382052 480.829348 
L 292.069673 467.284205 
L 294.757295 454.951755 
L 297.444916 444.371701 
L 300.132538 438.998751 
L 302.820159 416.969057 
L 305.50778 404.088878 
L 308.195402 404.066268 
L 310.883023 398.024172 
L 313.570645 396.659879 
L 316.258266 391.023295 
L 318.945887 398.0556 
L 321.633509 434.645177 
L 324.32113 433.121144 
L 327.008752 418.209108 
L 329.696373 410.345317 
L 332.383995 412.961192 
L 335.071616 408.412493 
L 337.759237 432.043773 
L 340.446859 452.162574 
L 343.13448 420.992524 
L 345.822102 407.565745 
L 348.509723 428.374719 
L 351.197345 407.176964 
L 353.884966 426.235013 
L 356.572587 432.749773 
L 359.260209 439.839733 
L 361.94783 425.287763 
L 364.635452 445.314315 
L 367.323073 442.616027 
L 370.010694 419.05416 
L 372.698316 458.522793 
L 375.385937 462.071561 
L 378.073559 461.634169 
L 380.76118 448.919043 
L 383.448802 459.12897 
L 386.136423 451.007311 
L 391.511666 520.262935 
L 394.199287 516.16056 
L 396.886909 490.802773 
L 399.57453 456.422768 
L 402.262152 463.86115 
L 404.949773 460.878991 
L 407.637394 456.932512 
L 410.325016 492.8569 
L 413.012637 488.004887 
L 415.700259 492.891381 
L 418.38788 478.089004 
L 421.075501 478.3064 
L 423.763123 472.137914 
L 426.450744 471.565087 
L 429.138366 464.040335 
L 431.825987 460.892784 
L 434.513609 512.817431 
L 437.20123 500.115758 
L 439.888851 513.475159 
L 442.576473 459.2531 
L 445.264094 453.277478 
L 447.951716 455.613666 
L 450.639337 442.846084 
L 453.326958 454.300019 
L 456.01458 443.73794 
L 458.702201 432.074635 
L 461.389823 449.257516 
L 464.077444 446.009915 
L 466.765066 406.368314 
L 469.452687 439.877718 
L 472.140308 476.913957 
L 474.82793 469.523396 
L 477.515551 490.690627 
L 480.203173 501.31025 
L 482.890794 535.085322 
L 485.578416 495.514039 
L 488.266037 505.881445 
L 490.953658 507.888204 
L 493.64128 514.182515 
L 496.328901 500.186189 
L 499.016523 515.310985 
L 501.704144 535.38841 
L 504.391765 517.876892 
L 507.079387 542.053414 
L 509.767008 504.927186 
L 512.45463 490.938773 
L 515.142251 449.467564 
L 517.829873 449.780487 
L 520.517494 470.529658 
L 523.205115 481.21598 
L 525.892737 477.781959 
L 528.580358 512.573016 
L 531.26798 497.290966 
L 533.955601 516.362129 
L 536.643222 499.894179 
L 539.330844 518.945219 
L 542.018465 517.983385 
L 544.706087 533.452308 
L 547.393708 497.68619 
L 550.08133 486.386796 
L 552.768951 467.922601 
L 555.456572 473.950565 
L 558.144194 493.521976 
L 560.831815 467.607982 
L 563.519437 471.327794 
L 566.207058 460.034504 
L 568.89468 460.912002 
L 571.582301 485.510542 
L 574.269922 512.090969 
L 576.957544 501.881833 
L 579.645165 504.429425 
L 582.332787 544.126194 
L 585.020408 545.963604 
L 587.708029 538.009485 
L 590.395651 528.396351 
L 593.083272 512.341828 
L 595.770894 521.82224 
L 598.458515 505.857479 
L 601.146137 515.815643 
L 603.833758 464.6724 
L 606.521379 517.913633 
L 609.209001 553.174754 
L 611.896622 575.646475 
L 614.584244 572.245464 
L 617.271865 545.566118 
L 619.959486 543.819149 
L 622.647108 532.839913 
L 625.334729 536.980387 
L 628.022351 507.878369 
L 630.709972 533.449255 
L 633.397594 563.680648 
L 636.085215 540.454315 
L 638.772836 571.256273 
L 641.460458 561.385045 
L 644.148079 542.396748 
L 646.835701 534.935869 
L 649.523322 566.758334 
L 652.210944 550.119791 
L 654.898565 547.720295 
L 657.586186 567.364623 
L 660.273808 584.975061 
L 662.961429 561.423821 
L 665.649051 579.860883 
L 668.336672 553.260559 
L 671.024293 546.903505 
L 673.711915 577.437873 
L 676.399536 567.949207 
L 679.087158 563.231159 
L 681.774779 569.487711 
L 684.462401 563.230368 
L 687.150022 580.355366 
L 689.837643 596.254446 
L 692.525265 594.267697 
L 695.212886 595.707847 
L 697.900508 597.484774 
L 700.588129 601.308593 
L 703.275751 599.391483 
L 705.963372 606.227419 
L 708.650993 604.551333 
L 711.338615 605.461502 
L 714.026236 591.271068 
L 716.713858 589.533708 
L 719.401479 577.272367 
L 722.0891 582.236978 
L 724.776722 578.064285 
L 727.464343 593.703123 
L 730.151965 602.544913 
L 732.839586 599.517874 
L 735.527208 603.166012 
L 738.214829 603.519521 
L 740.90245 607.546153 
L 743.590072 607.071228 
L 746.277693 607.618166 
L 748.965315 610.553295 
L 751.652936 607.778924 
L 754.340557 608.564964 
L 757.028179 608.038036 
L 759.7158 603.853924 
L 762.403422 606.162076 
L 765.091043 606.813699 
L 767.778665 606.716362 
L 770.466286 605.830047 
L 773.153907 607.201688 
L 775.841529 607.439999 
L 778.52915 606.865702 
L 781.216772 605.595241 
L 783.904393 590.359203 
L 786.592015 600.599541 
L 789.279636 603.825888 
L 791.967257 603.695767 
L 794.654879 600.823493 
L 797.3425 602.344022 
L 800.030122 606.870111 
L 802.717743 612.348198 
L 805.405364 610.78211 
L 808.092986 608.586783 
L 810.780607 607.251883 
L 813.468229 606.469686 
L 816.15585 609.491752 
L 818.843472 607.727034 
L 821.531093 611.550514 
L 824.218714 610.340987 
L 826.906336 610.990462 
L 829.593957 608.666257 
L 832.281579 611.241773 
L 834.9692 611.146019 
L 837.656821 608.852677 
L 840.344443 607.097795 
L 843.032064 612.151716 
L 845.719686 611.495119 
L 848.407307 604.488929 
L 851.094929 608.309244 
L 853.78255 607.326157 
L 856.470171 608.798752 
L 859.157793 614.002352 
L 861.845414 611.965861 
L 864.533036 607.900566 
L 867.220657 605.291587 
L 869.908279 609.113824 
L 872.5959 610.372415 
L 875.283521 606.481896 
L 877.971143 609.945197 
L 880.658764 611.094581 
L 883.346386 609.265425 
L 886.034007 604.769859 
L 888.721628 601.288696 
L 891.40925 606.643558 
L 894.096871 601.58975 
L 896.784493 607.174556 
L 899.472114 608.687397 
L 902.159736 609.202116 
L 904.847357 610.99114 
L 907.534978 611.858689 
L 910.2226 616.360811 
L 912.910221 610.910309 
L 915.597843 614.29097 
L 918.285464 611.854054 
L 920.973085 609.927448 
L 923.660707 610.281296 
L 926.348328 614.289161 
L 929.03595 612.236391 
L 931.723571 610.905561 
L 934.411193 610.494283 
L 937.098814 611.114252 
L 939.786435 610.651876 
L 942.474057 610.960051 
L 945.161678 611.443229 
L 947.8493 609.532676 
L 950.536921 608.724365 
L 953.224543 606.093228 
L 955.912164 597.280266 
L 958.599785 604.017622 
L 961.287407 607.279354 
L 963.975028 609.754368 
L 966.66265 610.773631 
L 969.350271 607.067384 
L 972.037892 608.73827 
L 974.725514 605.268977 
L 977.413135 604.73617 
L 980.100757 612.35939 
L 982.788378 610.799406 
L 985.476 608.387248 
L 988.163621 610.648597 
L 990.851242 607.654455 
L 993.538864 611.891361 
L 996.226485 609.702365 
L 998.914107 604.212408 
L 1001.601728 605.074417 
L 1004.28935 609.276843 
L 1006.976971 608.741323 
L 1009.664592 610.139305 
L 1012.352214 614.734693 
L 1015.039835 606.155745 
L 1017.727457 604.372826 
L 1020.415078 606.051513 
L 1023.102699 607.381551 
L 1025.790321 610.370041 
L 1028.477942 607.898418 
L 1031.165564 597.45979 
L 1033.853185 578.627503 
L 1036.540807 568.111887 
L 1039.228428 553.345913 
L 1041.916049 544.68602 
L 1044.603671 531.332272 
L 1047.291292 554.99091 
L 1049.978914 547.05341 
L 1052.666535 550.396087 
L 1055.354156 548.692529 
L 1058.041778 554.349801 
L 1060.729399 551.476962 
L 1063.417021 557.674276 
L 1066.104642 548.311549 
L 1068.792264 541.826069 
L 1071.479885 533.702375 
L 1074.167506 542.231129 
L 1076.855128 562.942767 
L 1076.855128 562.942767 
" clip-path="url(#p77e705a26e)" style="fill: none; stroke: #808080; stroke-width: 1.5; stroke-linecap: square"/>
   </g>
   <g id="line2d_54">
    <path d="M 95.87331 555.110068 
L 98.560931 577.377435 
L 101.248552 571.370495 
L 103.936174 578.965254 
L 106.623795 572.958314 
L 109.311417 554.94798 
L 111.999038 516.707267 
L 114.68666 519.957901 
L 117.374281 518.234606 
L 120.061902 523.052092 
L 122.749524 511.738983 
L 125.437145 540.487457 
L 128.124767 506.257016 
L 130.812388 490.726388 
L 133.50001 498.495331 
L 136.187631 516.770167 
L 138.875252 518.945052 
L 141.562874 504.824027 
L 144.250495 474.171622 
L 146.938117 486.372587 
L 149.625738 483.197756 
L 152.313359 480.48419 
L 155.000981 483.917072 
L 157.688602 498.39453 
L 160.376224 507.573881 
L 163.063845 503.971653 
L 165.751467 519.183749 
L 168.439088 523.070639 
L 171.126709 522.723884 
L 173.814331 523.104509 
L 176.501952 481.813958 
L 179.189574 473.230543 
L 181.877195 512.841344 
L 184.564817 533.071722 
L 187.252438 492.290015 
L 189.940059 461.789214 
L 192.627681 488.143461 
L 195.315302 496.518823 
L 198.002924 516.611305 
L 200.690545 479.693909 
L 203.378166 476.718261 
L 206.065788 481.159961 
L 208.753409 470.864539 
L 211.441031 474.136946 
L 214.128652 467.194573 
L 216.816274 448.883448 
L 219.503895 456.154836 
L 222.191516 458.92485 
L 224.879138 462.247255 
L 227.566759 449.031021 
L 230.254381 450.039032 
L 232.942002 459.254671 
L 235.629623 471.345159 
L 238.317245 480.170497 
L 241.004866 493.99557 
L 243.692488 493.894769 
L 246.380109 473.623264 
L 249.067731 465.865611 
L 251.755352 435.863171 
L 254.442973 448.754422 
L 257.130595 480.325327 
L 259.818216 494.012504 
L 262.505838 499.402541 
L 265.193459 500.504902 
L 267.881081 487.732192 
L 270.568702 493.916542 
L 273.256323 498.818701 
L 275.943945 508.458512 
L 278.631566 461.541647 
L 281.319188 480.705952 
L 284.006809 485.228293 
L 286.69443 486.600801 
L 289.382052 475.721539 
L 292.069673 466.381713 
L 294.757295 453.863022 
L 297.444916 446.336809 
L 300.132538 451.984896 
L 302.820159 433.673771 
L 305.50778 423.220294 
L 308.195402 417.089974 
L 310.883023 412.053144 
L 313.570645 415.198139 
L 316.258266 414.233674 
L 318.945887 419.443075 
L 321.633509 439.135578 
L 324.32113 440.352449 
L 327.008752 433.205248 
L 329.696373 432.042406 
L 332.383995 429.636082 
L 335.071616 416.951271 
L 337.759237 445.265898 
L 340.446859 461.490843 
L 343.13448 447.568195 
L 345.822102 441.670927 
L 348.509723 455.058926 
L 351.197345 436.340565 
L 353.884966 432.947197 
L 356.572587 469.957329 
L 359.260209 474.064369 
L 361.94783 457.853133 
L 364.635452 465.665622 
L 367.323073 461.409396 
L 370.010694 452.329233 
L 372.698316 474.280487 
L 375.385937 476.582784 
L 378.073559 472.219306 
L 380.76118 468.355801 
L 383.448802 473.804706 
L 386.136423 471.762879 
L 388.824044 491.973096 
L 391.511666 538.697229 
L 394.199287 529.379982 
L 396.886909 503.120085 
L 399.57453 478.249631 
L 402.262152 456.398371 
L 404.949773 477.727885 
L 407.637394 464.061674 
L 410.325016 493.004493 
L 413.012637 506.95214 
L 415.700259 494.114112 
L 418.38788 472.72815 
L 421.075501 488.828908 
L 423.763123 470.474237 
L 426.450744 472.491066 
L 429.138366 480.837397 
L 431.825987 470.379887 
L 434.513609 519.124075 
L 437.20123 490.522367 
L 439.888851 523.459328 
L 442.576473 472.075765 
L 445.264094 458.374073 
L 447.951716 461.081994 
L 450.639337 457.619274 
L 453.326958 460.756205 
L 456.01458 452.679214 
L 458.702201 442.983761 
L 461.389823 454.219455 
L 464.077444 456.624972 
L 466.765066 427.22492 
L 469.452687 457.368481 
L 472.140308 505.083691 
L 474.82793 475.021577 
L 477.515551 486.931428 
L 480.203173 497.83085 
L 482.890794 546.27586 
L 485.578416 507.161806 
L 488.266037 500.077505 
L 490.953658 506.765053 
L 493.64128 504.454692 
L 496.328901 510.576948 
L 499.016523 508.106917 
L 501.704144 544.646107 
L 504.391765 528.529221 
L 507.079387 553.219846 
L 509.767008 511.486577 
L 515.142251 457.583792 
L 517.829873 451.56637 
L 520.517494 478.159313 
L 523.205115 494.334261 
L 525.892737 485.008143 
L 528.580358 508.77785 
L 531.26798 492.944819 
L 533.955601 525.370517 
L 536.643222 499.713815 
L 539.330844 523.414976 
L 542.018465 511.197076 
L 544.706087 530.349285 
L 547.393708 497.202657 
L 550.08133 487.523332 
L 552.768951 467.192153 
L 555.456572 471.289517 
L 558.144194 492.482747 
L 560.831815 471.071786 
L 563.519437 480.188238 
L 566.207058 467.032484 
L 568.89468 461.925497 
L 571.582301 489.291787 
L 574.269922 523.194826 
L 576.957544 502.444315 
L 579.645165 498.089707 
L 582.332787 553.23678 
L 585.020408 553.289197 
L 587.708029 550.05953 
L 590.395651 509.76812 
L 593.083272 501.337115 
L 595.770894 517.109665 
L 598.458515 500.800047 
L 601.146137 512.685707 
L 603.833758 484.233185 
L 606.521379 530.224292 
L 609.209001 550.6724 
L 611.896622 587.304327 
L 614.584244 560.969435 
L 617.271865 536.522345 
L 619.959486 522.688402 
L 622.647108 539.485091 
L 625.334729 525.534218 
L 628.022351 496.372863 
L 630.709972 531.477451 
L 633.397594 557.420429 
L 636.085215 541.639815 
L 638.772836 570.052017 
L 641.460458 550.898195 
L 644.148079 537.674703 
L 646.835701 535.657875 
L 649.523322 561.400863 
L 652.210944 539.888295 
L 654.898565 536.249779 
L 657.586186 550.085335 
L 660.273808 570.822944 
L 662.961429 533.914419 
L 665.649051 565.843369 
L 668.336672 549.232154 
L 671.024293 546.664549 
L 673.711915 572.685748 
L 676.399536 550.89255 
L 679.087158 558.152649 
L 681.774779 551.099797 
L 684.462401 551.643317 
L 687.150022 561.171843 
L 689.837643 572.343831 
L 692.525265 589.550176 
L 695.212886 589.091329 
L 697.900508 581.850584 
L 700.588129 606.924254 
L 703.275751 581.276421 
L 705.963372 613.756149 
L 708.650993 592.828228 
L 711.338615 594.81038 
L 714.026236 572.903479 
L 716.713858 565.94659 
L 719.401479 542.143821 
L 722.0891 555.510853 
L 724.776722 568.29082 
L 727.464343 573.470384 
L 730.151965 600.796353 
L 732.839586 593.816885 
L 735.527208 602.153539 
L 738.214829 637.703265 
L 740.90245 640.0354 
L 743.590072 624.848302 
L 746.277693 657.510279 
L 748.965315 648.199482 
L 751.652936 629.054531 
L 754.340557 641.999811 
L 757.028179 623.220969 
L 759.7158 597.333634 
L 762.403422 599.53513 
L 765.091043 595.395027 
L 767.778665 599.670606 
L 770.466286 594.050743 
L 773.153907 611.37805 
L 775.841529 618.019633 
L 778.52915 593.299977 
L 781.216772 583.543236 
L 783.904393 555.008461 
L 789.279636 588.140573 
L 791.967257 587.397871 
L 794.654879 590.722694 
L 797.3425 590.194496 
L 800.030122 614.193223 
L 802.717743 619.963884 
L 805.405364 627.43123 
L 808.092986 646.539087 
L 810.780607 653.35808 
L 813.468229 623.675784 
L 816.15585 630.457682 
L 818.843472 619.281662 
L 821.531093 624.925718 
L 824.218714 621.976681 
L 826.906336 638.139532 
L 829.593957 628.976309 
L 832.281579 629.072272 
L 834.9692 648.090617 
L 837.656821 611.192576 
L 840.344443 608.123384 
L 843.032064 621.458966 
L 845.719686 611.243379 
L 848.407307 576.82827 
L 851.094929 599.306916 
L 853.78255 599.138377 
L 856.470171 615.44235 
L 859.157793 659.514205 
L 861.845414 602.155958 
L 864.533036 590.550123 
L 867.220657 585.834244 
L 869.908279 619.337305 
L 872.5959 619.820343 
L 875.283521 589.299383 
L 877.971143 587.895425 
L 880.658764 623.66772 
L 883.346386 600.517336 
L 886.034007 567.935194 
L 888.721628 567.370708 
L 891.40925 590.39126 
L 894.096871 584.942356 
L 896.784493 610.38536 
L 899.472114 625.382145 
L 902.159736 618.755884 
L 904.847357 631.176999 
L 907.534978 634.049427 
L 910.2226 636.667836 
L 912.910221 621.814592 
L 915.597843 643.147331 
L 918.285464 619.556648 
L 920.973085 626.585307 
L 923.660707 636.279147 
L 926.348328 613.133602 
L 929.03595 613.486002 
L 931.723571 643.735203 
L 934.411193 601.343905 
L 937.098814 602.072898 
L 939.786435 604.006667 
L 942.474057 642.502204 
L 945.161678 633.871211 
L 947.8493 615.360903 
L 950.536921 618.89378 
L 953.224543 582.078798 
L 955.912164 561.81697 
L 958.599785 569.768968 
L 963.975028 623.270967 
L 966.66265 595.845809 
L 969.350271 608.726577 
L 972.037892 610.734535 
L 974.725514 579.542642 
L 977.413135 574.262277 
L 980.100757 603.705876 
L 982.788378 602.946239 
L 985.476 609.499117 
L 988.163621 616.856791 
L 990.851242 616.220534 
L 993.538864 590.64286 
L 996.226485 593.304009 
L 998.914107 621.294459 
L 1001.601728 609.803133 
L 1004.28935 619.354239 
L 1006.976971 609.861195 
L 1009.664592 615.728625 
L 1012.352214 632.01647 
L 1015.039835 584.578665 
L 1017.727457 578.552372 
L 1020.415078 587.376098 
L 1023.102699 612.707818 
L 1025.790321 630.923786 
L 1028.477942 602.309982 
L 1031.165564 555.625363 
L 1033.853185 534.764374 
L 1036.540807 529.65658 
L 1039.228428 525.77856 
L 1041.916049 526.305952 
L 1044.603671 524.591526 
L 1047.291292 555.514885 
L 1049.978914 532.942696 
L 1052.666535 541.253545 
L 1058.041778 548.459615 
L 1060.729399 547.214519 
L 1063.417021 553.077111 
L 1066.104642 542.184141 
L 1068.792264 544.502567 
L 1071.479885 525.776947 
L 1076.855128 568.972236 
L 1076.855128 568.972236 
" clip-path="url(#p77e705a26e)" style="fill: none; stroke: #0000ff; stroke-width: 1.5; stroke-linecap: square"/>
   </g>
   <g id="patch_9">
    <path d="M 46.824219 672.93875 
L 46.824219 377.59875 
" style="fill: none; stroke: #000000; stroke-width: 0.8; stroke-linejoin: miter; stroke-linecap: square"/>
   </g>
   <g id="patch_10">
    <path d="M 1125.904219 672.93875 
L 1125.904219 377.59875 
" style="fill: none; stroke: #000000; stroke-width: 0.8; stroke-linejoin: miter; stroke-linecap: square"/>
   </g>
   <g id="patch_11">
    <path d="M 46.824219 672.93875 
L 1125.904219 672.93875 
" style="fill: none; stroke: #000000; stroke-width: 0.8; stroke-linejoin: miter; stroke-linecap: square"/>
   </g>
   <g id="patch_12">
    <path d="M 46.824219 377.59875 
L 1125.904219 377.59875 
" style="fill: none; stroke: #000000; stroke-width: 0.8; stroke-linejoin: miter; stroke-linecap: square"/>
   </g>
   <g id="text_30">
    <!-- Demand at 11 PM for Each Day -->
    <g transform="translate(470.7325 371.59875) scale(0.18 -0.18)">
     <use xlink:href="#TimesNewRomanPSMT-44"/>
     <use xlink:href="#TimesNewRomanPSMT-65" x="72.216797"/>
     <use xlink:href="#TimesNewRomanPSMT-6d" x="116.601562"/>
     <use xlink:href="#TimesNewRomanPSMT-61" x="194.384766"/>
     <use xlink:href="#TimesNewRomanPSMT-6e" x="238.769531"/>
     <use xlink:href="#TimesNewRomanPSMT-64" x="288.769531"/>
     <use xlink:href="#TimesNewRomanPSMT-20" x="338.769531"/>
     <use xlink:href="#TimesNewRomanPSMT-61" x="363.769531"/>
     <use xlink:href="#TimesNewRomanPSMT-74" x="408.154297"/>
     <use xlink:href="#TimesNewRomanPSMT-20" x="435.9375"/>
     <use xlink:href="#TimesNewRomanPSMT-31" x="460.9375"/>
     <use xlink:href="#TimesNewRomanPSMT-31" x="507.1875"/>
     <use xlink:href="#TimesNewRomanPSMT-20" x="557.1875"/>
     <use xlink:href="#TimesNewRomanPSMT-50" x="582.1875"/>
     <use xlink:href="#TimesNewRomanPSMT-4d" x="637.802734"/>
     <use xlink:href="#TimesNewRomanPSMT-20" x="726.71875"/>
     <use xlink:href="#TimesNewRomanPSMT-66" x="751.71875"/>
     <use xlink:href="#TimesNewRomanPSMT-6f" x="785.019531"/>
     <use xlink:href="#TimesNewRomanPSMT-72" x="835.019531"/>
     <use xlink:href="#TimesNewRomanPSMT-20" x="868.320312"/>
     <use xlink:href="#TimesNewRomanPSMT-45" x="893.320312"/>
     <use xlink:href="#TimesNewRomanPSMT-61" x="954.404297"/>
     <use xlink:href="#TimesNewRomanPSMT-63" x="998.789062"/>
     <use xlink:href="#TimesNewRomanPSMT-68" x="1043.173828"/>
     <use xlink:href="#TimesNewRomanPSMT-20" x="1093.173828"/>
     <use xlink:href="#TimesNewRomanPSMT-44" x="1118.173828"/>
     <use xlink:href="#TimesNewRomanPSMT-61" x="1190.390625"/>
     <use xlink:href="#TimesNewRomanPSMT-79" x="1234.775391"/>
    </g>
   </g>
   <g id="legend_2">
    <g id="patch_13">
     <path d="M 1010.758125 432.015937 
L 1115.404219 432.015937 
Q 1118.404219 432.015937 1118.404219 429.015937 
L 1118.404219 388.09875 
Q 1118.404219 385.09875 1115.404219 385.09875 
L 1010.758125 385.09875 
Q 1007.758125 385.09875 1007.758125 388.09875 
L 1007.758125 429.015937 
Q 1007.758125 432.015937 1010.758125 432.015937 
z
" style="fill: #ffffff; opacity: 0.8; stroke: #cccccc; stroke-linejoin: miter"/>
    </g>
    <g id="line2d_55">
     <path d="M 1013.758125 396.34875 
L 1028.758125 396.34875 
L 1043.758125 396.34875 
" style="fill: none; stroke: #808080; stroke-width: 1.5; stroke-linecap: square"/>
    </g>
    <g id="text_31">
     <!-- Actual -->
     <g transform="translate(1055.758125 401.59875) scale(0.15 -0.15)">
      <use xlink:href="#TimesNewRomanPSMT-41"/>
      <use xlink:href="#TimesNewRomanPSMT-63" x="72.216797"/>
      <use xlink:href="#TimesNewRomanPSMT-74" x="116.601562"/>
      <use xlink:href="#TimesNewRomanPSMT-75" x="144.384766"/>
      <use xlink:href="#TimesNewRomanPSMT-61" x="194.384766"/>
      <use xlink:href="#TimesNewRomanPSMT-6c" x="238.769531"/>
     </g>
    </g>
    <g id="line2d_56">
     <path d="M 1013.758125 417.557344 
L 1028.758125 417.557344 
L 1043.758125 417.557344 
" style="fill: none; stroke: #0000ff; stroke-width: 1.5; stroke-linecap: square"/>
    </g>
    <g id="text_32">
     <!-- Predicted -->
     <g transform="translate(1055.758125 422.807344) scale(0.15 -0.15)">
      <use xlink:href="#TimesNewRomanPSMT-50"/>
      <use xlink:href="#TimesNewRomanPSMT-72" x="55.615234"/>
      <use xlink:href="#TimesNewRomanPSMT-65" x="88.916016"/>
      <use xlink:href="#TimesNewRomanPSMT-64" x="133.300781"/>
      <use xlink:href="#TimesNewRomanPSMT-69" x="183.300781"/>
      <use xlink:href="#TimesNewRomanPSMT-63" x="211.083984"/>
      <use xlink:href="#TimesNewRomanPSMT-74" x="255.46875"/>
      <use xlink:href="#TimesNewRomanPSMT-65" x="283.251953"/>
      <use xlink:href="#TimesNewRomanPSMT-64" x="327.636719"/>
     </g>
    </g>
   </g>
  </g>
 </g>
 <defs>
  <clipPath id="p70a6b689e3">
   <rect x="46.824219" y="25.69875" width="1079.08" height="295.34"/>
  </clipPath>
  <clipPath id="p77e705a26e">
   <rect x="46.824219" y="377.59875" width="1079.08" height="295.34"/>
  </clipPath>
 </defs>
</svg>
